<svg width="520" height="182" viewBox="0 0 520 182" fill="none" xmlns="http://www.w3.org/2000/svg">
<path d="M9.92331 39.5693C9.78476 39.9045 9.36615 41.2585 9.20547 41.8498C9.45831 41.2083 10.3908 38.375 9.92331 39.5693ZM33.9187 100.077C33.4316 99.7303 32.9487 99.3794 32.4702 99.0243C33.8785 99.9602 35.8011 101.194 37.1803 101.976C37.4053 102.104 36.8663 101.696 37.3954 102.004C37.9225 102.31 37.7818 102.351 38.5294 102.792C39.3539 103.306 43.3531 105.349 44.7831 106.012C50.1757 108.621 55.4175 110.713 61.0951 112.485C55.3535 110.505 61.2361 112.398 62.7491 112.873C63.1116 112.971 62.9311 113.218 68.7594 114.739C72.4747 115.644 69.1885 114.588 75.2744 116.136C70.5704 115.254 75.1218 116.335 78.8633 117.085C79.4817 117.227 84.8033 118.191 87.1048 118.545C87.8806 118.672 89.0541 118.956 90.0964 119.11C90.8138 119.215 91.3649 119.238 92.4373 119.387C97.472 120.082 102.426 120.601 107.427 120.983C104.508 120.483 109.744 121.057 109.991 121.053C111.199 121.074 105.76 120.638 107.913 120.76C110.888 121.002 114.039 121.211 116.934 121.368C114.503 121.275 120.141 121.753 121.205 121.698C120.724 121.964 134.909 121.884 137.009 121.909C137.461 121.922 134.513 122.049 141.334 121.986C142.075 121.976 141.794 121.908 142.183 121.912C142.414 121.915 143.834 122.128 145.335 121.987C145.876 121.93 142.423 121.85 149.986 121.781C146.933 122.087 160.608 121.65 163.083 121.458C162.59 121.508 162.096 121.557 161.604 121.606C164.046 121.432 164.495 121.487 165.047 121.461C167.275 121.353 170.353 121.132 172.451 121.032C174.906 120.915 174.928 121.056 177.792 120.842C177.121 120.911 176.433 120.98 175.755 121.047C177.759 120.932 179.677 120.815 181.639 120.69C177.105 120.77 182.612 120.625 182.979 120.604C183.559 120.575 182.721 120.55 183.691 120.5C183.792 120.495 183.65 120.577 185.147 120.491C188.277 120.308 187.779 120.247 189.096 120.162C189.217 120.154 188.797 120.248 191.078 120.11C198.342 119.655 191.035 120.065 190.76 120.072C190.396 120.083 192.852 119.654 186.719 120.153C188.776 119.989 188.978 119.854 189.209 119.836C189.413 119.821 192.997 119.594 193.196 119.583C194.964 119.5 193.417 119.69 193.762 119.681C194.056 119.674 198.297 119.263 199.322 119.433C201.351 119.054 198.125 119.318 194.708 119.524C194.205 119.514 197.956 119.2 198.155 119.184C203.012 118.826 200.338 119.211 201.409 119.251C201.972 119.271 203.947 118.993 202.128 119.299C206.552 118.98 203.863 119.087 204.147 119.052C204.576 118.998 206.13 118.925 206.324 118.904C206.608 118.872 205.613 118.892 206.735 118.784C206.922 118.766 208.741 118.724 206.409 118.954C209.529 118.695 209.281 118.799 210.327 118.544C212.505 118.694 211.864 118.228 212.704 118.141C214.931 117.912 214.305 118.218 214.424 118.221C215.24 118.236 221.428 117.633 222.972 117.537C222.348 117.407 218.053 117.95 217.089 117.993C213.871 118.141 221.605 117.525 219.255 117.489C220.238 117.471 221.222 117.451 222.207 117.432C223.991 117.131 221.434 117.285 226.279 116.926C227.081 116.986 222.855 117.198 223.709 117.226C224.211 117.243 227.02 117.015 227.078 117.041C227.136 117.074 224.595 117.247 225 117.27C225.898 117.32 235.087 116.406 228.079 116.944C230.035 116.777 231.015 116.443 232.717 116.373C233.818 116.327 227.679 117.207 236.928 116.336C237.114 116.202 233.224 116.625 233.123 116.625C232.979 116.624 233.661 116.3 233.782 116.276C234.206 116.197 243.681 115.507 245.676 115.198C244.899 115.419 252.812 114.597 253.681 114.568C253.912 114.561 253.061 114.729 253.308 114.717C254.846 114.641 258.981 114.113 260.906 113.943C263.061 113.752 262.794 113.856 262.915 113.845C263.862 113.76 263.1 113.77 263.68 113.72C264.555 113.644 270.567 113.123 270.87 113.111C270.958 113.107 269.985 113.281 271.297 113.189C271.524 113.173 271.372 113.074 275.255 112.801C279.932 112.474 272.022 113.203 273.973 113.158C276.961 112.748 276.876 112.918 277.688 112.839C277.971 112.812 280.05 112.505 282.337 112.333C280.695 112.44 279.061 112.549 277.425 112.66C279.027 112.505 282.154 112.285 283.48 112.154C284.125 112.09 283.584 112.019 284.989 111.912C285.287 111.891 286.492 112.071 282.801 112.237C282.515 112.358 284.262 112.156 285.076 112.121C285.199 112.116 285.697 112.241 286.726 112.06C286.972 112.018 284.228 111.741 291.24 111.561C291.466 111.555 290.689 111.673 290.909 111.669C291.06 111.666 292.84 111.51 293.038 111.505C293.239 111.499 292.384 111.627 292.625 111.623C293.858 111.599 295.451 111.223 292.92 111.427C293.764 111.333 294.608 111.24 295.452 111.147C294.561 111.407 296.782 111.107 297.956 111.031C305.502 110.551 300.459 111.025 301.76 111.002C303.85 110.969 302.239 110.739 305.334 110.638C305.619 110.631 301.902 111.004 309.176 110.468C308.102 110.528 307.027 110.59 305.952 110.653C306.561 110.423 309.832 110.423 310.081 110.412C312.936 110.268 311.001 110.31 315.243 110.167C315.625 110.154 316.454 110.062 317.269 110.041C320.651 109.955 312.815 110.342 312.625 110.437C312.507 110.473 320.93 110.005 321.212 109.982C322.434 109.841 317.4 110.142 318.354 109.996C318.721 109.925 330.644 109.439 333.042 109.337C335.825 109.193 337.064 108.902 337.091 109.188C337.865 108.881 338.562 109.054 338.916 109.042C343.195 108.9 343.201 108.9 346.848 108.859C347.653 108.851 348.327 108.755 348.614 108.765C348.783 108.772 348.47 108.868 349.294 108.885C350.447 108.898 357.283 108.765 357.782 108.724C358.289 108.672 354.904 108.705 355.51 108.622C357.964 108.606 360.306 108.633 362.752 108.649C363.768 108.655 363.247 108.591 363.685 108.595C363.855 108.593 367.419 108.7 367.268 108.721C366.861 108.737 356.043 108.629 358.892 108.752C359.446 108.772 361.397 108.649 361.085 108.811C370.852 108.841 380.535 109.126 390.298 109.793C384.733 109.264 378.406 109.061 372.575 108.881C371.773 108.853 369.045 108.802 369.378 108.728C374.421 108.818 380.461 109.101 385.337 109.341C385.491 109.349 384.931 109.241 385.508 109.264C386.589 109.302 390.063 109.656 390.645 109.672C390.746 109.671 388.776 109.433 389.382 109.413C390.937 109.363 391.302 109.746 392.621 109.844C393.615 109.902 400.557 110.359 402.266 110.672C404.087 110.975 397.158 110.215 397.654 110.372C402.368 110.905 407.08 111.349 411.392 111.961C411.471 111.972 410.789 111.952 411.767 112.098C413.487 112.359 413.95 112.325 414.786 112.434C415.69 112.547 418.838 113.072 419.26 113.109C419.315 113.113 418.696 112.904 418.6 112.885C417.238 112.616 416.725 112.674 416.6 112.655C416.129 112.586 415.674 112.463 415.243 112.4C414.532 112.296 414.134 112.285 413.192 112.151C412.542 112.06 413.182 112.06 412.555 111.974C412.308 111.938 409.851 111.811 409.654 111.572C409.618 111.328 429.563 114.588 431.538 115.321C429.838 114.965 428.123 114.628 426.394 114.308C429.916 114.939 433.979 116.07 434.324 115.897C444.873 118.395 455.388 121.78 465.155 126.235C467.158 127.148 468.97 128.009 470.924 128.98C473.026 130.021 471.921 129.25 475.309 131.095C474.401 130.667 473.502 130.254 472.617 129.858C474.41 130.663 481.938 134.839 483.099 135.685C483.249 135.787 483.393 136.032 485.173 137.2C486.786 138.272 487.08 138.35 487.916 138.9C488.629 139.372 489.409 139.967 489.613 140.108C489.772 140.218 489.875 140.209 490.255 140.473C491.45 141.314 490.362 140.736 491.686 141.463C491.405 141.238 491.111 141.006 490.842 140.796C492.308 141.844 494.257 143.276 492.228 141.621C491.872 141.337 492.143 141.627 491.873 141.42C481.127 133.756 489.929 139.615 493.439 142.596C494.497 143.225 499.339 147.64 499.488 147.855C499.725 148.05 498.974 147.2 500.075 148.194C500.41 148.303 506.082 154.987 504.143 152.514C503.791 151.987 500.899 148.839 500.176 148.166C502.085 149.677 505.452 154.189 505.767 154.703C507.305 156.69 502.976 150.736 506.428 155.261C508.928 158.833 506.5 155.544 507.391 156.957C507.961 157.737 510.483 161.947 510.196 161.938C510.906 163.449 510.572 162.53 510.669 162.711C510.795 162.896 512.019 165.917 512.368 166.947C512.414 167.067 512.38 166.651 512.43 166.774C512.554 166.987 513.425 170.074 513.413 170.198C513.428 170.278 513.159 169.568 513.213 169.874C513.304 170.205 513.926 173.219 513.896 173.381C513.934 173.625 513.218 169.916 513.234 170.56C513.678 172.237 514.001 175.041 514 176.197C514.007 175.922 513.827 174.253 513.722 173.668C513.659 173.969 513.999 177.537 513.999 176.3C514.001 177.103 513.926 176.562 513.9 177.01C513.896 177.12 513.956 178.249 513.936 178.462C513.935 178.497 513.821 177.325 513.803 177.564C513.801 177.994 513.871 181.393 513.87 181.736C513.912 182.552 513.953 179.656 513.998 179.451C514.015 179.39 514.154 181.845 514.159 181.88C514.279 182.029 514.176 179.29 514.277 179.621C514.312 180.281 514.337 180.94 514.359 181.633C514.53 178.996 514.108 174.408 513.972 173.222C514.546 176.871 514.482 180.854 514.76 180.853C514.876 180.857 514.917 179.196 514.943 179.264C515.06 179.482 514.963 181.823 514.965 181.899C514.971 181.968 514.977 181.999 514.983 181.999C514.983 181.999 514.983 181.999 514.983 181.999C515.051 182.004 515.064 178.708 515.065 178.55C515.106 178.265 515.349 179.729 515.389 179.718C515.408 179.674 515.364 177.34 515.472 178.123C515.595 178.896 515.619 180.977 515.623 181.036C515.685 181.435 515.662 177.837 515.657 177.732C515.676 177.678 515.83 179.601 515.848 179.653C515.876 179.704 515.892 178.238 515.933 177.649C515.968 177.209 516.075 178.477 516.072 178.251C516.099 178.077 515.833 174.708 515.791 174.537C515.777 174.291 515.938 175.066 515.941 174.953C515.95 174.777 515.787 173.71 515.829 173.843C515.91 173.93 516.509 178.159 516.53 178.155C516.662 178.084 516.08 173.557 516.799 177.774C516.806 177.814 516.816 178.821 516.818 178.866C516.913 179.499 516.945 176.173 517.025 180.248C516.87 172.666 517.182 179.296 517.316 178.17C517.39 177.71 517.18 174.786 517.165 174.754C517.29 175.046 517.309 175.969 517.376 176.299C517.43 176.464 517.248 173.814 517.369 174.402C517.461 174.715 517.677 177.529 517.67 177.65C517.781 178.773 517.778 177.39 517.831 177.634C517.874 177.802 517.932 179.51 517.933 179.549C517.953 179.634 517.984 177.28 517.977 176.808C517.985 176.44 518.116 177.811 518.113 177.558C518.131 175.999 517.543 172.7 518.155 175.867C518.193 176.064 518.27 177.279 518.271 177.305C518.397 178.052 518.265 175.81 518.28 175.42C518.333 174.722 518.547 177.942 518.393 175.263C518.652 177.262 518.699 178.401 518.701 180.715C518.603 174.263 518.551 171.864 519.017 179.145C518.937 176.843 519.083 177.083 519.045 176.391C519.044 175.948 518.477 172.617 519.026 174.107C519.107 174.291 519.242 176.356 519.275 175.705C518.7 170.777 519.35 175.598 519.338 175.6C519.439 175.573 519.218 172.495 518.422 169.242C517.672 165.994 516.285 162.669 515.862 161.708C514.911 159.448 513.999 157.504 513.739 157.049C512.859 155.536 513.517 156.835 513.293 156.513C513.109 156.15 510.539 151.994 510.325 151.807C509.737 151.077 510.221 151.899 510.158 151.823C509.496 150.881 505.294 145.84 503.932 144.634C504.014 144.595 506.572 147.283 505.054 145.528C503.3 143.541 502.946 143.659 502.895 143.616C494.137 135.197 483.732 128.87 473.124 123.576C473.36 123.473 480.217 127.208 480.333 127.302C481.379 127.626 469.668 121.56 468.105 121.041C469.255 121.534 470.38 122.028 471.481 122.523C470.649 122.027 469.262 121.374 467.695 120.682C465.975 119.921 464.068 119.148 462.593 118.495C461.696 118.098 463.463 118.753 463.427 118.736C462.44 118.244 460.775 117.632 461.967 118.215C459.5 117.125 459.826 117.366 457.881 116.633C457.78 116.596 458.645 116.84 457.109 116.237C456.373 115.935 452.542 114.595 452.048 114.376C451.846 114.278 453.882 114.672 454.04 114.985C458.274 116.362 455.345 115.562 456.981 116.148C457.226 116.248 456.724 115.872 460.771 117.522C460.106 116.974 455.28 115.366 454.486 115.079C452.816 114.41 459.807 116.79 460.961 117.504C460.446 117.098 461.458 117.667 462.963 118.283C464.607 118.962 463.914 118.611 464.798 118.988C467.061 119.972 466.267 119.754 467.838 120.37C467.941 120.411 468.053 120.456 468.177 120.505C468.011 120.461 467.892 120.434 467.814 120.421C467.672 120.4 467.673 120.429 467.781 120.495C468.392 120.855 471.874 122.264 473.088 122.79C471.363 121.925 469.678 121.11 467.882 120.273C467.125 119.921 466.363 119.574 465.596 119.233C465.749 119.278 465.901 119.323 466.053 119.369C465.388 119.079 464.719 118.793 464.047 118.511C464.147 118.574 464.247 118.637 464.347 118.7C460.933 117.126 459.997 116.949 459.714 116.832C455.97 115.389 451.719 113.926 447.899 112.76C447.321 112.593 447.773 112.562 443.517 111.448C442.154 111.101 443.41 111.545 441.874 111.111C440.042 110.351 440.038 110.57 439.475 110.423C437.866 110.009 436.887 109.708 436.738 109.671C434.737 109.17 431.766 108.508 429.513 108.033C429.471 108.023 430.659 108.19 429.191 107.908C428.636 107.798 424.087 107.22 420.102 106.449C421.147 106.602 422.188 106.76 423.224 106.924C422.031 106.7 413.4 105.261 415.525 105.506C416.839 105.642 419.956 106.37 420.332 106.226C417.434 105.674 401.663 103.58 400.366 103.597C400.193 103.587 401.247 103.761 401.008 103.746C400.83 103.729 397.137 103.361 396.665 103.35C396.373 103.339 397.983 103.526 397.853 103.539C397.697 103.536 393.232 103.184 392.969 103.085C394.078 103.203 397.18 103.441 395.56 103.23C395.352 103.202 394.261 103.167 394.007 103.135C391.652 102.835 398.704 103.446 399.858 103.578C395.32 103.014 388.526 102.626 383.252 102.285C381.13 102.242 386.385 102.565 383.986 102.492C379.003 102.354 382.668 102.325 382.514 102.307C381.248 102.164 377.146 102.372 377.143 102.084C375.364 102.062 375.941 102.116 373.425 101.997C373.757 101.987 374.089 101.978 374.421 101.968C371.639 101.696 365.661 102.01 366.107 102.055C367.311 102.158 370.413 102.092 370.676 102.104C371.065 102.122 372.147 102.429 376.403 102.319C378.139 102.571 369.652 102.232 373.513 102.489C370.897 102.352 360.126 102.339 358.607 102.276C358.423 102.265 359.283 102.065 356.631 102.166C355.372 102.215 358.408 102.216 357.832 102.261C356.046 102.285 331.927 102.692 327.384 102.985C327.088 102.998 327.199 103.054 326.909 103.066C326.017 103.102 322.756 103.159 321.153 103.268C324.469 102.992 318.018 103.299 316.369 103.407C313.867 103.563 314.037 103.663 312.967 103.747C308.854 104.068 302.426 104.227 299.219 104.69C299.37 104.44 293.676 105.194 291.076 105.392C289.038 105.544 286.065 105.614 288.812 105.309C285.294 105.585 281.572 105.833 278.273 106.086C277.728 106.127 278.484 106.137 277.553 106.206C277.469 106.211 277.347 106.152 276.548 106.21C269.948 106.691 273.169 106.575 271.939 106.719C271.25 106.801 270.742 106.856 270.368 106.891C274.213 106.581 278.648 106.249 279.833 106.157C278.835 106.387 271.313 106.821 269.117 107.05C269.041 107.058 269.314 107.119 269.237 107.127C269.235 107.127 269.233 107.127 269.232 107.127C268.408 107.202 263.158 107.618 264.23 107.427C264.517 107.375 266.933 107.168 269.799 106.937C269.022 106.983 269.593 106.841 269.456 106.848C267.792 106.941 263.735 107.379 262.294 107.516C261.965 107.547 261.983 107.485 261.929 107.489C260.618 107.616 261.172 107.741 259.811 107.681C257.454 108.099 264.265 107.328 263.796 107.509C263.433 107.642 248.273 108.908 248.31 108.738C248.259 108.76 248.053 108.801 247.629 108.864C246.691 109.003 242.468 109.358 241.736 109.391C241.613 109.395 241.647 109.228 241.495 109.24C241.112 109.27 235.968 109.851 234.039 109.922C235.075 109.808 236.111 109.695 237.148 109.581C230.877 110.128 231.846 109.993 233.928 109.763C234.032 109.753 234.133 109.738 234.233 109.729C235.848 109.552 237.922 109.335 237.953 109.319C238.062 109.261 227.436 110.16 229.493 110.133C229.778 110.129 234.687 109.634 232.263 109.954C231.838 110.01 228.682 110.253 228.518 110.279C227.416 110.454 234.313 109.961 233.482 110.147C231.798 110.186 229.659 110.428 227.741 110.566C226.861 110.629 226.638 110.566 226.53 110.573C224.909 110.691 225.825 110.699 225.284 110.743C224.994 110.767 221.794 110.855 222.417 111.056C211.933 111.748 219.491 111.122 225.939 110.583C223.893 110.667 219.912 111.049 218.128 111.175C217.488 111.221 217.86 111.105 216.778 111.178C214.572 111.333 203.914 112.282 201.153 112.505C202.855 112.406 202.365 112.535 201.053 112.628C199.741 112.72 200.834 112.515 200.577 112.521C200.294 112.531 194.183 113.035 193.148 113.088C197.771 112.805 196.746 112.971 192.81 113.257C193.386 113.244 193.962 113.23 194.526 113.216C192.216 113.345 187.336 113.812 186.006 113.854C185.796 113.86 186.543 113.735 186.425 113.739C185.25 113.784 181.287 114.106 181.103 114.09C180.945 114.077 182.631 113.911 182.002 113.917C181.871 113.918 180.247 114.121 178.648 114.187C178.054 114.211 178.407 114.118 178.258 114.123C177.009 114.158 177.763 114.24 175.445 114.347C173.748 114.423 172.481 114.37 170.155 114.522C177.809 113.983 171.359 114.383 168.175 114.48C167.666 114.495 168.092 114.348 165.057 114.542C171.541 114.497 163.209 114.755 161.532 114.81C161.436 114.815 161.421 114.903 160.574 114.935C160.502 114.937 160.603 114.875 159.815 114.898C152.365 115.097 157.131 115.008 155.719 115.111C155.116 115.156 151.52 115.165 150.561 115.18C150.34 115.184 150.442 115.243 149.587 115.258C148.074 115.283 146.725 115.237 145.734 115.245C145.613 115.245 145.636 115.344 143.698 115.332C143.156 115.328 142.548 115.298 143.317 115.264C145.898 115.156 150.564 115.235 153.438 115.066C156.031 114.922 147.848 115.107 147.442 115.099C147.287 115.101 148.872 115.124 147.262 115.159C145.908 115.188 143.337 115.052 141.251 115.096C141.091 115.1 139.43 115.246 139.507 115.254C139.575 115.261 142.131 115.282 141.761 115.324C141.716 115.329 140.091 115.335 139.88 115.365C139.621 115.402 138.923 115.767 138.578 115.776C137.691 115.797 138.268 115.715 137.695 115.719C136.462 115.734 132.238 115.799 132.107 115.667C132.802 115.669 133.498 115.67 134.196 115.669C130.322 115.611 131.977 115.574 131.429 115.543C130.841 115.508 131.005 115.623 129.706 115.609C129.405 115.614 123.842 115.44 123.953 115.388C127.012 115.56 125.884 115.384 126.024 115.387C126.562 115.394 127.249 115.489 127.975 115.504C133.058 115.6 127.944 115.373 129.142 115.366C129.565 115.365 130.365 115.445 130.536 115.445C131.093 115.444 131.103 115.358 131.475 115.371C132.342 115.4 131.327 115.506 131.396 115.514C132.167 115.605 135.222 115.542 133.323 115.389C134.464 115.354 134.597 115.516 135.505 115.459C137.313 115.343 134.605 115.359 133.877 115.329C131.25 115.22 130.537 115.278 126.733 115.161C125.374 115.118 123.779 114.987 123.156 114.96C122.759 114.947 119.056 115.065 118.973 114.631C117.53 114.606 115.353 114.77 113.816 114.661C112.467 114.565 112.907 114.441 112.781 114.427C112.588 114.407 110.964 114.309 110.42 114.247C109.782 114.176 110.104 114.142 109.094 114.043C106.585 113.789 106.646 113.94 106.386 113.929C103.404 113.784 104.728 113.678 104.072 113.601C103.523 113.567 94.7742 112.688 93.0092 112.346C93.7377 112.477 94.4697 112.605 95.2052 112.73C93.8685 112.657 92.502 112.308 92.4541 112.475C92.2233 112.166 89.5123 111.958 88.7182 111.822C88.4039 111.769 88.4359 111.727 88.0432 111.662C86.5017 111.416 82.891 110.811 82.067 110.622C78.4007 109.829 87.8985 111.424 88.5901 111.465C87.1449 111.289 78.729 109.643 82.6079 110.238C83.2036 110.33 84.2381 110.644 84.5743 110.708C86.8506 111.138 85.0746 110.715 85.2553 110.736C85.5597 110.774 87.0559 111.136 87.4529 111.186C87.5826 111.201 86.7706 110.973 88.8826 111.306C87.9287 111.084 81.7192 110.067 80.9821 109.872C80.7124 109.8 82.4691 109.979 77.3663 109.107C77.4288 109.101 77.4914 109.095 77.5538 109.088C74.8071 108.485 71.8723 107.765 69.0929 106.994C69.3842 107.121 70.9369 107.633 68.959 107.077C67.8257 106.752 68.6929 106.889 68.5899 106.858C68.0532 106.692 63.4299 105.436 58.4042 103.598C53.4896 101.842 48.4784 99.4953 46.8804 98.6684C45.778 98.1331 42.8677 96.4632 42.6577 96.3277C41.3047 95.6098 36.6286 92.7136 35.788 92.0583C35.2396 91.6662 35.8117 91.9659 35.3177 91.6229C34.86 91.3028 35.2854 91.7032 35.1482 91.6099C33.9236 90.993 25.912 84.1624 24.306 82.2925C25.2828 83.4393 30.8391 88.6058 30.7442 88.4976C30.7104 88.4865 29.2516 87.3452 28.9877 87.0679C28.4604 86.7112 27 85.1078 26.1363 84.3181C26.0407 84.2258 26.32 84.6899 24.8232 83.2224C24.311 82.7169 23.073 81.303 21.7502 79.9364C20.0487 78.2334 13.6928 69.4357 12.1275 65.858C11.838 65.2887 11.6651 64.9083 11.6184 64.773C11.6009 64.7401 12.5852 66.55 11.9934 65.29C11.2504 63.6341 11.733 65.1864 10.8428 63.3227C10.6355 63.1145 8.69467 57.673 8.77072 57.4749C8.42715 55.7952 9.85989 60.5376 9.91653 60.4283C9.84644 60.2897 8.68948 56.3239 8.71329 56.1952C8.66251 56.0302 9.25412 59.2872 8.42285 55.4035C8.53537 55.8573 8.65579 56.2978 8.78177 56.7235C8.39615 54.9114 8.28271 54.7228 8.19427 54.2887C7.95776 52.9387 7.9462 51.404 7.74503 49.1712C7.6955 48.5783 7.612 49.5607 7.60626 49.488C7.52905 48.76 7.77231 47.899 7.71899 46.7972C7.73975 46.7209 7.29852 49.191 7.86951 44.8505C7.83344 45.1588 7.80499 45.4491 7.7796 45.7494C7.80838 45.1387 8.85837 40.7862 9.11777 40.2347C9.67926 38.5421 9.04578 39.9664 9.69147 38.2929C9.35507 39.4073 11.5766 34.3881 11.3916 34.6266C11.837 34.0024 14.1086 29.7853 15.4274 27.8503C16.2141 26.6365 17.9967 24.1484 18.2562 23.746C18.5705 23.2612 18.3788 23.3481 18.957 22.4379C19.1041 22.1756 21.0034 19.6228 22.2988 16.8121C22.5569 16.2638 22.8849 15.0577 22.3883 16.0338C21.5055 17.7961 19.8625 20.6393 19.7827 20.5506C19.7184 20.4828 22.1535 16.6126 22.6032 15.3007C24.575 9.17463 23.2052 12.6414 23.2988 12.5172C23.4591 12.1788 23.6172 8.2676 23.3802 8.08815C23.2756 7.4142 23.5126 10.2223 23.3586 10.2235C23.4496 10.2808 22.7381 6.61871 22.8266 7.47231C23.2862 8.64659 23.0823 11.9738 22.9506 12.0986C22.2389 14.5311 23.0342 11.1679 22.8683 10.1201C22.8612 9.8231 22.7449 11.0021 22.7505 10.7548C22.6089 6.97028 23.1599 9.9346 22.6744 7.36078C21.8768 5.1256 22.7881 8.03961 22.6789 7.95745C22.7515 7.81788 21.7098 5.23216 21.3515 4.96834C21.2781 4.88558 22.2422 6.33545 22.5015 8.05379C22.8032 9.7802 22.3931 11.3544 22.3777 11.2086C22.7514 9.1467 22.2418 6.69322 21.0117 4.95448C20.9059 4.8313 22.3855 7.59131 22.3003 7.98152C22.4312 8.624 21.9175 6.87109 21.8641 6.97163C21.8961 7.02305 22.3383 9.05969 21.7983 7.25634C21.587 6.66862 21.1243 5.20337 19.5197 3.70421C22.113 6.68212 21.6761 7.73849 21.6281 7.25384C21.4815 6.83484 20.7963 5.60967 20.6891 5.53258C20.5535 5.38494 22.3333 8.54497 19.9874 4.78724C19.6675 4.81794 20.0164 4.85008 20.6562 5.97276C20.9998 6.64857 20.7283 6.22937 20.7162 6.24478C20.606 6.27655 21.2878 6.6165 21.616 9.41674C21.554 9.25933 21.4533 8.05576 20.9565 6.96029C20.5066 5.89049 19.7232 4.95479 19.6691 4.89714C19.5471 4.75164 20.0703 5.52042 19.8512 5.26749C16.9758 2.44424 18.9213 4.41767 18.0218 3.72548C17.9968 3.62308 14.9087 1.51488 17.2009 3.17317C21.3182 6.31509 21.1427 9.26906 20.8358 9.94964C20.9684 6.02025 16.8381 3.05067 15.9759 2.49568C14.4942 1.56208 16.003 2.5856 15.8028 2.48804C15.7667 2.45716 14.3931 1.63993 14.3943 1.65969C13.3676 1.27686 20.4088 5.10527 20.5197 7.98997C20.3068 7.39156 20.0032 6.8303 19.64 6.32401C20.0812 7.03131 20.4067 7.84754 20.5457 8.66957C19.1682 4.88227 20.7414 8.51641 20.3869 9.53933C20.3623 9.74962 20.2524 7.23146 20.2843 10.112C20.1563 8.00406 20.2245 8.66958 19.5442 6.90186C19.5042 6.93221 20.0391 7.92196 20.1116 9.18118C20.2201 10.4396 19.808 11.9333 19.4827 12.7637C20.3725 9.79137 19.9572 9.19442 19.9894 8.66841C19.8657 8.18954 20.1132 7.59054 18.417 5.60148C17.8782 4.78479 19.4353 6.72952 19.2829 6.59514C18.9382 5.88593 17.8482 4.66179 16.0917 3.20394C15.8134 2.97958 17.1467 3.70423 15.2678 2.49632C15.0449 2.34695 13.7119 1.7186 13.7408 1.75061C13.8466 1.88195 15.1486 2.59147 15.1747 2.65747C15.2182 2.70546 13.792 1.86946 13.8088 1.90072C13.7066 1.94655 14.953 2.58116 14.7646 2.51312C14.325 2.32649 9.32272 -0.201477 15.7542 3.38453C10.4693 0.230681 15.3158 2.71692 17.0713 4.27907C17.5155 4.66994 17.5703 4.77317 18.1557 5.41154C18.8542 6.16775 19.4727 7.20374 19.6301 7.69726C19.7092 8.2289 18.9144 5.29278 19.9094 9.60271C20.046 7.22833 16.8808 3.98284 14.5345 2.88479C9.96426 0.588117 17.6363 4.78823 17.7975 5.69181C17.9499 5.85725 17.368 5.36721 17.4681 5.47906C17.5654 5.58201 18.4182 6.3931 18.9111 7.38316C19.4352 8.36232 19.4847 9.46437 19.4508 9.67236C19.442 10.0604 19.3031 8.21451 19.1208 8.14422C19.4662 7.97584 18.9838 12.8943 19.2199 10.2096C19.626 8.36775 17.6044 5.52977 16.8403 5.28918C19.1469 7.28649 19.7154 9.67732 18.611 12.5501C19.1021 10.9697 19.1741 9.50853 18.6972 8.33125C19.4887 10.7864 18.0947 13.7998 16.2164 16.7129C19.9662 9.40953 14.8258 18.929 14.4819 19.0216C14.4598 19.0454 16.0948 16.1464 16.3033 15.6585C14.8668 18.083 9.45969 25.775 12.354 21.1221C11.8407 21.97 10.3769 23.9188 10.3912 23.8855C10.4798 23.5398 13.4725 19.2468 12.907 19.911C12.2772 20.6488 11.6154 21.8819 10.7478 23.1597C6.4201 29.8662 6.85684 27.5741 3.42926 35.262C3.47473 35.0985 3.52191 34.9331 3.56946 34.7695C-0.149597 43.2317 -0.464966 53.5516 2.74237 62.2205C3.19952 63.7982 4.18353 66.4657 5.61856 69.2752C7.25952 72.5405 9.30142 75.8287 10.7112 77.8308C11.1866 78.5754 13.9936 82.1477 14.2418 82.3814C14.6525 82.863 12.5171 80.1183 13.5274 81.3239C13.6772 81.6471 18.6956 87.3598 18.3076 86.9744C17.7079 86.3719 15.9737 84.3456 15.6813 84.019C14.6468 82.8829 17.8227 86.886 21.9626 90.7105C26.06 94.5932 31.1067 98.105 31.5606 98.4425C31.1191 98.1737 30.6801 97.9012 30.2437 97.6251C31.4453 98.4702 32.6706 99.2873 33.9187 100.077ZM8.32239 44.4287C8.53882 43.7027 8.909 41.8455 9.28781 40.7797C9.76837 39.2881 11.162 36.9626 10.3787 37.8902C9.46909 40.016 8.75922 42.2212 8.32239 44.4287ZM18.8097 75.8969C17.7914 74.6128 18.3781 75.7631 19.2677 76.7723C19.369 76.8822 20.208 77.6082 18.8097 75.8969ZM10.2497 61.3369C10.2639 61.3965 10.8051 62.6878 10.822 62.705C11.3624 63.7966 9.78485 60.0048 10.2497 61.3369ZM74.6404 108.588C72.8051 108.141 74.2052 108.29 75.2769 108.616C75.3437 108.637 74.7608 108.617 74.6404 108.588ZM73.3392 108.282C71.8785 108.102 69.1642 107.037 71.3858 107.652C71.599 107.714 73.4042 108.292 73.3392 108.282ZM15.4636 71.2212C15.5055 71.4121 16.4435 72.7926 16.8611 73.3626C16.8947 73.3174 15.8293 71.8212 15.4636 71.2212ZM47.131 98.8826C47.141 98.9875 41.9797 96.2405 41.6943 95.9451C42.4536 96.4641 47.064 98.8341 47.131 98.8826ZM61.1861 104.737C61.0345 104.7 59.0754 104.003 59.1503 103.979C60.1179 104.268 61.8524 104.921 61.1861 104.737ZM90.9015 111.618C91.0139 111.642 89.4316 111.707 93.0999 112.038C93.6389 112.085 91.7365 111.748 91.9291 111.763C92.329 111.8 92.6451 111.835 92.8984 111.869C91.2008 111.612 89.4633 111.334 89.2929 111.325C88.4898 111.283 90.8504 111.609 90.9015 111.618ZM106.929 113.65C107.277 113.727 109.551 113.882 110.075 113.899C110.165 113.902 109.783 113.755 110.813 113.838C111.641 113.903 110.393 113.94 112.011 114.031C113.649 114.12 111.468 113.888 111.612 113.891C111.801 113.898 114.336 114.115 114.263 114.037C114.205 113.983 111.485 113.844 110.821 113.783C109.969 113.707 111.009 113.695 109.583 113.609C108.689 113.553 109.173 113.744 108.984 113.738C108.821 113.736 105.727 113.39 106.934 113.65C106.932 113.65 106.93 113.65 106.929 113.65ZM93.3577 111.938C93.2302 111.916 93.0802 111.892 92.8984 111.869C93.0523 111.892 93.2057 111.915 93.3577 111.938ZM7.78833 48.7638C7.80957 49.5446 7.94162 47.2369 8.01157 46.3436C7.94144 46.3194 7.76022 48.6443 7.78833 48.7638ZM94.9256 112.273C97.4857 112.556 95.6023 112.276 93.3577 111.938C94.0681 112.064 94.0694 112.175 94.9256 112.273ZM28.9877 87.0679C29.0741 87.1278 29.1361 87.1575 29.1617 87.1406C28.933 86.9853 28.9031 86.9819 28.9877 87.0679ZM33.532 90.6571C35.0616 91.9076 31.8486 89.5046 31.914 89.4463C31.9363 89.44 33.4712 90.6146 33.532 90.6571ZM76.9078 109.096C76.7282 109.063 79.4491 109.951 75.4588 108.848C77.6132 109.304 75.353 108.762 75.3936 108.745C75.4883 108.706 79.1005 109.568 79.9315 109.695C80.542 109.948 77.4984 109.205 76.9124 109.097C76.9109 109.097 76.9094 109.097 76.9078 109.096ZM136.178 114.797C135.663 114.723 134.03 114.733 132.935 114.723C133.446 114.802 135.074 114.796 136.178 114.797ZM427.77 107.596C420.235 106.079 419.201 106.232 426.126 107.385C426.255 107.405 428.224 107.716 427.77 107.596ZM361.936 101.732C361.216 101.853 363.593 101.892 365.157 101.863C365.517 101.856 366.851 101.748 365.331 101.7C365.361 101.854 363.069 101.882 361.936 101.732ZM96.359 112.536C97.0925 112.715 99.4112 112.924 100.645 113.039C99.899 112.892 97.4291 112.645 96.359 112.536ZM402.668 103.97C401.855 103.893 401.316 103.727 401.458 103.732C402.092 103.754 403.6 104.006 402.668 103.97ZM89.0524 111.535C88.9383 111.573 91.9014 112.065 92.1319 111.965C91.4878 111.887 89.1278 111.517 89.0524 111.535ZM134.101 114.819C133.628 114.84 136.075 114.909 136.821 114.884C136.76 114.832 134.409 114.807 134.101 114.819ZM389.637 102.794C388.911 102.752 387.094 102.638 386.894 102.581C386.649 102.508 389.313 102.7 389.637 102.794ZM512.441 154.02C512.516 154.072 510.959 151.53 510.123 150.542C508.567 148.596 512.44 153.884 512.441 154.02ZM410.287 104.933C412.554 105.129 410.04 104.896 410.152 104.8C411.644 104.985 415.513 105.537 412.841 105.266C412.31 105.211 411 105.019 410.287 104.933ZM408.197 104.703C407.959 104.636 406.336 104.325 407.75 104.505C408.403 104.589 409.438 104.847 408.197 104.703ZM500.429 140.435C498.834 139.059 505.979 145.629 506.108 145.968C506.216 146.071 506.288 146.137 506.331 146.173C506.552 146.448 507.779 147.841 507.978 147.963C507.607 147.531 506.601 146.399 506.476 146.281C506.423 146.228 506.382 146.189 506.353 146.163C505.988 145.535 500.834 140.663 500.429 140.435ZM487.56 131.017C489.469 132.412 489.988 132.485 489.813 132.354C487.659 130.813 489 131.915 488.93 131.877C488.75 131.773 487.272 130.725 487.566 131.021C487.564 131.019 487.562 131.018 487.56 131.017ZM497.888 138.343C497.974 138.41 499.55 139.714 499.606 139.765C500.946 140.774 496.48 137.087 497.888 138.343ZM119.137 114.608C120.516 114.646 119.167 114.496 118.253 114.484C118.178 114.483 117.922 114.573 119.137 114.608ZM407.083 104.541C406.774 104.494 398.38 103.67 398.886 103.604C399.626 103.654 409.125 104.657 407.083 104.541ZM344.579 102.026C346.045 101.996 344.445 101.897 343.663 101.963C343.373 101.987 344.21 102.033 344.579 102.026ZM84.9851 110.982C83.5045 110.647 83.7699 110.937 85.0807 111.085C85.1322 111.091 85.0433 110.995 84.9851 110.982ZM356.366 101.819C351.267 101.766 352.492 102.148 359.092 102.014C358.886 101.995 358.68 101.977 358.473 101.958C366.07 101.937 359 101.921 357.129 101.905C356.419 101.897 357.014 101.828 356.371 101.819C356.369 101.819 356.367 101.819 356.366 101.819ZM336.844 102.232C331.948 102.679 341.308 102.188 343.965 102.185C341.378 102.12 337.998 102.229 342.586 101.991C335.872 102.137 338.666 102.188 338.4 102.202C338.083 102.222 337.052 102.213 336.844 102.232ZM349.724 101.951C350.009 101.955 352.155 101.873 352.926 101.878C351.849 101.783 347.829 101.917 349.724 101.951ZM473.122 122.87C473.248 123.021 473.64 123.272 475.167 124.016C474.72 123.743 473.759 123.221 473.122 122.87ZM8.21872 42.9349C8.43295 41.913 9.04379 39.9128 8.92871 40.5486C8.89478 40.606 8.24045 42.948 8.21872 42.9349ZM382.77 102.549C382.481 102.532 376.177 102.264 378.361 102.272C379.002 102.263 384.833 102.569 382.77 102.549ZM415.764 105.774C415.23 105.691 413.048 105.36 413.003 105.337C412.866 105.251 415.542 105.675 415.764 105.774ZM9.77017 37.8595C9.78656 37.712 11.1674 34.7456 11.0657 35.0886C10.7981 35.731 9.60089 38.3099 9.77017 37.8595ZM124.175 114.99C124.468 115.003 124.859 114.931 124.961 114.933C125.191 114.947 130.609 115.108 128.54 114.951C128.177 114.943 120.45 114.735 119.479 114.681C119.088 114.781 122.358 114.811 123.162 114.847C123.303 114.855 123.39 114.955 124.173 114.99C124.174 114.99 124.174 114.99 124.175 114.99ZM480.938 127.078C481.17 127.252 486.68 130.582 486.663 130.507C484.743 129.295 482.921 128.205 480.938 127.078ZM478.074 125.522C476.821 124.911 479.692 126.464 480.499 126.899C480.542 126.861 478.267 125.61 478.074 125.522ZM403.709 104.483C403.071 104.394 405.049 104.506 404.612 104.436C404.332 104.391 402.898 104.274 402.443 104.193C402.315 104.168 403.787 104.224 404.208 104.277C404.806 104.35 404.217 104.363 404.87 104.438C407.035 104.686 408.949 104.866 410.954 105.136C411.134 105.16 409.724 105.028 411.267 105.234C411.5 105.266 412.958 105.376 414.85 105.669C418.969 106.55 422.036 106.791 427.144 107.884C426.951 107.863 423.092 107.202 422.858 107.17C418.544 106.411 410.609 105.254 406.089 104.749C404.914 104.612 405.491 104.624 404.984 104.564C404.583 104.517 405.05 104.67 403.709 104.483ZM8.0426 43.4595C8.03613 42.9606 8.53238 41.2569 8.88831 40.2009C8.84445 40.5919 8.23148 42.4035 8.0426 43.4595ZM451.469 114.157C450.88 113.955 449.023 113.395 448.877 113.32C448.694 113.216 451.369 114.045 451.469 114.157ZM154.364 114.98C154.424 114.982 155.906 114.935 155.962 114.929C157.284 114.811 152.84 114.952 154.364 114.98ZM189.715 113.219C190.841 113.156 191.981 113.109 192.355 113.001C191.636 113.064 189.578 113.171 189.715 113.219ZM238.48 109.299C238.258 109.426 241.629 109.06 242.268 108.994C242.026 108.967 238.643 109.206 238.48 109.299ZM472.745 123.062C474.664 124.007 474.181 123.952 475.401 124.49C475.594 124.578 476.388 124.594 474.266 123.66C473.877 123.493 475.323 124.3 472.745 123.062ZM360.165 102.015C360.692 102.089 362.338 102.079 363.447 102.086C363.2 102.029 360.958 102.023 360.165 102.015ZM12.3101 32.4645C12.6364 31.6049 15.009 27.9679 14.4976 28.9128C14.4081 29.0401 12.5755 31.9366 12.3101 32.4645ZM101.539 113.448C103.324 113.709 99.5982 113.356 98.3786 113.131C98.9191 113.201 101.445 113.435 101.539 113.448ZM226.78 110.376C226.872 110.371 228.821 110.196 228.905 110.184C230.496 109.964 224.979 110.461 226.78 110.376ZM178.124 114.072C178.82 114.1 183.41 113.774 184.442 113.641C183.435 113.613 177.252 114.043 178.124 114.072ZM464.92 119.38C465.891 119.803 466.824 120.209 467.73 120.606C468.117 120.775 468.497 120.942 468.871 121.107C468.789 121.049 468.333 120.831 467.748 120.566C466.629 120.055 465.028 119.396 464.92 119.38ZM233.928 109.763C234.032 109.753 234.133 109.738 234.233 109.729C234.129 109.74 234.027 109.752 233.928 109.763ZM432.93 109.23C431.696 108.976 431.971 108.936 432.048 108.949C432.983 109.121 434.324 109.521 432.93 109.23ZM8.19443 42.1781C8.19595 41.7658 8.79779 39.9664 9.17944 38.9167C9.11868 39.2436 8.40625 41.3166 8.19443 42.1781ZM331.589 102.599C330.022 102.754 336.418 102.636 337.752 102.54C337.853 102.471 331.822 102.571 331.589 102.599ZM95.8403 112.937C95.7056 112.995 93.1109 112.568 93.6696 112.607C94.0199 112.634 95.9175 112.904 95.8403 112.937ZM340.947 102.411C341.544 102.417 342.931 102.314 342.441 102.283C341.812 102.242 340.793 102.408 340.947 102.411ZM394.56 103.668C394.303 103.654 390.815 103.312 392.264 103.351C393.27 103.377 393.42 103.494 393.655 103.513C393.923 103.527 399.507 103.884 394.56 103.668ZM296.11 104.645C297.421 104.579 299.029 104.435 300.411 104.344C299.846 104.337 296.658 104.546 296.11 104.645ZM105.918 114.018C105.586 114.046 97.1066 113.192 101.937 113.602C102.208 113.634 106.875 114.02 105.918 114.018ZM472.745 123.062C472.499 122.942 472.223 122.81 471.909 122.665C472.219 122.813 472.496 122.943 472.745 123.062ZM450.613 114.062C451.057 114.258 448.738 113.527 448.055 113.293C447.864 113.163 450.556 114.03 450.613 114.062ZM300.521 104.409C301.321 104.384 302.766 104.256 303.752 104.195C303.582 104.157 300.863 104.336 300.521 104.409ZM244.786 108.995C246.357 108.828 248.29 108.671 248.326 108.727C248.358 108.715 248.433 108.699 248.559 108.678C248.686 108.657 250.373 108.536 251.104 108.452C255.48 107.946 234.16 109.873 246.538 108.95C245.954 108.965 245.372 108.98 244.786 108.995ZM171.853 114.547C170.959 114.664 168.453 114.693 169.101 114.634C169.55 114.595 172.746 114.43 171.853 114.547ZM206.213 112.326C205.946 112.36 203.496 112.5 203.431 112.466C204.832 112.319 207.428 112.172 206.213 112.326ZM165.001 114.946C164.445 114.98 163.731 114.893 163.796 114.886C164.359 114.821 165.934 114.843 165.001 114.946ZM468.696 121.47C468.449 121.367 468.039 121.176 467.571 120.952C466.574 120.473 465.313 119.859 464.962 119.65C464.856 119.62 464.578 119.52 464.071 119.329C464.072 119.33 464.074 119.331 464.075 119.331C463.502 118.799 442.773 111.597 456.686 116.317C457.124 116.475 456.508 116.313 458.281 116.968C458.398 117.011 458.476 116.98 458.836 117.116C459.677 117.411 464.038 119.148 464.869 119.578C464.881 119.572 464.94 119.587 465.062 119.63C465.632 119.83 466.769 120.383 467.624 120.838C468.427 121.263 468.989 121.593 468.696 121.47ZM211.074 111.951C210.591 112.011 209.018 112.117 208.854 112.08C209.632 111.994 212.208 111.811 211.074 111.951ZM105.635 114.197C104.642 114.154 102.173 113.838 102.925 113.87C103.381 113.895 106.774 114.252 105.635 114.197ZM195.493 113.114C201.198 112.642 196.855 113.021 197.735 113.03C196.987 113.058 196.239 113.087 195.493 113.114ZM492.375 134.73C491.582 134.19 492.429 134.957 493.309 135.502C493.586 135.673 492.819 135.032 492.375 134.73ZM518.375 168.445C518.073 167.659 519.048 171.628 518.788 170.053C518.78 169.971 518.401 168.503 518.375 168.445ZM502.291 142.928C501.885 142.431 501.609 142.14 500.206 140.927C502.219 142.763 500.318 141.136 502.291 142.928ZM248.31 108.738C248.32 108.734 248.328 108.73 248.326 108.727C248.315 108.731 248.31 108.735 248.31 108.738ZM159.626 115.13C158.901 115.229 156.872 115.288 157.474 115.195C157.532 115.187 159.326 115.087 159.626 115.13ZM464.962 119.65C465.056 119.677 465.014 119.649 464.869 119.578C464.859 119.584 464.893 119.609 464.962 119.65ZM170.407 114.739C170.331 114.689 173.407 114.514 173.532 114.513C175.308 114.515 171.673 114.683 170.407 114.739ZM85.7004 111.744C85.5443 111.712 86.5807 111.746 87.1973 111.902C87.6743 112.024 86.2841 111.868 85.7004 111.744ZM506.592 147.391C507.283 148.158 508.199 149.256 508.41 149.412C507.994 148.904 506.612 147.329 506.592 147.391ZM517.863 166.926C517.603 165.697 516.677 163.073 515.918 161.443C515.849 161.416 517.628 165.781 517.863 166.926ZM471.136 122.582C471.07 122.55 468.816 121.519 469.148 121.601C469.653 121.72 471.777 122.847 471.136 122.582ZM90.3184 112.407C91.3677 112.611 88.9128 112.397 87.8314 112.104C87.2721 111.959 90.1373 112.377 90.3184 112.407ZM153.306 115.415C151.868 115.412 155.427 115.249 155.932 115.304C155.267 115.33 153.816 115.417 153.306 115.415ZM202.186 112.825C197.681 113.374 200.115 112.808 200.918 112.782C201.031 112.778 202.296 112.812 202.186 112.825ZM17.916 22.9581C18.299 22.4431 17.049 24.4808 16.8098 24.7095C16.6665 24.8434 17.677 23.2812 17.916 22.9581ZM270.368 106.891C270.177 106.906 269.987 106.921 269.799 106.937C269.94 106.928 270.125 106.914 270.368 106.891ZM140.281 115.882C143.488 115.574 143.158 115.797 143.437 115.795C144.043 115.787 145.453 115.693 146.555 115.69C145.293 115.675 143.972 115.656 142.669 115.632C143.767 115.621 152.489 115.361 152.705 115.39C152.971 115.452 150.19 115.494 150.111 115.5C149.995 115.511 149.565 115.709 149.309 115.721C148.904 115.751 141.493 115.845 140.281 115.882ZM192.745 113.48C193.475 113.407 193.684 113.317 194.019 113.311C194.134 113.309 194.157 113.379 194.549 113.37C193.956 113.407 193.35 113.444 192.745 113.48ZM134.582 115.599C133.684 115.68 137.707 115.675 137.841 115.661C138.531 115.605 135.311 115.537 134.582 115.599ZM168.879 114.875C168.73 114.889 165.635 115.054 165.659 115.003C166.472 114.934 170.621 114.73 168.879 114.875ZM195.031 113.341C196.113 113.256 198.161 113.034 197.934 113.158C197.932 113.159 197.931 113.159 197.929 113.159C196.962 113.221 195.996 113.281 195.031 113.341ZM93.9283 113.145C91.9182 113.046 92.885 112.963 94.6576 113.14C95.1834 113.285 94.258 113.161 93.9283 113.145ZM87.6151 112.347C87.0656 112.312 81.319 111.245 82.2217 111.308C82.5289 111.341 85.8084 112.009 85.9688 112.023C86.2028 112.053 85.1579 111.777 86.929 112.093C86.8276 112.111 87.8047 112.368 87.6151 112.347ZM92.2699 113.03C90.2868 112.881 89.888 112.573 91.3577 112.788C91.9331 112.871 92.5533 113.05 92.2699 113.03ZM100.435 114.013C99.7011 113.959 97.7614 113.776 96.452 113.533C98.2055 113.741 100.055 113.94 101.764 114.106C101.955 114.171 101.074 114.061 100.43 114.012C100.431 114.012 100.433 114.012 100.435 114.013ZM519.086 179.61C518.989 177.972 519.022 181.762 519.024 181.894C519.08 182.362 519.135 180.365 519.086 179.61ZM21.5057 10.2948C21.4919 9.8274 21.4504 9.51697 21.3316 8.48454C21.5863 9.50934 21.6039 10.575 21.4614 11.6204C21.1487 12.3717 21.5405 10.8249 21.5057 10.2948ZM20.1999 6.66498C20.2379 6.80783 19.7848 6.17032 20.5716 7.76553C20.7682 8.3339 20.5902 6.98033 19.5976 5.60705C18.6817 4.27154 17.0717 3.08329 16.5334 2.78194C17.6868 3.55921 19.7389 5.48639 20.1999 6.66498ZM10.7325 0.846928C10.6359 0.809543 12.8884 1.86914 13.1233 1.99963C14.4939 2.61195 11.0865 0.83986 10.7325 0.846928ZM17.3436 4.65997C16.5019 3.98548 18.3247 5.59658 18.6649 6.13071C18.8094 6.17144 17.4678 4.69873 17.3436 4.65997ZM512.724 164.294C512.101 163.195 511.969 162.074 512.659 163.839C512.693 163.926 512.751 164.34 512.724 164.294ZM12.8004 2.06268C13.8687 2.54787 11.4917 1.32326 10.872 1.1104C10.7655 1.09961 12.655 1.98021 12.8004 2.06268ZM512.039 163.633C511.286 162.206 511.852 162.561 511.956 162.744C512.378 163.455 513.296 166.241 513.415 166.804C512.013 162.737 512.356 164.322 512.039 163.633ZM508.677 156.889C507.881 155.575 510.064 158.828 510.294 159.549C509.942 158.884 508.912 157.256 508.677 156.889ZM502.885 149.647C502.327 149.038 500.59 147.311 500.328 146.985C500.971 147.612 502.707 149.345 502.885 149.647ZM501.464 148.401C500.523 147.557 500.473 147.171 501.449 148.264C501.487 148.306 501.499 148.431 501.464 148.401ZM496.122 143.53C495.42 143.058 494.809 142.254 495.878 143.137C496.191 143.4 496.197 143.58 496.122 143.53ZM510.819 161.961C510.268 160.936 509.692 159.488 510.868 161.738C510.503 160.941 510.094 160.12 509.68 159.345C511.374 162.221 510.976 162.13 511.405 162.989C511.954 164.185 512.076 164.028 512.027 163.753C512.409 164.798 513.953 169.176 514.363 171.822C513.911 169.525 512.689 165.879 511.712 163.788C511.449 163.197 511.224 162.585 510.969 162.071C510.568 161.275 510.851 162.019 510.821 161.965C510.82 161.964 510.82 161.963 510.819 161.961ZM488.509 137.716C486.403 136.41 487.84 137.099 488.955 137.925C488.998 137.959 488.561 137.749 488.509 137.716ZM9.55316 1.37092C12.4068 2.61268 10.8283 1.20446 16.1267 4.88877C14.0404 3.21951 16.0449 4.68996 15.658 4.34741C15.3943 4.08502 13.9781 3.25675 14.8322 3.68108C13.7606 2.96868 8.77795 0.766224 8.38251 0.699248C8.38489 0.700152 8.38724 0.701056 8.38962 0.70196C8.22934 0.652917 8.55609 0.999818 9.55316 1.37092ZM502.43 150.047C501.679 149.649 501.751 149.058 500.475 148.099C499.235 146.296 504.584 152.4 505.293 153.062C499.644 146.306 509.166 157.419 504.972 152.892C508.162 156.783 505.933 154.23 506.362 154.877C506.838 155.583 508.438 157.893 508.261 157.838C508.261 157.837 508.26 157.836 508.259 157.835C507.332 156.352 506.341 154.946 505.287 153.587C506.511 154.792 504.278 152.021 503.317 151.246C503.014 150.83 502.73 150.444 502.43 150.047ZM508.595 157.719C508.529 157.556 506.409 154.432 506.556 154.603C506.96 154.983 509.802 159.496 508.595 157.719ZM514.438 173.032C514.232 171.683 513.723 169.708 513.595 168.96C513.968 170.268 514.414 172.283 514.438 173.032ZM465.989 125.36C464.381 124.536 469.417 126.86 467.929 126.257C467.862 126.227 466.074 125.4 465.989 125.36ZM499.697 147.174C498.336 145.992 499.144 146.375 500.052 147.359C500.103 147.415 499.759 147.229 499.697 147.174ZM11.9359 2.45916C12.109 2.53494 16.0055 4.68662 16.5051 5.30519C16.3417 4.84424 11.9581 2.27832 11.9359 2.45916ZM514.501 175.406C514.03 172.767 513.438 169.254 513.297 168.857C513.187 168.487 513.249 169.098 513.222 169.014C513.222 168.825 511.881 164.845 511.763 164.683C511.713 164.545 512.138 165.198 511.852 164.372C512.629 165.912 514.506 173.33 514.378 173.768C514.397 174.073 513.958 171.785 514.5 175.401C514.5 175.403 514.5 175.404 514.501 175.406ZM512.991 167.924C513.362 168.906 512.498 166.103 512.192 165.45C511.597 164.002 512.986 167.768 512.991 167.924ZM510.287 161.418C510.144 161.108 508.635 158.466 508.54 158.227C509.406 159.404 510.668 162.081 510.287 161.418ZM486.634 137.015C485.944 136.538 484.054 135.393 483.973 135.276C484.65 135.704 486.559 136.888 486.634 137.015ZM17.8672 12.5747C18.2267 11.4895 17.269 13.9547 16.8014 14.7552C16.8575 14.7943 17.8814 12.6655 17.8672 12.5747ZM499.077 147.378C498.845 146.978 491.428 140.672 490.252 139.953C491.442 140.594 498.846 146.813 499.02 147.208C499.109 147.303 499.123 147.418 499.077 147.378ZM511.034 163.98C511.294 164.806 511.593 165.294 511.633 165.392C512.048 166.371 512.685 168.481 512.621 167.997C512.098 166.193 510.512 162.343 511.034 163.98ZM485.824 136.962C483.029 135.092 488.471 138.56 487.69 138.173C487.649 138.148 486.122 137.157 485.824 136.962ZM499.836 148.156C500.429 148.597 506.707 155.836 507.355 157.238C506.716 156.039 505.986 155.171 504.864 153.727C504.553 153.331 504.678 153.402 504.645 153.36C504.093 152.672 504.458 153.223 504.124 152.815C504.004 152.51 499.229 147.318 499.836 148.156ZM511.169 164.456C511.433 164.924 513.171 170.5 513.129 170.737C513.732 172.407 511.553 164.798 511.169 164.456ZM499.118 147.617C499.787 148.423 503.12 151.841 500.927 149.397C500.703 149.15 499.766 148.287 499.118 147.617ZM486.044 137.282C485.887 137.169 482.992 135.358 482.944 135.284C483.398 135.51 487.629 138.264 486.044 137.282ZM487.436 138.419C487.367 138.371 488.089 138.745 486.75 137.852C486.637 137.781 486.371 137.712 484.673 136.567C484.337 136.342 483.837 135.942 483.877 135.963C485.786 136.917 490.823 140.842 487.436 138.419ZM511.132 164.589C510.967 164.312 511.146 165.074 511.446 165.676C511.573 165.934 511.469 165.409 511.132 164.589ZM476.592 131.653C478.34 132.69 472.705 129.665 472.443 129.543C472.633 129.568 476.437 131.543 476.592 131.653ZM16.0905 14.8573C16.0912 14.8561 16.0919 14.8548 16.0926 14.8536C15.3279 16.2335 15.8672 15.4198 15.836 15.4824C14.1303 18.494 14.4099 17.6611 14.1188 18.1021C13.4343 19.0694 13.675 19.0439 12.465 20.6971C14.4658 17.9342 12.6942 20.4776 12.6923 20.5956C12.6989 21.0649 15.157 16.7521 15.94 15.4225C16.069 15.2271 15.2784 16.7176 15.5986 16.2306C16.7781 14.614 18.4971 9.64937 16.0905 14.8573ZM511.618 166.171C511.911 166.868 513.38 172.32 513.067 170.858C513.133 170.604 511.414 165.082 511.618 166.171ZM249.379 114.586C250.845 114.525 247.469 114.903 246.838 114.905C246.524 114.906 248.735 114.612 249.379 114.586ZM225.646 116.952C223.901 117.088 222.041 116.96 224.212 116.82C224.443 116.805 225.843 116.896 225.646 116.952ZM339.627 108.643C337.817 108.796 337.919 108.605 339.251 108.569C339.721 108.557 339.684 108.639 339.627 108.643ZM270.457 112.886C270.277 112.908 268.18 113.072 268.253 113.023C269.026 112.931 271.626 112.743 270.457 112.886ZM340.203 108.655C339.128 108.65 340.975 108.462 342.287 108.565C341.622 108.569 340.314 108.655 340.203 108.655ZM496.17 145.467C495.605 144.856 493.652 143.247 492.573 142.396C492.39 142.359 495.471 144.793 496.17 145.467ZM233.012 116.201C231.364 116.274 234.877 115.909 234.563 116.031C234.519 116.04 233.077 116.199 233.012 116.201ZM397.877 110.161C396.687 109.987 400.49 110.271 399.435 110.275C399.384 110.274 397.943 110.169 397.877 110.161ZM414.229 112.095C413.318 111.972 409.517 111.443 411 111.588C411.203 111.603 414.178 112.028 414.229 112.095ZM14.0047 18.1443C14.1923 17.6801 12.6579 20.0277 12.4446 20.3665C12.3607 20.5054 13.7897 18.724 14.0047 18.1443ZM327.849 109.074C326.915 109.099 324.49 109.233 324.059 109.2C325.206 109.156 328.153 108.952 327.849 109.074ZM240.509 115.545C239.085 115.783 236.638 115.986 237.23 115.787C239.934 115.56 236.906 115.948 240.509 115.545ZM346.222 108.64C345.476 108.662 344.9 108.533 344.984 108.525C345.793 108.446 346.963 108.572 346.222 108.64ZM289.818 111.394C289.779 111.457 287.367 111.613 287.686 111.55C287.79 111.529 289.849 111.343 289.818 111.394ZM470.306 128.832C469.293 128.39 472.291 129.939 473.156 130.326C473.63 130.46 470.454 128.889 470.306 128.832ZM367.043 108.589C367.151 108.677 363.375 108.571 364.857 108.519C365.231 108.505 367.005 108.558 367.043 108.589ZM402.904 110.855C400.431 110.452 410.877 111.615 408.118 111.421C407.929 111.397 403.127 110.879 402.904 110.855ZM419.943 113.164C419.515 113.104 419.68 113.431 421.45 113.627C421.682 113.653 420.621 113.385 420.812 113.4C420.93 113.403 424.725 114.059 424.891 114.106C425.076 114.15 424.838 114.202 425.025 114.249C425.217 114.296 427.612 114.685 428.846 114.949C431.171 115.444 431.395 115.587 431.585 115.628C432.136 115.752 433.072 115.907 434.178 116.171C439.674 117.431 448.235 120.041 452.445 121.395C448.666 120.141 445.014 118.927 441.088 117.817C442.168 118.269 435.419 116.173 439.349 117.411C437.653 116.734 421.316 113.212 419.948 113.165C419.946 113.165 419.944 113.165 419.943 113.164ZM218.781 117.617C219.856 117.631 214.379 118.062 213.909 117.98C214.627 117.906 218.646 117.618 218.781 117.617ZM244.088 115.679C244.598 115.652 245.105 115.808 247.756 115.473C247.758 115.473 247.76 115.472 247.763 115.472C248.539 115.374 247.647 115.404 247.788 115.374C247.84 115.362 250.259 115.05 248.241 115.211C245.165 115.457 247.965 115.385 246.326 115.531C246.13 115.548 243.002 115.715 243.182 115.676C243.201 115.671 244.14 115.611 244.294 115.588C244.875 115.5 244.585 115.462 244.667 115.452C244.943 115.42 249.852 115.095 250.56 114.939C250.79 114.889 242.725 115.53 242.405 115.573C242.207 115.601 242.306 115.766 242.102 115.801C241.996 115.819 238.742 116.04 238.322 116.093C238.2 116.108 238.107 116.121 238.039 116.131C238.525 116.035 235.587 116.296 235.682 116.348C235.735 116.368 237.757 116.177 237.829 116.166C237.86 116.162 237.888 116.157 237.913 116.153C237.499 116.255 244.355 115.649 242.883 115.876C244.877 115.754 242.589 115.759 244.088 115.679ZM253.631 114.947C253.425 114.947 253.218 114.947 253.012 114.947C256.487 114.687 260.49 114.25 264.491 113.908C265.506 113.821 264.348 114.032 265.675 113.888C266.739 113.772 267.91 113.569 267.328 113.596C267.187 113.602 265.022 113.854 263.936 113.94C260.727 114.195 261.528 114.031 261.341 114.044C261.134 114.059 259.12 114.301 258.018 114.394C255.245 114.628 253.974 114.68 250.197 115.089C252.386 114.96 251.201 115.201 253.631 114.947ZM382.883 109.415C383.013 109.481 385.293 109.554 386.114 109.615C385.989 109.546 383.713 109.466 382.883 109.415ZM43.9742 105.591C43.3499 105.2 48.3097 107.511 46.9714 106.97C46.6687 106.858 44.5838 105.899 43.9742 105.591ZM66.6976 114.04C67.3814 114.262 64.5784 113.546 64.6095 113.469C64.618 113.45 66.6068 114.015 66.6976 114.04ZM298.489 111.225C298.622 111.218 300.55 111.064 300.61 111.055C301.882 110.861 295.532 111.362 298.489 111.225ZM95.3595 119.694C92.8753 119.331 100.387 120.194 98.0818 120.006C97.9641 119.999 95.4762 119.715 95.3595 119.694ZM105.687 120.788C105.095 120.737 102.488 120.527 102.459 120.491C102.409 120.441 105.393 120.683 105.687 120.788ZM346.732 109.004C346.45 109.119 349.858 108.981 351.065 108.985C351.35 108.869 347.895 108.995 346.732 109.004ZM325.166 109.779C339.556 109.281 336.349 109.152 324.306 109.764C324.292 109.836 324.257 109.815 325.166 109.779ZM343.627 109.134C343.104 109.074 341.471 109.133 340.365 109.168C340.566 109.212 342.832 109.137 343.627 109.134ZM38.2149 102.693C38.9616 103.255 42.6833 105.106 42.0508 104.723C41.8851 104.656 37.9297 102.496 38.2149 102.693ZM299.708 111.236C299.379 111.366 303.718 111.029 304.047 110.985C305.38 110.799 300.063 111.233 299.708 111.236ZM367.176 109.095C367.944 109.193 370.124 109.196 371.518 109.234C370.886 109.143 368.369 109.113 367.176 109.095ZM357.133 109.072C357.221 109.075 359.163 109.07 359.249 109.067C360.84 108.987 355.347 109.001 357.133 109.072ZM16.282 12.6579C16.269 12.7063 15.7519 13.7907 15.7161 13.848C15.309 14.8801 16.8766 11.5457 16.282 12.6579Z" fill="#F3A54D"/>
</svg>
