<svg width="317" height="165" viewBox="0 0 317 165" fill="none" xmlns="http://www.w3.org/2000/svg">
<path d="M27.5783 36.5788C27.9498 36.6904 29.4586 37.1837 30.1329 37.3741C29.3265 37.2633 26.2237 36.1831 27.5783 36.5788ZM95.9705 37.9288C95.4207 37.9357 94.872 37.9419 94.3242 37.9474C95.8701 38.0248 97.9994 38.0776 99.4199 38.1451C99.6524 38.1563 99.0465 38.2149 99.5969 38.2349C100.148 38.2547 100.045 38.1468 100.848 38.1583C101.745 38.1744 105.892 38.3469 107.343 38.3689C112.797 38.4638 118.139 38.4461 123.596 38.4883C117.987 38.5598 123.65 38.6489 125.2 38.6095C125.547 38.5985 125.484 38.4154 131.085 38.4277C134.648 38.4276 131.359 38.7432 137.307 38.5348C132.73 38.3929 137.23 38.3603 140.812 38.2972C141.43 38.2885 146.42 38.2311 148.618 38.1737C149.368 38.155 150.522 38.0277 151.525 38.0021C152.215 37.9845 152.739 38.0283 153.763 38.0007C158.535 37.8727 163.199 37.7362 168.002 37.6051C165.216 37.9547 170.199 37.6485 170.418 37.653C171.558 37.6883 166.416 37.8715 168.452 37.8519C171.313 37.7537 174.07 37.6542 176.977 37.546C174.621 37.5949 180.087 37.2174 181.08 37.2669C180.611 37.0554 194.092 36.9935 196.096 36.8378C196.524 36.8053 193.73 36.7957 200.174 36.6055C200.887 36.5846 200.62 36.6647 200.993 36.6442C201.216 36.6319 202.558 36.3586 203.985 36.4285C204.494 36.4549 201.23 36.721 208.444 36.3959C205.483 36.2752 218.654 35.904 220.898 35.8981C220.432 35.8825 219.965 35.8673 219.495 35.8522C221.783 35.8597 222.283 35.7681 222.817 35.7555C225.027 35.7034 227.984 35.6969 229.931 35.6408C232.165 35.577 232.304 35.4313 235.064 35.4288C234.406 35.4109 233.742 35.3939 233.073 35.3778C235.02 35.3417 236.919 35.313 238.766 35.2927C234.453 35.5498 239.708 35.2845 240.023 35.2799C240.562 35.2663 239.79 35.3523 240.688 35.3317C240.787 35.3293 240.616 35.2579 242.133 35.2346C245.25 35.1925 244.734 35.2909 246.006 35.2857C246.117 35.2859 245.735 35.2177 247.868 35.2065C254.882 35.2104 247.733 35.2473 247.576 35.2643C247.207 35.2804 249.648 35.5343 243.713 35.4594C245.732 35.4784 245.909 35.6014 246.135 35.6034C246.367 35.6023 249.615 35.5962 249.88 35.5981C251.669 35.5752 250.097 35.4774 250.446 35.4663C250.766 35.4507 254.986 35.6319 255.883 35.4235C257.748 35.7161 254.877 35.5766 251.408 35.5676C250.924 35.6033 254.641 35.7149 254.798 35.7257C259.293 35.8642 256.899 35.6074 257.921 35.5231C258.516 35.4828 260.516 35.7095 258.662 35.4525C263.093 35.6654 260.391 35.6245 260.688 35.6514C261.116 35.6952 262.584 35.7469 262.755 35.7684C263.017 35.7978 262.102 35.7863 263.132 35.8855C263.256 35.8976 265.086 35.9475 262.834 35.7176C265.943 35.9847 265.81 35.9208 266.818 36.2052C268.957 36.1557 268.257 36.594 269.079 36.7381C271.644 37.2422 270.899 36.88 271.052 36.8868C271.324 36.9219 272.125 37.0842 273.057 37.3619C274.065 37.6574 275.806 38.2871 277.043 39.2724C278.513 40.41 279.561 41.5606 280.015 42.0976C279.686 41.8452 278.491 40.4796 277.005 39.3213C275.767 38.3443 274.45 37.8665 273.886 37.6762C272.416 37.2464 272.819 37.3958 273.851 37.766C274.981 38.1555 276.468 39.0121 276.897 39.4606C277.055 39.6117 277.067 39.6549 276.848 39.5246C276.76 39.4715 276.639 39.3953 276.478 39.3002C276.598 39.3754 276.718 39.4547 276.837 39.5384C277.751 40.176 278.575 40.841 279.312 41.5532C279.955 42.3771 279.751 42.2528 279.872 42.4371C279.896 42.6542 280.815 43.123 281.944 46.3039C282.605 47.1472 279.881 42.0467 280.433 43.0507C281.059 43.4928 282.514 47.2012 282.386 47.4646C282.585 47.4131 281.277 43.9583 281.493 44.5138C281.898 44.7949 283.155 48.9647 282.279 51.1919C281.98 52.2995 281.608 52.9728 281.664 52.8222C281.657 52.6456 282.338 51.7572 282.475 49.0341C282.306 52.0392 281.156 53.367 280.135 55.0325C279.759 55.6025 280.755 54.3759 280.967 54.1369C281.193 53.7146 280.861 55.4762 277.04 58.8173C276.864 58.9198 279.998 55.915 280.08 55.5877C280.181 55.4401 279.425 55.9783 279.312 56.0816C279.061 56.3827 277.238 58.4146 274.948 60.0788C272.671 61.7872 270.196 63.191 269.254 63.643C269.996 63.4852 262.896 66.9942 262.141 67.3107C261.945 67.4151 262.735 67.1534 262.525 67.2615C261.26 67.9296 257.299 69.4705 255.638 70.134C253.692 70.9241 253.955 70.8975 253.848 70.9419C252.974 71.2864 253.652 70.9571 253.117 71.1702C252.26 71.5281 246.885 73.5607 246.559 73.6809C246.478 73.7146 247.423 73.4635 246.21 73.9307C245.991 74.0115 246.11 73.866 242.59 75.1839C238.319 76.7694 245.605 74.2471 243.864 74.9915C241.07 75.8243 241.199 75.9429 240.444 76.1976C240.166 76.291 238.226 76.8295 236.14 77.5558C237.643 77.0148 239.075 76.4927 240.607 75.9279C239.089 76.4408 236.299 77.4392 235.057 77.8342C234.458 78.0251 234.913 77.7509 233.618 78.1952C233.341 78.2897 232.347 78.9231 235.692 77.6481C235.994 77.6484 234.365 78.1395 233.623 78.4208C233.513 78.4626 233.107 78.774 232.135 78.9953C231.894 79.047 234.236 77.7639 227.937 80.2375C227.734 80.3171 228.472 80.1341 228.274 80.2133C228.139 80.2676 226.489 80.7907 226.31 80.8589C226.127 80.9292 226.941 80.7278 226.724 80.8134C225.611 81.2527 224.053 81.4951 226.385 80.7432C225.595 80.9717 224.811 81.1973 224.023 81.4237C224.916 81.3347 222.819 81.8793 221.745 82.2386C214.859 84.5406 219.517 83.1445 218.352 83.5965C216.476 84.3228 217.826 83.5278 215.031 84.5501C214.773 84.6453 218.231 83.6584 211.54 85.7715C212.534 85.4387 213.505 85.1141 214.487 84.7862C213.866 84.7906 210.937 85.9657 210.705 86.0452C208.096 86.9335 209.828 86.2871 206.011 87.6565C205.666 87.7805 204.885 87.9914 204.149 88.2623C201.101 89.3833 208.232 86.9598 208.436 86.9787C208.556 86.9722 200.865 89.5312 200.632 89.6011C199.5 89.9002 204.061 88.4056 203.165 88.6053C202.819 88.6648 192.062 92.4338 189.863 93.2421C187.42 94.0913 186.183 94.2975 186.271 94.5706C185.462 94.5766 184.919 94.9946 184.606 95.1145C180.948 96.5323 180.728 96.6213 177.702 97.9694C177.059 98.2608 176.359 98.4872 176.13 98.6089C175.991 98.6838 176.294 98.6425 175.606 98.9954C174.605 99.4311 169.202 102.234 168.827 102.543C168.423 102.718 170.982 101.191 170.483 101.404C168.627 102.473 166.864 103.675 165.642 104.94C165.205 105.414 165.402 105.109 165.203 105.344C164.882 105.645 164.555 106.661 164.68 106.449C164.681 106.603 164.667 105.855 166.12 104.535C167.574 103.225 169.017 102.401 168.041 103.105C167.664 103.372 166.374 104.239 166.667 104.22C165.848 104.907 165.268 105.553 164.989 106.052C164.749 106.555 164.824 106.381 164.838 106.525C164.925 106.754 165.272 107.249 166.129 107.896C166.793 108.398 167.665 108.929 168.824 109.501C172.375 111.252 176.378 112.617 180.397 113.709C176.558 112.782 172.402 111.366 168.788 109.576C167.495 108.933 166.646 108.414 165.864 107.806C165.215 107.344 164.682 106.505 164.715 106.673C164.89 107.005 165.237 107.439 166.098 108.079C166.729 108.544 167.617 109.079 168.759 109.634C171.095 110.775 173.673 111.753 175.931 112.519C176.067 112.566 175.541 112.472 176.051 112.651C177.008 113.004 180.106 113.766 180.671 113.933C180.756 113.967 178.923 113.567 179.455 113.778C180.823 114.318 181.299 114.072 182.481 114.369C183.39 114.641 189.745 116.144 191.439 116.291C193.182 116.496 186.651 115.34 187.183 115.322C191.523 116.112 196.045 116.919 200.193 117.461C200.267 117.471 199.633 117.312 200.574 117.427C202.213 117.624 202.653 117.782 203.43 117.895C204.272 118.02 207.323 118.355 207.735 118.436C207.787 118.447 207.153 118.481 207.059 118.474C205.719 118.366 205.268 118.176 205.147 118.16C204.696 118.102 204.247 118.1 203.837 118.048C203.162 117.96 202.806 117.869 201.896 117.749C201.272 117.666 201.862 117.834 201.262 117.752C201.038 117.724 198.713 117.199 198.47 117.378C198.352 117.567 217.753 119.777 219.732 119.81C218.054 119.634 216.386 119.455 214.73 119.27C218.089 119.657 222.222 119.844 222.478 120.12C235.1 121.244 247.798 122.168 260.532 123.825C262.807 124.149 261.524 124.127 265.269 124.616C264.289 124.42 263.359 124.236 262.4 124.054C264.281 124.303 272.798 125.748 274.162 126.027C274.346 126.061 274.589 125.945 276.727 126.374C278.63 126.764 278.899 126.945 279.89 127.194C280.718 127.404 281.651 127.604 281.914 127.677C282.107 127.73 282.168 127.814 282.63 127.945C284.081 128.361 282.952 127.866 284.333 128.464C283.982 128.376 283.63 128.29 283.276 128.205C285.03 128.697 287.323 129.479 284.785 128.8C284.345 128.687 284.739 128.728 284.412 128.638C271.467 125.496 281.795 127.96 286.294 129.214C287.485 129.589 293.882 131.812 294.079 131.995C294.358 132.141 293.258 131.765 294.635 132.414C294.941 132.355 303.182 136.726 300.159 135.224C299.605 134.88 295.579 132.857 294.648 132.518C296.875 133.578 302.176 136.225 302.695 136.688C304.918 138.185 298.271 134.034 303.314 137.352C307.107 140.187 303.628 137.405 305.12 138.468C306.025 138.968 309.746 142.95 309.716 142.784C310.914 144.233 310.139 143.445 310.28 143.629C310.461 143.776 312.598 146.856 313.018 148.002C313.078 148.136 312.783 147.766 312.843 147.906C313.019 148.138 314.358 151.511 314.339 151.64C314.374 151.725 314.202 150.894 314.328 151.218C314.531 151.561 315.295 154.977 315.293 155.164C315.449 155.425 314.45 151.221 314.687 151.907C315.264 153.823 315.734 156.951 315.839 158.261C315.816 157.934 315.652 156.046 315.549 155.415C315.805 155.659 316.052 159.788 315.855 158.381C315.949 159.283 315.961 158.664 316.032 159.176C316.055 159.342 316.052 160.533 316.064 160.774C316.073 160.802 316.144 159.555 316.169 159.805C316.275 160.231 315.998 164.012 315.892 164.352C315.752 165.234 316.062 162.085 315.982 161.845C315.997 161.8 315.623 164.426 315.584 164.475C315.477 164.604 315.843 161.686 315.695 162.02C315.626 162.73 315.535 163.449 315.422 164.178C315.781 161.393 315.597 156.265 315.169 155.023C315.908 159.074 315.374 163.336 315.116 163.306C315.015 163.284 315.087 161.544 315.045 161.614C314.951 161.848 314.821 164.287 314.783 164.389C314.767 164.464 314.756 164.498 314.75 164.497H314.75C314.732 164.466 314.999 161.021 314.934 160.877C314.901 160.594 314.631 162.074 314.579 162.07C314.594 162.005 314.623 159.655 314.522 160.445C314.447 161.228 314.267 163.332 314.237 163.413C314.185 163.793 314.4 160.143 314.325 160.066C314.324 160.005 314.167 161.918 314.124 161.98C314.102 162.023 314.129 160.553 314.046 159.998C313.994 159.58 313.932 160.798 313.925 160.583C313.97 160.487 313.855 156.975 313.776 156.838C313.738 156.592 313.745 157.391 313.716 157.277C313.683 157.112 313.584 156.031 313.573 156.176C313.646 156.243 313.598 160.604 313.465 160.497C313.401 160.51 313.539 155.97 313.186 160.147C313.186 160.172 313.187 161.148 313.18 161.178C313.066 161.782 313.121 158.619 312.913 162.49C313.027 155.335 312.833 161.596 312.68 160.523C312.657 160.174 312.521 157.311 312.477 157.326C312.416 157.598 312.539 158.48 312.502 158.791C312.507 158.943 312.229 156.487 312.207 157.05C312.237 157.299 312.347 160.021 312.31 160.065C312.235 161.061 312.195 159.837 312.149 160.057C312.13 160.194 312.064 161.731 312.047 161.777C312.047 161.823 312.019 159.774 311.952 159.322C311.921 158.991 311.879 160.237 311.864 160.002C311.829 158.587 311.743 155.606 311.678 158.486C311.675 158.654 311.701 159.793 311.693 159.794C311.617 160.462 311.599 158.453 311.492 158.102C311.354 157.494 311.547 160.362 311.356 157.981C311.379 159.813 311.376 160.669 311.206 162.79C311.497 157.114 310.895 155.132 310.977 161.37C311.066 159.406 310.857 159.653 310.852 159.037C310.881 158.634 310.757 155.82 310.526 157.138C310.512 157.29 310.671 159.02 310.546 158.482C310.217 154.41 310.514 158.376 310.47 158.401C310.353 158.36 310.28 155.886 309.523 153.314C308.832 150.755 307.345 148.294 306.835 147.624C305.689 146.018 304.33 144.92 304.016 144.611C302.98 143.62 303.901 144.379 303.69 144.134C303.557 143.857 300.183 141.419 300.008 141.371C299.371 140.9 300.096 141.262 300.03 141.212C299.323 140.53 294.268 137.886 292.755 137.315C292.761 137.368 295.717 138.74 293.822 137.981C291.668 137.154 291.629 136.865 291.581 136.823C281.488 132.823 270.421 130.991 259.374 129.542C259.505 129.692 266.728 130.596 266.885 130.668C267.846 130.879 255.625 129.194 254.13 129.036C255.272 129.199 256.406 129.365 257.532 129.536C255.595 129.474 251.261 128.757 248.438 128.558C247.52 128.492 249.27 128.737 249.233 128.738C248.2 128.702 246.549 128.487 247.796 128.516C245.268 128.358 245.641 128.296 243.718 128.108C243.618 128.099 244.44 128.247 242.911 128.136C242.198 128.082 238.363 127.742 237.85 127.762C237.637 127.77 239.549 128.217 239.813 128C243.966 128.489 241.154 128.01 242.768 128.162C243.017 128.188 242.431 128.26 246.499 128.586C245.69 128.746 241.053 128.136 240.236 128.096C238.58 128.007 245.376 128.745 246.648 128.688C246.044 128.819 247.133 128.759 248.647 128.919C250.302 129.095 249.574 129.078 250.467 129.171C252.904 129.43 251.921 129.191 253.926 129.534C252.009 128.943 257.36 129.87 258.938 130.18C256.358 129.872 253.824 129.601 251.227 129.345C251.372 129.38 251.514 129.414 251.661 129.45C250.985 129.375 250.314 129.302 249.637 129.229C249.748 129.222 249.858 129.214 249.968 129.207C246.466 128.971 245.605 128.76 245.322 128.73C241.659 128.364 237.383 127.994 233.647 127.677C233.085 127.63 233.461 127.783 229.376 127.344C228.073 127.204 229.313 127.214 227.833 127.103C225.962 127.204 226.01 127.002 225.458 126.955C223.874 126.82 222.902 126.8 222.756 126.788C220.81 126.63 217.925 126.364 215.78 126.172C215.74 126.169 216.849 126.352 215.458 126.198C214.983 126.146 210.587 125.394 206.73 125.073C207.744 125.209 208.732 125.338 209.728 125.464C208.581 125.337 200.279 124.441 202.298 124.768C203.513 124.978 206.569 125.108 206.883 125.351C204.137 125.092 188.943 122.997 187.725 122.567C187.561 122.53 188.586 122.654 188.36 122.602C188.165 122.568 184.745 121.905 184.259 121.762C183.988 121.69 185.542 121.976 185.415 121.923C185.337 121.907 180.934 120.89 180.7 120.898C181.746 121.132 184.772 121.831 183.168 121.548C182.961 121.511 181.923 121.216 181.678 121.168C179.365 120.742 186.231 122.296 187.252 122.445C182.952 121.743 176.369 120.055 171.43 118.295C169.495 117.521 174.388 119.227 172.176 118.384C167.667 116.581 170.924 118.031 170.777 117.989C169.602 117.672 165.863 115.588 165.782 115.832C165.769 115.826 165.757 115.82 165.745 115.813C163.945 114.829 164.43 115.137 162.214 113.7C162.48 113.916 162.757 114.128 163.047 114.337C162.43 113.989 161.543 113.405 160.6 112.497C159.739 111.651 158.86 110.572 158.31 109.059C157.231 106.1 158.643 103.651 158.442 104.094C158.118 105.004 157.855 107.028 158.358 108.504C158.803 110.031 159.714 111.118 159.747 111.172C160.015 111.431 161.275 112.904 165.125 115.208C166.094 115.585 164.272 114.668 163.069 113.83C161.995 113.098 160.607 111.922 162.583 113.364C162.045 112.988 160.682 111.982 159.714 110.611C158.351 108.93 157.839 105.739 158.975 103.561C161.168 99.4358 164.012 98.2294 164.578 97.6261C164.749 97.5139 163.815 97.8324 166.303 96.3822C167.411 95.7557 164.723 97.4279 165.255 97.156C166.123 96.5796 171.7 93.4047 177.841 90.9089C183.939 88.347 190.499 86.0285 192.547 85.2999C192.813 85.2061 192.735 85.2983 192.997 85.2058C193.783 84.9258 196.785 83.791 198.228 83.3325C195.213 84.2392 200.992 82.2614 202.527 81.7681C204.836 81.0175 204.689 81.1817 205.68 80.8772C209.481 79.7101 215.247 77.5556 218.254 76.8197C218.023 76.6459 223.342 75.2708 225.722 74.4782C227.585 73.8603 230.212 72.8095 227.686 73.5569C230.861 72.5055 234.265 71.2978 237.192 70.2557C237.684 70.0806 237.025 70.3868 237.873 70.0816C237.95 70.0534 238.035 69.9509 238.76 69.6867C244.686 67.5031 241.827 68.6753 242.949 68.3174C243.563 68.1188 244.032 67.9585 244.375 67.8357C240.98 69.1111 236.906 70.5644 235.874 70.9237C236.822 70.7674 243.522 68.1908 245.532 67.4629C245.602 67.4385 245.391 67.6067 245.461 67.5811C245.463 67.5806 245.464 67.58 245.466 67.5795C246.245 67.307 250.81 65.5061 249.839 65.773C249.564 65.8518 247.494 66.6656 244.892 67.6418C245.588 67.3625 245.031 67.4699 245.153 67.42C246.663 66.8136 250.211 65.5433 251.55 65.0118C251.844 64.8964 251.8 64.849 251.848 64.8296C253.012 64.3732 252.607 64.7246 253.708 64.0793C255.865 63.4271 249.816 65.7014 250.253 65.6582C250.752 65.7134 263.823 59.9236 263.612 59.6258C263.662 59.62 263.844 59.5529 264.198 59.3971C264.942 59.109 268.489 57.0687 268.894 56.7305C268.985 56.6656 268.862 56.5499 268.985 56.4702C269.375 56.2819 273.251 53.6864 274.063 52.4932C273.52 53.0403 272.863 53.6136 272.101 54.2009C275.972 50.7231 275.003 51.0422 273.989 52.3265C273.937 52.3819 273.881 52.4322 273.829 52.4855C273.008 53.3272 271.403 54.5318 271.435 54.4826C271.311 54.5461 273.297 53.039 274.377 51.686C275.548 50.2891 275.689 49.2683 275.638 49.7973C275.836 49.924 273.715 52.7049 274.856 51.3524C275.161 51.1029 275.917 49.3462 275.825 49.3377C275.891 49.0955 275.928 49.7232 275.466 50.6535C275.099 51.4658 274.212 52.51 274.501 52.2711C275.362 51.1513 276.096 49.8895 276.089 48.9908C276.092 48.5695 275.972 48.4838 275.968 48.4333C275.779 47.6661 275.948 48.067 275.873 47.8165C275.97 47.7427 274.57 46.0318 274.996 46.2369C274.376 45.5273 273.627 44.9125 273.015 44.4621C272.692 44.2515 272.114 44.0526 272.208 44.1075C272.243 44.1365 272.775 44.3881 272.951 44.5446C274.228 45.5162 275.626 47.0181 275.872 48.1646C275.706 47.4327 274.456 45.7154 272.913 44.5944C272.86 44.5538 272.763 44.4917 272.655 44.4353C272.341 44.285 272.574 44.4644 271.824 44.18C270.683 43.3843 260.591 42.2959 257.894 42.2742C259.577 42.3212 259.098 42.2057 257.789 42.1545C256.458 42.1072 257.572 42.2745 257.312 42.2772C256.994 42.2602 251.378 42.0632 250.226 42.0843C254.785 42.1051 253.797 41.9923 249.879 41.9355C250.456 41.9142 251.024 41.8944 251.584 41.876C249.104 41.8712 244.876 41.7377 243.454 41.7931C243.249 41.8011 243.986 41.8732 243.87 41.8777C242.689 41.9138 238.879 41.8834 238.733 41.9143C238.589 41.938 240.171 41.9801 239.585 42.0201C239.464 42.0284 237.941 41.9457 236.39 42.0004C235.815 42.0206 236.163 42.0869 236.018 42.0938C234.801 42.1529 235.531 42.0141 233.273 42.0828C231.556 42.1362 230.473 42.2822 228.254 42.3023C235.398 42.2731 229.457 42.3537 226.369 42.4902C225.871 42.5124 226.321 42.6294 223.325 42.656C229.695 42.2266 221.416 42.5844 219.89 42.6362C219.801 42.6383 219.769 42.552 218.976 42.5768C218.909 42.5792 219.009 42.6347 218.269 42.6639C211.179 42.949 215.708 42.7277 214.356 42.7161C213.792 42.7105 210.215 42.9219 209.356 42.9556C209.146 42.9635 209.241 42.8988 208.425 42.931C206.981 42.9884 205.674 43.1021 204.705 43.1434C204.591 43.148 204.588 43.0513 202.74 43.1518C202.22 43.1801 201.634 43.2364 202.377 43.2363C204.87 43.234 209.333 42.9102 212.138 42.9016C214.648 42.8941 206.766 43.1864 206.373 43.2031C206.223 43.2089 207.753 43.1044 206.196 43.1525C204.867 43.1937 202.418 43.4522 200.383 43.4925C200.223 43.4958 198.612 43.4149 198.695 43.4036C198.734 43.3961 201.236 43.2712 200.87 43.244C200.831 43.2408 199.23 43.302 199.043 43.2786C198.797 43.2507 198.125 42.9118 197.797 42.9151C196.955 42.9242 197.506 42.9865 196.961 43.0013C195.8 43.0329 191.695 43.0793 191.56 43.2104C192.242 43.1924 192.921 43.1745 193.598 43.1565C189.822 43.311 191.43 43.3044 190.896 43.348C190.317 43.3952 190.477 43.2783 189.191 43.3156C188.878 43.3255 183.612 43.5414 183.707 43.5839C186.624 43.4041 185.544 43.5802 185.679 43.5778C186.191 43.568 186.831 43.4677 187.523 43.4437C192.453 43.2734 187.488 43.5786 188.653 43.5667C189.054 43.5624 189.847 43.4673 190.017 43.4643C190.567 43.4547 190.579 43.5403 190.945 43.5197C191.798 43.4717 190.797 43.3874 190.864 43.3785C191.628 43.274 194.602 43.2573 192.757 43.4588C193.869 43.4648 193.992 43.2993 194.871 43.3306C196.614 43.3924 194.01 43.4577 193.298 43.5055C190.759 43.6768 189.954 43.6455 186.352 43.7989C185.07 43.8534 183.544 43.9867 182.943 44.0126C182.569 44.0291 178.97 43.8846 178.876 44.3131C177.483 44.3207 175.227 44.1174 173.826 44.1768C172.547 44.2311 172.959 44.3678 172.84 44.3776C172.657 44.3929 171.105 44.4318 170.579 44.4699C169.964 44.5148 170.274 44.5624 169.295 44.617C166.856 44.7519 166.912 44.5956 166.661 44.5935C163.734 44.5668 165.019 44.7461 164.371 44.7831C163.735 44.8221 155.355 44.9683 153.562 45.0611C154.285 45.013 155.008 44.9645 155.73 44.9155C154.434 44.8524 153.064 45.0411 153.036 44.87C152.781 45.1539 150.095 45.0297 149.294 45.0533C148.979 45.063 149.005 45.1097 148.61 45.12C147.068 45.1617 143.583 45.1885 142.745 45.2256C139.12 45.3913 148.396 45.4015 149.121 45.3891C147.666 45.4231 139.398 45.6273 143.201 45.6954C143.789 45.706 144.828 45.5631 145.157 45.552C147.388 45.4778 145.635 45.6224 145.811 45.6296C146.109 45.6412 147.575 45.5048 147.962 45.5095C148.091 45.5108 147.262 45.6293 149.387 45.5866C148.347 45.7098 142.36 45.742 141.574 45.7742C141.294 45.7855 143.052 45.9721 137.922 45.8417C137.981 45.8603 138.041 45.8789 138.101 45.8974C135.246 45.9435 132.383 45.9799 129.529 46.0051C129.839 45.9587 131.441 45.8586 129.422 45.8905C128.26 45.9081 129.121 46.0027 129.015 46.0061C127.971 46.079 109.541 45.9789 105.89 45.8577C104.666 45.8386 101.276 45.8334 101.021 45.826C99.5163 45.7995 93.9502 45.5569 92.8652 45.5176C92.1801 45.4968 92.8276 45.6066 92.2164 45.5774C91.6486 45.55 92.2403 45.4943 92.0718 45.4839C90.7087 45.424 80.0169 44.9602 77.5351 44.6739C79.03 44.8216 86.8314 45.1152 86.661 45.037C86.6463 45.0292 84.7439 44.8664 84.3542 44.8732C83.7117 44.7685 81.4938 44.8491 80.3082 44.7291C80.1752 44.715 80.7075 44.6339 78.5946 44.4694C77.8636 44.4121 75.9738 44.372 74.0719 44.1162C71.1658 44.0214 56.5723 42.2745 55.5583 42.1733C55.5257 42.1771 57.5708 42.4955 56.1781 42.3617C54.3349 42.1791 56.0067 42.1761 53.8883 41.8554C53.6535 41.8387 47.4826 40.8846 47.3186 40.849C45.4691 40.666 50.7368 41.6177 50.6814 41.6095C50.4719 41.6267 46.073 40.9064 45.9157 40.8568C45.7499 40.8179 49.3093 41.2798 45.0624 40.5807C45.5401 40.6906 46.0207 40.7992 46.5041 40.9064C44.5022 40.5877 44.3486 40.4275 43.8729 40.3305C42.4527 40.0322 40.675 39.8668 38.2953 39.0956C37.667 38.8908 38.7471 39.0684 38.6692 39.041C37.9144 38.7883 36.8856 38.7725 35.7924 38.3377C35.7188 38.301 38.3388 38.8701 33.7886 37.7164C34.0943 37.8125 34.4017 37.9079 34.7107 38.0026C34.1464 37.9212 29.261 36.575 28.6677 36.3513C26.8451 35.7493 28.4635 36.1542 26.6466 35.5724C27.7703 36.1372 22.2295 34.2015 22.555 34.1408C21.593 33.972 17.2849 32.0152 14.9534 30.6873C13.5479 29.953 10.9402 28.3657 10.5604 28.0632C10.0458 27.6873 10.259 27.7127 9.36527 27.015C9.07906 26.7937 6.47282 24.9302 4.58322 22.5516C4.20532 22.0934 3.59619 21.0209 4.31123 21.8297C5.57383 23.3078 7.8658 25.5427 7.94437 25.4365C7.94341 25.3616 4.6654 22.3256 3.93854 21.1981C0.716779 16.4344 2.75797 19.0848 2.66314 18.9575C2.50649 18.6417 1.06673 15.7927 1.07717 15.6458C0.890215 15.1317 1.85987 17.1566 1.95073 17.1465C1.98753 17.1635 0.944612 14.3322 1.23958 14.9546C1.56513 15.8724 2.77025 18.3843 2.88207 18.4869C4.1267 20.3134 2.6358 17.7044 2.35842 16.8588C2.26308 16.6186 2.77357 17.5098 2.6826 17.3161C1.36618 14.3441 2.11697 16.8242 1.30609 14.7994C0.682842 12.9521 1.6119 15.2829 1.61093 15.1993C1.55326 15.1197 0.827731 12.9161 0.813594 12.5397C0.608179 12.45 3.03799 17.9016 3.16798 17.5442C2.2206 15.9069 1.50241 14.1588 1.03968 12.3076C1.09424 12.1464 1.77972 14.7755 1.94171 15.0161C2.16923 15.5314 1.66868 14.0418 1.74189 14.089C1.76825 14.122 2.50151 15.7937 1.95975 14.2383C1.79681 13.7182 1.27218 12.5448 1.06193 10.5729C2.82277 17.4284 1.71301 12.6394 1.67466 12.4267C1.66783 12.229 2.62453 15.4363 1.60289 11.5058C1.82334 11.2944 1.66845 11.5543 2.00675 12.6779C2.51156 13.9956 1.40153 10.9535 3.20568 15.7471C3.08653 15.4795 1.81216 11.5463 1.89196 11.3377C1.86244 11.1595 2.10069 12.0086 2.05446 11.6976C1.6539 7.99377 1.9762 10.5309 1.97039 9.44506C1.91932 9.36572 1.89397 5.75432 1.9867 8.49674C2.3682 13.3083 3.53489 15.2818 4.13044 15.8497C2.54507 12.5619 2.03983 8.29959 2.10946 7.12303C2.15879 5.37769 2.169 7.19009 2.19943 6.9733C2.19569 6.88578 2.27472 5.43721 2.29047 5.44488C2.48803 4.95558 2.25523 6.51516 2.34455 8.58044C2.4014 10.5947 2.95525 12.9341 3.41397 14.0276C3.23436 13.4271 3.08605 12.8188 2.96907 12.2026C3.18281 13.0244 3.45222 13.8239 3.77567 14.602C2.52074 10.7867 3.67424 14.5045 4.35 15.2824C4.48301 15.4631 3.33304 13.135 4.69998 15.7662C3.80427 13.7758 4.11468 14.4069 3.44948 12.5498C3.44213 12.6102 5.17997 16.7149 6.32516 17.9839C3.4049 12.7317 4.48556 15.8947 3.22965 10.8181C2.94028 9.89439 3.44323 12.3169 3.41196 12.1325C3.15579 11.397 2.88205 9.80113 2.63356 7.62672C2.60201 7.26629 2.46204 8.79489 2.50418 6.53484C2.50703 6.22913 2.71639 4.96903 2.73012 4.97665C2.7768 5.16261 2.65251 6.4469 2.68987 6.54726C2.70838 6.56486 2.79695 5.11329 2.81671 5.11077C2.90894 5.08135 2.75152 6.3065 2.79823 6.13671C2.87782 5.78962 3.56721 0.48688 2.97133 7.44031C3.27679 1.62935 2.67753 6.61392 2.96975 8.99045C3.03209 9.56665 3.0987 9.708 3.24297 10.5013C3.42327 11.4983 3.74038 12.7275 3.93022 13.236C4.16485 13.7716 3.07459 10.6386 4.80386 15.1207C3.75701 12.8556 2.88017 8.7434 3.23503 6.15373C3.53811 3.85138 3.50727 4.6812 3.42668 6.14353C3.32588 7.79827 3.58719 9.99428 3.68392 10.39C3.72246 10.6058 3.68721 9.86712 3.71474 10.0111C3.60678 10.2471 4.84455 14.6541 5.24605 14.9785C5.47949 15.3626 4.56809 13.4542 4.61567 13.2876C4.46858 13.258 7.08509 18.0405 5.71687 15.4309C4.68093 13.6608 3.72036 10.0311 3.92951 9.38748C4.22829 12.2484 5.39023 15.1876 7.10624 17.5418C6.23436 16.1852 5.53249 14.7116 5.06769 13.1831C6.20617 16.2553 7.9212 18.6667 10.3295 20.7886C5.23329 15.0765 12.0799 22.4763 12.4857 22.3292C12.4821 22.348 10.2914 20.2339 10.0469 19.8727C11.7285 21.8293 18.9505 26.1283 14.9909 23.3828C15.6473 23.898 17.5749 24.8623 17.5657 24.8349C17.2821 24.6274 13.5316 22.2828 14.1727 22.5608C14.9481 22.9711 15.8092 23.7173 17.0009 24.3936C23.3922 27.6848 21.6747 26.2499 28.4303 28.8499C28.3049 28.7867 28.1801 28.7234 28.0558 28.6599C35.4519 31.2284 43.2615 32.9193 51.1415 34.2293C54.3009 34.6052 62.6113 35.5839 66.6507 35.9816C67.4534 36.0738 71.506 36.5387 71.8239 36.5763C72.3914 36.6573 69.2509 36.3877 70.6637 36.5702C70.9643 36.6247 77.8896 37.2128 77.3756 37.0694C76.6123 37.005 74.2356 36.8674 73.81 36.8087C71.067 36.5248 92.2683 38.009 93.3354 37.8752C92.8634 37.8258 92.3925 37.7758 91.9225 37.7253C93.2646 37.7976 94.6142 37.8653 95.9705 37.9288ZM33.1892 37.9432C32.3761 37.8284 30.2554 37.16 29.0651 36.8181C27.3841 36.3555 24.5771 35.7626 25.8569 35.8194C28.1908 36.5876 30.6943 37.3085 33.1892 37.9432ZM68.9399 43.9383C67.2963 43.7323 68.5897 43.6536 69.9405 43.8602C70.0912 43.8828 71.174 44.2109 68.9399 43.9383ZM51.7286 41.762C51.823 41.7748 53.2074 41.9875 53.2554 41.9968C54.5117 42.2673 50.2393 41.6084 51.7286 41.762ZM135.146 45.7785C133.332 45.8063 134.648 45.9774 135.775 45.8887C135.846 45.8831 135.265 45.7768 135.146 45.7785ZM133.856 45.7871C132.446 45.6367 129.613 45.9915 131.867 45.9407C132.086 45.9359 133.921 45.7948 133.856 45.7871ZM63.1351 43.2684C63.3217 43.2263 64.984 43.4362 65.7017 43.5236C65.6748 43.5799 63.8283 43.3394 63.1351 43.2684ZM106.212 45.7841C106.279 45.7412 100.386 45.6028 99.9931 45.6505C100.911 45.6549 106.138 45.8316 106.212 45.7841ZM121.364 45.8759C121.214 45.8676 119.17 45.8739 119.23 45.9176C120.226 45.9799 122.04 45.9161 121.364 45.8759ZM151.417 45.5356C151.527 45.5216 149.995 45.2791 153.617 45.3778C154.148 45.3921 152.254 45.51 152.442 45.5154C152.838 45.5258 153.151 45.5275 153.402 45.5231C151.718 45.5866 149.964 45.6356 149.794 45.6223C148.996 45.5597 151.368 45.5417 151.417 45.5356ZM167.176 44.9021C167.522 44.8461 169.733 44.801 170.235 44.8034C170.321 44.8042 169.95 44.9359 170.941 44.895C171.737 44.8618 170.545 44.778 172.094 44.7471C173.659 44.7154 171.573 44.8713 171.709 44.873C171.894 44.8754 174.307 44.7404 174.234 44.814C174.181 44.8688 171.591 44.9188 170.948 44.9505C170.126 44.9914 171.127 45.0473 169.75 45.0725C168.884 45.0882 169.359 44.9183 169.175 44.9163C169.024 44.9153 165.991 45.0982 167.181 44.9024C167.179 44.9023 167.177 44.9022 167.176 44.9021ZM153.857 45.5053C153.731 45.5136 153.582 45.52 153.402 45.5231C153.554 45.5174 153.707 45.5113 153.857 45.5053ZM37.8437 39.0273C38.6861 39.2712 36.1375 38.746 35.2258 38.4467C35.215 38.3975 37.7018 38.9927 37.8437 39.0273ZM155.415 45.341C157.912 45.3162 156.079 45.4176 153.857 45.5053C154.562 45.4591 154.575 45.349 155.415 45.341ZM84.3542 44.8732C84.4606 44.8908 84.5275 44.9125 84.5345 44.9425C84.2547 44.8944 84.2305 44.8756 84.3542 44.8732ZM90.1858 45.2215C92.1841 45.2215 88.1336 45.0416 88.1603 45.1042C88.17 45.1298 90.1047 45.2223 90.1858 45.2215ZM137.472 45.7597C137.289 45.7529 140.128 45.4456 136.003 45.701C138.208 45.7065 135.883 45.7643 135.917 45.7874C136.01 45.856 139.707 45.7422 140.527 45.7578C141.166 45.6261 138.077 45.782 137.477 45.7596C137.475 45.7596 137.474 45.7596 137.472 45.7597ZM195.54 43.9719C195.048 44.0623 193.468 44.0985 192.395 44.1345C192.894 44.044 194.479 44.0076 195.54 43.9719ZM214.105 126.093C206.734 125.429 205.842 125.025 212.532 125.829C212.663 125.845 214.557 126.107 214.105 126.093ZM161.363 99.4579C162.053 99.0502 160.064 100.596 158.835 102.767C158.568 103.186 157.724 104.946 158.575 102.907C158.598 102.958 160.521 100.268 161.363 99.4579ZM156.823 45.2237C157.548 45.1203 159.783 45.1212 160.956 45.1008C160.242 45.191 157.867 45.2238 156.823 45.2237ZM189.975 122.844C189.188 122.695 188.642 122.705 188.775 122.739C189.371 122.894 190.864 123.064 189.975 122.844ZM149.584 45.3822C149.48 45.3342 152.455 45.2189 152.664 45.3388C152.029 45.3451 149.659 45.4128 149.584 45.3822ZM193.53 44.0094C193.071 44.0008 195.443 43.8655 196.154 43.8643C196.101 43.9204 193.834 44.0148 193.53 44.0094ZM177.489 120.103C176.793 119.904 175.1 119.392 174.905 119.374C174.65 119.361 177.145 120.089 177.489 120.103ZM301.737 143.229C301.798 143.281 299.783 141.933 298.888 141.352C297.208 140.169 301.742 143.078 301.737 143.229ZM197.31 123.946C199.471 124.354 197.069 123.916 197.15 124.039C198.601 124.255 202.297 124.735 199.775 124.297C199.284 124.212 197.989 124.05 197.31 123.946ZM195.302 123.616C195.058 123.617 193.45 123.484 194.827 123.687C195.465 123.78 196.516 123.808 195.302 123.616ZM288.06 136.227C286.364 135.46 294.29 138.522 294.451 138.786C294.564 138.85 294.636 138.894 294.676 138.922C294.977 139.025 296.376 139.738 296.487 139.895C296.09 139.667 294.937 139.092 294.8 139.02C294.743 138.988 294.7 138.963 294.672 138.945C294.157 138.671 288.394 136.288 288.06 136.227ZM274.151 132.472C276.333 132.765 276.669 133.105 276.48 133.069C274.109 132.668 275.679 132.816 275.61 132.792C275.443 132.74 273.765 132.486 274.157 132.473C274.155 132.473 274.153 132.473 274.151 132.472ZM285.282 135.283C285.375 135.303 287.109 135.863 287.172 135.893C288.567 136.424 283.658 134.846 285.282 135.283ZM179.037 44.3377C180.388 44.3149 179.068 44.452 178.166 44.4506C178.092 44.45 177.843 44.3577 179.037 44.3377ZM194.211 123.474C193.896 123.451 185.903 121.96 186.369 122.15C187.039 122.332 196.134 123.912 194.211 123.474ZM176.815 90.8602C175.504 91.4212 176.874 90.6898 177.613 90.4339C177.885 90.3392 177.146 90.7188 176.815 90.8602ZM145.59 45.3457C144.128 45.4438 144.426 45.2004 145.696 45.2582C145.746 45.2604 145.647 45.3418 145.59 45.3457ZM166.339 95.954C170.719 93.4579 169.857 94.0621 164.013 97.7009C164.177 97.5616 164.345 97.4226 164.516 97.2839C157.938 102.427 163.978 97.3618 165.711 96.4417C166.373 96.0209 165.802 96.2919 166.335 95.956C166.337 95.9553 166.338 95.9546 166.339 95.954ZM183.819 88.0565C188.41 86.6315 179.875 89.6349 177.43 90.7591C179.814 89.6278 182.777 88.4756 178.608 90.0254C184.622 87.5798 182.168 88.7127 182.406 88.6178C182.695 88.5163 183.621 88.1183 183.819 88.0565ZM172.195 92.9451C171.911 93.085 170.141 93.8851 169.38 94.3023C170.317 93.6735 173.829 92.1068 172.195 92.9451ZM259.005 130.131C259.181 130.076 259.606 130.069 261.173 130.308C260.684 130.281 259.673 130.182 259.005 130.131ZM31.7317 37.1205C30.5926 36.8024 28.4214 36.1049 29.0671 36.3877C29.1284 36.422 31.7067 37.1686 31.7317 37.1205ZM171.102 117.866C170.914 117.875 164.937 115.248 166.952 116.231C167.524 116.603 172.989 118.675 171.102 117.866ZM202.584 124.573C202.096 124.515 199.981 124.259 199.941 124.27C199.787 124.317 202.373 124.611 202.584 124.573ZM26.243 35.3438C26.136 35.3167 22.8236 34.1293 23.1572 34.2816C23.9028 34.6572 26.7034 35.5359 26.243 35.3438ZM183.921 43.9817C184.202 43.9687 184.575 44.0396 184.672 44.0371C184.887 44.0311 190.059 43.8081 188.079 43.9896C187.726 44.0219 180.37 44.2468 179.373 44.2693C178.996 44.1667 182.183 44.1646 182.95 44.1247C183.085 44.1176 183.169 44.0175 183.919 43.9823C183.92 43.9821 183.92 43.9819 183.921 43.9817ZM267.199 131.215C267.415 131.152 273.348 132.15 273.237 132.244C271.259 131.871 269.184 131.521 267.199 131.215ZM264.182 130.741C262.909 130.503 265.912 130.923 266.77 131.087C266.775 131.135 264.372 130.774 264.182 130.741ZM191.073 122.631C190.466 122.546 192.307 122.967 191.888 122.917C191.612 122.885 190.292 122.618 189.825 122.568C189.705 122.558 191.079 122.902 191.474 122.963C192.043 123.052 191.505 122.882 192.126 122.984C194.182 123.322 196.073 123.662 197.983 123.926C198.158 123.95 196.81 123.706 198.302 123.913C198.533 123.945 199.908 124.22 201.727 124.435C205.686 124.664 208.58 125.24 213.619 125.639C213.426 125.599 209.674 125.156 209.459 125.127C205.253 124.659 197.763 123.74 193.338 123.01C192.211 122.829 192.75 122.971 192.265 122.894C191.884 122.831 192.351 122.809 191.073 122.631ZM32.3497 37.2338C31.8298 36.9889 29.9339 36.5151 28.777 36.1459C29.1547 36.3631 31.1607 36.8891 32.3497 37.2338ZM237.264 127.737C236.676 127.69 234.853 127.504 234.699 127.521C234.502 127.544 237.135 127.795 237.264 127.737ZM213.05 42.9312C213.109 42.9262 214.549 42.8809 214.602 42.8823C215.891 42.9184 211.57 43.0541 213.05 42.9312ZM247.024 42.1714C248.074 42.1596 249.091 42.1344 249.437 42.2195C248.795 42.2006 246.907 42.2278 247.024 42.1714ZM271.102 54.7666C271.395 54.7175 268.781 56.4432 268.3 56.6912C268.406 56.6022 271.026 54.7697 271.102 54.7666ZM258.817 129.766C260.778 130.023 260.383 129.81 261.609 130.048C261.807 130.089 262.416 130.511 260.293 130.1C259.908 130.027 261.437 130.141 258.817 129.766ZM163.128 98.3521C162.761 98.7055 161.166 100.013 160.395 100.951C160.471 100.696 162.424 98.8355 163.128 98.3521ZM20.3139 32.9992C19.4572 32.5713 15.4279 30.6702 16.3805 31.2086C16.6131 31.3627 19.6996 32.7583 20.3139 32.9992ZM161.858 44.7617C163.619 44.6322 159.967 44.712 158.81 44.8196C159.334 44.8009 161.74 44.7706 161.858 44.7617ZM275.809 48.5738C275.851 48.609 275.776 49.4532 275.725 49.5078C275.584 50.1823 275.763 47.8119 275.809 48.5738ZM235.893 42.1543C236.624 42.0719 240.831 42.0591 241.926 42.1176C240.891 42.2158 235.113 42.2471 235.893 42.1543ZM250.748 128.887C252.136 129.029 253.488 129.197 254.763 129.371C254.495 129.392 250.879 128.938 250.748 128.887ZM273.989 52.3265C273.937 52.3819 273.881 52.4322 273.829 52.4855C273.884 52.431 273.938 52.3781 273.989 52.3265ZM219.196 126.035C218.007 125.907 218.246 126.029 218.319 126.039C219.211 126.152 220.543 126.18 219.196 126.035ZM31.0045 36.7001C30.6081 36.4954 28.5927 35.9681 27.495 35.5826C27.7873 35.7595 30.0553 36.4446 31.0045 36.7001ZM188.614 86.4733C190.033 86.0576 184.429 88.2287 183.117 88.685C183.034 88.6368 188.389 86.5272 188.614 86.4733ZM156.362 44.7739C156.241 44.7063 153.688 44.8553 154.232 44.8754C154.577 44.8887 156.435 44.8165 156.362 44.7739ZM180.249 89.7679C179.77 89.9819 178.411 90.4638 178.859 90.2339C179.444 89.9335 180.381 89.7084 180.249 89.7679ZM182.358 120.828C182.098 120.769 178.801 120.019 180.137 120.429C181.065 120.714 181.245 120.649 181.467 120.702C181.696 120.777 187.112 122.103 182.358 120.828ZM220.984 75.6458C219.792 76.0675 218.329 76.5145 217.071 76.9294C217.571 76.7193 220.455 75.759 220.984 75.6458ZM166.208 44.4783C165.888 44.4628 157.51 44.6835 162.26 44.6374C162.539 44.6357 167.152 44.5376 166.208 44.4783ZM258.817 129.766C258.569 129.734 258.283 129.695 257.95 129.647C258.281 129.691 258.567 129.731 258.817 129.766ZM236.484 127.493C236.943 127.48 234.652 127.27 233.972 127.241C233.759 127.286 236.421 127.494 236.484 127.493ZM216.998 77.0295C216.28 77.2963 214.951 77.6986 214.054 77.9964C214.19 77.901 216.668 77.0864 216.998 77.0295ZM266.477 58.0268C265.131 58.7602 263.599 59.5558 263.593 59.6246C263.562 59.6301 263.496 59.6533 263.387 59.6975C263.284 59.742 261.884 60.4717 261.226 60.7607C257.673 62.6357 274.999 53.1677 265.06 58.9303C265.548 58.6282 266.02 58.3269 266.477 58.0268ZM229.845 42.1527C229.012 42.1017 226.625 42.258 227.245 42.269C227.688 42.275 230.689 42.2027 229.845 42.1527ZM262.609 42.3427C262.402 42.3079 260.185 42.2117 260.104 42.2495C261.449 42.3599 263.645 42.4857 262.609 42.3427ZM223.241 42.2565C222.69 42.2626 221.984 42.4006 222.049 42.4036C222.618 42.4277 224.169 42.2925 223.241 42.2565ZM254.804 128.971C254.023 128.846 251.452 128.65 250.908 128.671C250.808 128.646 250.535 128.598 250.032 128.522C250.033 128.522 250.035 128.523 250.036 128.523C249.372 128.364 228.805 126.51 242.59 127.884C243.021 127.928 242.44 127.805 244.19 127.98C244.305 127.992 244.358 128.053 244.714 128.089C245.533 128.168 249.93 128.638 250.799 128.689C250.806 128.7 250.861 128.716 250.98 128.738C252.045 128.927 255.421 129.065 254.804 128.971ZM267.125 42.814C266.733 42.7319 265.322 42.5818 265.152 42.6166C265.921 42.7126 268.071 42.9985 267.125 42.814ZM165.941 44.2837C164.972 44.2729 162.51 44.4206 163.256 44.4392C163.716 44.4513 167.061 44.2966 165.941 44.2837ZM252.535 41.924C257.937 42.1055 253.835 41.947 254.664 41.8934C253.97 41.9009 253.26 41.9111 252.535 41.924ZM279.652 133.279C278.838 133.067 279.815 133.15 280.748 133.466C281.038 133.565 280.106 133.397 279.652 133.279ZM309.202 152.77C309.153 152.093 309.942 155.208 309.531 154.019C309.522 153.958 309.22 152.811 309.202 152.77ZM290.801 136.6C290.239 136.477 289.837 136.323 288.357 135.782C290.587 136.554 288.546 135.722 290.801 136.6ZM263.612 59.6258C263.602 59.6269 263.594 59.6282 263.593 59.6246C263.604 59.6228 263.609 59.6234 263.612 59.6258ZM218.076 42.4456C217.393 42.3952 215.456 42.4672 216.035 42.5209C216.093 42.5256 217.8 42.5087 218.076 42.4456ZM250.908 128.671C250.997 128.694 250.95 128.697 250.799 128.689C250.793 128.679 250.833 128.674 250.908 128.671ZM228.476 42.0676C228.417 42.123 231.294 42.07 231.399 42.062C233.052 41.9276 229.68 42.0304 228.476 42.0676ZM146.379 44.701C146.226 44.7097 147.212 44.8313 147.813 44.7638C148.279 44.7115 146.949 44.6685 146.379 44.701ZM295.799 138.782C296.59 139.179 297.631 139.764 297.814 139.95C297.291 139.624 295.776 138.819 295.799 138.782ZM308.857 151.553C308.444 150.665 307.444 148.725 306.604 147.57C306.739 147.457 308.587 150.669 308.857 151.553ZM257.289 129.302C257.217 129.287 254.919 128.986 255.225 129.092C255.676 129.245 257.931 129.418 257.289 129.302ZM150.941 44.6803C151.995 44.6089 149.56 44.5172 148.462 44.6528C147.894 44.723 150.761 44.693 150.941 44.6803ZM211.987 42.5615C210.577 42.6521 214.077 42.5984 214.549 42.5099C213.908 42.5264 212.49 42.5293 211.987 42.5615ZM258.905 41.9225C254.405 41.5235 256.803 42.0076 257.648 42.0049C257.768 42.0038 259.016 41.932 258.905 41.9225ZM10.5616 27.1801C10.0034 26.8278 11.9639 28.3215 12.2503 28.4001C12.4124 28.4594 10.9832 27.4718 10.5616 27.1801ZM244.375 67.8357C244.549 67.7705 244.722 67.7058 244.892 67.6418C244.765 67.6926 244.597 67.7562 244.375 67.8357ZM199.405 42.747C202.544 42.924 202.195 42.7098 202.468 42.7008C203.05 42.6821 204.401 42.7113 205.483 42.6581C204.243 42.7373 202.994 42.8173 201.736 42.8978C202.784 42.8785 211.189 42.6767 211.398 42.6232C211.629 42.5466 208.985 42.6637 208.911 42.6606C208.8 42.6561 208.38 42.482 208.134 42.4839C207.756 42.4853 200.603 42.7484 199.405 42.747ZM249.8 41.717C250.537 41.7461 250.74 41.824 251.076 41.8101C251.19 41.8055 251.211 41.734 251.598 41.721C251.008 41.718 250.408 41.7167 249.8 41.717ZM193.975 43.2167C193.108 43.1618 196.984 43.0493 197.102 43.0546C197.764 43.089 194.691 43.2613 193.975 43.2167ZM227.015 42.0444C226.882 42.0423 223.867 42.1036 223.886 42.1523C224.708 42.1627 228.692 42.061 227.015 42.0444ZM252.074 41.7233C253.15 41.7466 255.063 41.8679 254.843 41.7551C254.841 41.7551 254.84 41.755 254.838 41.755C253.943 41.7399 253.021 41.7294 252.074 41.7233ZM154.539 44.3683C152.581 44.2439 153.512 44.4389 155.242 44.4515C155.764 44.3614 154.859 44.3884 154.539 44.3683ZM148.283 44.382C147.742 44.3651 142.152 44.5012 143.006 44.5755C143.31 44.6037 146.524 44.4628 146.672 44.4653C146.896 44.4701 145.873 44.591 147.586 44.5369C147.485 44.505 148.469 44.3885 148.283 44.382ZM152.919 44.2973C150.973 44.2123 150.541 44.4621 152.003 44.4296C152.574 44.4169 153.197 44.3096 152.919 44.2973ZM160.828 44.1137C160.133 44.1104 158.282 44.1276 157.004 44.2406C158.716 44.2031 160.424 44.1632 162.127 44.1215C162.322 44.0705 161.436 44.1169 160.823 44.1138C160.825 44.1138 160.826 44.1137 160.828 44.1137ZM310.893 161.774C311.065 160.335 310.841 163.672 310.76 163.849C310.652 164.274 310.835 162.402 310.893 161.774ZM3.66051 16.4327C3.48653 16.0265 3.42868 15.7381 3.01424 14.8702C3.31769 15.7851 3.70926 16.709 4.13913 17.5591C4.64874 18.1129 3.84869 16.894 3.66051 16.4327ZM2.8135 12.8362C2.86384 12.9599 2.84198 12.2102 3.23866 13.8821C3.37868 15.048 1.6677 9.00381 2.03721 7.76417C2.06198 9.08354 2.40372 11.702 2.8135 12.8362ZM3.69141 2.17501C3.70051 2.12071 3.29615 4.39463 3.28083 4.63415C3.02873 5.97466 3.43842 2.56401 3.69141 2.17501ZM3.12498 9.43184C3.0621 8.37233 3.32369 10.7068 3.48216 11.3599C3.43428 11.4429 3.11147 9.60601 3.12498 9.43184ZM310.672 146.364C310.107 145.185 309.151 144.451 310.329 146.04C310.384 146.116 310.695 146.414 310.672 146.364ZM3.513 4.42391C3.327 5.44865 3.60541 3.16209 3.82238 2.44197C3.86163 2.39398 3.52073 4.27745 3.513 4.42391ZM310.486 145.392C309.574 143.899 309.611 144.64 309.731 144.817C310.252 145.534 311.919 148.075 312.177 148.65C309.99 144.651 310.844 146.131 310.486 145.392ZM304.953 139.761C303.727 138.799 306.73 141.383 307.326 141.939C306.767 141.351 305.319 140.026 304.953 139.761ZM297.008 134.621C296.25 134.217 294.013 133.198 293.609 133.109C294.438 133.423 296.662 134.506 297.008 134.621ZM295.348 133.645C294.213 133.056 293.837 133.155 295.213 133.678C295.266 133.699 295.389 133.668 295.348 133.645ZM288.591 130.964C287.812 130.608 286.809 130.536 288.126 130.961C288.515 131.089 288.673 131.002 288.591 130.964ZM309.502 143.388C308.718 142.375 307.493 141.27 309.268 143.327C308.642 142.61 307.975 141.925 307.27 141.269C309.689 143.893 309.565 143.638 310.214 144.455C311.051 145.641 310.802 145.664 310.599 145.455C311.442 146.291 313.782 150.843 314.276 153.699C313.857 151.196 312.266 147.275 310.793 145.201C310.394 144.597 309.928 144.064 309.548 143.582C308.94 142.824 309.546 143.444 309.506 143.392C309.505 143.39 309.504 143.389 309.502 143.388ZM279.409 128.428C277.025 127.779 278.506 128.344 279.862 128.618C279.92 128.629 279.469 128.444 279.409 128.428ZM4.80985 1.55887C4.13708 4.59464 3.9105 2.29934 4.00872 8.56763C3.79351 5.93402 3.89284 8.43144 3.82515 7.91683C3.75334 7.50975 3.85375 5.89651 3.73085 6.83056C3.69865 5.66405 4.73736 0.617348 4.97094 0.284258C4.97023 0.286542 4.96953 0.288826 4.96882 0.291109C5.02671 0.146494 5.10249 0.582145 4.80985 1.55887ZM297.263 134.071C296.628 133.453 296.075 133.673 294.7 132.823C292.564 132.206 300.243 135.35 300.939 136.318C293.058 131.799 305.972 139.639 300.718 136.016C305.075 138.971 302.202 136.9 302.92 137.291C303.664 137.68 306.052 139.658 305.97 139.487C305.969 139.486 305.968 139.485 305.966 139.484C304.545 138.284 303.025 137.211 301.475 136.259C302.893 137.41 299.69 135.322 298.702 134.647C298.228 134.449 297.748 134.257 297.263 134.071ZM305.808 139.803C305.72 139.642 302.465 137.257 302.653 137.494C303.107 137.696 307.517 141.327 305.808 139.803ZM314.665 154.976C314.44 153.477 313.853 151.315 313.48 150.595C314 151.957 314.464 154.169 314.665 154.976ZM254.559 124.246C252.829 124.118 258.124 124.747 256.602 124.489C256.528 124.475 254.645 124.251 254.559 124.246ZM293.533 132.454C291.875 131.703 292.583 132.269 293.845 132.708C293.918 132.734 293.609 132.489 293.533 132.454ZM4.32256 3.99752C4.28079 4.08683 3.93154 8.36271 4.13526 9.11441C3.87365 8.70402 4.15238 3.83632 4.32256 3.99752ZM315.216 157.464C315.336 154.584 313.842 150.675 313.654 150.317C313.505 149.9 313.847 150.514 313.814 150.419C313.837 150.141 311.773 145.95 311.549 145.814C311.459 145.681 311.78 146.47 311.231 145.685C311.784 146.44 313.09 148.679 313.849 151.006C314.622 153.236 314.921 155.55 314.95 155.71C314.99 156.046 314.878 153.515 315.216 157.459C315.216 157.461 315.216 157.462 315.216 157.464ZM313.275 149.274C313.683 150.368 312.375 147.373 311.949 146.711C311.139 145.154 313.308 149.083 313.275 149.274ZM309.17 142.629C308.986 142.315 306.6 139.922 306.34 139.847C307.475 140.888 309.707 143.279 309.17 142.629ZM277.618 127.542C276.816 127.373 274.644 126.881 274.517 126.921C275.284 127.057 277.486 127.572 277.618 127.542ZM7.83173 17.3697C7.19012 16.4037 8.77935 18.561 9.37718 19.17C9.34747 19.239 7.85232 17.4611 7.83173 17.3697ZM293.463 131.804C292.989 131.431 283.615 128.462 282.216 128.27C283.573 128.531 292.826 131.505 293.283 131.821C293.407 131.864 293.52 131.83 293.463 131.804ZM311.311 144.719C311.942 145.484 312.174 146.102 312.236 146.208C312.878 147.245 313.908 149.559 313.602 149.087C312.901 147.022 310.048 143.21 311.311 144.719ZM277.017 127.003C273.719 126.343 280.009 127.772 279.19 127.515C279.142 127.495 277.361 127.069 277.017 127.003ZM294.504 132.204C295.261 132.203 304.245 137.093 305.416 138.466C304.138 137.627 303.251 136.861 301.559 135.818C301.099 135.54 301.192 135.662 301.143 135.632C300.336 135.157 300.973 135.459 300.472 135.166C300.22 134.867 293.496 131.803 294.504 132.204ZM311.676 145.153C312.251 145.502 315.031 151.733 314.872 152.033C315.069 153.011 314.689 151.34 313.877 149.368C313.1 147.409 311.82 145.371 311.676 145.153ZM293.702 131.746C294.745 131.949 299.306 134.22 296.111 132.808C295.797 132.669 294.6 132.069 293.702 131.746ZM277.398 126.934C277.224 126.882 273.849 126.173 273.781 126.218C274.248 126.305 279.222 127.37 277.398 126.934ZM279.197 127.162C279.114 127.145 279.889 127.414 278.302 127.047C278.167 127.018 277.954 126.851 275.909 126.47C275.506 126.395 274.872 126.342 274.916 126.355C276.984 126.895 283.282 128.061 279.197 127.162ZM311.815 145.209C311.652 144.879 312.254 145.541 312.592 146.269C312.733 146.581 312.364 146.058 311.815 145.209ZM266.623 124.941C268.623 125.158 262.381 124.214 262.078 124.213C262.265 124.281 266.418 124.909 266.623 124.941ZM10.0862 19.0843C10.0852 19.0832 10.0842 19.0822 10.0832 19.0812C11.0631 20.1007 10.4021 19.5243 10.4455 19.5742C12.6174 21.7482 12.2036 21.0576 12.573 21.3683C13.4471 21.9991 13.2323 22.0989 14.7801 23.0673C12.1864 21.3906 14.5583 23.0095 14.5582 23.0763C14.7115 23.5659 11.2254 20.5168 10.3382 19.5523C10.1842 19.4207 11.1872 20.4977 10.8007 20.1635C9.4566 19.1401 6.51098 14.714 10.0862 19.0843ZM312.902 146.798C313.608 147.436 315.612 153.777 314.987 152.123C315.123 151.811 312.313 145.654 312.902 146.798ZM265.825 65.1406C264.578 65.8464 267.557 64.4323 268.083 64.0706C268.306 63.925 266.39 64.83 265.825 65.1406ZM281.631 45.467C280.72 43.2338 278.728 41.4837 280.541 43.868C280.749 44.1061 281.718 45.717 281.631 45.467ZM183.835 95.0098C185.466 94.4805 185.308 94.3412 184.132 94.8024C183.719 94.965 183.784 95.0264 183.835 95.0098ZM246.832 73.3043C247.006 73.2484 248.923 72.5154 248.835 72.501C248.127 72.7442 245.73 73.6651 246.832 73.3043ZM183.344 95.2325C184.255 94.8365 182.637 95.3244 181.516 95.9283C182.144 95.6585 183.235 95.2789 183.344 95.2325ZM290.317 130.033C289.474 129.812 286.981 128.988 285.618 128.621C285.463 128.455 289.358 129.69 290.317 130.033ZM279.791 55.2544C280.965 53.5852 278.214 57.0383 278.545 56.6767C278.535 56.7262 279.778 55.3196 279.791 55.2544ZM187.32 115.586C186.212 115.427 189.681 116.195 188.741 115.902C188.692 115.89 187.378 115.596 187.32 115.586ZM202.838 118.076C201.967 117.954 198.314 117.468 199.727 117.717C199.939 117.758 202.768 118.125 202.838 118.076ZM12.6882 21.3679C12.3875 21.0188 14.4303 22.5981 14.7097 22.7761C14.8596 22.9007 13.017 21.8275 12.6882 21.3679ZM194.387 91.1217C195.212 90.8161 197.426 90.0737 197.805 89.887C196.748 90.2603 194.072 91.1172 194.387 91.1217ZM273.686 60.7852C274.983 60.0669 276.989 58.3864 276.401 58.6782C274.102 60.5094 276.781 58.6491 273.686 60.7852ZM178.129 97.5307C178.76 97.2635 179.203 96.922 179.127 96.9472C178.398 97.1895 177.486 97.7539 178.129 97.5307ZM229.14 79.5493C229.2 79.5932 231.396 78.8267 231.089 78.8888C230.99 78.9092 229.093 79.5141 229.14 79.5493ZM259.949 123.606C258.884 123.414 262.166 123.78 263.108 123.98C263.565 124.133 260.09 123.625 259.949 123.606ZM164.553 106.422C164.491 106.654 165.095 105.348 164.743 105.845C164.59 106.036 164.498 106.471 164.553 106.422ZM192.061 116.285C189.665 116.017 199.617 117.666 197.018 117.121C196.81 117.094 192.243 116.321 192.061 116.285ZM208.39 118.569C207.969 118.511 208.225 118.24 209.911 118.535C210.133 118.573 209.078 118.541 209.259 118.578C209.359 118.603 213.084 119.027 213.264 119.035C213.451 119.045 213.241 118.928 213.431 118.936C213.65 118.946 215.941 119.252 217.146 119.364C219.421 119.575 219.681 119.515 219.867 119.532C220.416 119.581 221.326 119.718 222.427 119.814C228.002 120.3 236.556 120.93 240.986 121.501C237.038 121.081 233.27 120.839 229.348 120.532C230.509 120.463 223.572 120.173 227.633 120.323C225.752 120.233 209.699 118.806 208.394 118.569C208.393 118.569 208.391 118.569 208.39 118.569ZM275.962 38.8693C276.61 39.2195 275.38 38.3263 273.625 37.7675C272.257 37.31 270.757 37.0519 270.454 37.0511C270.858 37.1379 272.132 37.3995 273.184 37.7223C274.581 38.1212 275.901 38.8246 275.962 38.8693ZM270.85 63.1177C270.424 63.381 270.082 63.8541 267.632 65.043C267.63 65.0441 267.628 65.0452 267.626 65.0463C266.943 65.371 267.683 64.928 267.552 64.9769C267.512 64.9953 265.346 65.9953 267.097 65.0768C269.773 63.6292 267.383 65.102 268.881 64.2952C269.097 64.1972 271.765 62.5161 271.573 62.586C271.559 62.5936 270.772 63.0931 270.63 63.1632C270.101 63.4288 270.318 63.2298 270.244 63.2691C269.993 63.4504 265.704 65.8554 265.009 66.0557C264.795 66.2141 271.962 62.2685 272.116 62.0495C272.285 61.9547 272.304 62.1475 272.505 62.0403C272.651 61.9917 275.448 59.9822 275.742 59.723C275.842 59.6508 275.919 59.5965 275.976 59.557C275.512 59.8959 278.093 57.7102 278.01 57.8069C278.011 57.8725 276.266 59.3796 276.173 59.4213C276.143 59.4432 276.116 59.4615 276.091 59.4791C276.602 59.3342 270.557 63.3956 271.928 62.5723C270.271 63.6415 272.102 62.3067 270.85 63.1177ZM262.37 67.6167C262.541 67.5174 262.712 67.4181 262.882 67.3187C259.855 68.7823 256.168 70.2468 252.477 71.6981C251.533 72.0685 252.642 71.7548 251.439 72.1912C250.479 72.5385 249.37 72.8495 249.887 72.6276C250.032 72.5674 251.939 71.9055 252.987 71.4806C255.936 70.281 255.134 70.4895 255.31 70.4184C255.51 70.3351 257.297 69.671 258.318 69.2282C260.935 68.0831 261.818 67.6557 265.398 65.9944C263.463 67.0095 264.517 66.6582 262.37 67.6167ZM173.88 111.589C174.003 111.577 175.949 112.311 176.709 112.532C176.565 112.556 174.569 111.841 173.88 111.589ZM106.501 38.3761C105.824 38.4645 110.868 38.5768 109.54 38.4714C109.245 38.4492 107.132 38.3902 106.501 38.3761ZM129.064 38.5787C129.735 38.5481 127.032 38.4907 127.038 38.5662C127.041 38.5912 128.978 38.5832 129.064 38.5787ZM221.345 82.6128C221.224 82.6558 219.454 83.2142 219.397 83.2274C218.195 83.5121 224.021 81.6612 221.345 82.6128ZM156.527 38.0025C154.187 38.1287 161.234 37.9708 159.08 37.9453C158.973 37.9446 156.641 37.9968 156.527 38.0025ZM166.342 37.7072C165.78 37.7283 163.268 37.7707 163.235 37.8015C163.187 37.8519 166.062 37.7996 166.342 37.7072ZM177.858 98.0573C178.202 98.0183 175.106 99.3247 174.206 99.8031C173.884 99.8258 176.846 98.503 177.858 98.0573ZM197.025 90.822C184.057 95.5323 186.817 94.2548 197.79 90.5001C197.83 90.5621 197.851 90.5301 197.025 90.822ZM180.553 96.9749C180.982 96.7164 182.483 96.1237 183.407 95.7648C183.268 95.8709 181.266 96.6586 180.553 96.9749ZM100.552 38.0796C101.41 38.0171 105.239 38.2197 104.558 38.24C104.395 38.2474 100.231 38.1227 100.552 38.0796ZM220.266 83.0674C220.611 83.0686 216.616 84.3325 216.306 84.4085C215.048 84.7194 219.955 83.1953 220.266 83.0674ZM165.055 106.464C165.149 106.339 164.994 106.447 165.605 107.07C165.18 106.808 164.974 106.217 165.055 106.464ZM169.516 102.515C169.418 102.567 168.012 103.5 167.985 103.531C166.791 104.233 170.804 101.585 169.516 102.515ZM9.38233 17.0381C9.4062 17.0789 10.1761 18.0007 10.2126 18.0329C10.8464 18.9094 8.54398 16.1299 9.38233 17.0381Z" fill="#F3A54D"/>
</svg>
