<svg width="342" height="207" viewBox="0 0 342 207" fill="none" xmlns="http://www.w3.org/2000/svg">
<path d="M45.8041 47.0023C46.2016 47.1282 47.2147 47.4674 48.3459 47.7918C49.3786 48.0897 50.8665 48.2713 52.399 47.6653C53.9526 47.0433 54.7667 45.9782 55.1659 45.3936C54.8596 45.8537 54.2145 46.8569 52.6846 47.5883C51.1468 48.3156 49.4567 48.1834 48.3294 47.8501C46.0543 47.2033 43.9781 46.4017 45.8041 47.0023ZM126.774 64.3919C126.815 64.2945 126.852 64.2051 126.886 64.1246C127.639 62.3086 127.678 60.9956 127.744 59.732C127.651 60.9009 127.616 62.2131 126.813 64.0916C125.842 66.3069 124.616 69.0914 123.599 71.0156C123.362 71.4715 123.9 70.2485 123.342 71.332C122.776 72.4053 122.984 72.259 122.13 73.816C121.315 75.6259 115.968 83.2425 113.436 85.4318C108.407 90.558 101.445 94.5426 93.8952 95.3608C88.2512 95.7953 83.593 94.941 78.6729 93.5352C90.9568 96.2277 78.5679 93.8192 75.2305 92.1973C74.8587 92.0404 74.6764 92.0593 73.1028 91.3489C72.3156 90.9754 71.1726 90.4331 69.5534 89.3022C67.9929 88.1455 65.6705 86.436 63.9665 82.7408C62.2117 77.8711 63.0415 77.574 62.9625 76.5856C63.1915 75.721 62.6978 73.3114 66.0719 67.13C63.8007 71.0326 63.7378 72.0706 64.1347 70.7314C64.5694 69.4619 66.0862 66.3846 68.1706 63.6394C69.4545 61.9942 70.5788 61.2319 71.7629 60.3783C72.9235 59.2129 82.8128 54.4309 87.28 53.053C88.8133 52.5049 91.1069 51.6431 93.1802 51.0352C94.5841 50.6245 95.6928 50.3666 97.804 49.83C107.711 47.3888 117.823 45.923 128.422 47.0953C122.231 46.7125 133.236 47.7282 133.747 48.1357C136.246 48.589 124.877 46.7516 129.363 47.4769C135.485 48.3063 141.884 50.2354 147.122 54.5395C147.169 54.5783 147.305 54.7014 147.349 54.7441C147.433 54.8268 147.517 54.9099 147.601 54.9934C147.511 54.9021 147.428 54.8185 147.351 54.742C147.307 54.6992 147.171 54.576 147.124 54.5371C145.953 53.5845 146.218 53.756 147.167 54.4843C147.216 54.5239 147.354 54.6495 147.399 54.6931C149.23 56.2973 152.716 60.6418 153.469 61.7491C153.356 61.2292 157.123 67.0893 161.847 71.601C166.527 76.3995 173.247 77.1332 175.081 76.8608C175.436 76.8413 174.503 76.8394 174.683 76.8092C174.86 76.7045 176.134 77.051 181.15 75.7828C181.555 75.6729 181.98 75.5493 182.428 75.409C183.672 75.0064 183.224 75.225 183.872 74.9879C184.263 74.8444 186.512 73.768 188.918 72.5763C189.36 72.3619 188.218 73.0337 188.477 72.9325C188.692 72.76 190.587 72.2667 196.063 67.8578C193.778 69.4794 197.762 66.6644 201.911 62.0257C206.14 57.4553 210.098 50.9505 211.183 48.8716C210.708 49.6921 210.229 50.4803 209.721 51.2817C212.114 47.2965 212.307 46.4462 212.774 45.5255C214.614 41.7409 216.572 36.2879 217.095 32.6348C217.563 29.0464 217.434 28.212 216.875 26.2354C216.678 25.7466 216.453 25.2106 216.173 24.6095C216.411 25.1409 216.631 25.6832 216.843 26.2483C216.937 26.5198 217.031 26.9209 217.087 27.3666C217.017 26.9231 216.91 26.5267 216.803 26.2643C215.731 23.582 214.358 21.2608 212.595 19.8081C217.273 24.6344 211.745 18.4835 211.035 18.7586C210.296 18.4037 211.411 18.8291 210.133 18.2762C209.972 18.2549 210.251 18.2562 208.032 17.7534C203.075 17.1691 203.687 17.4688 201.415 17.6064C201.262 17.6283 201.605 17.6051 200.413 17.7989C199.921 17.8844 199.151 18.012 197.973 18.2827C185.8 22.2516 197.926 17.94 198.503 18.1067C199 18.0125 196.436 18.2968 200.378 17.5637C201.517 17.3951 203.221 17.1505 205.51 17.2399C202.003 17.1831 201.535 17.3154 201.139 17.3203C201.07 17.3289 200.788 17.3643 200.358 17.429C198.567 17.6168 194.451 18.823 194.203 18.9715C191.275 20.1124 193.89 19.2101 193.323 19.4406C192.764 19.4331 185.954 22.9492 185.08 24.4953C182.519 26.8175 185.97 22.4964 191.718 20.0083C192.448 19.4832 186.521 22.6291 186.382 22.9986C180.213 28.5502 183.874 25.6703 182.718 27.0016C182.164 27.7336 180.553 30.3916 182.148 27.9903C179.127 34.1281 180.941 30.4005 180.656 30.7645C180.347 31.3713 179.942 33.7139 179.962 34.0257C179.919 34.4662 179.974 32.9246 179.834 34.6661C179.811 34.9633 179.914 37.7806 180.008 34.1534C179.917 35.3376 179.991 36.2144 180.071 36.9009C180.358 38.5334 180.526 38.6931 180.884 39.9084C182.771 42.9723 181.995 42.3746 182.742 43.64C185.044 47.0374 184.643 45.8994 184.756 46.0709C185.505 47.319 193.653 55.969 196.053 57.8037C194.998 57.2098 189.139 51.3067 187.974 49.9192C183.759 45.4962 193.849 56.2622 190.634 53.1889C192 54.4736 193.421 55.7376 194.859 56.9591C197.379 59.3648 193.523 56.2512 200.764 62.2219C202.014 63.1168 195.661 57.9855 196.988 58.9549C197.743 59.5708 201.942 62.9992 202.065 63.0275C202.158 63.0778 198.33 60.0011 198.97 60.443C200.211 61.5899 214.588 72.3157 203.585 64.2297C206.61 66.5427 208.065 67.8869 210.835 69.6913C212.664 70.7784 202.781 64.0554 217.856 73.7813C218.115 74.1274 211.754 70.016 211.612 69.8706C211.374 69.7273 212.369 70.7115 212.561 70.851C212.894 71.092 216.927 73.7578 221.457 76.1999C225.976 78.7001 230.998 80.7032 232.706 81.2459C232.442 81.1302 232.777 81.2226 233.451 81.4047L233.285 81.3616C233.945 81.5 234.934 81.4981 236.605 79.2193C238.11 77.1149 239.116 74.4783 239.345 73.8802C239.494 73.4812 238.807 74.9208 238.97 74.4946C240.095 71.9465 242.45 64.2823 243.252 60.5773C244.196 56.4569 243.977 56.9504 244.033 56.7209C244.425 54.8954 244.17 56.3662 244.404 55.2512C244.792 53.585 247.024 41.8482 247.116 41.2463C247.145 41.0706 246.694 42.9806 247.158 40.403C247.246 39.9532 247.267 40.2658 248.707 32.6125C250.511 23.368 247.302 38.9981 247.959 35.1394C249.272 29.2373 249.109 29.3981 249.461 27.778C249.597 27.2391 250.549 23.1159 251.924 18.5022C250.947 21.8163 250.225 25.0656 249.551 28.3112C250.227 25.1268 251.713 18.9254 252.771 16.1965C253.273 14.9094 252.903 15.98 254.088 13.2637C254.113 13.2093 254.139 13.1542 254.166 13.0982C254.428 12.5501 255.215 10.8267 253.929 13.1896C253.558 13.947 252.949 15.3574 252.275 17.5753C252 18.1275 253.046 14.9603 253.896 13.1743C253.954 13.048 254.011 12.9289 254.065 12.8177C254.146 12.6559 254.299 12.2315 254.691 11.5683C255.073 11.0471 255.66 9.64167 258.126 8.61396C258.606 8.32913 256.145 9.85744 257.079 9.39941C257.305 9.33624 259.398 7.72338 262.517 8.96757C265.22 10.1616 266.943 12.3963 269.007 15.5868C269.277 16.0082 268.422 14.4947 268.688 14.9042C268.937 15.2119 270.737 18.5087 270.93 18.9364C271.144 19.3301 270.334 17.6182 270.587 18.0801C271.845 20.3652 273.024 23.4786 270.743 18.7589C271.495 20.2971 272.249 21.9927 272.899 23.5478C272.326 21.7654 274.062 26.0228 274.937 28.2678C280.356 42.5011 276.869 32.9206 277.853 35.351C279.348 39.2796 277.999 36.3581 280.084 42.2201C280.25 42.7735 278.118 35.5593 282.52 49.5618C281.87 47.4957 281.21 45.4454 280.525 43.3801C280.752 44.6295 282.919 50.8197 283.059 51.3048C284.752 56.8049 283.593 53.0895 286.069 61.2522C286.289 61.9844 286.703 63.6086 287.159 65.1534C289.077 71.6396 284.8 56.5702 284.704 56.1446C284.74 55.94 289.291 72.1209 289.376 72.7201C289.942 75.1103 287.35 65.3683 287.754 67.2486C287.988 67.9938 294.112 90.8552 294.829 96.1749C294.865 96.4096 294.893 96.6206 294.915 96.8267C295.281 100.379 294.22 102.866 293.546 104.273C292.829 105.702 292.377 106.293 292.492 106.393C291.161 107.89 290.142 109.155 289.514 109.746C285.701 113.123 283.394 113.939 281.365 114.871C279.297 115.7 277.367 116.467 273.323 117.14C271.531 117.419 269.985 117.399 269.343 117.429C268.966 117.439 269.679 117.549 267.823 117.562C266.876 117.552 264.127 117.467 261.025 116.566C257.924 115.722 254.583 113.808 252.623 111.895C250.777 110.167 250.234 108.345 250.104 107.977C249.841 107.068 250.709 110.194 252.684 111.829C253.756 112.806 254.727 113.432 254.232 113.035C253.709 112.644 253.208 112.227 252.727 111.783C250.107 109.472 249.37 105.732 249.651 103.076C249.9 100.287 250.699 98.0243 251.647 95.7794C252.559 93.736 252.16 94.7862 252.562 93.9357C252.641 93.5011 256.358 87.0532 256.229 87.3541C256.023 87.6848 252.754 92.4491 250.87 97.6139C248.673 102.558 250.097 108.979 249.488 104.785C249.217 103.06 250.508 98.6039 250.194 99.2823C253.795 88.6513 260.265 81.1774 266.447 73.419C272.765 65.7894 279.437 58.6325 286.161 51.5067C278.569 59.7641 269.824 68.9987 262.509 78.4761C261.484 79.7534 258.201 84.2781 258.679 83.7772C264.585 75.3781 272.866 65.9524 279.429 58.9107C279.642 58.6821 278.92 59.5756 279.72 58.724C281.176 57.1645 285.908 51.9398 286.724 51.1203C286.883 50.9608 284.21 53.952 285.087 53.1086C287.351 50.9288 287.607 50.1453 289.441 48.1876C289.962 47.6094 292.278 45.2733 294.218 42.9334C298.183 38.0076 304.433 36.6734 306.491 36.1523C308.505 35.7425 305.668 36.0596 302.537 37.1776C299.368 38.1887 296.14 40.7183 296.636 40.3023C301.338 36.6538 306.735 35.563 311.871 35.2834C317.033 35.0756 322.146 35.8699 326.847 37.9156C327.011 37.9935 325.607 37.2697 327.701 38.2178C331.305 40.0448 332.059 41.0171 333.539 42.4278C334.508 43.3372 336.731 46.1618 337.535 48.9223C337.998 50.3536 338.341 51.5813 338.422 51.922C338.452 52.0369 337.972 50.755 337.908 50.5665C337.711 49.9502 337.539 49.4107 337.399 48.9666C336.767 47.0551 336.36 46.3351 336.256 46.1097C335.668 45.0452 334.927 44.1185 334.216 43.3041C333.031 41.9934 332.348 41.2774 330.497 39.9876C329.203 39.1504 330.413 40.0131 329.149 39.2473C328.739 38.8183 323.525 36.4776 322.936 36.6801C322.886 36.7121 324.963 37.1427 328.066 38.7127C331.067 40.2436 335.56 43.4309 337.342 48.9851C339.243 54.785 340.549 61.4564 340.871 67.0074C341.238 72.5646 340.694 76.9284 340.55 78.1428C341.06 74.455 341.173 70.7404 340.967 67.0638C341.591 74.5461 339.834 83.6171 339.325 84.1402C337.487 91.3428 333.835 98.1036 328.869 103.617C322.245 111.027 314.675 117.692 306.098 122.889C297.516 128.155 287.973 131.629 278.494 134.093C273.931 135.29 276.305 134.431 268.996 136.473C270.891 135.988 272.793 135.549 274.748 135.095C271.779 135.867 260.896 138.335 256.985 141.903C255.841 142.81 255.183 143.68 254.892 144.091C254.809 144.367 254.318 144.579 253.311 147.834C252.677 150.82 252.798 151.421 252.925 153.128C253.089 154.585 253.625 156.194 253.777 156.629C253.887 156.951 253.857 157.099 254.166 157.886C255.238 160.317 254.448 158.304 255.52 160.747C255.186 160.188 254.872 159.616 254.583 159.033C255.932 161.987 258.715 165.665 255.849 161.683C255.396 160.967 255.831 161.552 255.506 161.014C252.428 155.712 252.53 152.362 252.469 151.044C252.502 149.686 252.444 150.07 252.436 151.404C252.172 154.111 254.594 160.761 257.538 164.05C258.167 164.982 260.594 167.811 263.364 170.013C266.105 172.26 268.991 173.924 269.178 174.049C269.684 174.376 267.719 173.323 270.209 174.844C270.441 175.009 274.448 177.167 277.869 178.482C281.264 179.824 283.975 180.641 280.955 179.719C279.634 179.422 271.952 176.102 270.252 174.973C274.171 177.719 284.971 181.076 286.216 181.255C291.134 182.649 276.717 178.761 287.816 181.881C296.475 183.869 288.337 181.915 291.71 182.589C292.882 182.829 297.215 183.668 300.303 184.013L298.895 184.251C301.168 183.483 301.511 183.831 302.225 183.733C302.835 183.72 303.185 183.712 303.123 183.673C306.848 183.848 304.662 183.844 305.12 183.873C305.588 183.839 312.714 184.662 314.954 185.206C315.227 185.263 314.344 185.2 314.627 185.262C315.192 185.318 321.904 186.839 322.167 186.973C322.338 187.011 320.77 186.499 321.43 186.653C322.216 186.748 328.594 188.871 328.95 189.107C329.476 189.128 321.561 186.537 322.904 186.913C326.564 187.907 332.483 190.221 334.845 192.016C334.266 191.514 330.804 189.6 329.573 189.137C329.903 189.197 331.939 190.041 333.56 191.047C335.182 192.035 336.308 193.09 335.063 192.164C336.66 193.357 335.629 192.472 336.538 193.203C336.79 193.274 338.883 195.877 339.059 196.692C339.21 196.62 337.296 193.662 337.698 194.254C338 194.564 340.275 197.322 339.65 200.795C339.034 204.086 337.148 205.716 336.961 206.017C336.229 206.758 337.162 205.876 338.109 204.411C339.11 203.049 339.677 200.397 339.576 200.01C339.601 199.937 339.388 202.016 338.468 203.51C337.607 205.036 336.544 206.04 336.495 206.102C336.347 206.156 337.41 205.127 338.274 203.57C339.169 202.079 339.363 200.062 339.245 200.564C338.922 202.681 337.796 204.312 336.762 205.501C337.7 204.328 339.09 202.482 339.194 199.77C339.295 196.978 337.581 194.661 336.072 193.325C332.92 190.595 329.853 189.571 328.609 189.077C332.368 190.662 336.599 192.596 338.508 196.786C340.173 201.446 337.404 203.892 337.577 203.709C337.528 203.673 338.07 202.774 338.379 201.666C338.714 200.573 338.655 199.372 338.64 199.467C338.637 199.819 338.458 201.712 337.648 203.106C336.888 204.529 335.957 205.486 335.871 205.59C335.749 205.712 335.689 205.765 335.685 205.761C335.669 205.698 337.065 204.415 337.943 202.368C338.967 200.291 338.276 197.592 338.147 197.47C338.058 196.715 338.438 200.799 338.092 200.738C338.119 200.686 338.363 199.015 337.889 197.749C337.448 196.474 336.838 195.761 337.316 196.617C337.796 197.484 338.292 199.464 337.818 201.038C337.417 202.57 336.64 203.552 336.597 203.637C336.271 203.979 337.573 202.554 337.87 200.313C338.216 197.982 336.708 195.975 336.65 195.92C336.601 195.879 337.279 196.777 337.59 197.986C337.932 199.179 337.693 200.454 337.665 200.509C337.865 200.665 337.494 196.832 336.331 195.955C335.745 195.169 337.258 197.625 336.95 197.215C336.924 197.045 335.851 195.196 334.311 194.053C332.812 192.846 331.152 192.031 331 191.95C330.539 191.721 331.956 192.558 331.731 192.462C331.452 192.302 329.403 191.27 329.662 191.434C329.738 191.488 331.811 192.458 333.587 193.848C335.434 195.173 336.559 197.271 336.461 197.261C336.777 196.752 329.956 190.446 335.834 196.744C335.947 196.756 336.787 198.691 336.691 198.786C336.751 199.434 336.509 198.093 336.226 197.674C336.103 197.458 336.094 197.437 336.286 197.94C336.429 198.419 336.925 199.578 336.179 201.475C337.464 197.749 334.966 196.128 334.532 195.557C333.862 194.962 333.962 195.093 334.357 195.485C335.28 196.217 336.337 198.604 335.796 197.688C335.775 196.714 331.172 193.34 331.021 193.483C331.484 193.819 333.044 194.751 333.451 195.174C333.817 195.292 329.421 192.744 330.364 193.403C331.003 193.548 335.206 196.753 335.022 197.108C335.948 198.783 334.717 196.802 334.882 197.189C335.25 197.396 335.866 199.995 335.622 200.066C335.604 200.123 335.753 199.236 335.368 198.329C335.019 197.412 334.142 196.527 333.827 196.257C333.393 195.816 334.912 197.587 334.591 197.272C333.141 195.158 327.555 192.191 332.443 195.421C332.746 195.599 334.253 197.009 334.225 197.078C334.979 198.021 332.519 195.359 331.706 195.111C330.694 194.493 335.194 197.727 331.425 195.082C334.202 197.123 335.833 198.511 334.314 201.487C335.574 199.337 334.523 197.831 333.314 196.694C332.09 195.593 330.985 195.059 330.6 194.868C330.185 194.685 330.522 194.88 331.495 195.542C332.382 196.183 334.495 197.631 334.565 199.507C334.031 197.079 333.244 197.372 332.678 196.687C332.407 196.117 327.162 193.234 329.432 194.813C329.769 194.95 332.624 196.784 331.689 196.271C324.439 192.129 331.686 196.13 331.516 196.236C331.536 196.261 327.12 193.558 321.245 192.004C315.48 190.329 308.955 189.397 307.08 189.222C305.675 189.075 304.362 188.99 303.166 188.971C302.171 188.895 300.368 189.204 301.222 188.988C300.892 189.148 300.029 189.298 299.664 189.252C298.573 189.148 297.792 189.061 297.426 189.01C294.147 188.524 296.878 188.844 296.151 188.703C295.386 188.663 286.066 186.913 285.591 186.662C283.81 186.149 285.651 186.537 285.467 186.481C283.226 186.077 271.061 181.721 268.006 179.622C268.039 179.81 274.592 182.999 270.457 181.11C265.665 178.783 265.626 178.196 265.502 178.151C258.899 174.039 252.79 168.512 249.29 161.013C247.581 157.298 246.594 153.029 247.128 148.7C247.619 144.37 249.916 140.114 253.408 137.399C261.116 131.583 269.912 130.579 277.808 128.252C277.58 128.17 262.72 132.148 262.309 132.584C260.41 132.514 285.428 126.313 288.035 124.937C285.838 125.702 283.591 126.394 281.34 127.022C285.151 125.79 293.507 123.031 298.498 120.196C300.11 119.318 296.956 120.896 297.004 120.849C298.833 119.876 301.768 118.268 299.622 119.57C303.982 117.003 303.382 117.431 306.628 115.296C306.794 115.176 305.375 116.086 307.896 114.287C309.101 113.525 315.089 108.677 315.782 107.862C316.073 107.584 312.976 109.914 312.727 110.402C306.08 115.482 310.688 112.163 308.106 114.09C307.655 114.329 308.688 113.799 301.756 118.136C303.043 117.266 310.866 112.048 312.019 110.904C314.637 108.87 303.68 117.062 301.439 118.221C302.349 117.457 300.611 118.73 297.913 120.119C294.908 121.626 296.222 120.898 294.568 121.682C290.055 123.676 291.984 122.997 288.137 124.349C292.015 123.351 281.561 126.769 278.321 127.398C283.428 125.98 288.366 124.344 293.114 122.234C292.843 122.332 292.552 122.437 292.272 122.535C293.53 122.001 294.777 121.437 295.994 120.849C295.807 120.96 295.621 121.071 295.434 121.18C301.664 117.992 303.099 116.97 303.593 116.723C309.89 112.846 316.441 107.299 321.624 101.787C322.171 101.201 322.014 101.316 323.922 99.1974C324.652 98.3741 325.672 97.2162 327 95.3771C328.416 93.3255 327.223 95.3543 328.706 92.9427C330.239 89.7425 330.284 89.8502 330.745 88.9024C331.97 86.1433 332.388 84.3169 332.477 84.0587C333.603 80.4918 334.392 74.9954 334.317 70.8076C334.317 70.7322 334.237 72.9001 334.256 70.1895C334.335 69.2719 334.224 60.557 331.824 53.2449C332.357 55.1565 332.813 57.0862 333.183 59.0239C333.004 58.0159 332.185 54.3762 331.053 51.0353C329.997 47.7359 326.823 45.8152 328.269 47.0114C329.16 47.8318 330.513 49.5177 330.974 51.0609C331.401 52.3456 331.682 53.3899 331.674 53.6609C331.512 53.0681 331.255 52.1794 330.902 51.0844C330.401 49.4473 329.068 47.329 326.516 45.6745C324.005 44.0031 320.496 42.897 317.093 42.501C310.141 41.5912 304.391 43.8042 303.698 44.1802C303.431 44.2761 305.009 43.5567 304.648 43.6973C304.28 43.6589 300.023 46.0003 299.536 47.0952C299.414 47.2486 299.313 47.3694 299.25 47.444C299.112 47.6044 299.276 47.3946 299.513 47.0772C299.791 46.663 300.488 45.9821 300.391 46.0562C300.355 46.085 299.912 46.456 299.455 47.0319C297.56 49.3963 294.331 52.7536 294.139 53.0696C295.618 51.488 299.937 46.6481 297.707 49.2806C297.464 49.575 295.909 51.1989 295.576 51.5716C293.577 53.7752 296.636 50.7188 299.588 47.1354C300.602 45.7971 302.378 44.7885 302.96 44.5018C301.7 45.1708 300.456 46.0726 299.618 47.1591C293.83 53.993 286.676 61.0029 281.261 67.181C278.449 70.1837 285.284 62.5898 282.101 66.0061C275.575 73.0788 280.455 67.9761 280.263 68.2006C278.699 70.007 273.098 75.9185 273.34 76.1229C271.089 78.7655 271.747 77.8639 268.741 81.7117C269.154 81.2179 269.572 80.7227 269.986 80.2379C266.576 84.501 260.016 93.6856 260.558 92.9855C261.574 90.9987 265.073 86.2229 265.405 85.8126C265.859 85.2288 266.742 83.291 272.223 77.0522C274.164 74.2615 263.946 87.2325 268.481 81.2523C266.937 83.246 262.893 88.3696 259.841 93.6165C256.597 98.8492 255.575 104.114 255.986 104.902C256.149 104.985 255.67 104.535 256.862 106.796C257.616 107.823 255.855 105.36 256.19 105.8C256.261 106.035 256.392 106.547 257.01 107.142C259.266 109.62 266.16 112.282 273.935 110.499C281.531 109.153 289.516 102.924 288.409 97.5861C287.662 93.1802 286.497 88.7314 286.073 86.9007C285.933 86.3238 286.044 86.5229 285.903 85.9446C285.504 84.2809 283.828 78.0397 283.03 74.9613C284.602 81.3537 281.343 69.0385 280.446 65.9323C279.12 61.1815 279.306 61.4812 278.73 59.4249C276.545 51.5437 272.392 39.6131 270.337 33.6573C270.268 34.0748 266.54 23.3381 264.007 19.2447C262.007 15.4668 258.854 13.4487 261.573 16.0902C260.858 15.1238 259.774 14.6344 260.226 14.7924C261.005 14.5967 260.267 14.7375 259.797 15.9286C258.292 19.2677 257.321 23.3463 256.473 27.0313C256.239 28.0795 256.491 26.6253 256.101 28.4114C256.067 28.5746 256.085 28.7918 255.764 30.3472C253.268 43.1278 254.39 36.8927 253.872 39.2885C253.597 40.6203 253.398 41.6209 253.256 42.3546C254.612 34.8222 256.371 26.2576 256.983 24.0573C256.223 25.8629 253.557 40.4717 252.744 44.7991C252.715 44.9485 252.73 44.4118 252.701 44.5637C252.7 44.5669 252.7 44.5701 252.699 44.5732C252.412 46.1806 250.425 56.4958 250.934 54.3912C251.079 53.8342 252.021 49.0754 253.051 43.4653C252.786 44.9866 253.09 43.8705 253.044 44.139C252.492 47.3946 250.864 55.3681 250.22 58.2014C250.077 58.8522 250.145 58.8175 250.122 58.9242C249.542 61.4878 249.612 60.4134 249.167 63.0871C247.885 67.6989 251.119 54.3316 250.715 55.2452C250.56 55.5942 249.139 63.2371 246.892 70.7557C245.76 74.5164 244.372 78.2121 242.795 80.9812C241.291 83.7457 239.369 85.435 239.437 85.4176C239.332 85.473 238.893 85.8856 237.874 86.4699C237.081 86.9647 234.541 88.0615 231.886 87.3646C231.86 87.3583 231.781 87.3381 231.754 87.3305C228.599 86.4392 225.11 84.8904 224.258 84.5189C224.023 84.418 224.048 84.6098 223.757 84.477C222.962 84.2616 213.724 79.1577 210.464 77.0127C212.229 78.1751 214.008 79.2931 215.849 80.3834C204.906 73.738 206.726 74.6113 210.206 77.0464C210.385 77.1627 210.557 77.2801 210.728 77.3903C213.482 79.2162 217.146 81.3356 217.214 81.3785C217.295 81.4623 212.591 78.8391 208.556 76.1216C204.498 73.4296 201.04 70.7573 202.753 71.9383C203.19 72.3233 211.449 78.0025 207.393 75.1313C206.671 74.6618 201.427 70.9353 201.184 70.6993C199.363 69.3685 210.889 77.3685 209.58 76.2305C206.668 74.4602 203.132 71.8996 200.024 69.5437C198.609 68.4712 198.223 68.2606 198.047 68.1261C195.474 66.0958 196.966 67.1769 196.116 66.4916C195.633 66.1465 190.633 62.0598 191.726 62.6613C183.765 55.5393 182.996 54.1592 184.868 56.3098C186.802 58.4126 191.978 63.3642 197.091 67.4159C193.784 64.9463 187.787 59.4993 185.245 56.8159C184.322 55.8635 184.812 56.5201 183.266 54.8754C181.654 52.7531 175.078 47.1904 173.23 37.6993C172.331 31.2509 175.395 25.4081 177.002 23.3856C174.892 26.7133 175.546 25.7385 177.243 23.2507C179.088 20.8902 177.431 22.7853 177.784 22.3192C177.957 22.0607 180.357 19.2094 183.499 17.1283C186.593 14.9723 190.221 13.5265 191.255 13.1451C186.586 14.9784 185.019 16.2872 185.342 16.0641C185.687 15.9131 188.01 14.4412 192.002 13.028C190.858 13.46 189.732 13.9455 188.63 14.486C191.168 13.2451 195.528 11.8171 199.444 11.2989C202.396 10.8613 205.121 10.8664 206.418 10.9455C206.886 10.9614 205.213 10.8043 205.475 10.8167C206.761 10.8227 209.721 11.0452 212.334 12.0853C214.974 13.0696 216.918 14.8058 217.078 14.93C217.451 15.0857 214.095 12.6719 215.38 13.5079C215.669 13.6092 218.978 16.1379 220.807 19.3328C221.508 20.4916 221.152 19.7541 221.327 20.0456C222.441 22.0732 222.064 21.4714 223.019 23.7495C223.261 24.3519 223.519 25.1941 223.687 26.1667C224.249 30.2397 223.965 32.9684 222.752 37.7773C224.692 29.86 224.005 28.8416 224.034 31.2566C223.919 33.6478 222.795 38.6395 221.666 41.8023C221.278 42.7833 221.911 42.069 219.295 47.8948C224.223 35.2243 217.941 51.5586 215.765 54.405C215.662 54.5724 215.567 54.5938 214.659 56.0721C214.579 56.1951 214.75 56.056 213.882 57.4189C204.968 69.9151 210.609 61.8801 208.838 64.1918C208.11 65.2009 203.026 70.7196 201.397 71.972C201.041 72.2752 201.178 72.1039 199.78 73.2532C197.297 75.2753 194.904 76.915 193.051 77.9823C192.818 78.0798 192.836 78.1265 189.179 79.9031C188.141 80.386 186.959 80.9016 188.472 80.2952C193.621 78.4218 201.779 72.2185 205.785 67.8177C207.646 65.8371 205.766 68.0804 203.049 70.6468C200.36 73.245 196.621 75.8999 196.233 76.1331C195.963 76.3253 198.725 74.3516 195.881 76.3013C193.461 77.9615 188.735 80.7458 184.413 82.0074C184.284 82.047 183.668 82.2172 182.97 82.3804C181.869 82.6454 180.651 82.8476 180.737 82.8234C180.807 82.806 181.823 82.5842 182.938 82.2632C184.353 81.8645 185.803 81.3216 185.373 81.4484C185.318 81.4665 184.022 81.9072 182.92 82.1974C182.238 82.3812 181.655 82.5126 181.487 82.5403C180.963 82.6343 179.368 82.5847 178.664 82.6726C176.734 82.9122 177.994 82.8342 176.765 82.9569C175.418 83.0882 172.372 83.1512 169.654 82.5712C166.922 82.0396 164.675 80.9622 164.511 80.9592C165.935 81.6259 167.457 82.1546 168.99 82.5095C160.61 79.8114 164.277 80.7301 163.079 80.3665C161.916 79.7184 162.225 79.8853 159.878 78.1883C159.615 78.0151 157.111 76.0462 155.117 73.8639C153.091 71.7054 151.406 69.5189 151.445 69.6196C155.467 74.4402 153.962 72.703 154.117 72.9376C154.854 73.7831 155.89 74.7885 157.009 75.8457C165.523 82.7882 156.749 75.9754 158.768 77.6129C159.446 78.2003 160.963 79.196 161.294 79.399C162.353 80.0859 162.334 80.1593 163.083 80.5659C164.856 81.462 162.849 80.2971 162.998 80.3557C164.475 81.3807 171.221 83.3125 166.987 82.2403C169.494 83.0329 169.851 82.8861 171.882 83.1993C175.969 83.5869 169.816 83.263 168.193 82.662C162.477 80.9064 160.572 79.8184 154.924 74.19C152.952 72.106 150.889 69.5607 150.114 68.5666C149.599 67.8937 145.367 61.9404 144.891 62.1475C144.247 61.3631 143.481 60.4264 142.649 59.5336L142.846 59.7111C141.391 58.3735 139.525 57.1772 137.994 56.5038C135.782 55.5682 136.417 56.0388 136.211 55.9517C135.899 55.809 133.091 54.9188 132.099 54.7532C130.944 54.5302 131.496 54.6825 129.655 54.3836C124.992 53.7748 125.074 53.8095 124.598 53.7315C118.886 53.4193 121.376 53.7676 120.106 53.7651C119.526 53.7728 115.047 53.8603 110.283 54.5447C105.515 55.1828 100.524 56.3704 98.7996 56.8547C100.198 56.4626 101.6 56.098 103.016 55.7607C100.454 56.209 97.8287 57.0755 97.7396 56.9228C97.2831 57.3014 92.0973 58.6368 90.5877 59.2003C89.9999 59.4055 90.0458 59.4385 89.2985 59.7056C86.3476 60.6844 79.984 63.4662 78.6431 64.3296C75.6824 66.1151 77.9152 64.7287 81.4306 63.1161C84.9167 61.4937 89.6438 59.8595 90.3575 59.6305C88.9469 60.0992 84.4229 61.7859 81.2879 63.3534C78.1687 64.9066 76.4378 66.0387 79.6295 64.3457C80.6378 63.8332 82.4324 62.8568 83.0279 62.5929C87.0724 60.8198 83.92 62.2896 84.2475 62.1596C84.7815 61.9367 87.4516 60.7558 88.2025 60.5044C88.4572 60.4264 86.8936 61.0606 90.9141 59.6545C88.8989 60.2301 77.9142 64.9134 76.9888 65.9024C76.7846 66.0343 77.2844 65.7759 77.0991 65.9255C77.0627 66.0182 75.5148 66.8192 74.2287 68.1379C73.7948 68.7024 73.3491 69.3093 72.8848 70.0046C72.9635 69.9169 73.0349 69.8418 73.1081 69.765C70.1806 74.2056 69.2774 78.5828 72.0657 81.4756C71.7188 81.178 70.3295 79.4235 72.0822 81.6665C73.3249 82.8996 72.4757 81.9115 72.5888 82.0243C72.8778 82.295 74.7156 84.0879 78.6035 85.5501C82.3196 86.9946 88.3487 88.2261 93.0196 87.858C101.492 87.0753 107.9 80.5974 109.787 78.3343C111.39 76.7036 114.9 71.1877 115.085 70.7038C116.071 69.0839 118.202 64.8678 119.879 60.9299C120.16 60.4307 120.184 57.9523 120.118 57.3534C120.03 56.1112 120.033 57.3087 119.945 56.1817C119.846 55.1379 120.034 56.2133 120.006 55.9024C120.084 54.0434 117.306 40.6311 113.634 34.085C112.449 31.8689 111.607 30.2401 111.067 29.2489C111.527 30.0741 112.441 31.7925 113.676 34.0618C116.134 38.4232 118.18 45.7493 118.144 45.4791C118.152 45.4095 117.16 41.8608 116.868 41.1636C116.561 39.9558 114.847 35.9914 113.851 34.1509C113.801 34.0531 113.894 34.1669 113.827 33.9796C113.738 33.7503 113.353 32.9381 112.313 30.9556C111.621 29.6473 109.746 26.3497 107.697 23.232C106.19 21.0461 101.053 14.0677 94.1761 10.7813C87.3968 7.24091 79.8473 8.04868 78.967 8.20999C78.9422 8.17918 82.7099 8.0387 80.1692 8.21614C76.739 8.61252 79.8141 7.97232 75.7954 8.58594C75.6748 8.60873 75.1379 8.70757 74.3273 8.89332C71.0242 9.32554 65.23 12.8372 65.2064 13.2029C64.0863 14.2968 65.1567 13.2735 66.6901 12.2634C68.2019 11.2353 70.3323 10.3708 70.283 10.4066C70.1313 10.4875 68.2743 11.268 66.7036 12.3761C65.1083 13.4518 63.8044 14.8815 63.7064 14.9894C63.4882 15.1801 67.5566 10.7222 62.6518 16.0682C63.1818 15.4107 63.7397 14.8111 64.3535 14.2401C62.0311 16.7248 61.9385 17.1134 61.4505 17.7926C60.0826 20.0611 59.1079 22.8361 58.027 27.3429C57.7458 28.5471 58.0511 26.5163 58.0186 26.6722C57.6457 28.1075 57.5674 30.0134 57.1632 32.294C57.1505 32.4921 57.5676 26.9932 56.647 36.5502C56.7253 35.8816 56.8011 35.2068 56.877 34.5557C56.8183 35.1849 56.6969 37.4891 56.2978 40.272C56.0292 41.7014 55.919 43.2268 54.6048 45.2275C53.9405 46.2534 52.43 47.2826 51.1597 47.4413C49.814 47.6381 49.1219 47.422 48.4947 47.2659C48.2464 47.1953 48.0563 47.1389 47.9356 47.1024C44.0611 45.8533 47.4241 46.838 43.6572 45.5594C45.8812 46.4696 34.9952 42.7672 35.7132 43.032C34.9516 42.9268 32.3464 42.265 29.4376 42.1418C26.5308 41.9744 23.3091 42.5018 21.2981 43.1208C19.9025 43.5159 17.7457 44.3693 16.006 45.2799C14.6632 45.9674 13.746 46.6886 13.47 46.8987C12.7707 47.4669 12.845 47.1781 11.6852 48.3504C11.2764 48.6127 8.28825 52.6777 7.8899 57.5826C7.76016 58.4834 7.52176 60.4931 7.54041 58.7195C7.39398 55.5773 9.57004 50.6322 9.57001 50.7452C9.50137 50.7473 8.59555 52.3154 8.0799 54.3706C7.52741 56.4086 7.40413 58.8688 7.39637 59.9106C7.9151 69.6775 7.51987 64.0745 7.40828 64.3121C7.30278 64.9901 8.40214 70.3919 8.52196 70.6074C8.70926 71.5498 7.70984 67.7483 7.67863 67.6999C7.52557 67.6429 8.7196 72.8884 8.40139 71.7107C7.82215 70.038 7.02822 65.1815 7.04302 64.8747C6.52974 60.8967 6.91053 66.3826 7.22 67.9238C7.28243 68.3894 6.88872 66.5638 6.95544 66.9465C8.07273 72.7779 7.38871 68.127 8.34888 71.9544C9.33205 75.343 7.92498 71.0234 7.9794 71.146C7.9835 71.3251 9.22153 75.3722 9.44391 76.0011C9.32222 76.377 6.28072 65.8043 6.51062 66.2162C7.09374 69.6678 8.07059 73.0773 9.29266 76.3914C9.22771 76.7094 7.73536 71.8455 7.64043 71.3297C7.33442 70.3174 8.05778 73.176 7.99739 73.0632C7.9402 73.0118 6.91753 69.6908 7.73208 72.7217C8.03275 73.7576 8.74048 75.9095 10.1593 79.5902C5.38454 66.7383 8.50576 75.7006 8.569 76.1159C8.65559 76.5109 6.39439 70.3286 9.06708 77.855C8.96406 78.2675 8.905 77.7278 8.11611 75.6001C7.26323 72.9532 8.85565 79.1875 6.25063 69.3528C6.12429 69.9776 8.58639 77.8019 8.85108 78.1746C8.97557 78.5295 8.2751 76.842 8.48659 77.4583C11.1579 84.6906 9.26721 79.7388 10.0061 81.8628C10.018 82.0728 13.2377 88.6376 10.7431 83.6627C6.41664 74.4567 6.03863 70.1058 5.26754 68.5399C6.55476 76.0236 10.7554 84.2442 11.863 86.2268C13.5225 89.2947 11.7389 86.1515 11.9283 86.5378C11.9752 86.6738 13.4585 89.3078 13.4876 89.3378C13.9343 90.3253 12.1329 87.4867 10.3317 83.6197C8.50108 79.7899 6.84459 74.9124 6.18429 72.5491C6.50453 73.8267 6.86695 75.0973 7.26494 76.3556C6.67098 74.6658 6.14255 72.9555 5.69213 71.2188C8.03195 79.426 5.62298 71.5615 5.01852 69.4958C4.85738 69.041 6.21881 74.5146 4.65577 68.2715C5.66039 72.9122 5.25808 71.4628 6.59288 75.5433C6.35912 75.5139 3.61829 66.1894 3.62002 62.2465C4.1439 69.0585 4.95293 70.393 5.21971 71.5752C5.61661 72.7337 5.74185 73.7414 7.74177 79.2123C8.62566 81.1808 6.60682 76.0085 6.81305 76.4154C7.40467 77.9229 8.63816 81.5644 10.9177 85.5403C11.2979 86.1819 9.93063 83.3434 12.0992 87.4691C12.3385 87.9456 13.7562 90.5551 13.7409 90.516C13.4536 90.2282 12.0119 87.6608 11.9312 87.5496C11.8415 87.484 13.4927 90.3229 13.5106 90.332C13.4682 90.4738 12.0888 87.9791 12.2743 88.3492C12.6312 89.1634 18.5635 99.4976 10.7954 86.0458C17.3042 97.1621 11.4192 87.5814 9.38259 82.9961C8.84472 81.8364 8.65446 81.5691 7.94065 79.8889C7.0239 77.7329 6.17124 75.1134 5.81524 73.9523C5.47699 72.6839 7.28248 79.9207 4.528 69.4991C5.45357 74.9588 9.24441 83.9034 11.903 88.5806C17.259 98.0325 7.83591 82.1513 7.55457 80.1423C7.35379 79.6692 7.94011 81.2903 7.80547 80.9753C7.40979 80.53 4.11433 70.5441 4.04841 69.4624C3.73299 68.468 4.95641 73.2275 5.03298 73.542C4.77173 73.8561 2.35335 61.255 3.54534 68.1021C4.27392 72.8802 7.59321 80.9868 8.09036 82.3658C5.28501 76.0014 3.14108 69.2424 2.71715 62.0892C2.84749 66.003 3.55039 69.8421 4.55559 73.5523C2.43262 66.0042 1.38065 58.817 3.8811 51.0966C2.28528 55.6715 2.47269 57.6978 2.34768 57.9834C2.30828 58.2852 2.32429 56.9291 2.65839 54.9665C3.01748 50.9235 6.73996 45.1826 6.97359 45.2109C7.00195 45.1664 5.68342 46.6175 4.67199 48.4711C3.62555 50.3073 2.95006 52.4716 2.79095 53.0555C3.24992 51.1129 4.39291 47.945 6.50145 45.3053C8.5673 42.6257 11.3953 40.7531 13.253 39.8051C15.3744 38.7339 15.976 38.3987 13.1754 39.6508C12.7492 39.853 12.2608 40.1009 11.7194 40.4099C12.1022 40.1935 12.5975 39.9182 13.1655 39.6312C15.2746 38.5162 18.3954 37.3267 18.3546 37.3518C18.0243 37.3965 15.3816 38.3074 13.0891 39.4791C10.4031 40.7809 8.3324 42.698 9.085 41.9805C10.0722 41.0941 11.4175 40.2018 13.055 39.4114C14.1877 38.8656 15.4009 38.3412 16.7168 37.8285C24.6845 34.9308 28.155 35.4044 31.2224 35.3895C34.2903 35.5536 37.692 35.969 45.0553 38.6927C44.7721 38.5718 44.4862 38.4499 44.1974 38.3275C46.364 39.0947 48.4366 39.8565 50.4305 40.4252C50.7528 40.2747 48.8033 40.7138 48.8282 41.0954C48.7479 41.2687 49.0321 40.6464 49.1533 39.9681C49.4414 38.5641 49.5999 36.7534 49.7699 34.9578C50.1034 31.3232 50.4831 27.4861 51.4096 23.625C53.0139 15.9828 58.1614 7.74398 65.9592 4.28049C67.6227 3.43087 69.8878 2.51548 72.7189 1.83958C77.0079 0.788119 82.5439 0.210228 87.8641 1.0786C93.2002 1.88329 97.9744 4.1432 101.015 6.15474C102.865 6.99487 109.632 13.4613 109.895 14.1204C110.776 15.0609 105.887 9.92553 108.069 12.2714C108.319 12.5133 111.103 15.4868 113.26 18.5974C115.447 21.6704 117.15 24.7339 116.927 24.2318C116.147 22.7506 113.161 18.3053 112.602 17.6062C110.922 15.2504 116.251 22.0181 120.367 30.4116C126.153 41.532 127.88 55.701 127.78 57.3217C127.762 56.1982 127.694 55.1323 127.595 54.0666C127.799 57.0703 128.521 59.6136 126.895 64.1286C126.858 64.2077 126.818 64.2959 126.774 64.3919ZM56.9095 37.6976C56.8514 38.6094 56.7534 40.0729 56.2986 42.0477C56.037 43.0271 55.7787 44.1952 54.7055 45.6337C53.6913 47.251 50.7107 48.1334 49.4429 47.7951C49.0919 47.7521 48.7448 47.6814 48.4036 47.5879C44.7146 46.5884 39.8597 45.0716 42.2007 45.5609C44.1684 46.2423 46.2127 46.9716 48.4054 47.5816C49.6693 48.0384 52.4361 47.9674 54.0051 46.3829C55.4932 44.9202 55.754 43.7449 56.0856 42.751C56.6232 40.8013 56.7452 39.2521 56.9095 37.6976ZM101.289 16.114C99.025 14.0518 100.997 15.3953 102.719 17.2775C102.901 17.5062 104.21 19.0783 101.289 16.114ZM71.9747 9.77257C72.0795 9.72539 73.6297 9.26818 74.3779 9.11543C74.5611 9.07444 74.6813 9.04897 74.7 9.04547C75.5072 8.90195 75.1392 8.9913 74.3896 9.16672C72.929 9.47406 70.3297 10.3901 71.9747 9.77257ZM70.6963 74.2553C70.0278 76.9843 70.5317 75.0901 71.1563 73.3363C71.1899 73.2262 70.7407 74.0861 70.6963 74.2553ZM70.2481 76.191C69.597 78.3455 71.6571 81.4687 70.5313 78.8254C70.3406 78.6215 70.1754 76.134 70.2481 76.191ZM92.404 10.1972C92.7515 10.2301 95.5185 11.5901 96.6056 12.3557C96.5668 12.3522 93.6134 10.6167 92.404 10.1972ZM109.448 78.8363C109.618 79.2144 116.116 69.9288 116.197 69.0163C115.556 70.8091 109.678 78.9059 109.448 78.8363ZM84.8678 87.4337C85.1447 87.5405 88.9783 88.0213 88.8609 87.9258C87.0042 87.7518 83.621 87.1596 84.8678 87.4337ZM94.7626 58.419C94.971 58.3739 91.9616 58.86 98.9696 57.1392C100.002 56.8941 96.3577 57.934 96.7266 57.8545C97.4903 57.6614 98.1067 57.5069 98.5841 57.3838C95.3285 58.2461 92.024 59.3443 91.6921 59.4401C90.1602 59.8549 94.6595 58.4297 94.7626 58.419ZM125.55 54.1197C126.251 54.0795 130.451 54.651 131.369 54.923C131.523 54.9656 130.821 54.9118 132.637 55.3299C134.083 55.7085 131.977 54.9747 134.757 55.8141C137.511 56.7697 133.8 55.5975 134.03 55.7099C134.391 55.7328 138.565 57.321 138.362 57.3951C138.298 57.3156 133.874 55.5706 132.632 55.3861C131.123 55.0528 132.953 55.5263 130.396 54.9896C128.79 54.6966 129.704 54.7019 129.364 54.6361C129.089 54.4983 123.257 54.0907 125.559 54.1209C125.556 54.1205 125.553 54.1201 125.55 54.1197ZM99.461 57.1516C99.217 57.2186 98.9303 57.2947 98.5841 57.3838C98.8772 57.3052 99.1702 57.2274 99.461 57.1516ZM57.9118 28.1894C58.2199 26.569 57.4986 31.4059 57.2978 33.3525C57.2168 33.3685 57.8169 28.4145 57.9118 28.1894ZM102.466 56.3087C107.363 55.3384 103.76 56.0433 99.461 57.1516C100.825 56.7827 100.828 56.666 102.466 56.3087ZM116.868 41.1636C116.923 41.3633 116.947 41.4945 116.925 41.5196C116.783 40.9915 116.783 40.9419 116.868 41.1636ZM119.679 52.2866C120.434 56.1032 119.042 48.3107 118.892 48.3722C118.897 48.4002 119.677 52.1375 119.679 52.2866ZM72.3766 70.6646C72.2576 70.9458 74.4489 66.3561 71.1385 72.9002C72.8631 69.4554 71.042 73.149 71.1592 73.0689C71.185 73.0254 72.5409 70.1454 74.1486 68.0784C74.3565 67.7712 75.1463 67.1164 75.4375 66.9183C75.9581 66.4521 74.4859 67.499 74.1127 68.0518C73.3032 69.15 72.6414 70.2357 72.3809 70.6573C72.3795 70.6598 72.378 70.6622 72.3766 70.6646ZM173.368 83.9653C172.178 84.0506 168.33 83.5491 165.898 82.5649C167.032 82.9765 170.813 83.9535 173.368 83.9653ZM334.133 67.5535C333.598 60.4217 332.388 56.4516 332.337 55.8374C332.176 55.2269 333.209 57.9489 333.971 64.4843C334.028 64.7418 334.231 68.4174 334.133 67.5535ZM257.423 99.9508C256.86 101.099 258.257 97.1425 259.827 94.6056C260.146 94.0463 261.518 91.9627 260.124 94.416C260.03 94.2202 257.878 98.0591 257.423 99.9508ZM105.212 55.6525C106.623 55.2683 111.043 54.6093 113.376 54.4055C111.958 54.5939 107.263 55.2476 105.212 55.6525ZM307.335 42.8343C305.962 43.145 305.141 43.5767 305.365 43.5044C306.359 43.1743 308.905 42.5572 307.335 42.8343ZM91.2289 59.3368C91.0032 59.3218 96.6765 57.5173 97.1155 57.5688C95.89 57.8657 91.3669 59.3001 91.2289 59.3368ZM168.564 83.2825C167.471 83.0905 173.156 84.0991 174.854 83.8933C174.712 84.0819 169.265 83.6372 168.564 83.2825ZM289.643 57.9296C288.658 58.9633 286.221 61.574 285.989 61.8929C285.683 62.3006 289.253 58.4414 289.643 57.9296ZM291.194 188.436C291.371 188.519 285.707 187.441 283.294 186.652C278.644 185.289 290.929 188.565 291.194 188.436ZM320.723 42.9859C324.485 44.226 320.317 42.8364 320.438 43.0307C323.204 43.4661 328.581 46.7603 324.856 44.5253C324.121 44.1007 321.946 43.2809 320.723 42.9859ZM317.083 42.2623C316.646 42.2197 313.727 42.1432 316.242 42.3156C317.402 42.4114 319.276 42.5846 317.083 42.2623ZM258.625 173.985C257.029 172.488 259.881 175.209 263.608 177.667C267.319 180.187 271.838 182.29 272.108 182.416C272.377 182.549 272.553 182.638 272.653 182.691C273.276 182.966 276.716 184.361 277.065 184.552C276.074 184.193 273.241 183.016 272.959 182.865C272.825 182.801 272.728 182.754 272.658 182.718C272.023 182.474 268.486 180.869 265.192 178.801C261.87 176.771 258.955 174.293 258.625 173.985ZM248.157 143.097C246.121 148.407 246.534 149.487 246.413 148.982C247.419 142.931 246.881 146.909 246.88 146.72C246.852 146.269 248.421 142.152 248.149 143.113C248.152 143.108 248.154 143.102 248.157 143.097ZM253.828 169.154C253.922 169.342 256.832 172.391 256.997 172.483C259.337 175.043 251.14 166.355 253.828 169.154ZM145.068 62.4049C146.731 64.4828 145.023 62.4731 143.906 61.1879C143.811 61.0905 143.587 60.6331 145.068 62.4049ZM315.088 42.1164C314.817 42.0825 310.873 41.8713 307.357 42.7267C303.771 43.4836 301.22 45.3277 301.61 45.1536C301.957 44.7958 305.724 42.8179 309.673 42.3989C313.545 41.8666 316.89 42.3323 315.088 42.1164ZM276.023 109.51C273.514 110.188 276.233 109.377 277.533 108.924C278.02 108.766 276.657 109.334 276.023 109.51ZM83.7492 62.0599C81.1172 63.3096 81.5569 62.8416 83.9075 61.8987C83.9979 61.8634 83.8497 62.0134 83.7492 62.0599ZM257.29 106.743C257.306 106.757 257.322 106.772 257.338 106.786C259.785 108.903 261.504 109.3 261.406 109.392C261.394 109.398 259.563 109.051 257.187 106.949C256.609 106.398 256.215 105.739 256.214 104.26C256.234 104.544 256.269 104.783 256.323 105.03C256.094 102.686 256.969 100.711 257.106 100.21C257.332 99.5955 257.177 99.993 256.917 100.818C256.212 102.615 256.196 105.855 256.799 106.273C257.166 106.773 256.887 106.316 257.287 106.739C257.288 106.74 257.289 106.742 257.29 106.743ZM286.714 102.512C288.4 99.4279 288.081 100.923 286.192 103.504C284.242 106.142 279.368 108.633 277.111 109.316C281.468 107.696 286.198 104.4 279.283 108.216C284.571 105.646 285.227 104.053 285.51 103.969C285.721 103.787 285.051 104.536 285.2 104.384C285.594 104.045 286.567 102.768 286.714 102.512ZM267.085 110.598C266.581 110.648 262.996 110.033 261.859 109.52C263.432 110.325 270.325 110.705 267.085 110.598ZM278.216 127.486C277.903 127.65 277.111 127.937 273.903 128.741C274.895 128.444 276.922 127.878 278.216 127.486ZM56.029 41.1172C55.7241 42.2049 55.7443 43.8928 53.7307 46.0151C52.6662 47.0674 50.9733 47.4504 50.041 47.3785C49.1887 47.3458 48.6725 47.1782 48.5265 47.1536C48.4987 47.1495 48.4965 47.1531 48.5232 47.1654C48.5872 47.189 48.7352 47.2393 48.9913 47.3013C49.1087 47.2968 49.6384 47.557 51.1075 47.3664C52.5367 47.2471 54.3245 45.7815 54.8392 44.7101C56.0113 42.5163 55.9903 41.1501 56.029 41.1172ZM280.441 67.6597C280.066 67.9826 271.911 77.4028 274.787 74.2016C275.608 73.2063 283.178 64.7297 280.441 67.6597ZM328.728 47.1369C328.253 46.4742 325.263 44.5642 325.128 44.6086C324.973 44.4651 328.574 46.8164 328.728 47.1369ZM42.801 45.1637C42.4782 44.996 36.0947 42.9235 36.7979 43.2348C38.0608 43.6007 43.7396 45.5224 42.801 45.1637ZM151.393 70.2063C151.769 70.675 152.211 71.3498 152.346 71.5127C152.5 71.7016 154.363 73.9527 156.094 75.6408C157.812 77.3307 159.268 78.4803 157.502 77.0633C157.187 76.848 153.968 73.7998 151.339 70.3847C148.667 66.9759 146.156 63.5918 145.534 62.8788C145.17 62.1819 149.007 67.3094 150.028 68.6391C150.207 68.8639 150.386 68.9497 151.389 70.2027C151.391 70.2039 151.392 70.2051 151.393 70.2063ZM261.313 132.433C261.06 132.581 256.391 134.338 253.115 137.03C250.747 138.884 249.408 141.068 249.416 140.969C250.425 139.447 251.665 138.11 253.078 136.983C255.633 134.944 258.491 133.528 261.313 132.433ZM267.668 130.386C270.331 129.699 264.136 131.416 262.262 132.141C262.241 132.042 267.296 130.443 267.668 130.386ZM309.122 42.084C307.998 42.2558 311.482 41.9044 310.708 42.0319C310.205 42.0644 307.691 42.4185 306.941 42.6765C306.723 42.7174 309.232 42.2861 309.985 42.2262C311.038 42.102 310.004 42.1273 311.163 42.0192C315.018 41.7238 318.533 42.1654 321.911 43.2108C322.218 43.3036 319.859 42.5181 322.466 43.3349C322.842 43.4824 325.321 44.3182 327.69 46.1713C329.522 47.5152 330.693 49.1274 331.294 50.9568C332.722 55.4223 333.848 60.0671 334.465 66.5079C334.57 66.1311 333.554 58.7922 333.362 58.3746C332.921 56.2342 332.269 53.6551 331.386 50.9268C329.665 44.4576 319.28 41.4661 313.378 41.7542C311.26 41.8024 312.288 41.838 311.381 41.8897C310.671 41.9626 311.495 41.7253 309.122 42.084ZM56.1975 39.7487C56.056 40.2899 55.9463 41.4755 55.3621 43.2058C55.0385 44.0322 54.6194 45.2748 53.1201 46.385C51.4689 47.5568 49.5883 47.3517 48.5573 47.0448C48.3964 46.9994 48.2402 46.9542 48.0896 46.9096C48.1948 46.9522 48.3512 47.007 48.55 47.0704C49.2043 47.2449 50.1367 47.5305 51.6487 47.1434C53.2199 46.7512 54.4502 45.337 54.9104 44.3876C55.9117 42.3517 55.9879 40.8987 56.1975 39.7487ZM316.63 107.056C317.508 106.272 320.164 103.71 320.346 103.461C320.611 103.174 316.784 106.869 316.63 107.056ZM207.142 66.4316C207.235 66.3488 209.237 64.0003 209.299 63.9032C211.145 61.8532 205.119 68.8786 207.142 66.4316ZM198.306 11.1093C195.917 11.5343 193.59 12.2744 192.792 12.4555C194.244 11.9166 198.568 10.9615 198.306 11.1093ZM218.17 81.8771C217.766 81.5836 223.903 84.8315 225.176 85.3108C224.667 85.2233 218.394 82.1561 218.17 81.8771ZM278.767 127.685C274.854 128.745 275.713 128.668 273.182 129.254C272.765 129.348 271.359 129.367 275.738 128.355C276.519 128.167 273.508 129.069 278.767 127.685ZM256.362 102.692C256.366 101.909 257.243 99.1398 258.16 97.3094C257.947 97.7572 256.444 101.501 256.362 102.692ZM31.3497 41.9995C29.6116 41.3399 21.7413 42.4908 23.708 42.3227C23.964 42.0913 30.2182 41.6498 31.3497 41.9995ZM115.158 53.922C118.675 53.5623 111.372 54.1029 109.092 54.6194C110.129 54.4181 114.92 53.9149 115.158 53.922ZM198.362 68.5971C198.496 68.7141 201.642 71.1274 201.789 71.2262C204.322 73.264 195.428 66.4264 198.362 68.5971ZM221.522 20.275C221.113 19.6213 219.654 16.8963 217.071 14.702C214.526 12.4395 211.129 11.3967 209.969 11.1308C211.082 11.2573 215.523 12.6725 218.178 15.5677C220.869 18.3321 221.971 21.1478 221.522 20.275ZM294.239 122.176C291.663 123.348 289.161 124.307 286.674 125.145C287.209 124.977 293.999 122.322 294.239 122.176ZM210.206 77.0464C210.385 77.1627 210.557 77.2801 210.728 77.3903C210.55 77.2739 210.376 77.159 210.206 77.0464ZM334.35 77.3711C334.649 75.0804 334.467 75.5422 334.459 75.6856C334.271 77.4111 333.941 79.9467 334.35 77.3711ZM55.3306 43.0172C55.1525 43.3742 54.9972 44.1214 54.04 45.3375C53.1961 46.7541 49.9838 47.5425 48.5984 46.8997C47.4045 46.567 46.2265 46.1842 45.3313 45.8702C45.657 46.0173 47.0039 46.5002 48.5839 46.9508C49.756 47.4026 52.3537 47.235 53.632 45.8494C54.8751 44.5894 55.0773 43.662 55.3306 43.0172ZM287.707 95.0268C287.453 93.6625 287.966 95.589 288.303 97.5985C288.8 99.8618 287.051 102.982 286.149 103.824C286.14 103.937 288.848 100.155 288.195 97.6111C288.019 96.43 287.708 95.0748 287.707 95.0268ZM104.238 55.376C103.988 55.3232 98.9979 56.5708 100.07 56.3607C100.745 56.1989 104.386 55.3772 104.238 55.376ZM282.001 107.216C281.15 107.804 278.876 108.774 279.644 108.368C280.64 107.869 282.23 107.077 282.001 107.216ZM296.015 50.3759C295.674 50.7537 290.963 55.8886 292.973 53.8488C294.386 52.4138 294.517 52.1194 294.828 51.7844C295.161 51.546 302.997 42.7423 296.015 50.3759ZM267.871 28.1577C268.879 30.482 269.99 33.4427 270.914 35.9661C270.531 34.9763 268.248 29.1246 267.871 28.1577ZM123.728 53.5593C123.159 53.0805 106.488 54.4775 115.959 53.7461C116.52 53.5609 125.57 53.6236 123.728 53.5593ZM278.767 127.685C279.269 127.546 279.822 127.395 280.48 127.212C279.828 127.398 279.273 127.548 278.767 127.685ZM317.923 106.091C317.308 106.763 320.628 103.581 321.567 102.518C321.811 102.21 318.054 106.003 317.923 106.091ZM271.052 36.1335C271.622 37.6001 272.528 40.2627 273.16 42.1222C273.013 41.8037 271.253 36.7848 271.052 36.1335ZM230.148 86.9957C230.663 87.1705 231.189 87.3375 231.709 87.4887C231.737 87.4968 231.821 87.5182 231.849 87.5249C233.861 88.0546 236.164 87.5723 237.489 86.8256C238.807 86.123 239.48 85.4063 239.475 85.3963C239.544 85.3484 239.696 85.229 239.935 85.0119C240.344 84.8012 242.741 81.6234 243.406 80.1788C244.523 77.985 244.096 79.131 242.677 81.5831C241.963 82.7443 240.883 84.4065 239.104 85.8327C237.399 87.3265 234.209 88.242 231.841 87.5588C231.812 87.552 231.728 87.5304 231.7 87.5221C225.82 85.5689 222.205 84.0869 231.738 87.3878C231.765 87.3957 231.845 87.4163 231.873 87.4227C232.765 87.6225 233.707 87.7104 234.815 87.5594C233.795 87.7156 232.84 87.6729 231.862 87.4682C231.834 87.4616 231.752 87.4407 231.725 87.4327C231.207 87.3011 230.682 87.1552 230.148 86.9957ZM223.426 34.229C223.103 36.1446 221.666 41.2077 222.08 39.9036C222.502 39.0481 223.888 32.3702 223.426 34.229ZM173.362 34.3781C173.181 33.7426 174.391 28.1546 174.599 28.0612C173.103 31.1023 173.264 37.2278 173.362 34.3781ZM218.866 47.866C218.377 48.9087 217.811 50.2919 217.876 50.1727C218.467 49.1352 219.736 46.1074 218.866 47.866ZM286.815 125.522C288.388 125.051 293.118 123.061 294.083 122.5C294.277 122.428 294.798 122.218 295.742 121.795C295.739 121.796 295.737 121.798 295.734 121.799C296.406 121.616 305.917 116.653 311.387 112.086C316.803 107.534 319.566 105.539 308.583 114.067C307.885 114.551 308.884 113.977 305.967 115.95C305.775 116.076 305.649 116.096 305.035 116.492C303.721 117.492 295.923 121.73 294.267 122.385C294.249 122.382 294.14 122.42 293.915 122.511C291.926 123.398 285.635 125.937 286.815 125.522ZM176.211 45.0529C175.647 44.1561 174.219 40.9761 174.103 40.5488C174.527 42.4327 177.417 47.2117 176.211 45.0529ZM123.221 53.3376C121.327 53.1817 116.449 53.4794 117.925 53.4579C118.837 53.3524 125.42 53.4301 123.221 53.3376ZM186.728 15.401C176.223 22.2627 184.194 16.981 182.634 18.0983C183.936 17.0878 185.309 16.1934 186.728 15.401ZM247.55 156.686C247.102 154.654 247.69 157.03 248.415 159.148C248.638 159.819 247.804 157.804 247.55 156.686ZM319.838 191.771C318.44 191.215 325.429 193.353 322.678 192.616C322.554 192.566 319.946 191.791 319.838 191.771ZM263.931 177.239C262.802 176.562 262.044 176.164 259.203 173.797C263.498 177.16 259.529 174.093 263.931 177.239ZM239.437 85.4176C239.458 85.4035 239.476 85.3911 239.475 85.3963C239.452 85.4127 239.441 85.4186 239.437 85.4176ZM213.475 57.6329C212.627 58.8593 210.161 62.2176 210.954 61.2604C211.05 61.1775 213.207 58.1866 213.475 57.6329ZM294.083 122.5C293.911 122.563 293.992 122.518 294.267 122.385C294.284 122.388 294.216 122.429 294.083 122.5ZM222.657 37.2287C222.781 37.4121 223.961 30.9811 223.814 30.5997C223.912 26.6804 223.564 34.723 222.657 37.2287ZM84.9696 60.8636C84.6983 60.979 86.5492 60.3756 87.6907 59.8962C88.5625 59.5238 86.0166 60.3988 84.9696 60.8636ZM274.87 182.969C276.751 183.764 279.381 184.686 279.866 184.912C278.564 184.496 274.821 183.025 274.87 182.969ZM317.06 191C314.895 190.565 309.856 189.657 306.673 189.337C306.615 189.139 315.041 190.457 317.06 191ZM281.928 127.06C282.081 127.042 286.604 125.614 285.967 125.737C285.039 125.972 280.642 127.413 281.928 127.06ZM93.6361 57.8563C95.6467 57.1917 90.9382 58.4626 88.8782 59.3566C87.8041 59.7786 93.3052 57.9255 93.6361 57.8563ZM205.332 67.7927C203.307 69.9925 208.442 64.6473 208.954 63.7342C208.1 64.8058 206.067 67.0268 205.332 67.7927ZM176.093 25.5361C178.896 21.202 180.035 20.7205 179.676 20.8377C179.387 21.0172 178.081 22.3182 177.557 23.0704C177.365 23.2499 175.93 25.7338 176.093 25.5361ZM12.429 46.8197C11.6044 47.4939 14.7995 45.1209 15.3357 44.913C15.5687 44.68 12.8639 46.2933 12.429 46.8197ZM253.256 42.3546C253.187 42.7271 253.119 43.0977 253.051 43.4653C253.099 43.1892 253.166 42.8268 253.256 42.3546ZM182.193 81.8323C182.395 81.789 182.592 81.745 182.783 81.7006C188.728 80.133 187.937 79.8643 188.482 79.7106C189.647 79.2191 192.319 77.9784 194.314 76.6934C192.029 78.1589 189.605 79.4441 187.065 80.4872C188.085 80.1342 192.945 78.042 196.981 75.1123C201.071 72.2583 204.371 68.863 204.491 68.7157C204.871 68.3116 200.648 72.306 200.464 72.3615C200.272 72.5141 199.45 72.9471 199.022 73.2748C198.692 73.5252 195.846 75.8155 192.315 77.7692C188.813 79.7755 184.61 81.2359 182.778 81.684C182.539 81.7473 182.342 81.7965 182.193 81.8323ZM192.236 13.1766C190.763 13.6749 190.329 13.791 189.666 14.0882C189.442 14.1931 189.431 14.2683 188.672 14.6379C189.837 14.0897 191.028 13.6034 192.236 13.1766ZM169.833 82.7601C168.849 82.5062 170.59 82.9252 172.619 83.0533C174.647 83.2107 176.961 82.9981 177.082 82.9861C178.645 82.9996 171.465 83.4351 169.833 82.7601ZM221.715 40.2975C221.688 40.6446 219.344 46.6494 219.35 46.5823C220.214 45.1008 222.888 36.8573 221.715 40.2975ZM187.734 15.0962C185.589 16.0513 181.889 18.66 182.391 18.4638C182.394 18.4616 182.397 18.4594 182.399 18.4573C184.075 17.1501 185.872 16.0391 187.734 15.0962ZM100.58 55.7234C96.7052 56.5185 98.5713 56.2326 101.976 55.5025C102.991 55.1968 101.208 55.5978 100.58 55.7234ZM88.4574 59.2169C87.3056 59.3974 77.1925 64.0661 78.8007 63.5124C79.3031 63.188 85.1039 60.4877 85.4471 60.4216C85.8721 60.2672 83.9868 61.1056 87.1836 59.84C86.9869 59.8739 88.8106 59.0962 88.4574 59.2169ZM97.3879 56.4217C93.5848 57.3392 92.7983 57.8714 95.6327 57.0256C96.7299 56.7091 97.9378 56.2941 97.3879 56.4217ZM113.07 53.4422C111.672 53.5543 107.957 54.0328 105.434 54.6136C108.832 53.9735 112.258 53.5005 115.682 53.2458C116.075 53.1698 114.289 53.325 113.061 53.4432C113.064 53.4428 113.067 53.4425 113.07 53.4422ZM334.467 199.999C334.551 199.149 334.67 199.654 334.39 200.557C334.116 201.483 333.022 202.721 332.902 202.821C332.378 203.375 334.559 200.774 334.467 199.999ZM5.81427 67.792C5.95929 68.652 5.97187 69.2417 6.49438 71.1009C6.07 69.205 5.74057 67.2847 5.54054 65.3685C5.18892 63.8975 5.63416 66.8454 5.81427 67.792ZM7.18183 75.1264C7.10323 74.8613 7.30561 76.3857 6.40857 72.9141C5.64911 70.6268 10.0556 83.0039 11.3322 85.0344C10.0616 82.7411 7.90338 77.3967 7.18183 75.1264ZM17.0414 96.0575C17.0518 96.2125 14.0471 92.1034 13.7959 91.5597C12.1853 88.922 16.4411 95.4213 17.0414 96.0575ZM8.86419 82.1257C9.79249 84.3168 7.60951 79.518 7.13342 78.0275C7.09702 77.882 8.69232 81.7986 8.86419 82.1257ZM309.799 185.636C307.258 185.135 304.973 185.251 308.883 185.629C309.063 185.647 309.905 185.657 309.799 185.636ZM13.9251 92.1358C12.6669 90.0929 15.5304 94.5372 16.5696 95.7686C16.6101 95.9683 14.0592 92.4416 13.9251 92.1358ZM308.047 185.032C304.633 184.55 305.82 185.081 306.232 185.125C308.001 185.296 313.965 186.064 315.175 186.306C306.289 184.826 309.651 185.34 308.047 185.032ZM292.755 183.932C289.744 183.404 297.433 184.935 298.956 184.95C297.43 184.773 293.599 184.102 292.755 183.932ZM275.056 178.41C273.513 177.772 269.26 175.493 268.544 175.079C270.045 176.028 274.37 178.22 275.056 178.41ZM271.797 176.657C269.563 175.385 268.923 175.296 271.558 176.629C271.662 176.68 271.88 176.704 271.797 176.657ZM260.22 168.475C259.106 167.271 257.677 166.053 259.508 167.975C260.066 168.534 260.341 168.604 260.22 168.475ZM303.76 184.248C302.479 184.158 300.98 184.207 300.286 184.363C299.645 184.539 300.652 184.243 303.357 184.373C302.068 184.42 301.389 184.099 299.175 184.822L300.227 184.644C299.489 184.564 298.761 184.478 298.041 184.386C298.86 184.514 299.583 184.614 300.22 184.694L299.198 184.867C302.861 184.016 303.236 184.555 304.224 184.442C304.955 184.446 305.427 184.44 306.279 184.523C309.096 184.822 308.87 185.021 308.282 185.001C310.601 185.083 320.276 186.716 325.701 188.667C320.937 186.928 313.051 185.243 308.119 184.676C306.759 184.506 305.315 184.426 304.135 184.355C302.139 184.253 303.901 184.256 303.77 184.248C303.767 184.248 303.763 184.248 303.76 184.248ZM251.583 152.955C251.522 148.429 251.191 151.277 251.628 153.869C251.646 153.984 251.586 153.064 251.583 152.955ZM17.6092 98.134C15.2024 95.3632 15.1244 94.9045 14.288 93.7242C13.5434 92.5175 11.9919 90.6278 8.74735 84.1574C11.571 89.5574 8.97294 84.4267 9.5534 85.4664C9.99518 86.306 11.6655 89.4469 10.7601 87.5927C11.3575 88.8187 13.1266 92.0226 15.1237 94.7614C17.0765 97.5794 19.627 99.8345 19.9908 99.9888C19.9861 99.9856 19.9815 99.9824 19.9768 99.9792C20.3242 100.195 19.2118 99.8808 17.6092 98.134ZM275.279 177.847C273.896 176.906 273.143 177.103 270.407 175.357C268.496 174.446 271.002 176.002 274.381 177.545C277.749 179.124 282.084 180.548 282.963 180.957C274.67 178.088 277.396 179.039 280.747 180.307C284.093 181.477 288.227 182.59 282.383 180.621C292.055 183.594 285.58 181.492 287.092 181.876C288.72 182.292 294.314 183.483 294.052 183.298C294.049 183.298 294.046 183.297 294.043 183.297C290.622 182.685 287.161 181.88 283.842 180.883C287.095 182.087 280.183 179.986 278.077 178.864C277.124 178.54 276.187 178.199 275.279 177.847ZM294.145 183.666C293.795 183.674 286.349 182.032 286.809 182.13C287.758 182.569 298.45 184.527 294.145 183.666ZM328.19 189.436C325.468 188.312 321.192 187.089 319.65 186.82C322.44 187.464 326.685 188.883 328.19 189.436ZM289.901 129.375C293.307 128.107 282.726 131.745 285.81 130.773C285.963 130.746 289.728 129.461 289.901 129.375ZM268.305 174.262C265.432 172.327 266.626 173.465 268.889 174.748C269.021 174.822 268.438 174.35 268.305 174.262ZM14.0071 93.5925C13.6468 93.5045 8.69106 84.7112 8.12299 83.0066C8.39901 84.0024 14.036 93.8929 14.0071 93.5925ZM333.042 191.512C327.838 188.099 320.145 186.701 319.335 186.477C318.514 186.275 319.829 186.48 319.642 186.433C319.236 186.222 310.388 184.564 309.94 184.609C309.629 184.572 311.233 184.942 309.377 184.735C311.18 184.919 316.127 185.673 320.663 186.854C325.202 187.973 329.314 189.692 329.718 189.893C330.334 190.231 325.718 187.68 333.033 191.506C333.036 191.508 333.039 191.51 333.042 191.512ZM317.27 185.975C319.456 186.498 313.292 185.205 311.783 185.001C308.445 184.405 317.011 185.82 317.27 185.975ZM302.134 183.972C301.786 184.055 301.374 183.663 298.985 184.434L300.279 184.215C298.153 183.962 295.406 183.525 295.018 183.499C296.469 183.796 298.551 184.103 300.269 184.293L299.019 184.505C301.095 183.793 301.412 184.098 302.011 184.006C302.459 183.992 302.573 183.982 302.134 183.972ZM252.036 149.468C252.019 147.994 253.566 144.502 253.742 144.354C252.862 145.456 251.885 149.207 252.036 149.468ZM1.99919 61.4239C2.05572 64.3589 1.74312 57.5416 2.28479 55.4978C2.20868 55.4107 1.87367 61.1748 1.99919 61.4239ZM268.11 173.463C267.752 173.223 263.435 170.602 259.908 166.949C256.244 163.354 253.95 158.679 253.567 157.514C253.907 158.666 256.144 163.317 259.75 166.907C263.216 170.547 267.463 173.159 267.811 173.372C268.022 173.498 268.208 173.528 268.11 173.463ZM307.996 183.958C309.886 184.088 311.08 184.387 311.309 184.421C313.604 184.748 318.318 185.718 317.266 185.59C313.289 184.579 304.278 183.714 307.996 183.958ZM252.618 148.355C253.328 145.683 252.888 146.867 252.499 148.638C252.111 150.418 252.366 152.873 252.352 152.132C252.274 152.015 252.408 148.901 252.618 148.355ZM269.947 174.533C270.545 174.854 275.035 177.353 280.099 179.139C285.151 180.998 290.606 182.188 292.174 182.495C289.38 182.053 287.237 181.461 283.673 180.393C282.709 180.097 282.952 180.227 282.848 180.196C281.206 179.666 282.451 180.006 281.451 179.671C281.116 179.563 277.617 178.384 274.616 176.988C271.601 175.621 269.06 174.068 269.947 174.533ZM309.078 184.028C310.248 183.916 322.793 186.482 323.262 186.868C325.108 187.486 321.856 186.441 317.975 185.597C314.096 184.717 309.57 184.089 309.078 184.028ZM268.504 173.539C270.213 174.62 278.759 178.701 272.874 175.995C272.314 175.733 270.052 174.471 268.504 173.539ZM252.657 148.964C252.677 148.829 252.924 147.331 253.527 146.006C254.099 144.667 255.004 143.552 255.018 143.499C254.73 143.788 253.424 145.647 252.97 147.407C252.481 149.143 252.463 150.515 252.657 148.964ZM252.688 151.985C252.705 151.849 252.583 153.219 252.59 150.472C252.677 150.267 252.447 149.731 253.438 146.587C253.654 145.955 254.083 145.018 254.048 145.082C253.032 146.481 252.262 150.023 252.623 152.336C252.971 154.632 253.147 155.542 252.688 151.985ZM309.318 183.972C308.635 183.84 310.33 183.915 311.785 184.214C312.411 184.346 311.243 184.223 309.318 183.972ZM266.353 137.141C262.572 138.343 274.543 134.862 275.285 134.748C274.836 134.791 266.652 136.951 266.353 137.141ZM1.90284 54.3504C1.90213 54.354 1.90141 54.3577 1.9007 54.3613C2.81945 50.5244 2.3341 52.9251 2.36426 52.7402C3.56306 48.6928 4.65759 47.3751 4.93955 46.7763C5.28537 46.189 5.11794 46.3619 5.50342 45.795C7.30619 43.514 6.96845 43.7137 10.8503 40.7811C4.59691 45.9067 10.2218 41.1535 10.5092 41.1691C10.9738 41.0502 8.6294 42.382 6.47898 44.9248C4.26195 47.4245 2.76163 51.1103 2.35831 53.0009C2.17019 53.5195 3.49112 49.6991 3.07459 51.04C1.21898 55.3739 0.854313 68.9857 1.90284 54.3504ZM312.931 184.388C314.596 184.358 326.753 187.618 323.504 186.849C323.01 186.474 310.543 183.979 312.931 184.388ZM236.089 80.4268C236.776 79.5597 236.274 80.1899 235.545 80.8342C234.767 81.5209 234.078 81.648 233.85 81.6696C233.579 81.8265 235.362 81.4756 236.089 80.4268ZM199.801 61.4723C197.184 59.3402 194.337 57.1726 197.538 59.9062C197.878 60.2005 200.071 61.7511 199.801 61.4723ZM287.987 110.571C291.23 107.833 290.841 107.789 288.599 109.948C287.773 110.655 287.878 110.649 287.987 110.571ZM247.227 42.0575C247.155 42.4115 246.397 46.5149 246.467 46.3715C246.779 44.8673 247.7 39.7698 247.227 42.0575ZM286.953 111.393C288.896 109.868 285.491 112.448 282.893 113.772C284.239 113.152 286.76 111.578 286.953 111.393ZM263.07 169.111C261.717 168.15 258.393 164.8 256.945 162.607C256.716 162.406 261.406 168.014 263.07 169.111ZM211.252 70.1492C208.556 68.4186 214.22 72.2865 213.764 71.8458C213.684 71.796 211.36 70.2262 211.252 70.1492ZM297.175 40.1795C296.031 41.1258 297.293 40.0779 298.67 39.2709C300.036 38.455 301.498 37.8432 300.375 38.2968C300.253 38.2756 297.278 40.0001 297.175 40.1795ZM332.3 41.6181C330.819 39.7236 322.635 36.4727 325.781 37.8111C326.338 37.7821 332.257 41.2962 332.3 41.6181ZM5.58649 45.5571C4.65886 46.3312 9.23241 41.2476 10.2195 40.9643C10.4474 40.6599 6.43752 44.2527 5.58649 45.5571ZM292.102 85.8696C291.637 83.9657 290.492 79.3185 290.215 78.4734C290.797 80.6561 292.15 86.5007 292.102 85.8696ZM223.736 77.579C221.321 76.258 217.241 73.8576 218.175 74.5744C222.721 77.1441 217.653 74.2392 223.736 77.579ZM274.658 116.677C276.297 116.37 277.483 115.864 277.3 115.913C275.561 116.356 273.02 116.913 274.658 116.677ZM267.045 13.114C267.025 13.049 266.265 11.9359 265.126 10.8583C264.101 9.78812 262.222 8.96107 262.761 9.24153C263.693 9.28939 267.272 13.2546 267.045 13.114ZM279.734 133.905C281.906 133.378 275.327 135.2 273.413 135.616C272.442 135.774 279.456 133.994 279.734 133.905ZM256.083 87.8221C256.07 87.5023 252.208 94.4468 253.807 91.7331C254.163 91.0628 256.054 87.8892 256.083 87.8221ZM307.907 35.7753C305.147 36.3758 309.585 35.3281 313.953 35.4436C318.322 35.4707 322.564 36.5661 319.545 35.8743C319.329 35.8275 316.556 35.3516 313.756 35.3455C310.954 35.2945 308.149 35.7243 307.907 35.7753ZM338.744 53.324C338.504 52.4487 338.985 52.7872 339.712 56.494C339.808 56.9803 339.215 54.7378 339.286 55.1384C339.436 55.3457 340.843 63.4399 340.775 63.8376C340.828 64.2444 340.871 63.7536 340.927 64.1665C341.024 64.6205 341.336 69.7115 341.204 72.398C341.004 77.4529 340.82 78.0066 340.805 78.4229C340.642 79.6252 340.269 81.6469 339.658 84.0491C338.149 90.3425 334.423 98.0443 329.115 103.837C324.484 109.041 319.557 113.493 315.919 116.283C320.772 112.451 325.047 108.252 329.029 103.76C330.577 102.013 332.008 100.152 333.308 98.1675C332.348 100.586 339.343 86.7445 335.35 94.8935C336.424 93.1522 340.809 83.7396 341.059 73.8547C341.616 64.0232 339.096 54.7441 338.746 53.3337C338.745 53.3304 338.745 53.3272 338.744 53.324ZM190.045 52.4657C191.466 53.9087 184.383 46.2228 183.973 45.5023C184.638 46.6453 189.797 52.3399 190.045 52.4657ZM230.011 79.9342C230.687 80.1711 231.371 80.3599 233.567 80.9986L233.38 80.9502C233.718 81.0127 233.877 81.0361 234.243 80.9289C234.244 80.9284 234.246 80.9279 234.247 80.9273C234.747 80.7234 234.204 81.0389 234.303 81.0077C234.22 81.2221 236.373 79.6016 234.679 80.9512C232.778 81.5832 234.467 81.0207 233.498 81.07C233.481 81.0671 233.435 81.0616 233.358 81.0465L233.54 81.0937C232.337 80.8416 228.175 79.28 228.431 79.3787C228.475 79.4071 230.08 80.0379 230.354 80.1447C231.365 80.5634 230.843 80.4327 230.986 80.4897C231.129 80.5424 232.181 80.9253 233.484 81.2875L233.312 81.2429C233.97 81.3575 234.311 81.3013 235.127 80.6651C235.876 80.054 236.569 79.0546 236.801 78.7598C237.008 78.595 234.519 82.113 233.295 81.3173L233.463 81.361C230.326 80.4824 227.278 79.0607 227.054 78.9599C226.713 78.7942 226.931 78.7033 226.579 78.5225C226.395 78.4901 220.835 75.7171 220.143 75.2471C219.934 75.1242 219.787 75.0348 219.674 74.9655C220.465 75.5056 215.577 72.6101 215.763 72.6196C215.859 72.669 219.207 74.6914 219.331 74.7496C219.383 74.7816 219.428 74.81 219.47 74.836C218.747 74.5688 230.449 80.3648 227.96 78.9866C231.412 80.3765 227.432 78.9444 230.011 79.9342ZM238.944 73.8795C238.823 74.2283 238.687 74.6026 238.557 74.9472C241.02 69.0973 242.887 61.3772 244.468 53.6726C244.865 51.7073 244.302 53.9482 244.846 51.3768C245.28 49.3107 245.816 47.0326 245.624 48.1658C245.578 48.4456 244.697 52.6474 244.263 54.748C242.975 60.9291 243.372 59.3684 243.303 59.7359C243.219 60.1463 242.256 63.9538 241.682 66.0165C240.191 71.0052 239.741 73.9524 236.365 79.181C238.206 76.132 237.141 77.8512 238.944 73.8795ZM275.977 62.3813C276.104 62.1439 279.212 58.8135 280.344 57.5857C280.213 57.8109 277.07 61.1492 275.977 62.3813ZM114.734 84.04C115.202 83.4434 113.563 85.2679 111.84 86.7957C110.133 88.3367 108.386 89.5824 109.637 88.7023C110.238 88.3552 113.833 85.1416 114.734 84.04ZM67.2591 87.2001C65.9089 86.1385 71.1902 90.6217 71.3021 90.3055C71.2697 90.3942 67.3582 87.5092 67.2591 87.2001ZM275.536 29.1548C275.635 29.3722 277.02 33.0927 277.038 33.1788C277.894 35.6474 273.283 23.5877 275.536 29.1548ZM103.6 48.6046C98.655 49.5508 113.603 47.0061 109.02 47.6902C108.783 47.69 103.832 48.5266 103.6 48.6046ZM124.757 46.8369C123.496 46.7103 118.054 46.7381 117.985 46.8131C117.876 46.8096 124.108 46.8096 124.757 46.8369ZM273.608 117.241C274.283 117.388 266.554 118.05 263.798 117.312C263.165 117.29 271.006 117.969 273.608 117.241ZM291.357 80.4077C293.386 88.4308 294.542 93.3105 295.05 96.811C295.312 99.4727 294.888 100.708 294.923 100.649C294.889 100.603 295.25 99.2647 294.979 96.8193C294.385 92.9795 292.935 87.0111 290.883 78.7647C290.941 78.7078 290.911 78.6708 291.357 80.4077ZM280.395 115.507C281.485 115.057 284.876 113.545 286.972 112.015C286.67 112.423 282.112 114.981 280.395 115.507ZM122.515 73.2715C121.824 75.0668 116.797 82.0355 117.614 80.7383C117.993 80.5333 122.928 72.6936 122.515 73.2715ZM276.505 31.4104C276.413 30.7685 279.328 38.974 279.496 39.6499C280.298 42.2323 276.835 32.0562 276.505 31.4104ZM255.817 87.3027C256.588 85.8954 259.18 82.2081 260.905 79.9489C260.18 81.001 257.119 85.2019 255.817 87.3027ZM250.692 110.025C250.61 109.926 249.719 108.377 249.428 106.857C249.08 105.255 249.169 103.936 249.168 103.788C249.42 101.68 248.879 104.159 249.538 107.064C250.196 110.038 252.55 112.385 250.692 110.025ZM0.548733 59.6371C0.507399 59.5071 0.747343 56.1559 0.812348 56.0251C1.11626 53.0509 0.43829 63.0659 0.548733 59.6371Z" fill="#F3A54D"/>
</svg>
