<svg width="380" height="388" viewBox="0 0 380 388" fill="none" xmlns="http://www.w3.org/2000/svg">
<path d="M38.686 310.988C39.1152 310.58 40.9486 309.075 41.7673 308.458C40.8757 309.206 37.1151 312.424 38.686 310.988ZM138.989 323.02C138.242 322.519 137.489 322.015 136.729 321.507C138.826 323.018 141.636 325.009 143.607 326.464C143.925 326.698 143.05 326.161 143.805 326.711C144.557 327.258 144.475 327.07 145.568 327.847C146.723 328.663 152.431 332.925 154.282 334.296C161.535 339.636 168.837 345.071 175.976 350.509C168.555 345.011 175.916 350.662 178.05 352.225C178.537 352.575 178.516 352.348 185.942 357.936C190.75 361.506 186.072 358.482 194.14 364.108C188.192 359.589 194.13 363.963 198.985 367.238C199.827 367.847 206.603 372.294 209.709 373.89C210.776 374.47 212.418 375.208 213.851 375.872C214.81 376.314 215.553 376.715 217.018 377.299C223.879 380.057 230.891 380.906 238.135 379.637C233.925 380.578 241.476 379.196 241.803 378.993C243.548 378.72 235.763 380.335 238.84 379.776C243.158 378.966 247.45 377.552 251.709 375.836C249.123 376.823 252.726 375.337 255.482 374.073C256.489 373.619 257.345 373.23 257.744 373.07C257.361 373.109 262.182 371.018 267.216 368.274C272.284 365.575 277.354 362.072 278.589 361.039C279.045 360.559 275.761 363.407 283.491 356.833C284.289 356.096 284.03 356.433 284.44 356.032C284.699 355.778 286.03 354.185 287.541 352.628C287.959 351.969 285.338 356.277 291.728 347.218C290.392 348.986 292.741 345.872 294.467 341.461C296.309 337.086 296.71 331.331 296.62 329.552C296.606 330.262 296.568 330.975 296.507 331.681C296.683 328.18 296.404 327.515 296.36 326.733C296.255 325.654 296.092 324.446 295.865 323.199C295.49 321.62 294.208 318.57 293.327 316.859C291.625 313.66 291.539 313.672 289.212 310.279C289.767 311.076 290.296 311.906 290.794 312.75C289.269 310.333 287.519 308.081 285.564 306.308C290.091 310.625 284.658 305.223 284.194 305.176C283.582 304.745 284.504 305.293 283.474 304.6C283.363 304.555 283.491 304.608 281.874 303.788C278.474 302.477 279.013 302.873 277.557 302.754C277.417 302.816 277.91 302.607 275.367 303.166C267.271 306.908 275.381 302.719 275.707 303.02C275.912 302.965 275.295 303.041 275.502 302.932C275.697 302.932 276.787 302.091 280.212 302.913C277.918 302.352 277.661 302.486 277.391 302.442C277.179 302.221 272.983 303.456 272.79 303.768C270.797 304.913 272.597 304.004 272.214 304.234C272.066 304.321 270.679 305.087 269.273 306.267C267.818 307.465 266.522 308.736 266.12 309.3C264.225 310.979 266.045 308.872 269.232 306.218C269.848 305.708 270.435 305.262 271.093 304.818C271.376 304.607 270.3 305.249 269.181 306.155C268.14 306.986 267.196 307.832 267.096 307.923C261.944 312.963 264.965 310.328 263.967 311.517C263.503 312.103 261.563 314.339 263.393 312.341C259.542 317.397 261.836 314.281 261.54 314.6C261.18 315.034 260.041 316.984 259.94 317.202C259.746 317.541 260.341 316.319 259.594 317.663C259.479 317.867 258.452 320.162 259.937 317.326C257.999 321.169 258.466 320.9 257.841 322.224C257.502 325.059 257.225 324.236 257.044 325.36C256.786 328.379 257.18 327.509 257.16 327.666C257.198 328.209 257.282 330.573 257.975 333.015C258.626 335.478 259.854 337.946 260.407 338.89C259.676 338.276 257.589 332.542 257.521 331.251C257.121 329.103 257.271 330.629 257.627 332.304C257.981 333.967 258.642 335.788 257.978 334.269C258.467 335.549 259.073 336.817 259.757 338.025C260.908 340.321 258.768 337.315 262.748 343.137C263.475 344.039 259.955 339.005 260.737 339.966C261.089 340.567 263.476 343.923 263.584 343.936C263.634 344.001 261.449 341.002 261.847 341.442C262.3 342.619 271.596 352.81 264.504 345.097C266.371 347.301 267.277 348.563 269.202 350.27C270.517 351.284 263.619 345.005 274.268 354.112C274.403 354.429 269.886 350.583 269.825 350.453C269.657 350.32 270.268 351.228 270.399 351.358C270.648 352.07 282.505 360.418 285.341 361.758C284.282 361.158 295.209 366.73 296.551 367.024C296.885 367.147 295.691 366.555 296.046 366.691C298.239 367.586 304.232 369.912 307.106 370.692C310.305 371.599 309.921 371.373 310.101 371.429C311.525 371.792 310.374 371.561 311.244 371.774C312.52 372.219 321.64 373.778 322.096 373.679C322.23 373.689 320.742 373.444 322.743 373.63C323.084 373.614 322.87 373.908 328.5 373.974C328.569 373.974 328.639 373.973 328.709 373.972C332.773 373.848 330.593 373.886 328.5 373.851C327 373.815 325.509 373.694 326.768 373.695C327.452 373.741 328.02 373.764 328.5 373.776C331.297 373.815 331.312 373.651 332.335 373.607C332.715 373.586 335.913 373.518 339.218 372.797C336.817 373.326 334.42 373.658 331.983 373.831C334.39 373.763 339.009 373.004 340.89 372.502C341.811 372.272 341.072 372.614 343.089 372.019C343.505 371.844 345.126 371.244 339.909 372.705C339.475 372.711 341.971 372.192 343.126 371.783C343.297 371.722 343.94 371.37 345.381 370.947C345.661 370.692 342.425 373.174 351.447 368.269C351.727 368.097 350.705 368.61 350.978 368.44C351.177 368.344 353.403 367.007 353.629 366.817C353.87 366.647 352.782 367.287 353.069 367.083C354.53 366.044 356.583 364.857 353.541 366.979C354.595 366.315 355.603 365.609 356.591 364.842C355.435 365.529 358.085 363.587 359.277 362.339C366.557 354.042 361.554 359.497 362.749 358.028C364.445 355.485 363.457 357.659 365.779 353.719C365.881 353.284 363.419 358.241 368.27 348.607C367.646 350.073 366.946 351.516 366.179 352.907C366.853 352.227 368.705 347.732 368.79 347.354C370.211 343.351 369.498 346.116 371.066 339.962C371.195 339.398 371.514 338.203 371.715 337C372.582 332.006 370.324 343.536 369.896 343.728C370.114 343.959 372.634 331.611 372.392 331.107C372.702 329.286 371.728 336.803 371.983 335.387C372.047 335.115 372.792 330.548 372.828 325.441C372.925 320.377 372.284 314.886 372.033 313.079C371.47 308.853 371.253 306.951 370.979 306.973C371.004 305.715 370.578 304.749 370.452 304.216C368.831 297.807 368.769 297.782 366.86 292.471C366.417 291.296 366.099 290.263 365.924 289.868C365.82 289.634 365.918 290.112 365.416 288.959C364.835 287.295 360.267 277.748 359.832 277.093C359.519 276.378 361.946 281.006 361.578 280.148C359.856 276.781 358.01 273.607 355.951 270.352C355.085 268.994 355.581 269.66 355.208 269.083C355.082 268.834 351.906 264.312 351.998 264.521C352.534 264.879 361.381 279.346 358.96 275.59C358.514 274.825 357.082 272.175 357.184 272.669C353.279 266.206 348.78 260.088 343.797 254.366C338.752 248.568 333.241 243.07 327.755 237.395C333.026 242.683 338.761 248.452 343.86 254.311C344.934 255.544 345.971 256.775 346.968 257.996C347.76 258.933 350.36 262.342 350.1 261.878C348.249 259.411 346.178 256.85 343.913 254.264C340.433 250.288 336.651 246.374 333.427 243.023C333.257 242.846 333.938 243.438 333.306 242.773C332.13 241.537 328.113 237.607 327.48 236.901C327.371 236.781 329.673 239.006 329.039 238.265C327.414 236.366 326.713 236.151 325.226 234.59C324.038 233.435 316.565 224.932 314.796 222.663C312.779 220.404 320.097 229.198 319.531 228.556C314.358 222.872 309.602 216.452 306.092 209.829C306.031 209.712 306.499 210.761 305.712 209.287C304.367 206.697 304.181 205.942 303.626 204.631C302.979 203.239 301.195 198.116 301.082 197.377C301.06 197.287 301.473 198.318 301.527 198.475C302.273 200.707 302.47 201.533 302.537 201.738C302.814 202.499 303.151 203.215 303.428 203.893C303.891 205.017 304.111 205.651 304.786 207.092C305.262 208.088 304.88 207.09 305.343 208.045C305.485 208.409 307.297 212.196 307.705 212.407C307.801 212.455 303.254 205.113 300.981 196.32C298.51 187.553 298.762 178.067 298.827 176.396C298.693 179.294 298.724 182.251 298.95 185.176C298.422 179.234 298.9 172.056 299.217 171.631C299.96 164.068 301.704 156.666 303.977 149.538C308.232 136.184 313.587 123.303 320.254 111.055C322.121 107.713 321.191 109.634 324.299 104.173C323.453 105.511 322.567 106.948 321.743 108.314C323.276 105.426 330.782 93.4481 332.038 91.548C332.18 91.3189 332.314 90.8396 334.187 87.9163C335.873 85.2828 336.213 84.9508 337.119 83.5611C337.885 82.3844 338.662 81.0694 338.876 80.7308C339.045 80.4639 339.17 80.3898 339.572 79.7479C340.82 77.7285 339.682 79.2831 341.046 77.3784C340.768 77.8779 340.492 78.365 340.206 78.8618C341.696 76.4347 343.624 73.0618 341.641 76.7503C341.288 77.3861 341.541 76.8111 341.271 77.2826C330.073 95.3903 339.45 81.0798 342.826 74.5646C344.019 73.0002 347.935 63.3504 347.83 62.9735C347.992 62.5213 347.563 64.2495 348.284 62.0316C348.37 61.8018 349.294 58.334 349.67 55.4605C350.071 52.5989 350.173 50.3514 350.057 52.8684C350.107 53.8688 348.941 60.4869 348.394 61.9775C349.847 58.4328 350.331 49.4872 350.197 48.5325C350.298 44.4927 350.198 56.2616 350.399 47.1724C350.169 40.1819 350.298 46.7672 350.115 44.0682C350.107 42.505 349.169 34.6131 348.94 34.8453C348.419 32.0801 348.81 33.6784 348.757 33.3363C348.739 33.0388 347.516 27.6244 347.103 25.9923C347.056 25.7861 347.318 26.406 347.273 26.1923C347.22 25.8241 345.751 20.5912 345.685 20.4747C345.644 20.3512 345.902 21.5531 345.741 21.0755C345.587 20.5668 344.062 15.5972 343.938 15.3524C343.791 14.954 345.715 21.0588 345.291 20.0519C344.497 17.2562 342.952 12.8283 342.221 11.0128C342.409 11.4668 343.323 14.128 343.602 15.0184C343.361 14.6856 341.355 8.90717 342.152 10.8466C341.646 9.59672 341.921 10.4759 341.611 9.77631C341.517 9.55272 340.907 7.87288 340.757 7.54316C340.74 7.50565 341.326 9.28167 341.17 8.93913C340.921 8.36116 338.936 3.04281 338.746 2.55244C338.301 1.28584 340.054 5.70364 340.226 6.01766C340.267 6.08177 338.953 2.29992 338.927 2.22106C338.962 1.97587 340.474 6.17023 340.381 5.64863C340.021 4.6269 339.648 3.58925 339.263 2.53531C340.94 6.48238 343.441 13.7832 344.107 15.5457C342.206 9.77869 339.851 3.6814 340.097 3.57861C340.209 3.55001 341.224 6.05004 341.209 5.93678C341.18 5.54928 339.724 2.04817 339.666 1.89915C339.629 1.78731 339.615 1.73497 339.621 1.73283C339.621 1.73283 339.621 1.73283 339.621 1.73283C339.699 1.74028 341.648 6.74876 341.739 6.95319C341.939 7.35189 341.314 5.09271 341.352 5.07447C341.401 5.16308 342.723 8.62616 342.365 7.42672C342.018 6.2324 340.834 3.10255 340.791 2.97894C340.624 2.38527 342.706 7.8048 342.76 7.91728C342.811 8.00499 341.832 5.10359 341.815 4.99957C341.814 4.92244 342.684 7.10561 343.058 7.92052C343.343 8.53518 342.712 6.67167 342.838 6.99263C342.916 7.1426 344.791 12.4534 344.857 12.6683C344.999 13.0409 344.654 11.8111 344.73 11.9808C344.842 12.2274 345.373 13.8874 345.324 13.663C345.337 13.5596 343.226 6.82845 343.313 6.94762C343.422 6.8887 345.68 13.9916 343.777 7.38454C343.766 7.34305 343.181 5.8359 343.165 5.78963C342.885 4.81254 344.834 9.69983 342.561 3.66928C346.808 14.8178 343.242 5.00244 344.024 6.60698C344.304 7.13335 345.939 11.6865 345.933 11.6716C345.873 11.2163 345.313 9.81482 345.179 9.30725C345.121 9.04645 346.58 12.9935 346.327 12.0768C346.229 11.6533 344.674 7.27456 344.642 7.19865C344.11 5.5704 344.888 7.52216 344.797 7.15433C344.745 6.91864 343.829 4.43536 343.804 4.36102C343.787 4.27464 345.116 7.55248 345.412 8.28378C345.635 8.81657 344.947 6.76273 345.097 7.14204C346.017 9.42094 347.508 14.4304 346.137 9.58629C346.057 9.30033 345.382 7.42999 345.382 7.42333C345.06 6.2932 346.258 9.6063 346.521 10.1864C346.988 11.1781 345.243 6.39105 346.717 10.3604C345.717 7.27211 345.187 5.81748 343.846 2.34744C347.397 11.683 348.835 15.1312 345.036 4.53528C346.252 7.83771 346.246 7.38437 346.625 8.42956C346.881 9.10415 348.375 14.0247 347.967 11.6768C347.925 11.3934 346.821 8.39634 347.238 9.31025C349.66 16.4713 347.369 9.46982 347.357 9.43329C347.758 9.40391 353.034 27.127 353.425 30.4398C354.222 34.095 354.826 37.2892 354.937 38.182C355.263 40.8913 354.909 38.6552 354.95 39.2635C355.081 39.8545 355.7 47.4745 355.587 47.9316C355.539 49.4462 355.45 47.9091 355.443 48.0664C355.608 49.8725 354.509 60.3607 353.426 63.1202C353.571 63.0829 354.858 57.2975 354.162 60.9369C353.262 65.1263 352.773 65.2557 352.756 65.3599C349.754 74.7319 344.49 82.8235 339.443 90.6953C334.375 98.5092 329.402 106.28 325.042 114.435C325.237 114.233 331.116 103.779 331.357 103.557C332.128 102.201 322.114 119.854 321.209 122.21C322.042 120.566 322.951 118.826 323.846 117.176C322.461 120.176 319.188 126.425 317.419 130.827C316.834 132.259 318.066 129.558 318.047 129.625C317.405 131.261 316.339 133.687 317.023 131.814C315.539 135.605 315.664 135.06 314.487 138.044C314.43 138.196 314.976 136.968 314.121 139.286C313.708 140.345 311.563 146.353 311.389 147.132C311.304 147.453 312.584 144.588 312.496 144.133C314.97 137.647 313.148 142.002 314.077 139.511C314.246 139.118 313.931 140.106 316.408 133.799C316.108 135.071 313.199 142.146 312.793 143.473C311.906 146.038 315.895 135.551 316.586 133.594C316.406 134.535 316.881 132.913 317.891 130.584C319.004 128.047 318.574 129.178 319.174 127.829C320.809 124.236 320.038 125.592 321.571 122.651C319.811 125.422 324.031 117.457 325.37 115.279C323.41 118.989 321.535 122.819 319.778 126.719C319.894 126.511 320.011 126.303 320.127 126.097C319.669 127.085 319.213 128.092 318.758 129.118C318.813 128.946 318.868 128.774 318.924 128.603C316.675 134.029 316.139 135.178 315.933 135.649C313.935 140.587 311.946 146.138 310.234 151.529C309.985 152.312 309.75 153.076 309.528 153.819C309.298 154.712 309.462 154.062 307.782 160.474C307.291 162.497 307.622 160.553 307.131 162.905C306.796 165.868 306.642 165.751 306.484 166.644C306.068 169.165 305.98 170.661 305.948 170.914C305.582 173.99 305.348 178.57 305.526 181.916C305.53 181.971 305.538 180.219 305.606 182.42C305.604 183.187 305.722 190.165 307.645 195.919C307.22 194.411 306.86 192.881 306.566 191.349C306.517 193.283 311.222 205.312 310.207 202.315C309.43 200.541 307.718 196.153 307.813 195.575C308.325 197.646 310.647 204.277 314.266 210.012C317.78 215.793 322.128 220.787 322.712 221.533C322.876 221.74 321.782 220.542 322.009 220.826C322.159 221.06 325.873 225.294 326.379 225.85C326.665 226.192 324.964 224.369 325.082 224.534C325.159 224.692 329.955 229.904 330.321 230.129C329.075 228.894 325.786 225.284 327.578 227.119C327.808 227.356 328.934 228.639 329.221 228.924C331.842 231.568 324.214 223.475 323.19 222.141C327.713 227.342 335.321 235.099 341.124 241.008C343.393 243.461 337.608 237.528 340.19 240.281C345.535 246.025 341.708 241.717 341.884 241.885C343.298 243.222 347.545 248.4 347.748 248.225C348.417 248.996 348.763 249.414 349.056 249.764C349.589 250.41 349.962 250.824 351.661 252.829C351.335 252.403 351.006 251.978 350.674 251.554C353.795 254.824 359.075 262.892 358.597 262.348C357.426 260.766 354.579 256.741 354.286 256.399C353.88 255.92 352.79 254.786 348.867 249.93C348.696 249.72 348.519 249.504 348.337 249.282C347.752 248.709 348.11 249.161 348.801 249.987C350.538 252.026 354.04 256.369 351.179 253.012C354.131 256.056 363.777 270.535 364.83 272.814C364.976 273.071 364.51 271.75 366.467 275.573C367.383 277.388 365.06 273.068 365.457 273.91C366.081 275.175 371.192 284.399 374.539 294.999C378.086 305.532 379.291 317.297 379.34 321.024C379.359 321.515 379.291 321.337 379.307 321.819C379.394 323.289 379.424 328.665 379.113 331.282C379.661 325.837 378.866 336.44 378.103 339.108C377.219 343.142 377.094 342.866 376.602 344.564C374.814 351.231 369.67 360.918 365.639 364.689C366.143 364.741 358.945 371.377 354.957 373.357C351.997 375.16 347.433 377.191 351.718 375.381C346.335 378.004 340.153 379.576 334.673 380.117C333.751 380.207 335.005 380.025 333.446 380.166C333.307 380.175 333.128 380.27 331.802 380.351C330.501 380.426 329.407 380.447 328.5 380.449C321.948 380.3 325.857 380.267 324.075 380.152C322.946 380.051 322.103 379.957 321.482 379.889C323.78 380.125 326.253 380.258 328.5 380.249C332.564 380.248 335.974 379.794 337.228 379.604C336.339 379.664 332.55 380.179 328.5 380.18C324.89 380.215 321.118 379.842 319.429 379.594C319.306 379.577 319.748 379.549 319.622 379.533C319.62 379.532 319.617 379.532 319.614 379.532C318.244 379.468 309.779 377.792 311.507 378.225C311.947 378.345 315.848 379.257 320.536 379.787C319.276 379.655 320.204 379.861 319.981 379.839C317.233 379.616 310.693 378.22 308.407 377.56C307.88 377.422 307.908 377.49 307.821 377.468C305.756 376.897 306.653 376.971 304.48 376.522C300.789 375.247 311.525 378.457 310.82 378.023C310.535 377.914 304.327 376.455 298.445 374.303C292.538 372.22 286.974 369.51 286.971 369.601C286.902 369.547 286.604 369.377 285.99 369.039C284.603 368.345 278.583 364.967 277.573 364.3C277.399 364.198 277.38 364.38 277.168 364.248C276.61 363.994 269.66 359.066 267.236 356.963C268.549 358.11 269.866 359.183 271.239 360.236C263.058 353.782 264.498 354.598 267.004 356.986C267.136 357.099 267.261 357.214 267.388 357.322C269.428 359.112 272.189 361.159 272.227 361.197C272.294 361.276 268.723 358.752 265.759 356.071C262.754 353.409 260.388 350.646 261.607 351.875C261.887 352.32 267.884 357.944 264.954 355.105C264.398 354.645 260.672 350.867 260.536 350.609C259.22 349.295 267.518 357.385 266.631 356.21C264.466 354.475 261.909 351.897 259.826 349.453C258.859 348.316 258.586 348.075 258.47 347.933C256.811 345.781 257.808 346.948 257.261 346.206C256.898 345.853 253.939 341.272 254.703 342.019C250.553 333.978 251.159 332.231 251.529 334.725C252.064 337.144 254.473 342.869 257.838 347.173C255.582 344.545 252.354 338.38 251.6 335.265C251.291 334.171 251.355 334.858 250.915 332.977C250.441 331.083 249.666 325.084 251.584 319.41C253.36 313.683 257.065 309.143 258.638 307.363C256.791 309.621 257.427 308.972 258.845 307.301C260.315 305.65 258.982 306.95 259.261 306.62C259.451 306.368 262.26 303.4 265.075 301.157C266.827 299.71 268.58 298.675 269.186 298.343C266.884 299.654 265.717 300.698 265.111 301.201C264.582 301.662 264.627 301.649 265.145 301.242C265.873 300.689 267.332 299.467 269.828 298.165C268.863 298.695 268.078 299.205 267.207 299.835C268.898 298.631 271.813 297.014 275.003 296.481C278.204 295.878 281.254 296.592 282.447 296.971C282.836 297.078 281.468 296.599 281.683 296.662C284.173 296.855 290.108 301.23 290.18 301.557C290.432 301.712 288.129 299.703 289.022 300.401C289.224 300.534 291.415 302.517 293.187 304.666C293.85 305.46 293.511 304.933 293.679 305.133C295.018 306.83 294.239 305.848 296.413 309.085C297.935 311.498 299.081 313.267 300.631 316.873C294.977 305.348 300.177 314.735 301.995 319.987C302.192 320.607 302.209 320.247 302.631 321.898C302.766 322.553 302.984 323.646 303.18 325.508C302.917 323.619 302.658 322.484 302.53 321.918C302.256 320.871 302.286 321.046 302.479 321.927C302.902 323.659 303.503 329.823 303.306 331.661C303.295 331.819 303.227 331.89 303.121 333.325C303.108 333.445 303.198 333.283 303.059 334.624C302.185 340.995 301.35 342.009 301.477 341.881C301.506 341.747 301.898 340.354 301.512 341.513C301.296 342.544 298.909 348.272 297.954 349.649C297.758 349.976 297.813 349.799 297.025 351.06C295.637 353.254 294.253 355.122 293.162 356.422C293.015 356.571 293.008 356.546 290.821 358.93C290.22 359.573 289.528 360.313 290.441 359.427C293.555 356.551 298.346 349.846 300.237 345.242C301.124 343.149 300.329 345.473 298.904 348.194C297.506 350.935 295.312 353.922 295.092 354.196C294.938 354.41 296.513 352.193 294.858 354.411C293.448 356.302 290.707 359.643 288.106 361.949C287.915 362.142 285.742 363.859 285.832 363.758C285.922 363.715 289.063 360.824 288.562 361.209C288.531 361.25 286.493 363.102 286.225 363.274C285.882 363.524 284.763 363.99 284.303 364.35C283.16 365.242 283.951 364.714 283.211 365.292C281.624 366.622 275.808 370.42 275.643 370.614C276.611 370.011 277.615 369.361 278.55 368.732C273.184 372.29 275.509 370.776 274.756 371.301C273.942 371.829 274.095 371.62 272.248 372.696C271.895 372.992 263.925 377.243 264.09 377.142C268.459 374.864 266.912 375.77 267.109 375.683C267.899 375.28 268.821 374.702 269.846 374.136C276.986 370.059 269.886 374.289 271.577 373.351C272.166 373.027 273.255 372.308 273.52 372.151C274.33 371.676 274.385 371.741 274.908 371.411C276.115 370.64 274.633 371.421 274.724 371.355C275.755 370.668 280.057 367.894 277.503 369.76C279.099 368.754 279.185 368.493 280.461 367.666C282.955 366.01 279.29 368.649 278.302 369.307C274.68 371.779 273.606 372.417 268.233 375.367C266.266 376.43 264.015 377.628 263.07 378.085C262.628 378.305 259.991 379.413 258.219 380.251C257.399 380.643 256.824 380.959 256.824 381.105C254.646 382.007 251.082 383.098 248.715 383.882C246.609 384.58 247.33 384.494 247.134 384.565C246.879 384.666 244.203 385.421 243.345 385.636C242.328 385.904 242.846 385.855 241.16 386.239C236.985 387.098 236.996 386.803 236.576 386.872C231.423 387.216 233.683 387.186 232.54 387.279C232.013 387.306 227.926 387.392 223.7 386.566C219.47 385.809 215.213 384.169 213.818 383.614C214.988 384.06 216.192 384.477 217.411 384.85C215.251 384.04 213.044 383.256 213.056 383.075C212.485 383.174 208.378 381.03 207.218 380.376C206.739 380.124 206.754 380.187 206.152 379.86C203.813 378.634 198.826 375.478 197.636 374.699C192.474 371.482 205.501 380.096 206.788 380.523C204.434 379.481 192.735 371.922 197.999 375.505C198.848 376.083 200.406 376.916 200.874 377.196C204.135 379.142 201.519 377.685 201.76 377.844C202.201 378.14 204.422 379.319 204.974 379.635C205.177 379.744 203.838 379.151 207.091 380.915C205.34 380.24 196.709 374.795 195.702 374.054C195.336 373.794 197.549 375.638 190.632 370.585C190.704 370.659 190.776 370.734 190.848 370.808C186.976 368.095 183.073 365.23 179.321 362.443C179.761 362.716 181.926 364.215 179.249 362.246C177.69 361.095 178.78 362.033 178.637 361.93C177.21 360.93 152.877 342.493 148.112 339.086C146.547 337.935 141.871 334.624 141.584 334.421C139.55 332.942 132.243 327.642 130.744 326.605C129.809 325.952 130.647 326.647 129.815 326.054C129.04 325.501 129.892 326.005 129.663 325.839C128.155 324.729 118.384 317.975 112.825 314.2C111.593 313.358 110.604 312.706 109.987 312.292C110.505 312.632 111.552 313.304 112.846 314.169C116.817 316.813 122.491 320.625 122.435 320.537C122.378 320.487 119.897 318.694 119.376 318.372C118.573 317.732 115.498 315.877 113.865 314.717C113.721 314.614 114.183 314.839 112.981 313.971C112.65 313.732 112.192 313.411 111.564 312.989C110.539 312.3 108.005 310.763 105.355 309.108C103.365 307.966 97.3517 304.572 91.1873 302.27C85.1087 299.895 79.028 298.848 78.3012 298.82C78.2486 298.802 81.3671 299.419 79.246 299.083C76.4485 298.705 79.0143 298.828 75.6672 298.382C75.1742 298.114 65.9352 298.058 65.6354 298.321C62.8765 298.664 70.8832 298.146 70.7771 298.313C70.4918 298.232 63.8378 298.674 63.6105 298.818C63.3402 298.84 68.6898 297.954 62.2496 298.914C62.995 298.805 63.7412 298.716 64.4732 298.647C61.4551 299.093 61.1425 299.117 60.4185 299.247C58.1689 299.726 55.8099 300.539 52.3037 301.78C51.3784 302.115 52.8497 301.408 52.7353 301.451C51.6095 301.831 50.3279 302.646 48.6781 303.342C48.5701 303.433 52.1321 301.245 45.8066 304.87C46.2421 304.619 46.6801 304.374 47.1218 304.136C46.1819 304.559 40.1454 308.869 39.442 309.616C37.2124 311.514 39.0536 309.73 36.8728 311.736C38.2982 310.483 31.9739 316.899 32.3076 316.51C31.5324 317.509 26.6452 323.486 24.7208 326.625C23.4401 328.534 21.136 332.663 20.7925 333.313C20.3537 334.095 20.3798 333.799 19.5979 335.221C19.3681 335.621 17.2206 339.953 15.4396 343.815C15.0876 344.564 14.24 346.091 14.7946 344.656C15.7266 342.187 18.0178 337.777 17.902 337.793C17.7283 337.789 14.9619 343.886 14.2943 345.572C11.1213 353.284 12.8056 348.778 12.6768 348.953C12.3693 349.436 10.8081 353.722 10.7506 353.911C10.4497 354.649 11.4645 351.55 11.4319 351.496C11.3728 351.397 9.78108 355.543 10.0919 354.582C10.509 353.2 12.0205 349.436 12.119 349.198C13.2703 346.042 11.4273 350.269 10.9316 351.427C10.7748 351.778 11.2613 350.331 11.1448 350.626C9.3802 355.16 11.0092 351.67 9.92341 354.715C8.98769 357.432 10.0562 353.891 10.0221 353.991C9.95976 354.124 8.86859 357.384 8.67364 357.902C8.52338 358.118 11.2475 349.57 11.0774 349.905C10.0918 352.588 9.17839 355.307 8.33433 358.065C8.13412 358.235 9.50442 354.339 9.64383 353.938C9.89734 353.117 9.05964 355.362 9.0577 355.251C9.04643 355.192 9.86874 352.499 9.01283 354.892C8.72869 355.703 8.21062 357.502 7.22188 360.504C10.4317 349.899 8.05511 357.181 7.89653 357.498C7.75415 357.791 9.27402 352.678 7.33436 358.848C7.01478 359.04 7.29051 358.695 7.80773 356.927C8.47064 354.773 6.69985 359.658 9.42767 351.919C9.12334 352.317 7.05914 358.583 6.97986 358.925C6.88253 359.21 7.2598 357.793 7.08661 358.286C5.09114 364.14 6.40983 360.105 5.7636 361.789C5.68494 361.95 4.12848 367.547 5.25824 363.267C7.41512 355.42 8.85097 352.313 8.95931 350.892C6.71683 356.491 4.96771 363.627 4.53822 365.383C3.8438 368.118 4.49603 365.269 4.39154 365.6C4.3492 365.72 3.76973 368.066 3.76188 368.092C3.02088 369.697 6.44378 357.668 7.80322 353.978C7.42604 354.96 7.06106 355.939 6.69905 356.942C7.13751 355.559 7.57915 354.228 8.0502 352.87C5.80789 359.279 7.9083 353.095 8.30207 351.404C8.38222 351.028 6.95498 355.292 8.55091 350.418C7.24514 353.966 7.59922 352.817 6.58625 356.074C6.49551 355.954 8.89865 348.649 10.0506 345.822C6.14982 355.816 8.51613 350.176 5.49911 358.943C5.10394 360.613 6.37546 356.389 6.29637 356.735C5.96453 357.988 4.95407 360.873 4.24247 364.443C4.12796 365.033 4.87585 362.607 3.92788 366.237C3.81933 366.642 3.1689 368.909 3.17401 368.873C3.16464 368.558 3.75151 366.29 3.74948 366.184C3.73667 366.092 3.13045 368.634 3.12647 368.637C3.01004 368.695 3.60335 366.516 3.49792 366.826C3.26551 367.467 0.843103 376.663 3.8355 364.656C1.4959 374.621 3.53064 365.945 4.59758 362.104C4.86398 361.124 4.88384 360.838 5.27467 359.455C5.77529 357.68 6.48663 355.57 6.77722 354.673C7.10879 353.686 5.05568 359.225 7.87863 351.164C6.24014 355.202 4.1561 362.601 3.07009 366.735C0.866909 375.039 4.24804 360.849 4.82052 359.392C4.93044 359.004 4.47173 360.276 4.54323 360.019C4.60675 359.595 7.20725 351.692 7.48268 350.905C7.69379 350.108 6.4649 353.791 6.33324 354.01C6.17205 354.145 9.58199 344.69 7.6601 349.775C6.29786 353.29 4.43847 359.92 3.95446 361.006C5.45926 355.706 7.22907 350.469 9.28212 345.339C8.07966 348.12 6.9658 350.925 5.92767 353.77C7.89884 347.887 9.97907 342.93 12.4005 337.549C6.36114 350.397 14.0701 333.24 14.3494 333.134C14.3429 333.051 11.6821 337.987 11.302 338.807C13.0835 334.158 20.8379 321.095 16.128 328.631C16.9528 327.253 18.9064 323.853 18.8802 323.899C18.4529 324.22 14.2514 331.65 14.8819 330.407C15.5595 328.939 16.8045 327.049 18.1073 324.931C21.4821 319.518 22.8621 317.622 24.1782 315.686C25.5513 313.798 26.8355 311.778 31.5325 307.236C31.332 307.401 31.1323 307.567 30.9334 307.735C40.9373 297.736 55.0942 290.839 69.6494 290.95C72.4733 290.814 77.7379 291.056 82.8929 292.15C88.1397 293.211 93.2773 295.029 96.6732 296.468C97.9749 296.932 104.476 300.171 104.81 300.43C105.695 300.907 100.819 298.443 103.017 299.614C103.514 299.705 113.831 305.732 113.064 305.272C111.98 304.553 108.371 302.465 107.751 302.11C105.964 301.061 110.999 303.673 117.135 307.858C124.947 313.147 134.435 319.875 135.391 320.516C134.756 320.028 134.115 319.538 133.47 319.045C135.35 320.391 137.19 321.716 138.989 323.02ZM45.3144 305.621C44.293 306.364 41.683 308.136 40.2512 309.372C38.2414 311.01 35.3426 314.403 36.4534 312.808C39.1953 310.116 42.1427 307.692 45.3144 305.621ZM98.1236 305.557C95.7767 304.396 97.6861 305.042 99.6237 306.108C99.8424 306.235 101.331 307.215 98.1236 305.557ZM72.3555 298.349C72.4921 298.342 74.615 298.495 74.7016 298.517C76.642 298.734 70.0938 298.284 72.3555 298.349ZM186.931 367.822C184.447 366.028 186.132 367.486 187.719 368.535C187.818 368.601 187.096 367.941 186.931 367.822ZM185.196 366.555C183.447 365.078 179.375 362.47 182.453 364.708C182.762 364.935 185.285 366.631 185.196 366.555ZM89.6206 301.91C89.9059 301.933 92.3899 302.889 93.4772 303.369C93.4199 303.396 90.6486 302.247 89.6206 301.91ZM148.576 339.328C148.751 339.385 140.832 333.601 140.3 333.309C141.503 334.135 148.513 339.329 148.576 339.328ZM168.61 354.21C168.407 354.046 165.704 352.025 165.77 352.13C166.978 353.112 169.502 354.932 168.61 354.21ZM210.223 382.485C210.42 382.529 208.063 381.259 213.774 383.939C214.629 384.328 211.509 383.094 211.823 383.226C212.447 383.525 212.961 383.753 213.366 383.923C210.615 382.817 207.91 381.413 207.685 381.277C206.506 380.583 210.12 382.469 210.223 382.485ZM237.5 387.084C238.137 386.99 241.937 386.32 242.827 386.092C242.974 386.058 242.367 386.338 244.035 385.913C245.383 385.548 243.327 385.986 245.974 385.27C248.601 384.513 245.122 385.636 245.339 385.568C245.707 385.506 249.648 384.204 249.566 384.282C249.482 384.396 245.176 385.709 244.056 385.965C242.662 386.324 244.412 386.003 242.022 386.535C240.508 386.847 241.316 386.515 240.996 386.574C240.763 386.682 235.426 387.535 237.508 387.083C237.506 387.083 237.503 387.084 237.5 387.084ZM214.109 384.218C213.901 384.141 213.659 384.046 213.366 383.923C213.616 384.024 213.864 384.123 214.109 384.218ZM51.6953 302.084C52.9059 301.589 49.3908 303.233 48.0882 303.939C48.0245 303.875 51.4898 302.124 51.6953 302.084ZM216.732 385.061C220.928 386.417 217.771 385.631 214.109 384.218C215.265 384.641 215.326 384.553 216.732 385.061ZM119.376 318.372C119.511 318.479 119.59 318.555 119.584 318.587C119.232 318.305 119.209 318.268 119.376 318.372ZM127.231 323.905C129.937 325.697 124.535 321.906 124.509 321.971C124.517 322.006 127.129 323.836 127.231 323.905ZM190.058 370.072C189.833 369.898 193.836 372.412 188.139 368.609C191.079 370.75 187.945 368.548 187.971 368.594C188.028 368.733 193.149 372.274 194.238 373.027C195.161 373.516 190.916 370.731 190.065 370.076C190.063 370.075 190.061 370.074 190.058 370.072ZM281.747 367.555C281.114 368.121 278.856 369.689 277.309 370.679C278 370.152 280.272 368.648 281.747 367.555ZM305.773 184.542C306.317 190.247 307.225 193.372 307.268 193.865C307.383 194.348 306.572 192.219 305.924 187.006C305.881 186.802 305.674 183.848 305.773 184.542ZM362.553 267.873C363.069 268.946 360.993 265.618 359.607 263.508C359.296 263.024 358.186 261.187 359.59 263.188C359.43 263.212 361.458 266.35 362.553 267.873ZM219.137 385.739C220.402 386.059 224.287 387.005 226.408 387.218C225.1 387.188 220.907 386.34 219.137 385.739ZM320.359 218.884C321.127 219.863 321.752 220.437 321.622 220.266C321.038 219.501 319.529 217.735 320.359 218.884ZM207.49 380.899C207.316 380.79 211.968 383.018 212.253 383.229C211.254 382.818 207.548 380.99 207.49 380.899ZM278.888 369.53C278.215 369.968 281.577 367.589 282.557 366.846C282.513 366.973 279.323 369.281 278.888 369.53ZM334.007 233.876C334.8 234.703 336.798 236.748 337.055 236.947C337.368 237.186 334.42 234.202 334.007 233.876ZM355.903 43.1767C355.938 43.0409 356.305 47.6501 356.157 49.7562C356.016 53.6694 356.079 43.3475 355.903 43.1767ZM313.644 209.358C312.01 206.321 313.83 209.689 313.86 209.496C312.614 207.53 310.109 202.366 311.772 205.95C312.098 206.645 313.091 208.428 313.644 209.358ZM315.301 212.087C315.529 212.383 317.027 214.388 315.81 212.602C315.252 211.775 314.283 210.484 315.301 212.087ZM351.133 71.5405C350.385 73.0647 351.695 70.3284 352.87 66.9623C354.078 63.6165 354.926 59.6334 354.969 59.3969C355.025 59.1613 355.062 59.0146 355.086 58.9282C355.182 58.3761 355.626 55.4016 355.725 55.0676C355.627 55.9638 355.242 58.39 355.171 58.6539C355.146 58.7723 355.126 58.8602 355.11 58.9205C355.273 60.0747 351.644 71.07 351.133 71.5405ZM338.477 93.2375C340.353 90.0697 340.938 89.6091 340.766 89.893C338.647 93.3665 339.933 91.0357 339.853 91.1456C339.695 91.3641 338.211 93.8163 338.484 93.2277C338.482 93.2309 338.48 93.2342 338.477 93.2375ZM348.824 76.2729C348.909 76.1343 350.341 73.244 350.391 73.1068C351.639 70.7528 347.553 78.9763 348.824 76.2729ZM257.087 381.025C259.24 380.11 257.16 381.132 255.755 381.68C255.642 381.721 255.21 381.804 257.087 381.025ZM316.272 213.494C316.35 214.015 324.351 224.078 324.062 223.33C323.109 222.633 314.469 210.972 316.272 213.494ZM374.476 293.388C373.706 291.14 374.676 293.531 375.027 294.796C375.157 295.258 374.672 293.962 374.476 293.388ZM201.594 377.406C199.484 376.187 200.039 376.255 201.793 377.427C201.866 377.475 201.674 377.452 201.594 377.406ZM366.974 275.788C370.724 283.177 369.709 281.441 364.666 271.995C364.85 272.28 365.033 272.564 365.214 272.85C358.957 262.196 364.897 272.018 366.317 274.741C366.868 275.749 366.474 274.868 366.97 275.781C366.972 275.783 366.973 275.786 366.974 275.788ZM377.802 305.596C379.085 313.521 376.335 298.436 374.657 294.4C376.09 298.402 377.472 303.726 375.551 296.486C378.527 307.067 377.076 302.704 377.235 303.122C377.346 303.623 377.746 305.251 377.802 305.596ZM371.5 285.546C371.328 285.129 369.973 281.896 369.429 280.799C370.294 282.287 372.736 288.352 371.5 285.546ZM325.368 115.163C325.432 114.883 325.711 114.213 326.997 111.955C326.642 112.67 325.866 114.157 325.368 115.163ZM43.0924 306.628C41.667 307.592 38.969 309.785 39.8447 309.173C39.9226 309.074 43.0982 306.639 43.0924 306.628ZM341.426 241.738C341.714 241.988 348.65 249.505 346.318 246.849C345.639 246.007 339.231 239.319 341.426 241.738ZM309.835 202.031C310.126 202.779 311.549 205.702 311.614 205.749C311.746 205.926 309.998 202.345 309.835 202.031ZM36.2927 312.165C36.0937 312.271 32.3906 316.17 32.8467 315.779C33.6208 314.961 36.8664 311.621 36.2927 312.165ZM264.574 377.354C265 377.14 265.594 376.935 265.739 376.863C266.126 376.746 273.802 372.458 270.914 374.188C270.498 374.545 261.283 379.244 258.302 380.436C257.986 380.575 257.746 380.678 257.6 380.741C257.412 380.786 257.717 380.638 258.279 380.385C259.641 379.779 262.257 378.618 263.122 378.185C263.33 378.081 263.431 377.929 264.571 377.357C264.572 377.356 264.573 377.355 264.574 377.354ZM332.116 103.254C332.198 102.913 337.55 94.3863 337.555 94.5784C335.728 97.4309 333.882 100.347 332.116 103.254ZM329.509 107.58C328.399 109.373 330.882 105.097 331.684 103.85C331.736 103.846 329.647 107.344 329.509 107.58ZM319.021 217.824C319.632 218.593 317.885 216.125 318.313 216.65C318.577 216.992 319.886 218.751 320.358 219.276C320.486 219.425 319.177 217.608 318.788 217.091C318.23 216.362 318.701 217.122 318.101 216.32C316.121 213.653 314.552 211.177 313.021 208.513C312.881 208.272 313.907 210.168 312.729 208.112C312.552 207.79 311.53 205.842 310.354 203.286C307.626 197.69 306.415 193.236 305.444 185.386C305.378 185.718 306.219 191.557 306.363 191.872C307.427 198.436 312.539 209.259 316.847 214.881C317.9 216.349 317.433 215.603 317.895 216.23C318.266 216.722 317.734 216.202 319.021 217.824ZM43.815 306.057C43.0662 306.426 40.7645 308.189 39.3455 309.399C39.8941 309.036 42.299 307.035 43.815 306.057ZM311.107 148.049C310.884 148.721 310.3 150.454 309.988 151.451C309.876 151.807 309.801 152.061 309.789 152.127C309.772 152.221 309.873 151.93 310.029 151.464C310.409 150.314 311.107 148.198 311.107 148.049ZM300.904 343.77C300.953 343.693 301.796 341.25 301.806 341.152C302.625 338.997 300.084 346.282 300.904 343.77ZM275.242 296.074C273.069 296.421 271.052 297.342 270.423 297.553C271.578 296.881 275.467 295.892 275.242 296.074ZM272.945 361.677C272.674 361.394 277.262 364.566 278.176 365.083C277.8 364.956 273.105 361.936 272.945 361.677ZM324.885 115.349C326.455 112.438 325.982 112.985 327.037 111.236C327.209 110.962 328.029 110.163 326.203 113.206C325.874 113.77 327.013 111.477 324.885 115.349ZM363.793 270.488C363.304 269.79 361.93 267.49 360.932 265.952C361.212 266.264 363.153 269.386 363.793 270.488ZM29.7093 319.277C28.6444 320.322 24.7316 326.035 25.7754 324.674C25.8879 324.457 29.0705 319.992 29.7093 319.277ZM228.075 387.068C231.244 387.216 224.692 386.751 222.675 386.263C223.585 386.511 227.852 387.106 228.075 387.068ZM258.609 348.394C258.69 348.531 260.823 351.051 260.932 351.142C262.624 353.259 256.607 346.1 258.609 348.394ZM293.866 305.274C293.279 304.242 287.355 298.484 285.294 297.804C286.19 298.149 289.088 299.964 291.036 301.978C293.033 303.952 294.35 305.851 293.866 305.274ZM319.056 127.328C319.963 125.307 320.986 123.186 321.919 121.351C321.772 121.723 319.152 127.164 319.056 127.328ZM267.004 356.986C267.136 357.099 267.261 357.214 267.388 357.322C267.257 357.208 267.128 357.096 267.004 356.986ZM305.072 176.596C304.991 178.459 305.115 178.08 305.116 177.958C305.169 176.575 305.196 174.459 305.072 176.596ZM41.9965 307.169C41.4133 307.465 38.9787 309.475 37.6304 310.693C38.056 310.374 40.8133 308.017 41.9965 307.169ZM379.006 314.086C379.272 316.62 377.738 306.367 377.162 304.229C377.294 304.039 379.099 313.699 379.006 314.086ZM218.507 385.069C218.326 384.989 214.073 383.535 214.965 383.888C215.487 384.143 218.621 385.173 218.507 385.069ZM375.934 299.163C375.663 298.241 375.076 296.056 375.347 296.806C375.699 297.772 376.007 299.399 375.934 299.163ZM328.225 228.576C328.486 228.888 332.359 232.819 330.832 231.124C329.774 229.949 329.53 229.837 329.273 229.568C328.964 229.277 323.091 222.717 328.225 228.576ZM362.123 368.583C363.785 367.076 365.697 365.125 367.165 363.304C366.666 364.121 362.934 368.054 362.123 368.583ZM235.785 386.826C235.512 386.859 231.663 387.153 228.926 386.948C226.192 386.745 224.582 386.582 228.811 387.006C229.298 387.238 237.466 386.858 235.785 386.826ZM324.885 115.349C324.695 115.704 324.478 116.108 324.22 116.585C324.472 116.11 324.692 115.705 324.885 115.349ZM310.525 149.246C310.645 148.778 310.198 150.07 309.78 151.384C309.543 152.124 309.326 152.85 309.219 153.238C309.2 153.412 309.502 152.442 309.836 151.402C310.169 150.362 310.512 149.296 310.525 149.246ZM367.221 363.12C368.057 362.058 369.52 360.101 370.401 358.686C370.334 358.979 367.675 362.73 367.221 363.12ZM281.827 366.963C284.072 368.264 286.917 369.655 286.992 369.622C287.036 369.654 287.145 369.718 287.327 369.818C287.508 369.924 290.016 371.082 291.11 371.576C294.391 373.049 287.961 370.41 283.312 367.831C278.67 365.214 275.508 363.38 284.397 368.231C283.539 367.822 282.679 367.398 281.827 366.963ZM299.344 314.342C299.978 315.68 301.653 319.597 301.262 318.565C301.061 317.8 298.766 312.949 299.344 314.342ZM253.862 314.645C254.01 314.231 256.266 310.553 256.319 310.515C254.818 312.399 252.85 316.5 253.862 314.645ZM302.795 325.678C302.896 326.626 303.089 327.85 303.086 327.732C303.087 326.739 302.669 324.076 302.795 325.678ZM321.554 121.18C320.959 122.288 319.203 126.23 318.938 127.031C318.855 127.177 318.652 127.579 318.291 128.334C318.292 128.332 318.293 128.33 318.294 128.327C317.325 129.162 305.93 161.075 313.717 139.727C313.973 139.071 313.556 139.944 314.599 137.281C314.671 137.099 314.759 137.027 314.982 136.468C315.472 135.154 318.308 128.523 318.893 127.201C318.907 127.194 318.954 127.113 319.044 126.938C319.811 125.383 322.028 120.25 321.554 121.18ZM251.061 322.708C251.195 321.852 251.921 319.178 252.003 318.882C251.421 320.188 250.654 324.71 251.061 322.708ZM235.309 386.667C233.598 386.843 229.278 386.855 230.583 386.909C231.407 387.055 237.281 386.567 235.309 386.667ZM265.812 300.819C265.598 300.985 265.393 301.147 265.197 301.306C258.698 306.951 263.944 302.383 262.908 303.393C263.638 302.699 264.405 302.008 265.21 301.321C265.411 301.149 265.611 300.982 265.812 300.819ZM343.234 85.0565C342.439 86.2968 343.237 84.762 344.151 83.411C344.439 82.9852 343.675 84.3679 343.234 85.0565ZM350.933 19.754C351.177 20.9949 349.485 15.112 350.262 17.3783C350.303 17.4908 350.918 19.6745 350.933 19.754ZM352.372 66.7626C352.101 67.7688 351.915 68.435 350.756 71.1076C352.372 67.1028 350.843 70.812 352.372 66.7626ZM286.971 369.601C286.984 369.612 286.996 369.62 286.992 369.622C286.977 369.611 286.971 369.605 286.971 369.601ZM302.796 334.931C302.619 336.17 301.877 339.556 302.168 338.562C302.225 338.475 302.821 335.458 302.796 334.931ZM318.938 127.031C319.011 126.901 318.987 126.973 318.893 127.201C318.879 127.207 318.897 127.145 318.938 127.031ZM300.264 316.601C300.398 316.645 298.163 312.048 297.997 311.878C296.473 309.36 299.473 314.596 300.264 316.601ZM203.101 377.58C202.874 377.452 204.25 378.433 205.148 378.874C205.845 379.22 203.958 378.072 203.101 377.58ZM354.77 57.1022C355.041 55.4657 355.254 53.2279 355.348 52.8006C355.279 53.8853 354.833 57.1417 354.77 57.1022ZM351.511 22.1398C352.096 23.931 353.133 28.0711 353.648 30.7357C353.606 30.823 352.051 23.8139 351.511 22.1398ZM323.461 117.478C323.401 117.564 321.611 121.055 321.928 120.587C322.35 119.939 323.992 116.524 323.461 117.478ZM209.887 381.361C211.53 382.108 207.873 380.178 206.168 379.332C205.298 378.94 209.548 381.245 209.887 381.361ZM299.825 345.323C298.886 347.601 301.368 341.998 301.427 341.113C301.114 342.201 300.183 344.522 299.825 345.323ZM257.847 308.932C263.027 303.317 260.017 306.205 259.113 307.213C258.988 307.342 257.727 309.057 257.847 308.932ZM19.8117 333.6C19.3545 334.49 21.244 331.273 21.4386 330.833C21.5453 330.549 20.0925 333.022 19.8117 333.6ZM321.482 379.889C321.165 379.857 320.845 379.823 320.536 379.787C320.767 379.811 321.079 379.845 321.482 379.889ZM286.374 362.457C290.482 359.132 289.858 359.21 290.191 358.921C290.888 358.215 292.527 356.553 293.693 355.058C292.365 356.772 290.915 358.414 289.427 359.935C290.031 359.36 292.989 356.429 295.328 353.181C297.72 349.968 299.394 346.442 299.438 346.273C299.613 345.871 297.419 350.081 297.285 350.164C297.175 350.331 296.617 350.87 296.379 351.22C296.189 351.514 294.351 354.297 292.06 356.858C289.786 359.459 287.16 361.805 286.374 362.457ZM270.059 298.292C268.826 298.906 268.549 299.018 268.025 299.363C267.853 299.482 267.86 299.554 267.278 299.975C268.199 299.334 269.036 298.819 270.059 298.292ZM279.112 368.436C277.863 369.236 283.299 365.368 283.435 365.19C284.38 364.549 280.206 367.823 279.112 368.436ZM301.186 319.009C301.236 319.199 301.707 320.229 302.117 321.997C302.37 323.297 302.552 324.602 302.573 324.581C302.523 324.12 302.375 323.065 302.171 321.987C301.483 319.198 300.493 317.235 301.186 319.009ZM266.601 300.463C266.232 300.732 265.781 301.071 265.314 301.448C263.892 302.582 262.5 303.853 262.773 303.711C262.775 303.709 262.777 303.708 262.779 303.706C263.585 302.954 264.434 302.207 265.328 301.465C265.753 301.112 266.177 300.778 266.601 300.463ZM215.653 383.615C212.619 382.226 213.954 383.052 216.776 384.13C217.666 384.357 216.169 383.846 215.653 383.615ZM206.038 378.947C205.223 378.57 197.183 373.583 198.363 374.402C198.794 374.75 203.397 377.513 203.655 377.64C203.977 377.837 202.435 377.062 204.941 378.49C204.807 378.377 206.302 379.108 206.038 378.947ZM213.117 382.475C210.135 381.016 209.386 380.869 211.634 381.938C212.493 382.335 213.559 382.684 213.117 382.475ZM226.348 386.214C225.129 386.067 221.926 385.461 219.759 384.9C222.631 385.72 225.618 386.268 228.632 386.474C228.983 386.453 227.41 386.373 226.34 386.213C226.343 386.213 226.345 386.213 226.348 386.214ZM344.835 3.8323C345.677 6.26549 343.559 0.716436 343.452 0.433885C343.228 -0.301003 344.47 2.75863 344.835 3.8323ZM9.77272 350.656C9.50685 351.304 9.25873 351.712 8.78863 353.201C9.36826 351.735 9.96256 350.298 10.5827 348.861C10.8766 347.67 10.0605 349.944 9.77272 350.656ZM7.29507 356.127C7.36186 355.919 6.75781 356.98 7.8061 354.327C8.47897 352.503 5.36607 362.577 4.8749 364.393C5.34877 362.366 6.71348 357.959 7.29507 356.127ZM1.62323 373.752C1.57693 373.831 2.37614 369.955 2.5143 369.474C3.13147 367.086 1.81846 373.128 1.62323 373.752ZM4.7074 361.3C4.14299 363.11 5.2673 359.062 5.67179 357.896C5.74068 357.795 4.78926 361.005 4.7074 361.3ZM349.233 29.4811C349.513 31.4797 350.189 33.1194 349.498 30.156C349.465 30.0136 349.222 29.3956 349.233 29.4811ZM2.21907 369.857C2.68825 368.007 1.77283 372.134 1.52034 373.321C1.44799 373.42 2.13557 370.152 2.21907 369.857ZM349.164 30.9359C349.575 33.5028 349.757 32.5239 349.714 32.21C349.553 30.9399 348.305 26.2533 348.028 25.4206C349.756 32.2215 348.931 29.7206 349.164 30.9359ZM351.156 42.9504C351.384 45.3945 350.986 39.1966 350.64 37.9527C350.837 39.2361 351.106 42.2212 351.156 42.9504ZM350.347 57.6737C350.141 58.9609 349.151 62.7022 348.982 63.3397C349.431 61.9759 350.344 58.2218 350.347 57.6737ZM349.555 60.5179C348.977 62.4505 349.073 62.9827 349.596 60.7091C349.615 60.6203 349.577 60.4467 349.555 60.5179ZM345.607 71.2379C344.948 72.4116 344.467 73.8794 345.433 71.9324C345.715 71.3503 345.677 71.1123 345.607 71.2379ZM349.394 34.2586C349.693 36.1907 350.234 38.587 349.587 34.5299C349.869 35.9968 350.094 37.2884 350.314 38.804C349.664 33.4892 349.381 33.8379 349.123 32.3347C348.717 30.2563 348.917 30.3602 349.071 30.7778C348.634 29.0305 346.755 21.5993 345.382 17.473C346.513 21.1718 348.062 27.1784 348.805 30.9884C349.018 32.0376 349.262 33.0147 349.43 33.9686C349.684 35.4491 349.377 34.1498 349.392 34.2509C349.393 34.2535 349.393 34.256 349.394 34.2586ZM338.06 84.5257C335.821 87.837 337.37 85.8521 338.559 83.8904C338.609 83.8054 338.117 84.4407 338.06 84.5257ZM0.415258 375.034C1.64839 369.67 0.719228 373.539 3.40205 362.42C2.2897 367.071 3.42388 362.702 3.23557 363.617C3.08267 364.33 2.34074 367.1 2.8358 365.517C2.13499 367.537 0.238163 376.78 0.226554 377.147C0.227219 377.143 0.227885 377.139 0.228552 377.135C0.179323 377.373 0.0591366 376.747 0.415258 375.034ZM349.748 57.5825C349.23 58.7741 349.589 59.4149 348.714 61.7953C348.398 63.4695 349.124 61.2561 349.703 58.3246C350.299 55.4434 350.565 51.8688 350.738 51.0691C350.114 58.0069 350.334 55.7007 350.678 52.9284C350.948 50.0366 350.971 46.7797 350.561 51.5892C350.974 43.59 350.589 48.9662 350.576 47.7321C350.563 46.4008 350.334 41.8395 350.224 42.0896C350.224 42.092 350.224 42.0944 350.224 42.0969C350.473 44.9195 350.555 47.6792 350.441 50.414C350.773 47.7338 350.503 53.4 349.983 55.2373C349.922 56.0294 349.843 56.8106 349.748 57.5825ZM350.558 41.9393C350.643 42.2276 350.908 48.2602 350.893 47.8997C351.061 47.0647 350.341 38.4984 350.558 41.9393ZM344.631 15.5739C345.362 17.8021 346.266 20.9936 346.672 22.1409C346.089 20.0471 345.115 16.7704 344.631 15.5739ZM316.802 120.28C315.598 122.893 319.529 114.955 318.319 117.221C318.238 117.361 316.858 120.143 316.802 120.28ZM348.284 63.6454C347.324 66.2639 348.023 65.1146 348.571 63.1089C348.602 62.9931 348.327 63.5243 348.284 63.6454ZM1.28057 370.674C1.21877 370.434 3.16665 362.735 3.60146 361.398C3.38093 362.168 1.25739 370.878 1.28057 370.674ZM343.174 12.0088C344.373 16.1412 346.357 21.885 346.506 22.5082C346.681 23.1555 346.296 22.171 346.334 22.3188C346.482 22.7214 348.171 29.3094 348.222 29.7071C348.28 29.9414 348.15 28.6792 348.508 30.0711C347.972 27.2935 344.431 15.1451 344.108 14.5261C343.929 14.0454 345.002 17.7077 343.176 12.0161C343.176 12.0136 343.175 12.0112 343.174 12.0088ZM346.917 24.1252C346.534 22.4488 347.779 27.0757 348.008 28.2472C348.568 30.8066 347.007 24.3422 346.917 24.1252ZM349.369 35.485C349.477 35.9983 350.118 40.9454 350.185 41.329C350.091 38.9946 349.202 34.2507 349.369 35.485ZM335.967 86.9239C335.242 88.069 333.261 91.0329 333.181 91.2697C333.913 90.1194 335.893 87.1532 335.967 86.9239ZM8.84423 344.585C7.95626 346.63 9.88395 341.836 10.5442 340.472C10.6023 340.404 8.90332 344.409 8.84423 344.585ZM347.591 63.9179C347.479 64.2649 346.235 68.0468 344.366 71.8285C342.532 75.6339 340.234 79.4316 339.666 80.3983C340.253 79.4719 342.554 75.7275 344.39 71.971C346.26 68.2381 347.508 64.499 347.594 64.1746C347.65 63.9836 347.623 63.8287 347.591 63.9179ZM348.153 31.2829C347.776 29.9245 347.66 28.9667 347.62 28.7873C347.231 26.992 346.291 23.5593 346.572 24.2857C347.389 27.2354 348.908 34.0303 348.153 31.2829ZM335.009 87.6683C332.129 92.1955 337.814 83.546 336.985 84.6491C336.942 84.7113 335.323 87.1786 335.009 87.6683ZM348.063 62.2919C348.194 61.7315 349.302 57.8396 349.721 53.6156C350.199 49.3744 349.996 44.9866 349.909 43.7361C350.169 45.929 350.132 47.7406 350.011 50.6264C349.972 51.4207 350.035 51.2172 350.031 51.3018C349.94 52.6895 349.949 51.6489 349.883 52.4967C350.143 53.0375 347.931 63.9022 348.063 62.2919ZM347.924 30.5058C347.777 29.621 345.23 20.1403 345.083 19.8547C344.409 17.0066 347.919 29.6455 347.924 30.5058ZM347.547 63.5868C348.023 62.0179 349.621 54.7078 348.631 59.7522C348.534 60.2334 347.959 62.218 347.547 63.5868ZM335.203 87.0969C335.059 87.3155 331.955 92.0612 331.959 92.1497C332.414 91.4763 336.891 84.5717 335.203 87.0969ZM336.632 84.5596C336.559 84.6753 337.345 83.6222 335.928 85.8169C335.816 85.9891 335.48 86.3233 333.734 89.0957C333.377 89.6633 332.862 90.5907 332.906 90.5293C334.941 87.7346 340.217 78.7863 336.632 84.5596ZM347.802 30.3504C347.869 30.8693 347.477 29.6745 347.272 28.517C347.183 28.018 347.488 28.9273 347.802 30.3504ZM325.569 102.27C327.198 99.3594 321.861 108.357 321.681 108.838C321.845 108.593 325.369 102.572 325.569 102.27ZM10.3375 339.525C10.3364 339.528 10.3353 339.53 10.3342 339.533C11.5231 336.972 10.8585 338.591 10.9141 338.471C13.5739 333.073 12.8 334.47 13.1923 333.613C14.0897 331.801 14.0783 332.164 15.6686 329.144C13.0517 334.143 15.4707 329.613 15.6135 329.51C16.1151 329.068 11.9445 336.052 10.8923 338.662C10.7314 339.018 12.0326 336.443 11.6292 337.359C10.27 340.304 6.01056 349.456 10.3375 339.525ZM347.051 27.6388C346.787 26.5371 344.185 17.2909 344.952 19.717C345.13 20.0142 347.66 29.4351 347.051 27.6388ZM290.352 364.663C292.423 365.586 287.723 363.23 286.859 362.794C286.414 362.598 289.431 364.272 290.352 364.663ZM262.184 342.398C260.703 340.318 259.191 338.102 260.829 340.814C260.995 341.099 262.313 342.667 262.184 342.398ZM370.554 303.045C371.121 305.786 371.254 305.58 370.776 303.586C370.6 302.881 370.535 302.959 370.554 303.045ZM321.467 373.871C321.195 373.852 318.021 373.422 318.122 373.467C319.309 373.71 323.252 374.116 321.467 373.871ZM370.305 302.187C370.756 303.804 370.179 300.946 369.471 299.065C369.779 300.04 370.262 302.018 370.305 302.187ZM345.16 68.7456C344.715 70.0352 342.979 73.5425 341.876 75.5124C341.705 75.6946 344.619 70.2313 345.16 68.7456ZM269.451 350.697C267.549 349.055 271.484 352.703 271.197 352.284C271.137 352.237 269.528 350.775 269.451 350.697ZM319.486 228.157C320.81 229.586 316.816 224.862 317.851 226.217C317.901 226.289 319.41 228.081 319.486 228.157ZM304.261 205.458C304.784 206.893 307.874 212.588 306.726 210.343C306.509 210.02 304.318 205.559 304.261 205.458ZM13.2041 333.431C12.7348 334.092 14.9188 329.983 15.2816 329.421C15.406 329.192 13.7832 332.558 13.2041 333.431ZM373.228 320.948C373.332 322.42 373.298 326.095 373.309 326.779C373.395 325.013 373.335 320.482 373.228 320.948ZM278.501 357.729C276.708 356.429 273.723 354.175 274.373 354.848C277.743 357.307 273.985 354.497 278.501 357.729ZM367.409 293.303C367.797 294.4 368.21 295.191 368.175 295.066C367.835 293.86 367.063 292.197 367.409 293.303ZM349.761 369.494C349.684 369.508 346.475 370.982 346.909 370.813C347.08 370.787 349.828 369.544 349.761 369.494ZM319.645 111.885C318.736 113.456 321.312 108.556 322.161 107.229C322.598 106.617 319.765 111.633 319.645 111.885ZM352.309 264.736C352.166 264.639 355.504 269.456 354.271 267.504C353.972 267.014 352.377 264.767 352.309 264.736ZM314.042 221.882C316.515 225.261 306.484 210.814 309.026 214.67C309.123 215.016 313.752 221.655 314.042 221.882ZM300.829 196.241C301.022 196.943 300.581 196.708 299.998 193.676C299.92 193.28 300.424 195.103 300.369 194.776C300.245 194.581 299.093 188.073 299.132 187.765C299.083 187.44 299.036 187.836 298.984 187.506C298.901 187.122 298.599 183.066 298.585 180.946C298.526 176.935 298.552 176.525 298.545 176.196C298.581 175.257 298.725 173.608 298.905 171.735C299.472 165.176 301.366 156.424 303.672 149.441C304.766 146.055 305.758 143.273 306.638 140.979C305.576 143.851 304.665 146.543 303.744 149.464C302.651 152.941 301.73 156.377 300.947 159.918C301.117 157.967 299.191 169.668 300.273 162.825C299.989 164.364 298.537 172.02 298.656 179.794C298.627 187.528 300.499 195.096 300.827 196.234C300.828 196.236 300.828 196.239 300.829 196.241ZM257.858 333.596C258.195 335.006 256.636 327.652 256.88 326.996C256.639 327.99 257.638 333.444 257.858 333.596ZM283.349 360.233C284.035 360.598 284.75 360.855 288.338 362.835C288.341 362.837 288.345 362.839 288.348 362.84C289.405 363.412 288.163 362.835 288.351 362.949C288.412 363.001 291.739 364.754 288.934 363.383C284.705 361.224 288.597 363.057 286.366 361.874C286.071 361.748 281.89 359.46 282.12 359.598C282.144 359.619 283.392 360.335 283.592 360.459C284.349 360.94 283.941 360.775 284.048 360.841C284.37 361.114 291.15 364.526 292.145 365.005C292.383 365.329 281.341 359.57 281.032 359.13C280.777 358.959 280.978 358.881 280.72 358.698C280.575 358.636 276.391 355.911 275.918 355.498C275.768 355.383 275.655 355.294 275.573 355.228C276.127 355.73 272.57 353.006 272.739 353.026C272.803 353.067 275.218 354.959 275.321 355.022C275.359 355.052 275.392 355.079 275.422 355.104C274.864 354.784 283.626 360.538 281.798 359.199C284.447 360.73 281.352 359.107 283.349 360.233ZM296.575 366.63C296.275 366.527 295.976 366.423 295.678 366.317C300.634 368.354 306.49 370.441 312.484 371.803C313.999 372.14 312.272 371.651 314.263 372.108C315.872 372.47 317.611 372.863 316.742 372.737C316.538 372.72 313.262 372.021 311.654 371.625C306.854 370.447 308.058 370.796 307.772 370.738C307.46 370.663 304.494 369.716 302.883 369.161C298.841 367.764 296.96 367.158 291.67 364.655C294.768 365.997 293.129 365.136 296.575 366.63ZM335.972 245.949C335.787 245.84 333.312 243.213 332.384 242.28C332.572 242.385 335.062 245.013 335.972 245.949ZM153.154 333.494C152.156 332.876 158.964 337.942 157.216 336.547C156.86 336.259 153.942 334.073 153.154 333.494ZM183.202 356.07C184.127 356.728 180.51 353.933 180.509 354.026C180.474 354.031 183.087 355.99 183.202 356.07ZM359.643 361.642C359.793 361.52 361.683 359.437 361.725 359.357C363.107 358.09 356.705 364.779 359.643 361.642ZM220.992 378.753C217.523 377.925 227.926 380.514 224.758 379.679C224.587 379.683 221.167 378.841 220.992 378.753ZM235.629 380.042C234.784 380.193 231.02 380.292 230.97 380.278C230.891 380.383 235.22 380.235 235.629 380.042ZM366.789 292.694C366.854 293.127 365.034 288.18 364.238 286.503C364.189 286.065 366.165 290.935 366.789 292.694ZM372.715 325.112C372.604 314.151 371.27 309.855 371.566 310.632C371.674 311.393 372.99 317.195 372.744 326.423C372.67 326.45 372.702 326.49 372.715 325.112ZM368.293 297.275C368.617 298.038 369.316 300.419 369.746 302.096C369.627 301.791 368.701 298.453 368.293 297.275ZM145.207 327.499C146.381 328.232 151.579 332.168 150.616 331.512C150.392 331.352 144.734 327.212 145.207 327.499ZM360.772 360.284C360.442 360.646 364.365 355.697 364.551 355.222C365.765 353.678 361.233 360.013 360.772 360.284ZM351.771 264.848C351.022 263.932 349.06 261.212 347.684 259.497C348.376 260.229 350.726 263.355 351.771 264.848ZM360.009 278.145C359.952 278.026 358.483 275.378 358.408 275.258C357.268 273.049 361.417 280.546 360.009 278.145ZM8.02717 342.802C8.0607 342.702 9.02466 340.469 9.06571 340.395C9.99471 338.438 7.11449 345.128 8.02717 342.802Z" fill="#F3A54D"/>
</svg>
