<svg width="89" height="25" viewBox="0 0 89 25" fill="none" xmlns="http://www.w3.org/2000/svg">
<path d="M27.6199 23.12C27.7532 23.1277 28.2934 23.1683 28.5255 23.1831C28.2604 23.1824 27.1368 23.0924 27.6199 23.12ZM51.5886 22.8888C51.3955 22.8902 51.2021 22.8914 51.0084 22.8926C51.5576 22.9037 52.2978 22.9106 52.8069 22.9206C52.8906 22.9223 52.6734 22.9315 52.8713 22.9344C53.0692 22.9373 53.0314 22.9206 53.3186 22.9222C53.6382 22.9243 55.1176 22.9499 55.6267 22.9531C57.5389 22.9667 59.4661 22.9639 61.3811 22.9698C59.4022 22.9814 61.3966 22.9947 61.9508 22.9884C62.0735 22.9866 62.0546 22.9585 64.0373 22.9592C65.301 22.9581 64.1292 23.0083 66.2381 22.9737C64.6201 22.9535 66.2124 22.947 67.477 22.9351C67.7009 22.9335 69.4626 22.921 70.2422 22.9093C70.4407 22.9065 70.7421 22.8931 71.0153 22.8849C71.1026 22.8823 71.1885 22.8802 71.2706 22.879C71.5124 22.8753 71.6991 22.8812 72.0586 22.8752C73.7404 22.8457 75.4039 22.8169 77.0764 22.751C76.0947 22.8324 77.8468 22.7366 77.9174 22.7261C78.3112 22.718 76.5253 22.8121 77.2313 22.7845C77.7646 22.7579 78.2771 22.7326 78.7849 22.6623C79.1862 22.6103 79.6098 22.4844 80.0267 22.3298C79.2947 22.5983 80.9814 21.9304 81.286 21.7528C81.1766 21.8053 83.4966 20.5857 84.7551 19.6056C85.1417 19.3191 85.4162 19.0406 85.5285 18.9213C85.6006 18.7947 85.0526 19.5462 86.3795 17.8626C86.5127 17.6711 86.4715 17.7496 86.5386 17.647C86.5788 17.5854 86.7929 17.195 87.0274 16.7842C87.0925 16.6408 86.7473 17.4841 87.4438 15.9353C87.495 15.8061 87.5416 15.6601 87.567 15.4967C87.4327 15.8482 87.7787 15.2913 87.3392 14.3667C86.9949 13.4974 85.9711 12.5779 85.6754 12.3155C85.7947 12.4258 85.911 12.5373 86.0234 12.65C85.4488 12.1019 85.311 12.0303 85.1738 11.9142C84.6056 11.452 83.7732 10.8592 83.1881 10.4823C82.5023 10.0419 82.489 10.0597 81.6778 9.55479C81.8693 9.67645 82.06 9.79862 82.2499 9.9218C82.0072 9.77101 81.7632 9.62181 81.5184 9.47362C81.1946 9.27754 80.8736 9.08101 80.5531 8.88653C81.8823 9.65891 80.2698 8.71176 80.1658 8.65265C79.9979 8.55367 80.2445 8.68669 79.9638 8.52149C79.9346 8.50503 79.9711 8.53719 79.5385 8.28685C78.6326 7.77278 78.7807 7.8488 78.3969 7.64388C78.3609 7.62742 78.4828 7.69222 77.8113 7.36298C75.6481 6.39017 77.8314 7.346 77.908 7.4001C78.0128 7.46158 77.3149 7.0194 79.0974 7.99357C78.502 7.65832 78.4477 7.61692 78.3801 7.57967C78.3227 7.54079 77.262 7.0317 77.1994 7.01358C76.6674 6.78822 77.1285 7.00278 77.0243 6.95991C76.968 6.93558 76.3849 6.67956 75.8908 6.50913C75.636 6.41983 75.4052 6.34661 75.2935 6.32159C74.8332 6.13774 75.2373 6.2648 75.8946 6.49881C76.1506 6.59062 76.4444 6.70284 76.7409 6.82446C76.8564 6.86575 76.2522 6.6104 75.9002 6.48327C75.7804 6.43881 75.688 6.40551 75.6728 6.40008C74.1279 5.86419 74.9731 6.1898 74.6284 6.0911C74.4472 6.04023 73.8175 5.81267 74.3958 6.03045C72.9786 5.56976 73.8423 5.83688 73.7514 5.8043C73.6146 5.75625 73.1146 5.60423 73.0524 5.58371C72.9614 5.55332 73.2821 5.64556 72.9223 5.52822C72.8624 5.50876 72.2761 5.34004 73.0239 5.58386C72.0224 5.26557 72.1002 5.30601 71.7677 5.17495C71.06 5.00998 71.2744 4.99264 71.0014 4.90647C70.2773 4.67941 70.4767 4.78154 70.4378 4.77163C70.3242 4.74301 69.8894 4.6129 69.3921 4.46612C68.7376 4.27049 67.9598 4.07656 67.6734 4.0151C67.8509 4.02651 68.9156 4.31202 69.3938 4.46047C69.467 4.48226 69.5295 4.50052 69.5716 4.5122C70.0636 4.64888 69.7682 4.55716 69.3989 4.44314C68.9871 4.31525 68.4749 4.17276 68.8791 4.26188C68.5614 4.18499 68.2427 4.11341 67.9229 4.04683C67.3438 3.89208 68.1799 4.05478 66.5971 3.73251C66.3349 3.69629 67.7155 3.96352 67.4356 3.92162C67.2726 3.89103 66.3543 3.70664 66.3347 3.7104C66.3159 3.71057 67.1469 3.87168 67.0141 3.85466C66.7336 3.7942 63.6773 3.25307 66.0061 3.64708C65.3591 3.52988 65.0293 3.43797 64.4599 3.35814C64.0895 3.30664 66.1564 3.69172 63.0445 3.18292C62.982 3.15577 64.2926 3.37774 64.3252 3.38146C64.3733 3.38709 64.1431 3.30896 64.1025 3.30049C64.0185 3.28075 62.878 3.11763 61.8093 2.9174C61.0906 2.78183 60.3983 2.683 60.1263 2.63646C60.3912 2.68627 57.7312 2.33998 57.4337 2.31864C57.3557 2.31167 57.6447 2.35948 57.5614 2.35144C57.0427 2.30182 55.6384 2.11159 54.9846 2.02156C54.8994 2.01016 54.825 2.00024 54.7602 1.99168C54.2845 1.93005 54.351 1.95134 54.316 1.9464C54.0039 1.91015 54.2548 1.92978 54.0633 1.90904C53.7824 1.86213 51.7625 1.7459 51.6557 1.75029C51.6253 1.74958 51.9574 1.77788 51.5148 1.76198C51.4367 1.76049 51.4859 1.73985 50.173 1.7062C48.5853 1.66969 51.2723 1.76007 50.6122 1.75869C49.5931 1.70156 49.6319 1.73005 49.3511 1.72042C49.3154 1.71926 49.194 1.71298 49.007 1.70476C48.7106 1.6915 48.2515 1.67361 47.7701 1.66523C48.1845 1.67064 48.5967 1.67668 49.0075 1.68374C49.1546 1.68631 49.2919 1.68877 49.4369 1.69157C49.3126 1.68758 49.1723 1.6837 49.0076 1.67964C48.4504 1.66575 47.7313 1.65382 47.3798 1.64425C47.1619 1.6383 47.3416 1.62388 46.8649 1.61614C46.7646 1.61487 46.3589 1.64961 47.6116 1.65315C47.7113 1.67017 47.1156 1.64922 46.8405 1.649C46.7995 1.649 46.6318 1.67149 46.2814 1.65016C46.1969 1.6456 47.12 1.58319 44.7413 1.60373C44.6643 1.60445 44.9315 1.61723 44.8564 1.61817C44.804 1.61871 44.198 1.6073 44.1312 1.60789C44.0627 1.60847 44.3553 1.62216 44.2737 1.62316C43.8563 1.62834 43.3054 1.58183 44.1693 1.59504C43.8814 1.58659 43.5929 1.57832 43.304 1.57023C43.6128 1.60387 42.8505 1.57377 42.4518 1.57101C39.8933 1.55472 41.6063 1.58935 41.1664 1.59575C40.4593 1.60694 40.9992 1.55862 39.9492 1.56757C39.8515 1.56893 41.1222 1.5964 38.6426 1.57229C39.0096 1.5728 39.374 1.57366 39.7403 1.57484C39.5298 1.54409 38.4186 1.57066 38.3342 1.57107C37.3614 1.57276 38.0171 1.56249 36.5746 1.5772C36.4431 1.57863 36.1649 1.57168 35.888 1.57602C34.744 1.59358 37.3985 1.58217 37.4703 1.59621C37.5018 1.60017 35.0544 1.60145 34.6206 1.60524C34.5851 1.60532 34.5627 1.6053 34.5554 1.60516C34.4367 1.60267 34.4896 1.60025 34.6205 1.59791C34.9441 1.59169 35.7537 1.58901 35.5206 1.57907C35.4877 1.57772 35.1309 1.57854 34.6204 1.58271C33.3431 1.58728 31.1193 1.65603 30.5383 1.6816C29.602 1.71497 29.1779 1.70101 29.174 1.74529C28.9071 1.7157 28.6748 1.75877 28.5549 1.76525C27.1149 1.84178 27.0973 1.85157 25.8684 1.89784C25.8572 1.8982 25.846 1.89857 25.8346 1.89895C25.5682 1.90796 25.3412 1.90854 25.2462 1.91675C25.1912 1.92185 25.2955 1.92837 25.025 1.95187C24.6508 1.96216 22.3771 2.24111 22.2067 2.27344C22.0366 2.28954 23.1659 2.12784 22.962 2.14553C22.1444 2.25839 21.3612 2.392 20.5392 2.53961C20.1979 2.60132 20.3714 2.56047 20.2241 2.58746C20.1612 2.59708 18.9843 2.83229 19.0352 2.82704C19.1526 2.79238 22.7924 2.15246 21.8363 2.33618C21.6518 2.36814 20.9947 2.45975 21.1031 2.4671C20.3593 2.59507 19.6157 2.73511 18.8733 2.8816C17.0157 3.2551 15.2181 4.06163 13.4788 4.955C12.9327 5.23449 12.3988 5.46239 11.8709 5.70106C12.3803 5.46329 12.9153 5.2318 13.4734 4.94451C14.72 4.29536 16.0538 3.68938 17.3534 3.26635C17.6049 3.17579 18.4665 2.94941 18.3595 2.96756C16.7805 3.34001 14.8963 4.19742 13.4686 4.93533C13.4553 4.94216 13.442 4.94896 13.4286 4.95575C13.3795 4.98065 13.554 4.87819 13.3696 4.97058C13.0224 5.14948 11.9379 5.6496 11.7566 5.72787C11.7243 5.74095 12.3359 5.44907 12.1442 5.52478C11.6517 5.71934 11.5525 5.8238 11.1425 6.01256C10.9654 6.09408 10.2244 6.43024 9.52788 6.78622C8.96999 7.06981 8.43735 7.35227 8.21139 7.48218C7.75161 7.74508 9.18542 6.97497 9.53824 6.80629C9.59932 6.77631 9.62655 6.76429 9.60468 6.77794C9.5835 6.78907 9.56224 6.80025 9.54092 6.81149C8.15052 7.54407 6.74774 8.29539 5.47572 9.05081C5.45314 9.06429 5.65703 8.95661 5.36901 9.12938C4.87076 9.43014 4.7329 9.49764 4.48973 9.64496C4.22568 9.80067 3.3259 10.3905 3.21286 10.469C3.19614 10.4793 3.36504 10.3436 3.39201 10.3252C3.77416 10.0601 3.93075 9.988 3.96458 9.9658C4.10211 9.87837 4.22984 9.7881 4.35362 9.71115C4.55906 9.58375 4.67611 9.51987 4.9492 9.35467C5.1388 9.24052 4.95069 9.33751 5.13109 9.22956C5.19981 9.18684 5.93848 8.78893 5.99171 8.72139C6.01765 8.71233 4.20832 9.68868 2.72567 10.7916C2.15064 11.2633 1.71284 11.9095 1.55291 12.4225C1.42019 12.8532 1.58665 13.3051 1.62447 13.4318C1.50639 13.0603 1.47078 12.7014 1.56394 12.426C1.60086 12.3127 1.64944 12.197 1.70614 12.0828C1.65025 12.1948 1.60141 12.3115 1.56478 12.4263C1.33267 13.134 1.98803 14.1886 1.96996 14.2551C2.23984 14.7721 2.56791 15.2818 2.89971 15.7994C4.21762 17.7116 6.73259 18.6879 9.01972 19.6846C10.1841 20.1758 11.4416 20.4528 12.7201 20.59C13.4978 20.6634 13.0654 20.6711 14.3581 20.7193C14.0236 20.7011 13.6907 20.6768 13.3595 20.6445C13.9244 20.7217 16.1934 20.7176 17.1553 20.7176C17.3047 20.7198 17.4176 20.7219 17.4848 20.7227C17.5479 20.7244 17.6369 20.6992 18.3911 20.7262C19.0598 20.7531 19.1658 20.7782 19.522 20.8013C19.8209 20.8213 20.1563 20.8386 20.2447 20.8454C20.3129 20.8506 20.3386 20.8627 20.5021 20.8755C21.017 20.9163 20.6013 20.8582 21.1101 20.9274C20.9858 20.92 20.8609 20.9126 20.7367 20.9054C21.3579 20.9531 22.2035 21.0288 21.2893 20.9717C21.1322 20.962 21.268 20.9614 21.1506 20.9532C16.5418 20.668 20.2283 20.9002 21.8337 21.0071C22.2295 21.0528 24.3728 21.1815 24.6109 21.1905C24.621 21.1911 24.6277 21.1915 24.6308 21.1918C24.6731 21.1957 24.6384 21.1966 24.6105 21.1986C24.5863 21.2004 24.5674 21.2029 24.6099 21.2087C24.6447 21.2134 24.7203 21.2201 24.8625 21.2313C24.9771 21.2064 28.0934 21.5394 26.9699 21.4341C26.739 21.4025 25.2439 21.258 24.8799 21.2464C25.7315 21.3111 27.7188 21.5073 27.9378 21.5482C28.8306 21.6771 26.2167 21.3393 28.2294 21.6212C29.7694 21.8515 28.3273 21.6164 28.9203 21.6955C29.2547 21.743 30.9832 22.0171 30.9401 21.9762C31.5347 22.051 31.185 22.0211 31.2582 22.0319C31.3299 22.0449 32.4995 22.1741 32.8813 22.214C32.9279 22.2194 32.7795 22.2206 32.8275 22.2266C32.8632 22.2309 33.0295 22.2475 33.2391 22.2663C33.2421 22.2666 33.2509 22.2676 33.2538 22.268C33.6155 22.3152 34.0859 22.3739 34.1145 22.3766C34.1433 22.3793 33.8749 22.3311 33.9868 22.3421C34.1165 22.356 35.2055 22.4937 35.2654 22.4951C35.3517 22.5013 34.0069 22.3394 34.2323 22.3513C34.8525 22.4351 35.8621 22.5428 36.2683 22.566C36.169 22.5615 35.5708 22.4991 35.3623 22.4727C35.4649 22.4666 36.7451 22.5928 36.3058 22.5679C36.5845 22.5834 36.3951 22.5614 36.552 22.5658C36.5611 22.5661 36.5879 22.5679 36.6239 22.5703C36.6287 22.5707 36.643 22.5723 36.6477 22.5729C36.7859 22.5889 37.0484 22.6309 37.1095 22.6387C37.1212 22.6385 36.6964 22.5631 36.7821 22.5723C36.9487 22.5786 38.1603 22.8153 38.2548 22.8386C38.5304 22.8998 37.5492 22.7117 37.462 22.7072C37.4519 22.705 38.2846 22.8879 38.2955 22.8924C38.342 22.9189 37.4143 22.7235 37.5167 22.7608C37.7478 22.8079 37.9769 22.8568 38.2051 22.9058C37.7885 22.8318 37.2115 22.7123 36.6393 22.6363C36.6352 22.6358 36.623 22.6345 36.6188 22.6342C36.0074 22.5872 35.4374 22.5206 35.2116 22.5045C35.6977 22.5595 36.1923 22.6115 36.6179 22.6466C36.6218 22.6469 36.6337 22.6482 36.6377 22.6487C37.4039 22.7608 37.9354 22.893 37.9312 22.915C37.9274 22.9313 37.3569 22.8316 37.3775 22.841C37.4602 22.8705 38.2497 23.0091 38.2775 23.016C38.3012 23.0217 38.3118 23.0248 38.3117 23.0257C38.3117 23.0257 38.3117 23.0257 38.3117 23.0257C38.3114 23.0338 37.1881 22.8201 37.1272 22.8187C37.0311 22.8086 37.5293 22.9302 37.5264 22.9376C37.5105 22.9327 36.7004 22.8004 36.9714 22.8589C37.2478 22.9144 37.9456 23.0524 37.9695 23.0588C38.1027 23.09 36.8766 22.8623 36.8347 22.8689C36.8164 22.865 37.4762 22.9946 37.4936 23.0039C37.5094 23.0103 37.0073 22.925 36.8048 22.908C36.6551 22.8935 37.0862 22.9689 37.0099 22.9585C36.9899 22.9557 36.8187 22.9257 36.6049 22.8974C36.2385 22.8691 35.7626 22.8179 35.7263 22.8149C35.6406 22.8081 35.9124 22.8479 35.8722 22.8462C35.8158 22.8446 35.4402 22.7992 35.4891 22.8085C35.5128 22.8132 36.1635 22.9036 36.5937 22.9506C36.8159 22.9873 36.9754 23.0222 36.9718 23.0246C36.965 23.0294 36.7797 22.9968 36.5951 22.9717C36.2779 22.9439 35.9718 22.9147 36.5898 22.9994C36.6621 23.0125 36.7453 23.0285 36.8411 23.0482C36.8513 23.0493 37.1994 23.1041 37.2089 23.107C37.4201 23.1582 36.3075 22.9731 37.6643 23.2209C37.088 23.113 36.7561 23.0659 36.5851 23.0472C36.3382 23.032 36.4257 23.0436 36.5849 23.0615C36.7958 23.0952 37.1353 23.1633 36.968 23.1471C36.9161 23.1424 36.7594 23.1188 36.5785 23.0972C36.2485 23.0759 35.8347 23.0341 35.8317 23.0349C35.9264 23.059 36.244 23.0797 36.3509 23.0955C36.4097 23.1072 35.5203 23.0312 35.7191 23.0607C35.7912 23.0722 36.2805 23.1235 36.5781 23.1463C36.6941 23.1619 36.7827 23.1763 36.7941 23.1783C37.1586 23.2463 36.7082 23.183 36.7879 23.2025C36.8401 23.2124 37.3979 23.3125 37.4123 23.3174C37.4338 23.3221 36.7864 23.2174 36.565 23.1993C36.555 23.1993 36.539 23.1985 36.5265 23.1979C36.48 23.1959 36.516 23.201 36.5732 23.2076C36.6577 23.2222 36.8141 23.2501 36.7617 23.2432C36.7016 23.2355 36.6336 23.2263 36.5626 23.2174C36.0278 23.1776 35.2919 23.0767 36.2187 23.2096C36.2598 23.2153 36.4437 23.2322 36.5705 23.2421L36.5595 23.241C36.626 23.2498 36.6767 23.2573 36.6807 23.2581C36.7894 23.2802 36.6989 23.2688 36.558 23.2528L36.5695 23.254C36.3941 23.2438 36.1436 23.2229 36.0713 23.2211C35.8424 23.2173 36.9059 23.307 36.0212 23.2361C36.2232 23.2597 36.3983 23.2779 36.5665 23.2928L36.5529 23.2914C36.9164 23.3443 37.2497 23.4056 37.774 23.5062C37.282 23.4111 36.8651 23.339 36.5514 23.3028L36.5656 23.3043C35.667 23.2374 35.51 23.2424 36.5624 23.3442L36.5461 23.3424C36.7367 23.3687 36.9737 23.4083 37.2578 23.4607C36.7585 23.3688 36.6383 23.3684 36.5435 23.3625L36.5608 23.3643C36.514 23.3642 36.4727 23.3635 36.3998 23.3574C36.2565 23.3495 35.1635 23.2054 35.6595 23.3161C35.7218 23.3315 36.3917 23.3879 36.1805 23.3818C34.5792 23.2109 36.1436 23.3906 36.1472 23.3898C36.1284 23.4162 34.4787 23.2286 33.1518 23.0447L33.1679 23.0465C32.4399 22.9781 31.8095 22.9012 31.5748 22.8741C30.7959 22.7846 30.1052 22.7094 29.9371 22.6852C29.3848 22.6043 29.8447 22.6583 29.7221 22.6353C29.5967 22.6126 28.0303 22.4025 27.9545 22.3929C27.6541 22.3448 27.962 22.3723 27.9308 22.3671C27.5581 22.2913 25.4725 22.0668 24.8838 22.0464C24.9027 22.0537 26.0771 22.1459 25.3423 22.1051C24.9142 22.0831 24.69 22.0659 24.5664 22.05C24.4418 22.0344 24.4247 22.0216 24.4133 22.02C21.9718 21.8968 19.5509 21.6435 17.141 21.6082C15.6273 21.6034 14.0415 21.6563 12.4748 21.4694C12.523 21.5392 15.1688 21.6471 15.2245 21.6224C15.5855 21.7098 11.1039 21.4508 10.5743 21.1572C10.9839 21.2612 11.3974 21.3463 11.8125 21.4154C11.1163 21.3501 9.62371 20.973 8.65471 20.5525C8.62763 20.5414 8.60089 20.5305 8.57451 20.5197C8.3971 20.4474 8.52001 20.5043 8.65029 20.563C8.74706 20.6066 8.84815 20.6489 8.84281 20.6471C8.7815 20.6247 8.71418 20.5985 8.64689 20.5711C8.3337 20.4436 8.01963 20.301 8.36218 20.4337C7.52786 20.0923 7.65443 20.1305 7.02093 19.8445C6.98834 19.8291 7.25548 19.9649 6.75273 19.7383C6.51479 19.6407 5.27634 19.0133 5.11279 18.9178C5.04204 18.8855 5.64404 19.2639 5.73986 19.2677C7.08228 19.9562 6.17837 19.4684 6.70468 19.7225C6.78618 19.7563 6.58784 19.7072 7.92973 20.282C7.65845 20.2147 6.13281 19.4878 5.87397 19.3466C5.32836 19.0967 7.54809 20.1893 7.9764 20.3167C7.77227 20.2604 8.13416 20.3903 8.63407 20.6016C8.6342 20.6016 8.63433 20.6017 8.63446 20.6017C9.20793 20.8355 8.95554 20.7419 9.26929 20.8577C10.1378 21.1455 9.78181 21.0119 10.5029 21.2223C9.80624 20.9987 11.7522 21.512 12.335 21.5601C11.3939 21.448 10.4538 21.2608 9.53835 20.9645C9.58979 20.9845 9.64132 21.0041 9.69286 21.0234C9.45089 20.9473 9.21176 20.8642 8.97439 20.7729C9.01353 20.7848 9.05266 20.7964 9.09178 20.8078C8.9156 20.7454 8.761 20.6855 8.62268 20.6287C7.82929 20.3027 7.61617 20.1888 7.53539 20.1538C6.32422 19.6184 4.91937 18.9515 3.78921 18.1236C3.6346 17.9762 3.67408 18.1798 2.57587 17.0513C2.24996 16.6618 2.56226 17.027 2.208 16.5695C2.14162 16.4875 2.08719 16.414 2.0426 16.3504C1.80477 16.0139 1.81573 15.9869 1.72556 15.8443C1.42165 15.364 1.23846 15.0552 1.21199 15.0081C0.876442 14.3893 0.306826 13.3631 0.514057 12.3124C0.517439 12.2934 0.404681 12.8111 0.541784 12.1631C0.545521 12.1503 0.551171 12.1318 0.55909 12.108C0.637013 11.8075 1.16093 10.7546 2.08198 10.0187C2.2986 9.84247 2.49795 9.70422 2.69934 9.56116C2.49219 9.70166 2.29341 9.83559 2.0753 10.0107C1.97902 10.0894 1.88552 10.1715 1.79499 10.2569C1.84547 10.2095 1.94178 10.1189 2.07382 10.0089C2.82396 9.40108 4.53039 8.37333 4.00798 8.67528C3.62717 8.89539 2.73984 9.51703 2.62271 9.5653C3.41874 8.9405 8.1009 6.28846 8.49356 6.13294C8.54479 6.10716 8.23619 6.28135 8.30699 6.24566C8.33804 6.22987 8.7073 6.03472 9.04926 5.85869C9.30596 5.72624 9.54493 5.60797 9.60964 5.57782C9.69813 5.5359 9.21085 5.78748 9.25235 5.7715C9.2859 5.74957 10.6822 5.07855 10.7585 5.0357C10.4152 5.19641 9.45159 5.66175 9.95133 5.40602C10.0154 5.37295 10.3566 5.21938 10.4347 5.18113C11.0128 4.89729 9.74984 5.48027 9.0453 5.85101C8.85988 5.9468 8.71598 6.02199 8.64672 6.05811C8.77224 5.99081 8.90352 5.92123 9.04364 5.84781C10.1609 5.24456 11.747 4.59392 12.9754 3.98558C13.2205 3.8577 13.4597 3.73545 13.6888 3.62048C14.3349 3.31202 12.7475 4.11101 13.4753 3.75578C14.9939 3.03438 13.8701 3.54436 13.9159 3.5196C14.2825 3.31805 15.616 2.79958 15.6034 2.76506C16.1777 2.54452 15.9897 2.61392 16.8107 2.31945C16.7005 2.35345 16.591 2.3884 16.4825 2.424C17.0343 2.20275 18.0112 1.93057 18.6633 1.82689C19.0551 1.76037 19.3147 1.72178 19.2582 1.7346C19.1184 1.76658 18.8976 1.81021 18.6687 1.85436C18.2378 1.93601 17.7858 2.0505 17.7286 2.06693C17.6009 2.11199 17.2365 2.21594 15.8528 2.70843C15.2936 2.93161 18.0582 1.94965 16.8012 2.40262C17.1269 2.29053 17.8492 2.05501 18.6765 1.89363C19.9653 1.63724 21.4583 1.38624 21.7778 1.32978C21.8397 1.31916 21.5454 1.33057 22.44 1.21077C22.8648 1.15519 21.8432 1.30833 22.0383 1.28658C22.2951 1.26519 23.8987 0.972334 25.8402 0.902635C28.3636 0.794483 31.4522 0.604033 32.3382 0.602932C32.438 0.600395 32.4015 0.610797 32.5006 0.608314C32.8041 0.599575 33.91 0.565934 34.4535 0.566931C33.9033 0.563704 34.1454 0.556057 34.6126 0.549912C35.087 0.54371 35.7887 0.541457 36.0683 0.542005C36.9118 0.543652 36.8605 0.560986 37.2225 0.564659C38.6273 0.578806 40.7976 0.552402 41.887 0.599665C41.8277 0.561886 43.7707 0.635287 44.6547 0.647815C45.346 0.656804 46.3529 0.647652 45.4182 0.619152C46.6135 0.637729 47.8737 0.652397 48.9942 0.676242C49.0093 0.676564 49.0214 0.676894 49.0311 0.677232C49.1421 0.681091 48.9501 0.685556 49.2419 0.691679C49.2714 0.692266 49.307 0.682308 49.5824 0.688319C51.826 0.744322 50.7359 0.737454 51.1544 0.757066C51.3901 0.7695 51.5647 0.778521 51.6901 0.784443C50.7414 0.745584 49.6972 0.720623 49.0304 0.706477C48.7809 0.701184 48.5789 0.69722 48.4691 0.694962C48.5487 0.702249 48.7586 0.709399 49.0302 0.716692C49.9227 0.738509 51.5449 0.77663 52.1185 0.812129C52.1442 0.813584 52.0539 0.822291 52.0801 0.823627C52.0806 0.823653 52.0812 0.823679 52.0817 0.823705C52.3603 0.82812 54.1603 0.954669 53.7913 0.914423C53.6927 0.899998 52.8601 0.832445 51.885 0.79262C52.1499 0.801775 51.9527 0.778218 51.9995 0.779731C52.5637 0.793948 53.9582 0.899518 54.4571 0.971257C54.5713 0.985424 54.5633 0.975275 54.5823 0.977574C54.7564 1.00033 54.8342 1.01575 54.891 1.02701C54.9811 1.04491 55.0187 1.05384 55.298 1.07347C55.6878 1.14009 55.3322 1.09697 54.8897 1.03691C54.4261 0.970759 53.8584 0.916057 53.9412 0.935131C53.9733 0.942908 54.3543 0.97888 54.8874 1.05353C56.3793 1.26199 59.1857 1.55618 59.1782 1.54425C59.1956 1.54921 59.2656 1.56121 59.4101 1.58329C59.73 1.62719 61.1626 1.82837 61.4106 1.87268C61.4525 1.87883 61.4401 1.85097 61.4919 1.85961C61.5317 1.86634 61.7248 1.90083 61.9919 1.95348C62.5751 2.07087 63.5356 2.23214 63.9851 2.29259C63.6368 2.2336 63.2898 2.17445 62.9443 2.1127C65.0418 2.45355 64.7252 2.39052 64.0218 2.27209C63.9868 2.26645 63.9526 2.26005 63.9192 2.25461C63.3759 2.16353 62.686 2.04155 62.6761 2.03703C62.6273 2.02964 66.2113 2.5971 65.5191 2.51299C65.4211 2.49623 63.7642 2.22062 64.5826 2.36854C64.7253 2.39283 65.7938 2.56595 65.8501 2.58002C66.2219 2.65109 63.8903 2.28377 64.1733 2.35001C64.739 2.42299 65.4641 2.54753 66.114 2.66177C66.4101 2.71389 66.4843 2.71589 66.5211 2.72253C67.0666 2.82526 66.7579 2.77894 66.9397 2.8147C67.0375 2.82974 68.1138 3.03985 67.9023 3.03385C71.4009 3.93507 68.8938 3.17838 66.7199 2.75456C67.4095 2.86812 68.7452 3.19172 69.3382 3.36284C69.5299 3.41606 69.4499 3.38185 69.6912 3.44795C69.7183 3.45541 69.7498 3.46428 69.7871 3.47495C70.5211 3.67733 73.9823 4.75788 74.8786 5.07307C74.3247 4.89456 74.4821 4.96126 74.9082 5.10175C75.3348 5.24372 74.9832 5.10576 75.0669 5.13168C75.1131 5.1464 75.6713 5.33382 76.2423 5.54329C76.7817 5.73963 77.322 5.97152 77.4802 6.04015C75.9844 5.43342 76.322 5.57418 77.5811 6.10916C77.3984 6.03261 77.2153 5.9589 77.0306 5.88753C77.7834 6.17002 79.2717 6.95942 79.6677 7.18902C79.7311 7.22339 79.5109 7.08628 79.5464 7.10561C79.9064 7.29312 81.0708 8.00372 81.1247 8.03391C81.1727 8.05865 80.6807 7.75069 80.8678 7.85758C80.9071 7.8795 81.3775 8.18325 81.8472 8.46356C82.0216 8.56735 81.9228 8.49443 81.9669 8.52031C82.0032 8.54163 82.0338 8.55975 82.0601 8.57547C82.2995 8.71959 82.1769 8.66031 82.7818 9.02928C83.2725 9.3318 83.6479 9.54365 84.3094 9.99729C82.1204 8.54455 83.9791 9.72969 84.8821 10.3699C85.0251 10.476 84.9225 10.3536 85.7601 11.0127C83.9281 9.68515 86.2821 11.3836 86.6994 11.8416C86.7228 11.8646 86.7247 11.8804 86.936 12.0887C86.9535 12.107 86.9368 12.0733 87.13 12.2727C88.8267 14.3661 87.7274 13.0393 88.0327 13.4536C88.0719 13.5233 88.1868 13.7149 88.2951 13.9735C88.4934 14.3728 88.6452 15.1063 88.6047 15.365C88.5959 15.457 88.6063 15.4182 88.546 15.7652C88.5064 15.9632 88.4488 16.1456 88.3839 16.3119C88.2618 16.6252 88.1387 16.8983 88.0309 17.114C88.009 17.1495 88.0095 17.1526 87.6775 17.7416C87.5823 17.9062 87.473 18.0905 87.6184 17.8621C87.8532 17.489 88.1538 16.9268 88.3946 16.3161C88.7046 15.6352 88.6238 14.7134 88.4095 14.2197C88.1111 13.3921 88.9876 15.5191 88.4091 16.322C88.3572 16.4519 88.3188 16.5402 88.3092 16.5627C88.2881 16.6144 88.5033 16.0837 88.2751 16.6189C88.0799 17.0746 87.6794 17.8883 87.244 18.4885C87.2149 18.5371 86.8408 18.996 86.854 18.9714C86.8771 18.9569 87.4014 18.2184 87.3168 18.32C87.3105 18.3345 86.9756 18.8023 86.9223 18.8564C86.8617 18.9264 86.6623 19.0837 86.5812 19.1752C86.3721 19.4103 86.5169 19.2648 86.3798 19.4158C86.2041 19.612 85.7309 20.0731 85.3285 20.3673C85.0771 20.5559 84.8803 20.6978 84.8691 20.7155C85.0249 20.6054 85.1827 20.491 85.3358 20.3769C85.3787 20.3449 85.4212 20.3124 85.4634 20.2793C85.4189 20.3146 85.3766 20.3473 85.3364 20.3777C84.4059 21.0639 84.8312 20.7558 84.6842 20.8676C84.5167 20.9884 84.5559 20.9435 84.1764 21.1962C84.103 21.2658 82.4729 22.2597 82.4969 22.2347C83.4105 21.7008 83.0772 21.9086 83.121 21.8865C83.2807 21.7929 83.4766 21.6592 83.6861 21.5268C85.1477 20.5723 83.6871 21.5555 84.034 21.333C84.154 21.2569 84.3833 21.0904 84.4328 21.0569C84.5959 20.9474 84.6047 20.9571 84.712 20.8809C84.9595 20.7035 84.6584 20.8928 84.6771 20.8781C84.8129 20.7757 85.2079 20.4936 85.3497 20.3955C85.4139 20.3513 85.4307 20.3443 85.3577 20.4061C85.3317 20.4282 85.2933 20.4595 85.2395 20.5021C85.2867 20.4684 85.3269 20.4387 85.3622 20.4121C85.5838 20.2417 85.6317 20.1797 85.8485 19.9988C86.3409 19.5663 85.6255 20.2383 85.4022 20.3931C85.3907 20.4021 85.3793 20.4109 85.368 20.4197C84.6618 20.9528 84.43 21.1162 83.3475 21.7942C82.95 22.0399 82.4717 22.3215 82.2794 22.4246C82.1648 22.5004 80.977 23.03 80.9598 23.0946C80.4891 23.2947 79.7108 23.5291 79.1606 23.6238C79.0488 23.6446 78.9658 23.6575 78.9114 23.6665C78.7459 23.6949 78.8233 23.6991 78.791 23.7039C78.7237 23.7179 78.1519 23.769 77.9648 23.7813C77.7448 23.7987 77.855 23.8018 77.5049 23.8239C76.6359 23.8738 76.6624 23.8444 76.5692 23.8472C75.5377 23.8641 75.9945 23.8818 75.7631 23.892C75.5545 23.9057 72.5635 23.9549 71.946 23.9695C72.1941 23.961 72.4609 23.9519 72.7079 23.943C72.2555 23.9358 71.7713 23.9672 71.7606 23.9408C71.6999 23.9667 71.3734 23.9723 71.0301 23.9734C70.7982 23.974 70.5626 23.9723 70.4418 23.9743C70.3281 23.9762 70.3403 23.9834 70.2016 23.9854C69.65 23.9938 68.4296 24.0008 68.131 24.007C66.8563 24.0353 70.1183 24.0301 70.378 24.0266C69.863 24.0342 66.9544 24.0716 68.2875 24.0795C68.499 24.0807 68.8651 24.0577 68.9785 24.0558C69.7719 24.0422 69.1486 24.0662 69.2106 24.0672C69.3191 24.0687 69.829 24.0462 69.9712 24.0465C70.0158 24.0465 69.726 24.0658 70.4724 24.0568C70.1076 24.0775 67.9892 24.0876 67.7158 24.0928C67.6178 24.0946 68.2345 24.1228 66.4296 24.1052C66.4505 24.1081 66.4714 24.1109 66.4923 24.1138C65.4865 24.1222 64.4769 24.1287 63.4726 24.1331C63.5832 24.1259 64.1506 24.11 63.4349 24.1154C63.0274 24.1183 63.3289 24.1328 63.2916 24.1334C62.9279 24.1453 56.417 24.1307 55.1584 24.1134C54.7275 24.1107 53.5327 24.111 53.4424 24.11C52.8962 24.1061 50.968 24.0718 50.5815 24.0666C50.3414 24.0639 50.5695 24.0804 50.3549 24.0764C50.1554 24.0726 50.3623 24.0635 50.3031 24.062C49.8116 24.0527 46.0798 23.9931 45.1939 23.9539C45.7352 23.9739 48.4389 24.0087 48.3843 23.9973C48.3727 23.996 47.7162 23.9731 47.5805 23.9747C47.3568 23.9593 46.5877 23.9748 46.1697 23.958C46.1225 23.9561 46.3089 23.9426 45.5631 23.9204C45.3062 23.9128 44.633 23.9095 43.9558 23.8735C43.544 23.8648 42.3944 23.828 41.1752 23.7813C39.4902 23.7178 37.6738 23.632 37.4675 23.6336C37.4567 23.6343 38.1828 23.674 37.6916 23.6599C37.0395 23.6407 37.6272 23.6317 36.8674 23.5928C36.7521 23.5883 34.6412 23.4853 34.571 23.4825C33.9303 23.4691 35.7754 23.5745 35.7496 23.5746C35.6849 23.5781 34.1507 23.5012 34.0895 23.4958C34.03 23.4911 35.2815 23.5319 33.7784 23.4605C33.9504 23.4732 34.1233 23.4859 34.2945 23.4983C33.5873 23.4663 33.5207 23.4434 33.3499 23.4327C32.8181 23.3991 32.2407 23.3945 31.3904 23.3077C31.166 23.2848 31.5401 23.2972 31.5121 23.2941C31.2431 23.2652 30.8941 23.2774 30.4892 23.2269C30.4585 23.2229 31.4068 23.2684 29.7512 23.1631C29.865 23.1728 29.9789 23.1825 30.0929 23.1922C29.8579 23.1833 28.1841 23.076 27.9574 23.0585C27.2992 23.0097 27.875 23.0321 27.2129 22.9883C27.6356 23.042 25.6228 22.9026 25.7404 22.8899C25.4574 22.8956 23.7508 22.7493 22.9473 22.6859C22.4407 22.6467 21.4065 22.5761 21.2456 22.5618C21.0497 22.5446 21.111 22.5321 20.7571 22.4998C20.6559 22.4907 19.6014 22.4184 18.6782 22.3238C18.4993 22.3055 18.1257 22.2448 18.4591 22.2651C19.0304 22.3001 20.1072 22.4118 20.0946 22.3932C20.0801 22.3736 18.626 22.2655 18.2357 22.2302C16.4318 22.068 17.4758 22.1354 17.4297 22.1256C17.3109 22.1011 16.3245 22.0182 16.2837 22.0133C16.1138 21.9931 16.813 22.0408 16.8244 22.0328C16.8381 22.0224 15.8897 21.9209 16.106 21.9354C16.4158 21.9562 17.2877 22.0474 17.3431 22.0511C18.0645 22.1004 17.0792 21.9909 16.8078 21.9547C16.7256 21.9437 17.0551 21.9648 16.9867 21.9579C15.9436 21.8515 16.7637 21.9768 16.0688 21.9141C15.4491 21.8579 16.2483 21.9084 16.2248 21.9054C16.1941 21.9017 15.4532 21.8376 15.3377 21.8214C15.2807 21.8137 17.2098 21.9434 17.1309 21.921C16.5157 21.8725 15.9009 21.8236 15.2861 21.7744C15.2398 21.7504 16.1222 21.8405 16.214 21.8462C16.3985 21.8577 15.8859 21.804 15.9085 21.7995C15.9206 21.7965 16.5245 21.8335 15.9806 21.7813C15.7937 21.7633 15.4 21.7439 14.7201 21.6711C17.0921 21.8558 15.4504 21.704 15.3812 21.691C15.3134 21.6781 16.4464 21.7583 15.0725 21.6437C15.0162 21.5998 15.1031 21.634 15.4942 21.6606C15.9729 21.693 14.8688 21.5863 16.6157 21.7446C16.5182 21.7182 15.113 21.5996 15.0388 21.5916C14.9746 21.5848 15.2877 21.6027 15.1766 21.5901C13.8631 21.442 14.7659 21.5356 14.3865 21.4804C14.3526 21.4756 13.1091 21.3598 14.0566 21.4383C15.7832 21.5813 16.5028 21.6677 16.7973 21.6373C15.5225 21.5055 13.9725 21.4074 13.5845 21.3744C12.9902 21.3239 13.6067 21.3659 13.5337 21.3564C13.5084 21.3532 12.9964 21.3098 12.9896 21.3083C12.6282 21.2349 15.2685 21.5049 16.1016 21.5679C15.8789 21.5426 15.6564 21.5173 15.4339 21.492C15.7365 21.5176 16.0392 21.5432 16.3422 21.5687C14.9007 21.4331 16.2919 21.5597 16.6541 21.5561C16.7354 21.5553 15.7873 21.4881 16.8695 21.5585C16.0731 21.4861 16.3274 21.5007 15.6051 21.4487C15.6246 21.4368 17.2506 21.5597 17.8912 21.6059C15.6296 21.4001 16.9158 21.5592 14.9619 21.3657C14.5978 21.3514 15.5318 21.4282 15.4555 21.4244C15.1812 21.4111 14.5424 21.3403 13.7668 21.3086C13.6405 21.3034 14.1713 21.3672 13.3836 21.2982C13.2965 21.2906 12.796 21.2319 12.803 21.2314C12.8706 21.2254 13.3668 21.2728 13.3878 21.2696C13.4074 21.2666 12.8531 21.2215 12.8513 21.22C12.8355 21.2037 13.3141 21.2544 13.2448 21.2437C13.0955 21.2206 11.105 21.0159 13.7055 21.2506C11.5435 21.0802 13.4274 21.2433 14.2693 21.3093C14.4841 21.3262 14.5393 21.322 14.8451 21.3452C15.2387 21.375 15.6988 21.4186 15.9023 21.4343C16.1214 21.4511 14.8795 21.3244 16.6776 21.4836C15.764 21.3854 14.1453 21.2686 13.2474 21.176C11.436 20.9892 14.5153 21.2497 14.8363 21.274C14.9218 21.2805 14.6364 21.2439 14.6935 21.2481C14.7864 21.2552 16.5339 21.4101 16.7067 21.4144C16.8794 21.4191 16.0667 21.3606 16.0135 21.3456C15.9777 21.3359 18.087 21.5016 16.9459 21.4005C16.1599 21.331 14.7074 21.2346 14.466 21.1834C15.6228 21.2805 16.7796 21.3767 17.9365 21.4709C17.3044 21.4065 16.6724 21.3416 16.0402 21.2762C17.3387 21.3832 18.4599 21.4901 19.6943 21.5746C16.7342 21.2938 20.6592 21.6251 20.7024 21.6225C20.7169 21.6212 19.5531 21.4968 19.366 21.4757C20.4002 21.5509 23.5409 21.7919 21.7068 21.6105C22.0396 21.6454 22.8489 21.6879 22.8384 21.6854C22.7366 21.6618 20.9748 21.5331 21.2632 21.541C21.5974 21.5506 22.0619 21.6106 22.5744 21.6486C25.2028 21.8406 24.4891 21.7029 27.1228 21.9045C27.0705 21.8978 27.0183 21.8911 26.9661 21.8844C29.8306 22.0908 32.6964 22.2729 35.5629 22.4237C36.6861 22.4578 39.6719 22.5758 41.1403 22.6291C41.1606 22.6299 41.1864 22.631 41.2169 22.6322C41.6271 22.6498 42.8931 22.7038 42.9949 22.7088C43.1973 22.7201 42.0831 22.6856 42.5862 22.7106C42.6924 22.7177 45.1492 22.7953 44.9739 22.7746C44.6987 22.7658 43.8366 22.7483 43.6958 22.7405C42.706 22.6981 50.2814 22.9001 50.6572 22.8821C50.4896 22.8747 50.3221 22.8673 50.1543 22.8598C50.6315 22.87 51.1116 22.8797 51.5886 22.8888ZM29.5618 23.2086C29.2751 23.2048 28.5549 23.1462 28.1299 23.1213C27.5422 23.0875 26.5402 23.073 26.9739 23.0472C27.8366 23.1032 28.6988 23.1571 29.5618 23.2086ZM42.1806 23.8585C41.5999 23.8309 42.0529 23.8152 42.526 23.8438C42.5786 23.8469 42.9633 23.895 42.1806 23.8585ZM36.1083 23.5909C36.1324 23.5918 36.632 23.617 36.6497 23.6183C37.0975 23.6527 35.5901 23.5765 36.1083 23.5909ZM65.4526 24.0965C64.8084 24.1015 65.2781 24.1275 65.6734 24.1134C65.6983 24.1125 65.4949 24.0962 65.4526 24.0965ZM64.9972 24.0983C64.5032 24.0755 63.5055 24.131 64.2958 24.1226C64.3754 24.1219 65.0213 24.0995 64.9972 24.0983ZM40.1157 23.771C40.1811 23.7638 40.7771 23.7914 41.0334 23.803C41.0258 23.8118 40.3649 23.7798 40.1157 23.771ZM55.2711 24.102C55.2957 24.0952 53.2185 24.0755 53.0772 24.0832C53.4044 24.0834 55.2465 24.1093 55.2711 24.102ZM60.5974 24.1142C60.5463 24.1129 59.8286 24.1141 59.8487 24.1208C60.2021 24.1304 60.8326 24.1204 60.5974 24.1142ZM71.1876 24.0463C71.2242 24.0439 70.6908 24.0088 71.9633 24.0185C72.1526 24.0198 71.476 24.0413 71.5472 24.0417C71.6807 24.0428 71.7997 24.0425 71.8867 24.0414C71.5725 24.048 71.2799 24.0535 71.0313 24.0574C70.8102 24.0609 70.6466 24.0627 70.6174 24.0618C70.4103 24.0555 70.8071 24.0507 71.0311 24.0482C71.1186 24.0472 71.1829 24.0466 71.1876 24.0463ZM76.7517 23.8907C76.8754 23.88 77.6573 23.849 77.8406 23.839C77.8719 23.8373 77.7373 23.8654 78.0947 23.8403C78.3828 23.817 77.9496 23.8348 78.517 23.7883C79.0986 23.728 78.3234 23.8266 78.3752 23.819C78.4083 23.8174 78.6954 23.7884 78.9228 23.7568C79.1495 23.728 79.3417 23.6849 79.3291 23.6933C79.321 23.6979 79.1501 23.7381 78.924 23.7669C78.6361 23.8078 78.2319 23.8392 78.097 23.8488C77.8001 23.8705 78.1615 23.8623 77.6655 23.8883C77.3572 23.9027 77.5258 23.8698 77.4597 23.872C77.4025 23.8761 76.3333 23.9317 76.7533 23.8907C76.7528 23.8907 76.7522 23.8907 76.7517 23.8907ZM72.0465 24.0379C72.0024 24.0394 71.9503 24.0406 71.8867 24.0414C71.9407 24.0402 71.9941 24.039 72.0465 24.0379ZM31.2343 23.3035C31.5349 23.3293 30.64 23.2841 30.3039 23.2528C30.2979 23.2448 31.1862 23.2996 31.2343 23.3035ZM72.5962 24.0095C73.4792 24.0001 72.8291 24.0204 72.0465 24.0379C72.2867 24.0296 72.3043 24.0123 72.5962 24.0095ZM47.5805 23.9747C47.6176 23.9773 47.6411 23.9806 47.644 23.9852C47.5464 23.9781 47.5377 23.9752 47.5805 23.9747ZM49.6358 24.0228C50.3411 24.0212 48.9092 23.9966 48.9181 24.0064C48.9225 24.0103 49.6073 24.023 49.6358 24.0228ZM66.2715 24.0927C66.2072 24.0917 67.2087 24.0429 65.7538 24.0842C66.5287 24.0842 65.7097 24.0941 65.7235 24.0976C65.7489 24.1083 67.0608 24.089 67.347 24.0909C67.5739 24.0702 66.4826 24.096 66.2731 24.0927C66.2726 24.0927 66.272 24.0927 66.2715 24.0927ZM86.0974 19.9081C85.9995 20.0152 85.713 20.2786 85.4235 20.4934C85.3425 20.5541 85.2596 20.6151 85.1881 20.6673C85.234 20.6291 85.3192 20.5638 85.4189 20.4873C85.6317 20.3261 85.9041 20.0946 86.0974 19.9081ZM0.746713 11.6292C1.21838 10.6835 1.77856 10.2254 2.0573 9.98907C2.37194 9.74831 2.38241 9.74956 2.06717 10.0009C1.85319 10.1855 1.47947 10.5063 1.07599 11.0917C1.0345 11.124 0.664926 11.788 0.746713 11.6292ZM20.6454 1.43337C20.8906 1.4098 20.0911 1.5544 19.5663 1.6474C19.4471 1.66815 19.0061 1.73297 19.5052 1.6329C19.4934 1.65901 20.2689 1.52158 20.6454 1.43337ZM73.0942 23.9883C73.351 23.9707 74.1356 23.9648 74.5554 23.957C74.3031 23.9739 73.463 23.986 73.0942 23.9883ZM7.81359 6.51677C8.05893 6.38717 8.21121 6.28756 8.16955 6.30792C7.98059 6.4001 7.53326 6.656 7.81359 6.51677ZM70.5442 24.0249C70.526 24.0213 70.7757 24.0143 71.0306 24.0102C71.3084 24.0059 71.5886 24.0047 71.6244 24.0141C71.5193 24.0149 71.2713 24.0187 71.0308 24.0218C70.7891 24.0249 70.5578 24.0273 70.5442 24.0249ZM85.5147 20.4064C85.3795 20.5165 86.0744 19.9345 86.2555 19.7338C86.2544 19.7619 85.6171 20.3468 85.5147 20.4064ZM11.7869 4.56102C12.0116 4.46256 12.5583 4.21235 12.6124 4.17685C12.6865 4.13537 11.8864 4.50638 11.7869 4.56102ZM28.8969 22.6054C28.9258 22.6128 27.991 22.4948 27.5805 22.4346C26.7982 22.3151 28.8612 22.5928 28.8969 22.6054ZM5.54643 7.78637C4.86706 8.16235 5.62071 7.74214 5.5818 7.74551C5.12645 8.00355 4.01447 8.67357 4.78864 8.22835C4.93941 8.14183 5.33339 7.90772 5.54643 7.78637ZM6.17015 7.43666C6.23971 7.39056 6.71858 7.10241 6.29806 7.33949C6.10332 7.44957 5.8001 7.64445 6.17015 7.43666ZM23.1137 22.0478C22.6971 22.0111 23.688 22.0778 24.5625 22.1239C25.1244 22.1534 25.6306 22.199 25.665 22.203C25.7117 22.2083 25.7433 22.2124 25.7607 22.2151C25.8745 22.2188 26.4616 22.2768 26.5277 22.2977C26.3529 22.2763 25.8715 22.2307 25.8171 22.2253C25.7931 22.2226 25.7752 22.2205 25.7628 22.2188C25.6663 22.2151 25.1298 22.1691 24.5617 22.1392C23.8896 22.1032 23.1855 22.054 23.1137 22.0478ZM17.8964 21.7142C18.6792 21.7186 18.8164 21.7683 18.7488 21.7653C17.8967 21.7433 18.4532 21.7397 18.4271 21.737C18.3674 21.7314 17.7627 21.7235 17.8989 21.7143C17.898 21.7143 17.8972 21.7143 17.8964 21.7142ZM22.039 21.9691C22.0708 21.971 22.7339 22.0176 22.7619 22.0198C23.3045 22.0696 21.4276 21.938 22.039 21.9691ZM81.015 23.0758C81.466 22.878 81.0342 23.0927 80.726 23.2114C80.6997 23.2202 80.6131 23.2439 81.015 23.0758ZM6.50107 7.24646C6.59506 7.18357 9.09817 5.85815 8.94075 5.92606C8.72257 6.02499 5.88854 7.55872 6.50107 7.24646ZM26.524 0.80853C26.0329 0.828823 26.5673 0.787527 26.8305 0.78147C26.928 0.779451 26.6482 0.803265 26.524 0.80853ZM69.1331 24.0234C68.6188 24.0398 68.7225 24.0019 69.1715 24.0098C69.1892 24.0101 69.1536 24.0228 69.1331 24.0234ZM22.5214 1.1445C24.2401 0.907246 23.8319 0.992904 21.6085 1.31593C21.6774 1.30183 21.7464 1.28786 21.8153 1.27401C19.2604 1.69812 21.6368 1.28847 22.2665 1.19584C22.5053 1.15876 22.3034 1.17803 22.5197 1.14467C22.5202 1.14461 22.5208 1.14456 22.5214 1.1445ZM29.1271 0.668265C30.7841 0.624393 27.622 0.770229 26.7321 0.821751C27.5994 0.76035 28.7379 0.695158 27.1922 0.76352C29.4512 0.632318 28.5133 0.703161 28.603 0.699571C28.7099 0.695144 29.0582 0.669916 29.1271 0.668265ZM24.7688 0.895445C24.6713 0.902291 23.9429 0.963148 23.6825 0.997706C24.0433 0.930849 25.4131 0.835304 24.7688 0.895445ZM12.358 21.5541C12.4206 21.5481 12.572 21.564 13.1505 21.6167C12.9722 21.6093 12.5997 21.579 12.358 21.5541ZM29.0211 23.1098C28.6308 23.0833 27.8549 23.026 28.0921 23.0548C28.1189 23.0579 29.0189 23.1169 29.0211 23.1098ZM13.8499 3.59114C13.9164 3.53958 15.9178 2.65702 15.221 2.94858C15.0009 3.02031 13.2143 3.88328 13.8499 3.59114ZM3.9478 8.75423C4.10252 8.65648 4.72952 8.27449 4.74403 8.26369C4.77866 8.22981 4.01153 8.70111 3.9478 8.75423ZM27.0544 22.9636C27.003 22.9591 25.8121 22.8764 25.9425 22.8914C26.1907 22.9206 27.2299 22.9803 27.0544 22.9636ZM82.5909 22.2542C82.6797 22.204 82.803 22.1485 82.8336 22.1309C82.9147 22.1035 84.4836 21.1027 83.8928 21.4988C83.8137 21.5931 81.4772 22.918 81.1246 23.0179C80.9962 23.0638 82.0493 22.5829 82.2884 22.4395C82.3313 22.4156 82.353 22.3884 82.5902 22.2547C82.5904 22.2545 82.5906 22.2543 82.5909 22.2542ZM15.3683 21.6988C15.426 21.6946 16.5382 21.6715 17.1399 21.6816C17.3917 21.6865 17.5645 21.6934 17.5572 21.6972C17.4182 21.6941 17.2795 21.6915 17.1397 21.6896C16.5656 21.6832 15.9667 21.6987 15.3683 21.6988ZM14.262 21.6799C13.7966 21.6567 14.8886 21.6897 15.2068 21.6893C15.211 21.6993 14.3308 21.6866 14.262 21.6799ZM7.52008 6.74473C7.70925 6.63901 7.11597 6.94187 7.24517 6.86816C7.32887 6.81984 7.75687 6.59565 7.89106 6.51848C7.92869 6.49622 7.48522 6.71637 7.36112 6.78501C7.18351 6.88265 7.36206 6.79941 7.16693 6.90595C6.52317 7.25831 5.9502 7.57105 5.35155 7.91972C5.29755 7.95117 5.71961 7.71567 5.26113 7.98248C5.18795 8.02554 4.7565 8.26129 4.21241 8.59677C3.46197 9.09405 2.84773 9.45439 2.09394 10.0331C1.66886 10.3873 1.24761 10.8318 0.898639 11.4713C0.895262 11.371 1.81374 10.2329 1.91321 10.2111C1.97336 10.1564 2.03677 10.1011 2.10419 10.0454C3.38682 9.06363 5.50621 7.85622 6.81035 7.13186C7.16238 6.93772 6.98672 7.02498 7.13739 6.94193C7.25615 6.87695 7.12401 6.96618 7.52008 6.74473ZM29.2293 23.1147C29.0431 23.0869 28.3927 23.0536 27.9747 23.0242C28.1211 23.0485 28.8212 23.0846 29.2293 23.1147ZM4.92528 18.8149C4.73636 18.7111 4.17261 18.3456 4.12469 18.3136C4.0588 18.2858 4.87711 18.8087 4.92528 18.8149ZM88.2918 13.9008C88.2898 13.8723 88.0248 13.3724 88.0072 13.3591C87.8207 13.0439 88.2564 13.7287 88.3247 13.9614C88.3464 14.0176 88.35 14.0311 88.3198 13.9634C88.3125 13.9469 88.3033 13.9262 88.2918 13.9008ZM78.5589 6.52879C78.2101 6.35513 77.8508 6.19519 77.7364 6.12989C77.9641 6.23111 78.6043 6.53957 78.5589 6.52879ZM62.5013 2.01052C62.5376 2.02516 62.2857 1.98299 61.9968 1.92749C61.6892 1.86807 61.3387 1.80623 61.2286 1.78769C61.2746 1.79081 61.6617 1.8497 61.9995 1.91308C62.2521 1.9601 62.4776 2.00098 62.5013 2.01052ZM12.2799 21.4916C12.9956 21.576 12.8463 21.5303 13.2995 21.5791C13.3727 21.5844 13.6101 21.6624 12.8235 21.574C12.6823 21.5543 13.2376 21.6061 12.2799 21.4916ZM21.2478 1.37529C21.0721 1.41569 20.5188 1.50884 20.1457 1.57722C20.2275 1.55299 20.9812 1.41991 21.2478 1.37529ZM24.9046 22.796C24.5779 22.7568 23.059 22.6529 23.4338 22.6917C23.4875 22.6974 24.6924 22.7801 24.9046 22.796ZM74.8794 23.9008C75.5033 23.8733 74.2064 23.9012 73.7975 23.9205C73.9855 23.9163 74.837 23.903 74.8794 23.9008ZM66.4366 2.67882C66.4072 2.67256 65.7482 2.55219 65.7185 2.54747C65.1805 2.43708 67.0452 2.77941 66.4366 2.67882ZM82.0096 8.5356C81.8021 8.42262 80.4605 7.59646 80.1532 7.41151C80.4641 7.56771 82.2704 8.68049 82.0096 8.5356ZM9.3732 20.8428C9.86581 21.0119 10.3404 21.1442 10.8037 21.2519C10.7013 21.2548 9.41825 20.8831 9.3732 20.8428ZM64.0218 2.27209C63.9868 2.26645 63.9526 2.26005 63.9192 2.25461C63.9541 2.26053 63.9884 2.26642 64.0218 2.27209ZM0.705978 13.7366C0.573858 13.2828 0.598347 13.3719 0.600465 13.4041C0.675536 13.7646 0.881422 14.2305 0.705978 13.7366ZM28.7516 23.06C28.6078 23.0364 27.9013 22.9998 27.4971 22.9683C27.6131 22.9876 28.4259 23.04 28.7516 23.06ZM30.9009 0.615007C31.4297 0.607397 29.2786 0.715953 28.8274 0.736591C28.7921 0.725715 30.822 0.611346 30.9009 0.615007ZM72.9343 23.9196C72.8864 23.9097 71.9874 23.9376 72.1796 23.9397C72.3069 23.9411 72.9558 23.9262 72.9343 23.9196ZM27.7496 0.791409C27.5486 0.806448 27.0819 0.820855 27.2456 0.805332C27.4563 0.785521 27.8013 0.78749 27.7496 0.791409ZM10.283 5.33623C10.3628 5.29655 11.4433 4.78794 10.9902 4.98343C10.6765 5.11878 10.6327 5.15763 10.5605 5.19126C10.4769 5.22343 8.74065 6.05028 10.283 5.33623ZM42.9345 0.568997C42.4871 0.56863 41.9462 0.558711 41.478 0.555217C41.6688 0.549735 42.7442 0.557769 42.9345 0.568997ZM76.4125 23.8328C76.3019 23.8381 73.3403 23.9063 75.0215 23.8798C75.1187 23.8803 76.7418 23.8366 76.4125 23.8328ZM12.2799 21.4916C12.1901 21.4802 12.0862 21.4659 11.9655 21.4474C12.0855 21.4652 12.1895 21.4797 12.2799 21.4916ZM4.68863 18.6424C4.83422 18.725 4.12018 18.2784 3.91756 18.128C3.84524 18.0989 4.66439 18.6395 4.68863 18.6424ZM41.4423 0.566121C41.1726 0.568492 40.6825 0.559952 40.3491 0.558361C40.405 0.55111 41.3259 0.557435 41.4423 0.566121ZM60.3754 1.69293C59.8411 1.61215 59.1834 1.53427 59.1726 1.54211C59.1617 1.53934 59.136 1.53466 59.0931 1.52791C59.05 1.52081 58.478 1.45694 58.2306 1.42545C56.7421 1.19686 63.9823 2.1931 59.7806 1.62906C59.9785 1.64926 60.1772 1.67051 60.3754 1.69293ZM83.8159 9.68851C84.0685 9.86305 84.7868 10.3423 84.6048 10.2117C84.4806 10.1156 83.5652 9.50908 83.8159 9.68851ZM73.2304 4.57333C73.3165 4.60195 74.1132 4.84904 74.1352 4.85075C73.6811 4.69622 72.8373 4.43963 73.2304 4.57333ZM85.7416 11.0773C85.8939 11.1995 86.0976 11.3456 86.0803 11.3303C85.9317 11.1952 85.4903 10.8671 85.7416 11.0773ZM10.8156 21.1907C10.5298 21.1311 9.62794 20.8887 9.4327 20.8253C9.39766 20.8108 9.30087 20.7754 9.12638 20.7071C9.12691 20.7073 9.12745 20.7075 9.12798 20.7077C9.09435 20.6942 8.9215 20.6309 8.66697 20.5233C7.16481 19.982 2.85404 17.6665 6.65562 19.655C6.79674 19.721 6.60733 19.6248 7.18194 19.8882C7.22007 19.9054 7.23518 19.9219 7.35261 19.9747C7.52056 20.0511 8.14282 20.3245 8.65966 20.5407C8.98562 20.6782 9.2761 20.7793 9.39393 20.8169C9.39603 20.8193 9.41544 20.8276 9.45738 20.8433C9.82879 21.0001 11.036 21.2505 10.8156 21.1907ZM71.653 4.08468C71.8123 4.13654 72.3202 4.29006 72.3748 4.29918C72.1249 4.21714 71.2829 3.96367 71.653 4.08468ZM76.3174 23.8046C75.9755 23.8105 75.1099 23.8454 75.3724 23.8445C75.5336 23.8454 76.7142 23.799 76.3174 23.8046ZM76.7176 5.7566C76.5224 5.67916 76.3629 5.61903 76.2323 5.57088C75.1388 5.17659 76.2421 5.57757 75.9839 5.49664C76.064 5.52372 76.149 5.55286 76.2288 5.58046C76.3931 5.63746 76.5554 5.6959 76.7176 5.7566ZM19.886 21.7505C19.5768 21.7288 19.9417 21.7287 20.282 21.7634C20.3887 21.7743 20.0591 21.7627 19.886 21.7505ZM33.8419 23.1596C33.5798 23.107 34.8705 23.2813 34.3648 23.2313C34.3415 23.2291 33.8611 23.163 33.8419 23.1596ZM24.1161 22.0163C23.9036 22.0175 23.7658 22.0121 23.1693 21.971C24.0524 22.0219 23.2344 21.9609 24.1161 22.0163ZM59.1782 1.54425C59.1748 1.54329 59.172 1.54254 59.1726 1.54211C59.1763 1.54307 59.1779 1.54374 59.1782 1.54425ZM87.1528 12.3474C87.3271 12.5337 87.7785 13.1102 87.6528 12.932C87.6449 12.9083 87.2345 12.4119 87.1528 12.3474ZM9.4327 20.8253C9.46394 20.8381 9.44727 20.8339 9.39393 20.8169C9.39195 20.8146 9.4061 20.818 9.4327 20.8253ZM84.2209 9.98013C84.2477 9.98386 83.3671 9.40315 83.3294 9.38427C82.8117 9.07379 83.8611 9.73174 84.2209 9.98013ZM69.4165 23.9228C69.3652 23.9243 69.7021 23.9423 69.9223 23.9311C70.0884 23.9225 69.6142 23.9173 69.4165 23.9228ZM26.117 22.151C26.4414 22.1821 26.8985 22.236 26.9808 22.257C26.7642 22.227 26.1083 22.1566 26.117 22.151ZM33.3389 23.0801C33.2838 23.0746 33.2219 23.068 33.1498 23.0598L33.1665 23.0616C32.7206 23.0297 31.9908 22.9524 31.5001 22.8897C31.4923 22.8767 32.6285 23.0136 33.1669 23.0581L33.1502 23.0563C33.2287 23.0665 33.2915 23.0744 33.3389 23.0801ZM11.7191 21.3689C11.6914 21.3696 10.8555 21.205 10.9681 21.2353C11.1308 21.2922 11.955 21.4145 11.7191 21.3689ZM71.0223 23.9145C71.0247 23.9144 71.027 23.9143 71.0293 23.9143C71.156 23.9099 71.1316 23.9057 71.0292 23.9032C70.854 23.8984 70.3953 23.899 70.1523 23.9132C69.9498 23.9248 70.9669 23.9167 71.0223 23.9145ZM88.3776 14.2877C88.4799 14.5822 88.3934 14.2801 88.2696 13.984C88.1668 13.7259 88.0137 13.4698 87.9659 13.4026C88.0471 13.5339 88.1747 13.7702 88.2608 13.9877C88.3086 14.1058 88.3524 14.2196 88.3776 14.2877ZM74.5336 5.02371C75.9916 5.54453 75.2113 5.22209 74.9486 5.1387C74.9117 5.12684 74.4982 5.01107 74.5336 5.02371ZM21.0972 22.4377C20.8794 22.4248 21.6885 22.5057 21.7948 22.5032C21.8601 22.5017 21.2361 22.446 21.0972 22.4377ZM51.6901 0.784443C51.755 0.787085 51.822 0.789897 51.885 0.79262C51.8378 0.791041 51.773 0.788354 51.6901 0.784443ZM86.9443 18.6953C87.6385 17.8069 87.5101 17.8624 87.5687 17.7851C87.6792 17.6051 87.9297 17.1831 88.0953 16.8198C87.9061 17.2352 87.6907 17.6379 87.4506 18.0267C87.553 17.8737 88.0332 17.0978 88.3504 16.2985C88.7403 15.4586 88.47 14.5054 88.4553 14.5043C88.4576 14.3874 88.6099 15.5147 88.5412 15.5493C88.5354 15.5972 88.4784 15.7649 88.4518 15.8625C88.4423 15.8982 88.4037 16.0622 88.3143 16.284C88.0516 17.0334 87.1701 18.4526 86.9443 18.6953ZM77.5928 6.15128C77.3632 6.04577 77.301 6.00757 77.1923 5.96459C77.1552 5.95013 77.1444 5.95728 77.0175 5.90819C77.2107 5.98648 77.4019 6.06727 77.5928 6.15128ZM85.5799 20.2002C85.3346 20.4105 86.4129 19.4375 86.4215 19.3835C86.6016 19.212 85.811 20.0556 85.5799 20.2002ZM84.6504 10.2872C84.6942 10.312 85.5586 10.9525 85.5532 10.9466C85.3361 10.7571 84.1622 9.93297 84.6504 10.2872ZM76.8608 5.84547C76.6843 5.77373 76.427 5.67156 76.2229 5.5967C76.0255 5.52405 75.8797 5.47452 75.9149 5.49566C75.9155 5.49585 75.916 5.49604 75.9165 5.49623C76.0179 5.53163 76.1206 5.56799 76.2203 5.60377C76.4356 5.68111 76.6489 5.76159 76.8608 5.84547ZM72.2923 23.8605C71.6097 23.8445 71.9249 23.8735 72.5415 23.872C72.7239 23.857 72.409 23.863 72.2923 23.8605ZM70.0909 23.8714C69.8933 23.8698 67.9246 23.8954 68.2248 23.9062C68.3339 23.9104 69.4695 23.8859 69.5206 23.886C69.5998 23.8865 69.2382 23.9063 69.8423 23.8962C69.8072 23.8914 70.157 23.8723 70.0909 23.8714ZM71.7223 23.8523C71.0439 23.842 70.8816 23.8812 71.4011 23.8741C71.5976 23.8714 71.8215 23.8537 71.7223 23.8523ZM74.5171 23.8044C74.2701 23.8066 73.6185 23.815 73.1631 23.8355C73.7688 23.8256 74.3741 23.8142 74.9764 23.8004C75.0457 23.7917 74.7344 23.8027 74.5155 23.8044C74.516 23.8044 74.5166 23.8044 74.5171 23.8044ZM37.4066 23.4978C36.8793 23.3866 38.0997 23.6166 38.1526 23.6323C38.3049 23.6716 37.6415 23.5465 37.4066 23.4978ZM16.8954 21.7517C16.7454 21.7348 16.6483 21.7127 16.3168 21.6918C16.6487 21.7303 16.9808 21.7686 17.3131 21.8069C17.5737 21.8053 17.0596 21.7703 16.8954 21.7517ZM15.6314 21.5583C15.6785 21.5617 15.4246 21.5039 16.0301 21.5797C16.4391 21.6311 14.2056 21.4559 13.8041 21.4048C14.2498 21.4359 15.2262 21.5284 15.6314 21.5583ZM11.735 21.0651C11.7096 21.06 12.5578 21.1295 12.6558 21.14C13.1704 21.1954 11.8729 21.0926 11.735 21.0651ZM14.4396 21.3063C14.0425 21.265 14.9239 21.3364 15.1861 21.3629C15.2109 21.3718 14.5012 21.3126 14.4396 21.3063ZM32.0298 22.3199C31.6052 22.2465 31.2167 22.2514 31.8758 22.3199C31.9084 22.3232 32.0477 22.3231 32.0298 22.3199ZM12.5672 21.1009C12.9643 21.1424 12.0828 21.0704 11.8207 21.0436C11.7968 21.0348 12.5066 21.0946 12.5672 21.1009ZM31.7358 22.2268C31.1708 22.1403 31.3649 22.2229 31.4341 22.2343C31.7243 22.2826 32.7293 22.3692 32.9358 22.3809C31.4329 22.235 32.002 22.2637 31.7358 22.2268ZM29.1179 21.8993C28.5913 21.8265 29.9333 22.0411 30.1919 22.0602C29.9306 22.0239 29.2681 21.9202 29.1179 21.8993ZM25.904 21.4677C25.6175 21.4366 24.7626 21.3743 24.6177 21.3786C24.9325 21.3902 25.7818 21.4638 25.904 21.4677ZM25.2555 21.3877C24.8069 21.3449 24.6962 21.3754 25.2152 21.3981C25.2356 21.3991 25.2721 21.3896 25.2555 21.3877ZM22.7444 21.223C22.4533 21.1888 22.1166 21.2013 22.5907 21.2347C22.7309 21.2444 22.7754 21.2267 22.7444 21.223ZM31.0351 22.0746C30.6207 22.0132 30.0855 21.9646 30.9683 22.088C30.657 22.0506 30.3465 22.0109 30.0346 21.9694C31.1912 22.1493 31.1111 22.0963 31.444 22.1413C31.9098 22.2007 31.8687 22.2239 31.7743 22.2223C31.9888 22.2379 32.5792 22.3015 33.2307 22.3579C33.233 22.3581 33.2396 22.3588 33.2418 22.3591C33.7635 22.4256 34.3185 22.4958 34.7374 22.5455C34.3251 22.4913 33.7844 22.4169 33.2442 22.341C33.2418 22.3407 33.2348 22.3399 33.2324 22.3397C32.6906 22.2857 32.1534 22.2228 31.7473 22.1718C31.5159 22.1429 31.2884 22.1222 31.0924 22.0957C30.7741 22.0521 31.0583 22.0781 31.0367 22.0748C31.0362 22.0747 31.0356 22.0746 31.0351 22.0746ZM19.4439 21.0001C18.5802 20.9369 19.1254 21.0005 19.6137 21.0229C19.6346 21.0236 19.4654 21.0017 19.4439 21.0001ZM11.4372 20.8933C12.5839 21.0079 11.7478 20.9558 14.1518 21.1334C13.1412 21.0675 14.0946 21.1439 13.897 21.1354C13.7386 21.1286 13.1469 21.0717 13.4899 21.1152C13.0389 21.0613 11.0749 20.8947 10.9875 20.8847C10.9884 20.8848 10.9892 20.8848 10.99 20.8849C10.9376 20.8789 11.0713 20.8567 11.4372 20.8933ZM25.9083 21.3739C25.6215 21.3056 25.5043 21.3625 24.9358 21.2901C24.1746 21.2822 27.0316 21.4502 27.3643 21.5687C24.2879 21.1988 29.3886 21.8669 27.2525 21.5318C29.0124 21.7941 27.8314 21.602 28.1048 21.6304C28.3974 21.6621 29.3861 21.8211 29.3379 21.7974C29.3373 21.7973 29.3368 21.7972 29.3362 21.7971C28.7313 21.7076 28.1242 21.6164 27.5129 21.5366C28.106 21.6514 26.86 21.4719 26.436 21.404C26.2593 21.3926 26.0832 21.3825 25.9083 21.3739ZM29.3568 21.8544C29.2982 21.8442 27.9783 21.6531 28.0617 21.674C28.2396 21.7013 30.1086 21.9777 29.3568 21.8544ZM35.1618 22.575C34.6894 22.5198 33.9578 22.4194 33.6983 22.3989C34.1714 22.4607 34.9033 22.5585 35.1618 22.575ZM10.7117 20.4242C10.1271 20.3043 11.9204 20.6997 11.4035 20.5751C11.3767 20.5732 10.7394 20.4345 10.7117 20.4242ZM24.512 21.2837C23.9132 21.2382 24.1701 21.2923 24.6048 21.3074C24.6178 21.3078 24.6309 21.3082 24.6441 21.3086C24.6567 21.309 24.6351 21.304 24.6053 21.2985C24.5714 21.2921 24.5272 21.2848 24.512 21.2837ZM12.3679 20.9691C12.4102 20.9624 14.075 21.1139 14.3702 21.1391C14.2016 21.1345 12.3196 20.9769 12.3679 20.9691ZM35.997 22.6286C35.0632 22.4961 33.7796 22.3692 33.6398 22.3507C33.5007 22.3317 33.7209 22.3438 33.6892 22.3393C33.6658 22.3359 33.4848 22.3124 33.252 22.2819C33.2491 22.2816 33.2407 22.2806 33.2378 22.2804C32.7704 22.2392 32.0959 22.1657 32.048 22.1604C31.9969 22.1555 32.2604 22.2085 31.9564 22.1811C32.1738 22.2015 32.677 22.2557 33.2355 22.3058C33.2381 22.306 33.246 22.3069 33.2486 22.3072C34.2113 22.4341 35.3301 22.5712 35.4191 22.5782C35.5277 22.5875 34.7112 22.4747 35.9954 22.6284C35.9959 22.6285 35.9965 22.6285 35.997 22.6286ZM33.2901 22.3C33.421 22.3206 33.3756 22.317 33.2493 22.3019C33.2467 22.3016 33.2387 22.3007 33.236 22.3004C33.0049 22.2826 32.5184 22.2333 32.3552 22.2129C31.8469 22.1508 33.0001 22.2741 33.2367 22.293C33.2394 22.2933 33.2476 22.2942 33.2503 22.2945C33.2722 22.2975 33.2861 22.2994 33.2901 22.3ZM30.7834 22.0044C30.6664 21.9883 29.5986 21.8315 29.5063 21.8273C30.0097 21.9187 31.0507 22.0466 30.7834 22.0044ZM18.7696 20.8914C18.4874 20.8778 17.7097 20.8432 17.6649 20.8527C17.9485 20.8571 18.725 20.8976 18.7696 20.8914ZM18.0574 21.3738C17.5929 21.3272 18.6706 21.414 18.985 21.4436C19.0012 21.4513 18.0974 21.378 18.0574 21.3738ZM24.4124 21.1889C24.2481 21.1886 20.8688 20.9612 20.3885 20.9327C20.8579 20.9718 24.2055 21.2049 24.3578 21.1988C24.4018 21.2001 24.4334 21.1905 24.4124 21.1889ZM31.727 22.0603C32.0362 22.0835 32.2328 22.1212 32.2731 22.1259C32.5589 22.1595 33.0773 22.2089 33.2426 22.2284C33.2458 22.2286 33.2555 22.2298 33.2588 22.2302C33.3118 22.2387 33.3267 22.243 33.2837 22.2406C33.2752 22.2394 33.2666 22.2382 33.2579 22.237C33.2547 22.2366 33.2451 22.2355 33.2419 22.2352C32.5578 22.1738 31.121 22.0142 31.727 22.0603ZM18.5297 20.8183C17.3697 20.7747 19.5965 20.886 19.3046 20.8618C19.2859 20.8593 18.6501 20.822 18.5297 20.8183ZM24.7941 21.2054C25.054 21.1648 28.4713 21.569 28.9991 21.6782C28.5123 21.6264 28.1244 21.5512 27.4686 21.4653C27.2914 21.4425 27.3373 21.4572 27.3184 21.4547C27.012 21.4165 27.2426 21.4355 27.0531 21.4119C26.9364 21.3751 24.4321 21.1841 24.7941 21.2054ZM31.9031 22.0716C32.0038 22.0794 32.6493 22.1502 33.2449 22.2022C33.2484 22.2025 33.2587 22.2037 33.2622 22.2041C33.7779 22.2707 34.2501 22.3304 34.2893 22.3362C34.6255 22.3868 33.9704 22.3082 33.2607 22.2151C33.2574 22.2146 33.2473 22.2135 33.2439 22.2132C32.6274 22.1582 31.9785 22.0819 31.9031 22.0716ZM24.4808 21.1703C24.5143 21.1699 24.559 21.1704 24.6118 21.1716C25.1415 21.178 26.4444 21.3056 25.3868 21.2299C25.2892 21.2233 24.9211 21.19 24.6116 21.1759C24.5661 21.1737 24.5222 21.1718 24.4808 21.1703ZM18.6548 20.8011C18.5982 20.7945 17.3868 20.7496 17.3645 20.7603C17.5409 20.7591 19.3038 20.8367 18.6548 20.8011ZM19.2826 20.807C19.2534 20.8058 19.536 20.835 18.9695 20.8034C18.9224 20.8017 18.8354 20.7771 18.1212 20.7561C17.9764 20.7521 17.7512 20.7563 17.7676 20.7575C18.512 20.7951 20.7438 20.8853 19.2826 20.807ZM31.9433 22.0628C31.8314 22.0428 32.1042 22.0543 32.3486 22.091C32.4531 22.1066 32.2549 22.0986 31.9433 22.0628ZM14.8313 20.7486C15.5195 20.7529 13.3606 20.6968 13.2555 20.6679C13.3214 20.6923 14.7603 20.7579 14.8313 20.7486ZM19.1546 21.3682C19.154 21.3681 19.1535 21.3681 19.153 21.368C19.7377 21.419 19.3745 21.3995 19.4019 21.4021C20.6483 21.5193 20.3186 21.4684 20.514 21.4816C20.9329 21.5093 20.8631 21.5326 21.5694 21.5769C20.4024 21.5014 21.4637 21.5788 21.4961 21.5915C21.6233 21.6436 19.9457 21.4479 19.3633 21.4083C19.2821 21.4028 19.8791 21.465 19.6712 21.4518C18.9957 21.4091 16.909 21.171 19.1546 21.3682ZM32.538 22.1093C32.6296 22.1148 32.9186 22.1433 33.2476 22.1736C33.2512 22.1739 33.2623 22.1752 33.2659 22.1756C33.9112 22.2617 34.6882 22.3661 34.3277 22.3276C34.2838 22.323 33.7457 22.2567 33.2637 22.1927C33.2601 22.1923 33.2495 22.1911 33.246 22.1908C32.763 22.1465 32.3378 22.0969 32.538 22.1093ZM58.8812 2.43163C58.3886 2.3828 59.5258 2.53241 59.7358 2.55398C59.841 2.56301 59.098 2.45207 58.8812 2.43163ZM66.804 3.76976C67.3743 3.88364 67.9823 3.98091 67.2736 3.82852C67.1984 3.81203 66.7402 3.75003 66.804 3.76976ZM28.3068 1.72061C28.9226 1.70132 28.8837 1.67441 28.4329 1.7003C28.2744 1.70948 28.2869 1.72125 28.3068 1.72061ZM51.7906 1.71608C51.85 1.71879 52.5601 1.75244 52.5321 1.74508C52.2744 1.72522 51.3921 1.69167 51.7906 1.71608ZM28.1118 1.73596C28.4755 1.70967 27.8478 1.72513 27.4005 1.77045C27.6281 1.75637 28.0736 1.73868 28.1118 1.73596ZM23.2177 21.0314C22.9127 21.0245 22.0508 20.9617 21.5542 20.9283C21.502 20.9092 22.8653 21.013 23.2177 21.0314ZM64.3601 3.31934C64.9129 3.39663 63.7334 3.19922 63.8392 3.2309C63.8541 3.23407 64.3387 3.3163 64.3601 3.31934ZM9.52785 6.77726C9.63485 6.71903 9.60523 6.73076 9.52037 6.77166C9.32173 6.86713 8.83393 7.11964 9.05766 7.01538C9.07441 7.00705 9.47578 6.80397 9.52423 6.77916C9.52594 6.77827 9.52716 6.77763 9.52785 6.77726ZM4.64134 9.50529C4.89913 9.34538 6.02307 8.68165 5.58141 8.93165C5.51083 8.9691 4.65482 9.4844 4.64134 9.50529ZM20.5495 21.4732C20.3853 21.444 21.3456 21.5251 21.4829 21.5386C21.5367 21.5441 20.764 21.5115 20.5495 21.4732ZM32.2932 1.54958C32.6091 1.53854 33.4359 1.5266 33.5782 1.51669C33.1897 1.52305 32.1858 1.535 32.2932 1.54958ZM61.8319 2.89591C62.3139 3.0064 63.1411 3.14025 62.9403 3.08406C62.0267 2.92925 63.0506 3.13016 61.8319 2.89591ZM26.0476 1.85691C26.3067 1.84969 26.5036 1.81897 26.4744 1.81927C26.1945 1.82187 25.7899 1.85645 26.0476 1.85691ZM45.2191 1.56801C45.235 1.57739 46.0541 1.5851 45.9448 1.57758C45.9087 1.57491 45.2083 1.56023 45.2191 1.56801ZM12.519 20.545C12.1574 20.4957 13.2651 20.6135 13.5981 20.6344C13.7563 20.6648 12.5627 20.5609 12.519 20.545ZM19.1065 2.7927C19.0718 2.81195 20.3232 2.5646 19.8272 2.64758C19.7032 2.66773 19.1183 2.78531 19.1065 2.7927ZM8.02421 7.60272C8.76282 7.17281 5.61988 8.90375 6.45443 8.46413C6.51103 8.42858 7.95845 7.63522 8.02421 7.60272ZM3.02239 10.592C3.13598 10.5159 3.08901 10.5835 2.76017 10.8331C2.72936 10.8579 2.69634 10.8847 2.66074 10.9142C2.62915 10.9406 2.6959 10.8742 2.75153 10.8227C2.78473 10.791 2.8217 10.7589 2.80148 10.7732C2.79935 10.7746 2.77352 10.7944 2.74637 10.8165C2.5188 10.9673 1.95066 11.6468 1.94454 11.6968C1.91365 11.746 1.96339 11.6971 1.9329 11.747C1.90809 11.7856 1.68635 12.1242 1.58876 12.4339C1.55809 12.5254 1.54333 12.6218 1.53932 12.7035C1.55277 13.2981 1.67902 13.4037 1.67745 13.4497C1.72946 13.6081 1.82877 13.8831 1.99941 14.2109C2.24063 14.6785 2.57773 15.2097 2.94121 15.7727C3.75937 17.0475 5.43342 17.9463 6.38934 18.4555C5.18502 17.8287 4.04973 17.1643 3.23219 16.2037C3.35055 16.3233 3.10089 16.0496 2.92726 15.7817C2.68892 15.4196 2.48564 15.1123 2.91785 15.7573C2.80257 15.4821 1.27578 13.6399 1.57277 12.4288C1.81627 11.6815 2.40435 11.0769 2.73766 10.8061C2.86105 10.7053 2.97699 10.6243 3.02115 10.5929C3.02156 10.5926 3.02198 10.5923 3.02239 10.592ZM69.03 4.31777C68.8888 4.28544 69.096 4.3447 69.4014 4.43465C69.8527 4.56743 70.5179 4.76124 70.6105 4.77798C70.4543 4.72892 69.8231 4.54228 69.405 4.42223C69.1974 4.36248 69.0448 4.32134 69.03 4.31777ZM60.655 2.76652C60.4856 2.74483 60.3233 2.74642 59.4344 2.61582C59.4336 2.61571 59.4328 2.61561 59.432 2.61551C59.1715 2.57791 59.4699 2.60805 59.4225 2.59935C59.4056 2.59544 58.5919 2.47979 59.2694 2.56091C60.3001 2.68967 59.3639 2.5952 59.9123 2.66794C59.9804 2.67417 61.0136 2.81037 60.9537 2.80007C60.9477 2.79837 60.6377 2.75367 60.5865 2.7448C60.394 2.71033 60.4894 2.71482 60.4622 2.71031C60.3754 2.68997 58.7298 2.49467 58.4886 2.45591C58.4159 2.43328 61.1134 2.77569 61.209 2.81525C61.2744 2.82781 61.2423 2.84959 61.3096 2.86376C61.3252 2.86707 61.5497 2.90343 61.8032 2.94967C62.1254 3.00873 62.4944 3.07004 62.5727 3.08477C62.6139 3.09258 62.6454 3.09872 62.6685 3.10329C62.5042 3.06817 63.4967 3.23283 63.4642 3.23597C63.4468 3.23742 62.7643 3.12353 62.7396 3.11794C62.7289 3.11586 62.7197 3.11391 62.711 3.11218C62.778 3.12816 62.2831 3.04873 61.8012 2.96006C61.295 2.86699 60.7992 2.79522 61.0529 2.84338C60.3957 2.7475 61.1498 2.8352 60.655 2.76652ZM57.4551 2.37933C57.5249 2.38452 57.5938 2.3896 57.6637 2.3948C56.7739 2.29773 55.7766 2.17734 54.7543 2.03509C54.4341 1.99008 54.1198 1.95222 53.7995 1.92284C53.4642 1.89324 53.8476 1.9429 53.408 1.90225C53.0532 1.87068 52.6593 1.83236 52.8524 1.8403C52.9009 1.84142 53.6263 1.90059 53.9823 1.93818C54.457 1.98572 54.664 2.01427 54.7561 2.02204C54.8703 2.03286 54.8033 2.01917 54.8384 2.02369C54.9082 2.03325 55.5933 2.13333 55.9667 2.17775C56.9071 2.29109 57.3383 2.32728 58.6125 2.48883C57.8752 2.41208 58.2767 2.48036 57.4551 2.37933ZM14.1757 4.61318C14.1491 4.63361 13.7783 4.81517 13.4849 4.9667C13.3676 5.02702 13.2632 5.07791 13.1921 5.11283C13.2061 5.10186 13.3261 5.04332 13.4826 4.96229C13.7111 4.84341 14.0245 4.6885 14.1757 4.61318ZM55.33 22.9544C55.0921 22.9682 56.8714 22.9847 56.4026 22.9686C56.2995 22.9652 55.5522 22.9564 55.33 22.9544ZM63.3201 22.983C63.5574 22.9782 62.6028 22.9697 62.602 22.9814C62.6047 22.9853 63.2912 22.9837 63.3201 22.983ZM42.2762 1.60505C42.2313 1.60503 41.5767 1.59588 41.5562 1.59501C41.1225 1.57471 43.2774 1.60379 42.2762 1.60505ZM73.0356 22.8699C72.2078 22.8955 74.6999 22.8523 73.9388 22.8542C73.8988 22.8547 73.0706 22.869 73.0356 22.8699ZM76.4943 22.7817C76.2948 22.7902 75.4203 22.811 75.4066 22.8155C75.3918 22.8242 76.3923 22.7993 76.4943 22.7817ZM25.8743 1.92004C25.8836 1.92142 25.8813 1.92285 25.8691 1.92433C25.7612 1.93203 24.8023 1.97766 24.4436 2.02037C24.3494 2.00866 25.4762 1.92422 25.869 1.92021C25.8708 1.92016 25.8725 1.9201 25.8743 1.92004ZM33.2138 1.62019C28.3326 1.78252 29.4061 1.69395 33.5051 1.60685C33.5099 1.6179 33.5263 1.61382 33.2138 1.62019ZM26.9506 1.88715C27.13 1.86754 27.69 1.83993 28.0658 1.81898C27.9997 1.83054 27.2247 1.87211 26.9506 1.88715ZM53.2122 22.9101C53.5189 22.9001 54.8831 22.9304 54.64 22.9338C54.5848 22.9349 53.0987 22.9168 53.2122 22.9101ZM41.8649 1.61609C41.9791 1.63353 40.5051 1.61506 40.3925 1.61102C39.9377 1.59275 41.7454 1.61814 41.8649 1.61609ZM19.0748 2.87842C19.0259 2.89066 18.9595 2.90563 18.8814 2.92245C18.5687 2.98766 18.053 3.1122 17.6997 3.22034C17.8671 3.15747 18.4727 2.99272 18.8803 2.91667C18.9518 2.9026 19.0177 2.88965 19.0748 2.87842ZM22.4314 2.29358C22.4023 2.29748 21.7536 2.39867 21.7246 2.40375C21.1911 2.47498 23.0263 2.18995 22.4314 2.29358ZM18.3533 21.1753C18.3753 21.1768 18.8756 21.2191 18.8931 21.221C19.3387 21.2706 17.8372 21.1434 18.3533 21.1753Z" fill="#EC2025"/>
</svg>
