<svg width="25" height="26" viewBox="0 0 25 26" fill="none" xmlns="http://www.w3.org/2000/svg">
<path d="M6.4094 12.4667C6.45218 12.4339 6.62954 12.3083 6.70512 12.2525C6.62695 12.326 6.25487 12.5853 6.4094 12.4667ZM13.6807 6.04672C13.6188 6.09458 13.557 6.14245 13.4951 6.19035C13.6775 6.06369 13.9199 5.88929 14.0901 5.77299C14.118 5.75398 14.052 5.81226 14.1175 5.76661C14.1829 5.72094 14.1628 5.71909 14.2568 5.65105C14.3622 5.57468 14.8552 5.23914 15.0243 5.1206C15.5874 4.72514 16.1536 4.32425 16.7244 3.9351C16.7902 3.89025 16.8621 3.84115 16.9315 3.79389C16.8366 3.86122 16.7685 3.90987 16.7276 3.93967C16.6129 4.02275 16.6461 4.00394 16.7327 3.94714C16.8418 3.87568 17.0418 3.73874 17.1296 3.67571C17.1702 3.64697 17.1479 3.63033 17.8149 3.18171C18.2408 2.89765 17.8681 3.1898 18.5673 2.70012C18.0078 3.04578 18.5437 2.68589 18.975 2.40247C19.0486 2.35299 19.654 1.96532 19.9246 1.79729C20.0172 1.73905 20.1519 1.6409 20.2756 1.56552C20.3608 1.51361 20.429 1.48056 20.5569 1.40439C21.0385 1.12076 21.5159 0.84516 22.065 0.615783C22.2793 0.529763 22.4759 0.517655 22.6495 0.521961C22.117 0.555834 23.0593 0.54507 23.0668 0.587018C23.2651 0.614636 22.3698 0.521241 22.729 0.558376C23.0687 0.582651 23.3582 0.668746 23.626 0.749629C23.7963 0.802346 23.9746 0.880465 24.1409 1.02139C23.7309 0.635107 24.7314 1.57107 24.5487 1.86188C24.7925 1.98298 23.7656 3.89035 23.5201 4.05462C23.4758 4.10213 23.7709 3.8038 23.1382 4.51239C23.1323 4.51856 23.1263 4.52481 23.1203 4.53113C23.0501 4.60417 23.0701 4.57031 23.0341 4.60932C23.0124 4.63285 22.9006 4.79047 22.7462 4.92665C22.689 4.97484 23.0141 4.62594 22.2798 5.37316C22.5997 5.10366 21.25 6.39744 20.9869 6.6162C21.0399 6.57265 21.093 6.52879 21.1457 6.48514C20.8897 6.70791 20.8509 6.75544 20.7943 6.80664C20.5656 7.01268 20.2455 7.28724 20.0325 7.47779C19.7834 7.70045 19.7942 7.71448 19.4978 7.96662C19.5696 7.90855 19.6415 7.85036 19.7132 7.79216C19.5111 7.96945 19.3088 8.146 19.1065 8.32217C19.5581 7.89475 19.005 8.40983 18.9679 8.44281C18.9088 8.49573 18.9882 8.41345 18.8893 8.50175C18.8791 8.51093 18.8999 8.50465 18.7469 8.64005C18.4274 8.92286 18.4708 8.86991 18.3364 8.98806C18.3241 8.99895 18.3724 8.96707 18.1418 9.17259C17.4106 9.82641 18.141 9.16449 18.1689 9.13898C18.2052 9.10526 17.9294 9.30198 18.5646 8.7604C18.3513 8.94242 18.3204 8.94973 18.2964 8.97028C18.2751 8.98845 17.9124 9.31062 17.8929 9.32882C17.7177 9.49053 17.8816 9.35926 17.848 9.39141C17.8203 9.41744 17.3754 9.79512 17.2947 9.90964C17.0686 10.075 17.3959 9.78266 17.7437 9.46881C17.7908 9.41898 17.4028 9.75644 17.383 9.77462C16.89 10.2173 17.1788 9.98966 17.0812 10.0976C17.0299 10.1543 16.8199 10.3238 17.0181 10.172C16.5759 10.5775 16.8368 10.3237 16.8069 10.3484C16.7619 10.3859 16.6114 10.5323 16.5917 10.5496C16.5626 10.5748 16.6561 10.4786 16.5427 10.5798C16.5239 10.5967 16.3528 10.7722 16.5885 10.5621C16.2776 10.8476 16.3115 10.832 16.1924 10.9142C16.0091 11.143 16.0231 11.0414 15.9386 11.1186C15.7148 11.3245 15.801 11.2866 15.7904 11.2987C15.7164 11.381 15.1116 11.9625 14.9714 12.1161C15.0117 12.0405 15.4395 11.6436 15.5301 11.5503C15.8303 11.2345 15.086 11.9728 15.2905 11.7304C15.2018 11.8298 15.1147 11.9287 15.0273 12.0288C14.8445 12.1899 15.0775 11.9355 14.6295 12.411C14.5667 12.499 14.9479 12.0765 14.8779 12.1676C14.8361 12.2204 14.5753 12.495 14.5736 12.5032C14.5715 12.5117 14.8038 12.2608 14.7719 12.3048C14.698 12.3974 13.8412 13.3007 14.4801 12.6003C14.2991 12.7936 14.1843 12.873 14.0375 13.0496C13.9503 13.1555 14.4481 12.6565 13.8551 13.317C13.8079 13.3703 13.7537 13.4314 13.6922 13.5009C13.6778 13.5062 13.7609 13.4094 13.8486 13.3112C13.9349 13.2144 14.0255 13.1171 14.0296 13.1118C14.0413 13.0964 13.953 13.1451 13.9408 13.1564C13.9318 13.1648 13.8879 13.2137 13.8225 13.2882C13.573 13.5684 13.0337 14.2183 12.8914 14.3772C12.9702 14.304 12.2946 15.1341 12.2353 15.2343C12.2181 15.2601 12.2966 15.1744 12.2778 15.2016C12.1589 15.3702 11.8177 15.8114 11.6747 16.0265C11.5135 16.2665 11.5434 16.2421 11.5343 16.2555C11.4645 16.3617 11.5141 16.2728 11.4719 16.338C11.4041 16.4342 10.9864 17.123 10.9714 17.161C10.966 17.1714 11.0411 17.0631 10.9561 17.2164C10.943 17.2425 10.9359 17.2194 10.7221 17.6258C10.7137 17.6421 10.7046 17.6596 10.6946 17.6788C10.5179 18.024 10.6397 17.8025 10.7373 17.6339C10.7975 17.53 10.8476 17.4488 10.8048 17.5391C10.7825 17.5758 10.7629 17.6088 10.7457 17.6384C10.6007 17.8876 10.6159 17.8953 10.5708 17.9797C10.5532 18.0132 10.4099 18.2536 10.2889 18.5276C10.3741 18.3303 10.466 18.1349 10.5635 17.9391C10.4608 18.1285 10.2875 18.503 10.2184 18.661C10.184 18.7383 10.197 18.6682 10.1281 18.8383C10.1157 18.8744 10.0831 19.029 10.2573 18.5808C10.2836 18.5506 10.1848 18.7571 10.1497 18.8568C10.1445 18.8717 10.1393 18.9375 10.0813 19.058C10.0764 19.0868 10.1011 18.7392 9.89131 19.5995C9.88572 19.627 9.91718 19.5344 9.91186 19.5614C9.90649 19.5802 9.8547 19.7927 9.85305 19.8164C9.8494 19.8406 9.87774 19.7396 9.87364 19.7685C9.85254 19.9153 9.79251 20.1009 9.84506 19.801C9.8216 19.9009 9.80289 20.0013 9.79086 20.0979C9.82458 19.9956 9.78101 20.2542 9.79529 20.3744C9.81923 20.6289 9.87681 20.6955 9.89253 20.7268C9.90906 20.7509 9.90619 20.7388 9.90113 20.7223C9.89406 20.6998 9.8845 20.6679 9.90351 20.7013C9.90675 20.7067 9.90977 20.7117 9.91258 20.7163C9.98286 20.8041 9.88824 20.7757 10.0374 20.8759C10.0832 20.867 9.76738 20.8058 10.3324 20.9392C10.2288 20.936 10.1398 20.9171 10.0754 20.8879C10.0866 20.9384 10.3894 20.952 10.4226 20.9394C10.725 20.9034 10.5172 20.9636 10.9897 20.8214C11.0312 20.8069 11.1274 20.7797 11.2123 20.7402C11.2282 20.7329 11.2413 20.7266 11.2517 20.7214C11.3266 20.6843 11.3101 20.6899 11.2493 20.716C11.1159 20.7824 10.706 20.896 10.6917 20.8845C10.6818 20.8855 10.9925 20.8202 11.2442 20.7045C11.4454 20.6156 11.6214 20.5141 11.6353 20.5074C11.7747 20.4457 11.2198 20.7318 11.3298 20.6856C11.3871 20.7215 12.65 19.8596 12.8711 19.6122C13.1468 19.3723 13.2865 19.2759 13.2635 19.2492C13.363 19.2022 13.4118 19.1198 13.4456 19.0866C13.8522 18.6809 13.8515 18.6777 14.1884 18.3114C14.2626 18.23 14.3334 18.1686 14.3584 18.1385C14.3729 18.121 14.3358 18.1447 14.4083 18.06C14.5086 17.9439 15.145 17.2559 15.1983 17.208C15.2498 17.1606 14.9332 17.5042 14.9973 17.4492C15.2246 17.1996 15.4418 16.957 15.6781 16.7072C15.7764 16.6037 15.7313 16.6622 15.774 16.6173C15.7863 16.6042 15.9471 16.4314 16.0447 16.3287C16.0886 16.2822 16.1189 16.2494 16.1137 16.2535C16.1082 16.2578 16.0814 16.2842 16.0408 16.3248C15.7886 16.5696 15.0775 17.3511 15.2997 17.0922C15.3497 17.0336 15.5469 16.8451 15.5026 16.8629C15.6749 16.6784 15.8498 16.4948 16.0292 16.3134C16.7912 15.5437 17.5466 14.7346 18.4136 14.0087C17.8117 14.5332 17.1811 15.1494 16.6177 15.7304C16.5401 15.8103 16.2783 16.0768 16.3174 16.0513C16.7961 15.5625 17.3928 14.9391 17.895 14.4874C17.9111 14.4729 17.859 14.5336 17.9195 14.4798C18.0306 14.3782 18.3936 14.041 18.4625 13.9917C18.4734 13.9829 18.2662 14.1752 18.3366 14.1255C18.5171 13.9981 18.5325 13.9283 18.6821 13.8096C18.7887 13.7086 19.6269 13.1505 19.8652 13.0365C20.095 12.8883 19.2025 13.4044 19.2708 13.3653C19.5578 13.1675 19.8711 12.9888 20.2055 12.8503C20.5165 12.5971 21.5366 12.8787 21.5342 13.4643C21.5368 13.4812 21.5196 13.3336 21.5588 13.5449C21.5935 13.8917 21.5465 13.9521 21.5276 14.0929C21.5139 14.1727 21.4734 14.355 21.4252 14.5056C21.3874 14.6272 21.3506 14.7332 21.3392 14.7598C21.3361 14.767 21.3538 14.6739 21.3576 14.6605C21.3779 14.5927 21.3952 14.5405 21.4095 14.5007C21.4375 14.4214 21.4528 14.3902 21.4567 14.3766C21.477 14.3043 21.4878 14.2308 21.5018 14.1619C21.5235 14.0485 21.5425 13.9843 21.5519 13.8167C21.5549 13.6968 21.5428 13.8132 21.5421 13.6964C21.5711 13.6742 21.4576 13.1055 21.3295 13.0625C21.4296 13.0601 21.66 13.9107 21.4011 14.4981C21.1563 15.3226 20.6623 16.249 20.5813 16.3938C20.7044 16.178 20.8214 15.9575 20.9305 15.7323C20.7109 16.191 20.4206 16.7227 20.3709 16.7427C19.771 17.7486 19.0499 18.6469 18.4191 19.5645C18.0095 20.1178 17.6428 20.4433 17.6307 20.8811C17.6394 20.8462 17.5946 20.7695 17.5938 20.7775C17.6788 20.8156 17.5846 20.8472 18.0046 20.895C17.8916 20.8796 17.7765 20.8534 17.6919 20.8192C17.7415 20.8382 17.8928 20.8756 18.0639 20.8843C18.4478 20.9134 18.9791 20.76 19.0961 20.7154C19.1186 20.7065 19.1428 20.6841 19.4118 20.5814C19.6516 20.4874 19.6967 20.4819 19.8287 20.431C19.9396 20.3877 20.0642 20.3324 20.098 20.3195C20.1239 20.3096 20.1371 20.3132 20.1999 20.2895C20.3991 20.215 20.2294 20.2562 20.4377 20.2046C20.3895 20.2241 20.3417 20.2439 20.2942 20.2638C20.534 20.1716 20.8792 20.0654 20.5178 20.2016C20.4566 20.2257 20.5066 20.1982 20.4607 20.2155C18.7359 20.9204 20.0887 20.3642 20.7335 20.1219C20.7816 20.1092 20.8902 20.0743 21.0263 20.0367C21.4664 19.7776 22.2281 20.417 22.1407 20.4315C22.1668 20.4801 22.0529 20.3127 22.1832 20.5433C22.2701 20.6165 22.6513 21.8211 22.4985 21.3922C22.4697 21.3086 22.2827 20.7173 22.1776 20.5565C22.3318 20.8731 22.5113 21.4494 22.5963 21.67C22.6117 21.7123 22.6226 21.7415 22.6269 21.7546C22.679 21.9089 22.6269 21.7793 22.5867 21.6732C22.5521 21.5816 22.5253 21.5137 22.5759 21.6767C22.5905 21.7231 22.6107 21.7856 22.6412 21.8709C22.8544 22.4298 22.6663 21.9016 22.7574 22.1115C22.7988 22.2341 23.0919 22.8343 23.1115 22.7997C23.2329 22.9897 23.1527 22.8847 23.1665 22.9088C23.1767 22.9358 23.4415 23.291 23.5389 23.3979C23.5501 23.4115 23.504 23.3783 23.5152 23.3926C23.5329 23.424 23.8386 23.7295 23.856 23.7376C23.8644 23.7447 23.7964 23.666 23.8293 23.693C23.8639 23.7271 24.1839 24.0021 24.2072 24.0126C24.2323 24.0319 23.834 23.6968 23.9097 23.743C24.0812 23.9061 24.4016 24.1416 24.5403 24.2302C24.506 24.2089 24.3152 24.0658 24.2525 24.0141C24.2907 24.0248 24.7028 24.3314 24.5532 24.2381C24.6484 24.2986 24.5889 24.2497 24.6443 24.2813C24.6586 24.2896 24.789 24.3839 24.8164 24.3998C24.8199 24.4016 24.6893 24.2983 24.7185 24.3149C24.7696 24.3439 25.1705 24.636 25.2027 24.6633C25.2926 24.7355 24.9605 24.4989 24.9291 24.4863C24.9242 24.4839 25.1942 24.6996 25.1979 24.7047C25.2054 24.7272 24.9015 24.4924 24.9295 24.529C25.0046 24.5868 25.0797 24.6449 25.1547 24.7037C24.848 24.4946 24.317 24.1046 24.1833 24.0096C24.5904 24.3259 25.0604 24.6514 25.0373 24.6799C25.0286 24.6907 24.8352 24.5602 24.8406 24.5687C24.8605 24.5985 25.1307 24.7787 25.1401 24.7872C25.1476 24.7937 25.1509 24.797 25.1504 24.7976C25.1504 24.7976 25.1504 24.7976 25.1504 24.7976C25.1455 24.802 24.7696 24.5349 24.7492 24.5248C24.7143 24.507 24.8653 24.647 24.8618 24.6514C24.8554 24.648 24.5874 24.4613 24.671 24.5337C24.7552 24.6065 24.9873 24.7753 24.9951 24.7826C25.0356 24.8187 24.6271 24.529 24.6132 24.5232C24.6056 24.5199 24.8171 24.6861 24.8216 24.6932C24.8252 24.6996 24.6559 24.5854 24.5852 24.546C24.5326 24.5167 24.6704 24.6235 24.645 24.6065C24.6259 24.5945 24.247 24.3163 24.2294 24.3022C24.201 24.2829 24.2832 24.3561 24.2692 24.3482C24.249 24.3372 24.131 24.2425 24.1447 24.2569C24.1523 24.2699 24.609 24.6435 24.6025 24.6469C24.5886 24.6545 24.1023 24.2595 24.5407 24.6463C24.5438 24.6491 24.6609 24.7291 24.664 24.7317C24.729 24.791 24.3521 24.5364 24.8038 24.8607C23.9564 24.2667 24.6874 24.8017 24.5504 24.7302C24.4971 24.7033 24.1709 24.4678 24.1692 24.4667C24.1937 24.4993 24.3017 24.569 24.3338 24.5991C24.3509 24.6165 24.0553 24.4096 24.1156 24.4642C24.1461 24.4939 24.4554 24.7196 24.4678 24.7287C24.5859 24.8233 24.4312 24.7208 24.4551 24.7445C24.471 24.7603 24.6572 24.8954 24.6614 24.8992C24.6689 24.9061 24.4076 24.7344 24.3518 24.6995C24.3095 24.6733 24.4567 24.7878 24.4277 24.7686C24.2528 24.6554 23.9105 24.3653 24.2342 24.6517C24.2541 24.6693 24.3854 24.7642 24.3891 24.7673C24.4642 24.8342 24.2224 24.6593 24.1747 24.6332C24.0921 24.5897 24.4436 24.8397 24.1493 24.6344C24.3598 24.8024 24.4824 24.888 24.7334 25.0681C24.0331 24.5695 23.7606 24.4115 24.5402 24.9801C24.2938 24.8011 24.3085 24.8367 24.2345 24.7831C24.188 24.7514 23.8409 24.4615 23.978 24.6235C23.9952 24.6447 24.2187 24.8017 24.1431 24.7601C23.6192 24.3603 24.1273 24.7595 24.1272 24.7594C24.0958 24.8121 22.8429 23.7021 22.7273 23.4076C22.5303 23.1341 22.376 22.878 22.3429 22.8133C22.2361 22.5982 22.3343 22.7723 22.314 22.7223C22.285 22.6756 22.0112 22.061 22.0086 22.0263C21.9708 21.9032 22.0255 22.0226 22.0218 22.0096C22.014 21.9831 21.9985 21.936 21.9783 21.8732C21.8861 21.583 21.6992 21.0038 21.6206 20.8811C21.6197 20.8775 21.7799 21.2766 21.6671 21.0327C21.532 20.7678 21.5505 20.781 21.5489 20.766C21.4447 20.6461 21.4177 20.6427 21.2114 20.6886C20.2499 20.9488 19.2881 21.6329 18.0386 21.6081C17.7199 21.5678 17.4302 21.6204 17.0339 21.2407C17.059 21.3869 17.6854 21.6372 18.0383 21.6168C18.2148 21.6219 18.3463 21.6089 18.355 21.6095C18.4011 21.6091 18.2653 21.6301 18.038 21.6251C17.7786 21.54 17.1024 21.8083 16.8852 20.8313C16.9062 20.4908 17.0338 20.2277 17.0711 20.1564C16.9791 20.3338 16.9126 20.5359 16.8852 20.7406C16.8598 20.3582 17.3218 19.6905 17.5765 19.4117C17.656 19.3105 17.4916 19.4958 17.4931 19.4929C17.5848 19.3704 17.7249 19.2054 17.6306 19.3414C17.7175 19.2269 17.7548 19.1728 17.7849 19.131C17.8341 19.0617 17.8665 19.022 17.9602 18.8891C17.9686 18.8774 17.8918 18.9706 18.0167 18.787C18.075 18.7 18.3978 18.2531 18.4344 18.1898C18.4495 18.1633 18.2576 18.3685 18.2619 18.4141C17.8993 18.8934 18.161 18.5776 18.0245 18.7677C18.0054 18.7956 18.0319 18.7273 17.7671 19.1189C17.7518 19.1418 17.7344 19.167 17.7144 19.1947C17.7205 19.1773 17.7373 19.1484 17.7585 19.113C17.8793 18.9144 18.1667 18.5379 18.2198 18.4599C18.3333 18.2919 17.9265 18.832 17.7524 19.1088C17.7274 19.1489 17.7055 19.1826 17.6938 19.204C17.7173 19.1324 17.6617 19.2462 17.522 19.4113C17.3673 19.5966 17.4284 19.5111 17.3425 19.6182C17.1068 19.9349 17.211 19.8039 17.0246 20.1046C17.2043 19.8591 16.8394 20.4167 16.8261 20.8273C16.8119 20.9642 16.8522 21.1063 16.8958 21.1874C16.8357 21.079 16.8092 20.9403 16.8181 20.8268C16.8369 20.4056 17.0389 19.9965 17.258 19.7089C17.2418 19.7266 17.2256 19.7447 17.2094 19.7632C17.2751 19.6717 17.3424 19.5879 17.4074 19.5091C17.3988 19.5232 17.3902 19.5375 17.3815 19.5519C17.6208 19.2468 17.6989 19.153 17.7394 19.0999C17.7571 19.0767 17.7679 19.0632 17.7744 19.054C18.0816 18.61 18.4472 18.1176 18.7553 17.6867C18.8005 17.6219 18.761 17.6583 19.0983 17.1926C19.2046 17.0434 19.1174 17.1932 19.2319 17.0203C19.3487 16.7873 19.366 16.8052 19.408 16.7408C19.5269 16.5559 19.5889 16.4372 19.5995 16.4199C19.7399 16.1888 19.9341 15.8463 20.0627 15.5825C20.0651 15.5775 19.9881 15.7095 20.0756 15.5405C20.1071 15.4822 20.4077 14.9574 20.5572 14.4549C20.5112 14.583 20.4622 14.7095 20.41 14.8352C20.4395 14.7663 20.5394 14.498 20.6101 14.2543C20.689 13.9926 20.694 13.8001 20.6751 13.9143C20.6614 13.9869 20.6363 14.1286 20.6002 14.2512C20.5682 14.3618 20.5367 14.4519 20.5187 14.4677C20.5359 14.4205 20.5615 14.346 20.592 14.2487C20.6848 13.7911 20.8552 13.5133 20.546 13.6629C20.2452 13.79 20.0193 13.9317 19.9732 13.9561C19.9543 13.9662 20.0637 13.8915 20.0376 13.9057C20.0159 13.9122 19.6283 14.1639 19.5771 14.2015C19.5457 14.2207 19.712 14.0989 19.6968 14.1062C19.6817 14.1072 19.2062 14.4535 19.1883 14.4875C19.2984 14.3911 19.6283 14.1558 19.4619 14.2884C19.4405 14.3052 19.3229 14.3852 19.2976 14.407C19.0594 14.6034 19.7932 14.0441 19.9174 13.9858C19.4405 14.2869 18.7338 14.861 18.2428 15.3487C18.0345 15.5347 18.5338 15.0546 18.2995 15.2661C17.8153 15.7094 18.1819 15.3954 18.1678 15.4102C18.056 15.528 17.6269 15.8888 17.6527 15.9156C17.48 16.0826 17.5314 16.0236 17.2969 16.2703C17.33 16.24 17.3632 16.2096 17.3962 16.1795C17.2018 16.4017 16.7927 16.7823 16.6407 16.9144C16.5999 16.9498 16.5786 16.9671 16.587 16.9573C16.5996 16.9425 16.6151 16.9253 16.6327 16.9066C16.7633 16.768 17.0001 16.5429 17.0216 16.5203C17.0581 16.4824 17.1334 16.3495 17.56 15.9627C17.7072 15.7763 16.9095 16.6038 17.2629 16.2176C17.1529 16.3318 16.8862 16.6038 16.6087 16.883C16.276 17.2169 15.9427 17.58 15.8692 17.6689C15.8534 17.6885 15.9499 17.6186 15.6991 17.8759C15.5801 17.9981 15.8562 17.6936 15.7997 17.7476C15.6378 17.9084 13.4219 20.3745 12.8275 20.7149C12.7941 20.7404 12.8018 20.725 12.7686 20.7501C12.6696 20.8288 12.2919 21.1055 12.0858 21.2157C12.4461 21.0117 11.9108 21.353 11.5922 21.4851C11.5402 21.5083 11.4935 21.5271 11.462 21.5394C11.1072 21.6688 11.1222 21.6378 10.9631 21.6772C10.5342 21.8082 9.48894 21.8057 9.18541 21.0985C9.11206 20.9547 9.07551 20.8193 9.0572 20.7083C8.98918 20.7328 9.0042 19.8043 9.13373 19.4534C9.20257 19.1621 9.32591 18.7545 9.19041 19.129C9.34184 18.6401 9.55021 18.1576 9.75523 17.7413C9.78943 17.6722 9.75009 17.7701 9.80784 17.6537C9.8127 17.6439 9.81307 17.6234 9.86323 17.5243C9.92272 17.407 9.97076 17.3159 10.0077 17.2461C10.2401 16.814 10.1057 17.0926 10.1807 16.9652C10.2301 16.8824 10.2667 16.8211 10.2929 16.7762C10.2039 16.933 10.113 17.0995 10.0297 17.2578C9.86683 17.5643 9.72878 17.8477 9.68203 17.9475C9.72373 17.8822 9.87735 17.5652 10.0372 17.2618C10.1713 17.0031 10.3139 16.747 10.3865 16.6279C10.392 16.6188 10.3824 16.656 10.3879 16.6468C10.388 16.6466 10.3881 16.6464 10.3882 16.6462C10.4434 16.5452 10.8264 15.9219 10.7368 16.0434C10.7125 16.0758 10.531 16.3601 10.3323 16.7071C10.3846 16.6123 10.3339 16.6763 10.343 16.6595C10.4524 16.4549 10.7613 15.9783 10.8744 15.8121C10.8999 15.7738 10.8918 15.7724 10.8959 15.7661C10.9981 15.6146 10.9744 15.6888 11.0609 15.521C11.2674 15.2611 10.7198 16.0393 10.7743 15.995C10.7922 15.9431 12.017 14.2274 12.0135 14.2331C12.0198 14.2288 12.0399 14.2077 12.0792 14.1632C12.1653 14.0634 12.5339 13.6096 12.5968 13.5309C12.6071 13.5174 12.5871 13.5094 12.6005 13.4931C12.6308 13.4547 13.0383 12.9986 13.2341 12.7681C13.2506 12.7486 13.2655 12.7306 13.2785 12.7145C13.2628 12.7315 13.2471 12.7486 13.2314 12.7656C13.1498 12.8543 13.0684 12.9435 12.9873 13.033C13.0849 12.9207 13.1636 12.8311 13.2255 12.7605C13.5286 12.4176 13.436 12.5143 13.2718 12.6904C13.2621 12.7013 13.2521 12.7114 13.2428 12.7217C13.2338 12.7315 13.2246 12.7414 13.2154 12.7515C13.0686 12.9109 12.8987 13.1011 12.8949 13.1033C12.8888 13.1066 13.0343 12.9349 13.2045 12.7419C13.4673 12.4425 13.7932 12.0981 13.6846 12.232C13.6584 12.2617 13.1943 12.7636 13.4308 12.5213C13.4711 12.479 13.766 12.1522 13.7828 12.1374C13.8935 12.0295 13.2573 12.7456 13.3479 12.6696C13.4924 12.4872 13.6989 12.2715 13.8787 12.075C13.9607 11.9854 13.9737 11.957 13.9838 11.9459C14.1357 11.7823 14.057 11.8807 14.1084 11.8264C14.1358 11.7965 14.4257 11.4653 14.3905 11.547C15.3992 10.5057 14.6496 11.2378 14.0359 11.8836C14.2212 11.6708 14.6112 11.2821 14.7859 11.1065C14.8482 11.0435 14.8034 11.0728 14.9086 10.9663C15.1216 10.7422 16.2019 9.74533 16.4899 9.49527C16.3185 9.65573 16.3771 9.61805 16.5108 9.49584C16.6446 9.37384 16.5215 9.46444 16.5466 9.43954C16.5729 9.41214 17.2106 8.85189 17.3152 8.75793C16.8414 9.18563 16.9567 9.09826 17.3628 8.74012C17.3063 8.79447 17.25 8.84876 17.1936 8.90319C17.4278 8.68868 17.9401 8.26207 18.0744 8.1376C18.0955 8.11804 18.0115 8.17883 18.0233 8.16784C18.1415 8.05882 18.5585 7.70646 18.5753 7.68726C18.5897 7.67102 18.4094 7.81839 18.4717 7.75846C18.4847 7.74594 18.6621 7.60782 18.8258 7.45963C18.8866 7.40466 18.8435 7.43039 18.8586 7.41638C18.9848 7.2995 18.919 7.3781 19.1528 7.16842C19.324 7.01464 19.4423 6.89 19.6824 6.68197C18.8905 7.36108 19.5522 6.78522 19.8717 6.48929C19.9228 6.4417 19.8679 6.47016 20.1817 6.19578C19.5446 6.81347 20.3807 6.03862 20.5504 5.87913C20.5598 5.87051 20.5704 5.87563 20.6542 5.79802C20.6612 5.79142 20.6461 5.79556 20.7233 5.72273C21.4518 5.02885 20.9893 5.47583 21.1332 5.34992C21.1945 5.2966 21.5385 4.94922 21.6314 4.85606C21.6529 4.8348 21.6487 4.84987 21.7314 4.76745C21.8776 4.62146 22.0025 4.48352 22.0973 4.38577C22.1082 4.37428 22.118 4.38268 22.295 4.19389C22.3446 4.14088 22.3979 4.07898 22.324 4.15101C22.0795 4.39086 21.6344 4.86522 21.3468 5.12601C21.0865 5.3654 21.8835 4.58635 21.9216 4.54242C21.9366 4.52731 21.7873 4.68608 21.9441 4.52985C22.0776 4.39682 22.3031 4.13568 22.4993 3.93428C22.5013 3.93223 22.506 3.92777 22.5127 3.9216C22.5514 3.88717 22.6688 3.77529 22.663 3.78269C22.6605 3.78643 22.5834 3.87633 22.5288 3.93688C22.4875 3.98294 22.4573 4.01733 22.473 4.0039C22.4748 4.00228 22.5013 3.97462 22.5333 3.94113C22.5749 3.89801 22.6292 3.8388 22.6421 3.82754C22.6669 3.80679 22.7616 3.76713 22.7915 3.73325C22.8688 3.64535 22.8116 3.69768 22.8604 3.63962C22.969 3.51945 23.3044 3.07114 23.2957 3.04553C23.2451 3.12162 23.1926 3.19667 23.1381 3.27116C23.4263 2.84964 23.2934 3.02387 23.3318 2.96275C23.3693 2.89565 23.3718 2.92186 23.4569 2.77617C23.4947 2.74586 23.7536 2.12251 23.718 2.13746C23.6279 2.47535 23.6393 2.34734 23.6379 2.36182C23.6139 2.42078 23.5898 2.50108 23.5501 2.58164C23.2464 3.14221 23.5417 2.56957 23.4659 2.70009C23.4408 2.74466 23.3957 2.83899 23.3838 2.85778C23.3454 2.91918 23.3354 2.91448 23.3105 2.95599C23.2516 3.05262 23.3353 2.94923 23.3311 2.95709C23.2883 3.0497 23.0473 3.37125 23.1767 3.15745C23.0865 3.27659 23.0918 3.30244 23.0139 3.39347C22.8568 3.57281 23.0774 3.29275 23.1285 3.21195C23.3109 2.925 23.3888 2.84315 23.578 2.42739C23.6434 2.27702 23.6788 2.10385 23.6863 2.04329C23.7144 1.98772 23.7068 1.69385 23.643 1.7385C23.6268 1.68681 23.5389 1.57797 23.3861 1.52841C23.3612 1.51998 23.3373 1.51232 23.3147 1.50572C23.1464 1.4573 23.1955 1.49219 23.1795 1.48811C23.1549 1.48133 22.9595 1.42973 22.8961 1.42212C22.8216 1.41201 22.8556 1.42339 22.7423 1.41147C22.4726 1.39671 22.5052 1.40092 22.4778 1.3977C22.433 1.40236 22.4087 1.41001 22.393 1.41606C22.2415 1.47873 22.3374 1.45835 22.2736 1.48801C22.2044 1.50137 21.1693 2.04583 20.9608 2.1899C21.0471 2.13418 21.1304 2.08082 21.2171 2.02638C21.0541 2.10644 20.8991 2.22203 20.8855 2.20516C20.8717 2.25316 20.5389 2.42817 20.444 2.48882C20.4064 2.51261 20.4123 2.51591 20.3653 2.5455C20.181 2.66081 19.765 2.92184 19.6675 2.98933C19.2453 3.27791 20.3547 2.58616 20.4443 2.5375C20.2679 2.6421 19.2947 3.28213 19.7529 3.00509C19.8239 2.96215 19.9387 2.8699 19.9776 2.84438C20.2406 2.67197 20.0395 2.81659 20.061 2.80445C20.0975 2.7836 20.2648 2.66179 20.3121 2.63424C20.3278 2.62513 20.235 2.69746 20.4891 2.53959C20.3698 2.62525 19.6546 3.07098 19.5641 3.1356C19.5317 3.15867 19.7526 3.04253 19.1352 3.4204C19.1435 3.41779 19.1518 3.41518 19.1602 3.41257C18.826 3.63575 18.4929 3.86233 18.1592 4.09197C18.1926 4.06233 18.3742 3.92462 18.1388 4.08851C18.0059 4.18127 18.1117 4.12378 18.0997 4.13246C18.0513 4.16693 17.7012 4.40854 17.2593 4.71349C16.5664 5.18845 15.6652 5.81716 15.4119 5.99621C15.2709 6.09553 14.8835 6.38043 14.8537 6.40177C14.675 6.52868 14.0373 6.97184 13.9118 7.06278C13.8334 7.11949 13.9145 7.07475 13.8437 7.12435C13.7779 7.17045 13.84 7.11411 13.8203 7.12757C13.6567 7.23855 12.4408 8.12027 12.1449 8.32003C12.324 8.19559 13.1985 7.54808 13.1766 7.55514C13.1722 7.55708 12.9524 7.70415 12.9101 7.73883C12.8317 7.78401 12.595 7.98507 12.455 8.07854C12.4391 8.08911 12.4916 8.03349 12.2454 8.2057C12.1606 8.26502 11.9467 8.43179 11.7171 8.57964C11.6786 8.60803 11.6198 8.65043 11.546 8.70321C11.0138 9.08316 9.6876 10.0185 9.59547 10.1026C9.59295 10.1054 9.83383 9.939 9.67707 10.0598C9.46739 10.2213 9.64336 10.0586 9.39353 10.2352C9.35463 10.2626 8.66725 10.7618 8.64547 10.7799C8.44632 10.9439 9.05305 10.5143 9.04555 10.5221C9.02753 10.541 8.52845 10.9047 8.50724 10.9187C8.48729 10.9317 8.88321 10.6188 8.39662 10.9805C8.45419 10.9421 8.51258 10.9032 8.57024 10.8647C8.34123 11.0364 8.31187 11.0391 8.2551 11.079C8.07889 11.2029 7.90461 11.3573 7.61029 11.5358C7.53228 11.5832 7.64958 11.4878 7.63969 11.4936C7.54532 11.5495 7.44847 11.6532 7.30393 11.7333C7.29306 11.7394 7.59494 11.505 7.05487 11.8975C7.09315 11.8721 7.13141 11.8466 7.16965 11.8212C7.09619 11.8798 6.55128 12.2799 6.4773 12.3328C6.26104 12.487 6.43984 12.3392 6.22542 12.498C6.37474 12.4122 5.72106 12.8937 5.74918 12.853C5.67023 12.9363 5.10512 13.3319 4.84412 13.5244C4.68005 13.6452 4.35012 13.9011 4.29717 13.9392C4.23294 13.9854 4.24412 13.9595 4.1279 14.0421C4.09359 14.0665 3.75974 14.328 3.45247 14.5409C3.3929 14.5822 3.25911 14.6532 3.36156 14.5686C3.53871 14.4223 3.90013 14.1761 3.88649 14.1688C3.8727 14.1601 3.4067 14.5202 3.28147 14.6125C2.69459 15.0445 3.0201 14.7787 3.00295 14.7854C2.95568 14.8062 2.64024 15.0467 2.62637 15.0562C2.56823 15.0946 2.78884 14.9146 2.78703 14.9071C2.78567 14.8962 2.46991 15.1161 2.53768 15.0604C2.63262 14.9819 2.92235 14.7793 2.94026 14.7651C3.16822 14.5811 2.83393 14.807 2.74237 14.8635C2.71417 14.8809 2.81537 14.7972 2.79309 14.8129C2.44884 15.0568 2.7394 14.8917 2.51661 15.0581C2.51025 15.0629 2.50436 15.0673 2.49891 15.0713C2.3983 15.1458 2.4424 15.105 2.49167 15.0618C2.52333 15.034 2.55769 15.0049 2.55461 15.0068C2.55128 15.009 2.52396 15.0296 2.48778 15.0568C2.41091 15.1145 2.29405 15.2023 2.26712 15.2188C2.25884 15.2238 2.35861 15.1402 2.47619 15.0416C2.63619 14.907 2.83409 14.7413 2.8141 14.7474C2.69804 14.8376 2.57621 14.9325 2.46149 15.0224C2.38357 15.0835 2.30584 15.1443 2.22859 15.2052C2.20967 15.2044 2.36639 15.0886 2.45946 15.0198C2.49027 14.997 2.51407 14.9794 2.52117 14.9734C2.55868 14.942 2.49719 14.9835 2.45336 15.0118C2.43052 15.0266 2.41209 15.0381 2.41343 15.035C2.41395 15.0334 2.42935 15.0196 2.44708 15.0036C2.48909 14.9656 2.54487 14.9147 2.43811 14.9919C2.43369 14.9951 2.429 14.9985 2.42402 15.0022C2.36308 15.0471 2.24301 15.1517 2.02047 15.3112C2.76759 14.7155 2.23788 15.1129 2.21159 15.1254C2.18618 15.1378 2.54024 14.8485 2.10223 15.1887C2.06407 15.1786 2.10538 15.1734 2.22701 15.0729C2.35508 14.9674 2.10743 15.1465 2.39211 14.9318C2.43823 14.8971 2.49911 14.8515 2.58047 14.7909C2.56384 14.7961 2.47955 14.8561 2.38665 14.9247C2.24599 15.0285 2.08038 15.1562 2.06592 15.1668C2.04475 15.1818 2.14003 15.0989 2.10298 15.1245C1.66647 15.4296 1.96219 15.2148 1.82993 15.296C1.81716 15.3019 1.42494 15.6172 1.71885 15.3714C2.00454 15.1366 2.21256 14.9873 2.35113 14.8783C2.47213 14.7838 2.54492 14.7203 2.57652 14.6699C2.49407 14.728 2.41031 14.7894 2.32967 14.8503C1.98192 15.1102 1.65465 15.396 1.55911 15.4795C1.37632 15.6361 1.5601 15.4673 1.536 15.4847C1.52724 15.4903 1.37079 15.6269 1.36857 15.6287C1.23219 15.6926 2.03965 15.0631 2.3287 14.849C2.33511 14.844 2.34126 14.8392 2.34711 14.8345C2.34062 14.8389 2.33414 14.8433 2.32767 14.8477C2.25951 14.8941 2.19128 14.9404 2.12313 14.987C2.18837 14.9366 2.25371 14.8865 2.31896 14.8363C2.35018 14.8123 2.38167 14.7882 2.41345 14.7638C2.37534 14.7919 2.34369 14.8152 2.31751 14.8344C2.13368 14.9696 2.20612 14.9135 2.31123 14.8262C2.37701 14.7715 2.45808 14.7027 2.49427 14.6627C2.51627 14.6381 2.21646 14.8801 2.55579 14.5998C2.3739 14.7348 2.35781 14.7428 2.2886 14.7967C2.25799 14.8205 2.21718 14.8531 2.1482 14.909C2.14796 14.9046 2.20305 14.8576 2.28421 14.7909C2.44791 14.656 2.73057 14.4328 2.86524 14.3265C2.358 14.6997 2.40687 14.6846 2.28055 14.7862C2.22243 14.8333 2.12718 14.9044 1.9271 15.0513C1.8191 15.1525 2.11712 14.9178 2.09415 14.9389C2.01166 15.013 1.79612 15.1603 1.57165 15.3834C1.5355 15.42 1.71023 15.2913 1.46478 15.4976C1.43743 15.52 1.27602 15.6465 1.27784 15.6444C1.29114 15.6186 1.44611 15.4875 1.45015 15.4795C1.45329 15.471 1.2845 15.6219 1.28365 15.6222C1.27011 15.6176 1.42221 15.4935 1.39844 15.5097C1.34656 15.5427 0.718681 16.0686 1.52386 15.3681C0.866603 15.9621 1.44076 15.4437 1.70746 15.2281C1.7749 15.1724 1.78772 15.1529 1.88416 15.0741C2.00828 14.9729 2.1587 14.8623 2.22324 14.8112C2.28219 14.7645 1.99592 14.9681 2.26277 14.7629C2.30953 14.727 2.37407 14.678 2.46359 14.6107C2.40155 14.6537 2.33208 14.7043 2.25939 14.7585C1.96377 14.978 1.58984 15.2809 1.36161 15.4693C0.785911 15.9476 1.73441 15.1019 1.8445 15.0332C1.87158 15.0112 1.77353 15.0758 1.79146 15.0609C1.81005 15.045 2.04914 14.8615 2.23115 14.7217C2.33146 14.6442 2.41773 14.5769 2.43625 14.5592C2.48131 14.5159 2.28418 14.6734 2.22486 14.7135C2.21674 14.7189 2.21094 14.7224 2.20832 14.7232C2.20682 14.7237 2.21207 14.7189 2.22238 14.7102C2.31356 14.6325 2.82945 14.2304 2.49568 14.4794C2.4167 14.5384 2.31282 14.6197 2.21332 14.6984C1.9917 14.8726 1.75842 15.0611 1.69466 15.0913C1.86508 14.9545 2.03702 14.8221 2.2073 14.6905C2.40483 14.5379 2.6094 14.3811 2.80885 14.2291C2.60325 14.373 2.39247 14.5216 2.18867 14.6662C2.18575 14.6683 2.18282 14.6703 2.1799 14.6724C2.18274 14.6702 2.18557 14.668 2.1884 14.6658C2.59975 14.3475 2.96792 14.0829 3.35738 13.775C2.37861 14.4723 3.65609 13.5209 3.6678 13.5092C3.6708 13.5041 3.27735 13.7678 3.21445 13.8096C3.5433 13.5504 4.56328 12.7894 3.94813 13.2084C4.0597 13.1339 4.31451 12.9247 4.30952 12.9269C4.26826 12.9407 3.69933 13.3734 3.786 13.2944C3.88652 13.2025 4.04864 13.1055 4.21546 12.9802C5.06701 12.3418 4.79184 12.4593 5.65951 11.8371C5.6409 11.8477 5.6223 11.8582 5.60371 11.8688C6.5427 11.1868 7.48486 10.5084 8.42759 9.8334C8.78331 9.55074 9.75617 8.8358 10.2413 8.49175C10.3375 8.42334 10.8218 8.09072 10.8594 8.06637C10.9274 8.02233 10.563 8.28429 10.7322 8.17198C10.7444 8.16389 10.8762 8.07104 11.0215 7.96786C11.2602 7.79836 11.5525 7.58858 11.5127 7.60809C11.4214 7.67155 11.1416 7.87841 11.0936 7.90923C10.7561 8.12542 13.2567 6.3621 13.3771 6.26892C13.3196 6.30504 13.2621 6.34117 13.2046 6.37731C13.3632 6.26703 13.5219 6.15682 13.6807 6.04672ZM7.02171 11.9793C6.93497 12.0569 6.69534 12.2205 6.55886 12.3242C6.37018 12.4675 6.07208 12.7417 6.1852 12.6028C6.46375 12.3946 6.74255 12.1868 7.02171 11.9793ZM11.1554 9.02094C10.9635 9.15035 11.0933 9.02642 11.2569 8.92248C11.2741 8.91168 11.4186 8.84331 11.1554 9.02094ZM9.1622 10.4365C9.17032 10.4302 9.33263 10.3141 9.33948 10.3097C9.49211 10.2123 8.99827 10.5655 9.1622 10.4365ZM18.8032 3.62789C18.5926 3.77106 18.7576 3.68744 18.885 3.59055C18.893 3.58446 18.817 3.61852 18.8032 3.62789ZM18.6519 3.72909C18.476 3.8228 18.1677 4.08375 18.4291 3.90057C18.4538 3.88314 18.6601 3.72462 18.6519 3.72909ZM10.474 9.49624C10.4915 9.47398 10.6875 9.33825 10.7734 9.27908C10.7751 9.28671 10.5556 9.43666 10.474 9.49624ZM15.4432 5.96204C15.4479 5.95086 14.7646 6.4318 14.723 6.47155C14.8286 6.39247 15.4385 5.97194 15.4432 5.96204ZM17.1969 4.73279C17.1789 4.74384 16.9423 4.9088 16.9523 4.90857C17.0723 4.83452 17.2782 4.68282 17.1969 4.73279ZM20.7305 2.39035C20.7432 2.38157 20.5418 2.46072 20.9868 2.22068C21.052 2.1857 20.8302 2.3287 20.8532 2.3166C20.9019 2.29013 20.9397 2.26886 20.9696 2.25127C20.7694 2.37371 20.5614 2.50387 20.5404 2.51436C20.4404 2.56424 20.7249 2.39399 20.7305 2.39035ZM22.525 1.43267C22.5458 1.41788 22.7833 1.43545 22.8464 1.45396C22.8567 1.45662 22.8089 1.46166 22.9274 1.48406C23.0243 1.50483 22.8814 1.45507 23.0724 1.50392C23.2686 1.55875 23.0027 1.49901 23.0207 1.50559C23.0405 1.50846 23.3519 1.59126 23.3423 1.5991C23.3297 1.60052 23.0007 1.50082 22.9265 1.49099C22.8288 1.47389 22.9425 1.50466 22.7846 1.47617C22.6883 1.46205 22.7441 1.45007 22.7238 1.44657C22.6927 1.43329 22.4226 1.45932 22.5254 1.4327C22.5253 1.43269 22.5252 1.43268 22.525 1.43267ZM21.024 2.218C21.0091 2.22757 20.9909 2.23878 20.9696 2.25127C20.9875 2.24033 21.006 2.22897 21.024 2.218ZM7.5618 11.5763C7.66343 11.5099 7.37678 11.7274 7.26189 11.8013C7.25647 11.7974 7.54524 11.5871 7.5618 11.5763ZM21.2037 2.0944C21.5064 1.92661 21.289 2.05637 21.024 2.218C21.1075 2.16447 21.1011 2.15219 21.2037 2.0944ZM12.9101 7.73883C12.9231 7.73133 12.9322 7.72766 12.9353 7.72998C12.9009 7.74949 12.8968 7.74977 12.9101 7.73883ZM13.5882 7.2647C13.8129 7.09132 13.3434 7.42533 13.351 7.42984C13.3542 7.4313 13.5792 7.27162 13.5882 7.2647ZM19.0768 3.44613C19.0546 3.45968 19.3688 3.20915 18.8993 3.55312C19.159 3.38432 18.8892 3.56909 18.8951 3.56884C18.9093 3.56908 19.3399 3.27263 19.4386 3.21292C19.5057 3.15028 19.1487 3.40208 19.0773 3.44575C19.0771 3.44588 19.0769 3.446 19.0768 3.44613ZM22.8945 3.41262C22.9293 3.35398 23.0584 3.18565 23.1376 3.06807C23.1084 3.12844 22.9836 3.29964 22.8945 3.41262ZM20.1531 15.3727C20.5442 14.4584 20.6073 14.344 20.2543 15.1837C20.2476 15.2003 20.1312 15.4293 20.1531 15.3727ZM16.2255 17.3861C16.1476 17.4464 16.365 17.2087 16.5153 17.063C16.5496 17.0295 16.6832 16.9153 16.546 17.0611C16.5362 17.0429 16.3167 17.2615 16.2255 17.3861ZM21.369 1.98785C21.4515 1.92812 21.7275 1.78443 21.8709 1.71325C21.7883 1.76448 21.4959 1.91857 21.369 1.98785ZM20.2157 13.7994C20.1259 13.8455 20.0735 13.8923 20.0893 13.8845C20.1596 13.8494 20.3209 13.7534 20.2157 13.7994ZM20.5 2.5034C20.4842 2.50503 20.8354 2.28311 20.8692 2.28197C20.7915 2.32668 20.5108 2.50098 20.5 2.5034ZM23.0596 3.19838C23.0988 3.15064 22.9159 3.41212 22.8514 3.48493C22.8522 3.47547 23.0363 3.23064 23.0596 3.19838ZM18.8548 14.7715C18.7814 14.8322 18.6027 14.9912 18.5869 15.0137C18.5669 15.0402 18.8269 14.8053 18.8548 14.7715ZM22.1011 22.432C22.1022 22.4467 21.9361 22.0763 21.8876 21.9031C21.8875 21.9028 21.8874 21.9025 21.8873 21.9022C21.8549 21.7935 21.8665 21.8191 21.8959 21.9004C21.9506 22.0611 22.0967 22.4243 22.1011 22.432ZM20.6862 13.5919C20.6755 13.602 20.6803 13.5855 20.6784 13.6041C20.6623 13.5092 20.7094 13.9011 20.7034 13.6707C20.7038 13.6254 20.6742 13.5727 20.6862 13.5919ZM20.6953 13.5975C20.6944 13.5988 20.6096 13.6236 20.6794 13.6149C20.706 13.614 20.7123 13.6019 20.6953 13.5975ZM21.3682 20.7473C21.3045 20.6543 21.622 20.9409 21.6573 21.1655C21.6624 21.1823 21.6655 21.1939 21.6669 21.2004C21.6857 21.2373 21.7595 21.4555 21.7586 21.4863C21.7376 21.4173 21.6768 21.2411 21.6702 21.2217C21.6676 21.2131 21.6657 21.2067 21.6645 21.2022C21.6149 21.0218 21.3724 20.6588 21.3682 20.7473ZM19.5187 21.4068C19.8269 21.2753 19.8871 21.2794 19.8623 21.2914C19.532 21.4334 19.7422 21.3272 19.7318 21.3304C19.7086 21.3384 19.4689 21.437 19.5197 21.4064C19.5193 21.4065 19.519 21.4066 19.5187 21.4068ZM21.0766 20.8119C21.0832 20.8095 21.164 20.7839 21.2331 20.7648C21.272 20.754 21.2999 20.7497 21.3025 20.7494C21.3532 20.7476 21.3101 20.7509 21.2351 20.772C21.11 20.8072 20.9577 20.8563 21.0766 20.8119ZM23.6434 1.74742C23.6672 1.81471 23.6352 1.75032 23.6119 1.717C23.609 1.71462 23.6156 1.6941 23.6434 1.74742ZM20.6446 13.6042C20.6399 13.6049 20.603 13.6083 20.5346 13.6358C20.2528 13.7403 19.7592 14.0504 19.8073 14.0379C19.8531 14.0031 20.2737 13.7493 20.5385 13.645C20.6522 13.5991 20.6851 13.6065 20.6446 13.6042ZM14.6169 19.1122C14.7554 18.9644 14.6166 19.1367 14.5374 19.2114C14.5081 19.2391 14.582 19.1494 14.6169 19.1122ZM20.016 2.79043C19.8471 2.90899 19.8669 2.86093 20.0231 2.77324C20.0292 2.76981 20.0226 2.78578 20.016 2.79043ZM15.7072 17.9316C15.2518 18.4502 15.3237 18.2915 15.9377 17.6427C15.9204 17.6649 15.9033 17.687 15.8862 17.7091C16.588 16.9599 15.9358 17.6574 15.7685 17.848C15.7048 17.9197 15.7652 17.8659 15.7077 17.9311C15.7075 17.9313 15.7074 17.9314 15.7072 17.9316ZM13.8651 19.8777C13.3472 20.3237 14.3054 19.4397 14.545 19.1618C14.3104 19.4323 13.9798 19.7652 14.4343 19.3191C13.7867 19.9883 14.0435 19.6981 14.0183 19.725C13.9863 19.755 13.8871 19.8588 13.8651 19.8777ZM15.0958 18.5913C15.1211 18.562 15.3219 18.3516 15.391 18.2733C15.3027 18.3899 14.9283 18.786 15.0958 18.5913ZM16.9132 21.204C16.9454 21.241 17.0679 21.4339 17.3769 21.5512C17.2884 21.521 17.0537 21.4356 16.9132 21.204ZM6.81393 12.0673C6.68636 12.1593 6.43113 12.341 6.51477 12.2926C6.52381 12.2871 6.81689 12.0722 6.81393 12.0673ZM18.1735 15.3652C18.1474 15.3841 17.5402 15.9869 17.7572 15.786C17.8213 15.7225 18.3772 15.1831 18.1735 15.3652ZM20.6986 13.9484C20.7149 13.8843 20.7186 13.6767 20.7108 13.6825C20.7091 13.6598 20.7039 13.9134 20.6986 13.9484ZM6.16699 12.5271C6.1495 12.5385 5.76307 12.8238 5.80839 12.7965C5.8949 12.744 6.22617 12.4881 6.16699 12.5271ZM23.6633 2.14738C23.6556 2.179 23.6332 2.21608 23.6295 2.22714C23.6435 2.2494 23.3565 2.84181 23.4566 2.61024C23.5233 2.56894 23.7622 1.724 23.6573 1.76063C23.6697 1.7213 23.7018 1.94273 23.6724 2.0412C23.6698 2.05519 23.6825 2.06559 23.6633 2.14711C23.6633 2.1472 23.6633 2.14729 23.6633 2.14738ZM18.4247 21.6654C18.4742 21.6816 19.397 21.4517 19.3781 21.4489C19.0798 21.5495 18.7613 21.633 18.4247 21.6654ZM17.9125 21.6673C17.7947 21.6507 17.8898 21.6629 18.0365 21.6687C18.1488 21.6725 18.2855 21.6677 18.3509 21.664C18.3526 21.6687 18.1664 21.6815 18.0363 21.6757C17.969 21.6732 17.923 21.6684 17.9125 21.6673ZM20.3132 13.6939C20.2425 13.7302 20.4689 13.6373 20.4206 13.6633C20.3896 13.6782 20.2278 13.7521 20.1793 13.7839C20.1657 13.792 20.333 13.7193 20.38 13.6979C20.4464 13.6662 20.3772 13.687 20.4508 13.6535C20.4769 13.6419 20.5027 13.6308 20.5281 13.6203C20.7096 13.5524 20.7157 13.6012 20.6965 13.5827C20.6976 13.5845 20.695 13.5662 20.7058 13.5854C20.7049 13.586 20.7347 13.6508 20.7157 13.8524C20.7116 13.9884 20.682 14.1263 20.6407 14.2637C20.5419 14.5873 20.4177 14.8969 20.2291 15.3294C20.2459 15.3086 20.453 14.8403 20.4607 14.8106C20.5204 14.6599 20.5885 14.4728 20.6526 14.2674C20.7985 13.6837 20.8385 13.4765 20.5659 13.5832C20.5446 13.5904 20.5304 13.5966 20.5202 13.6014C20.4731 13.6234 20.5042 13.6146 20.4595 13.6343C20.4144 13.6551 20.4622 13.6174 20.3132 13.6939ZM6.87735 12.0124C6.80922 12.0463 6.60147 12.2076 6.4653 12.3062C6.5199 12.2805 6.74293 12.1068 6.87735 12.0124ZM18.4808 18.1202C18.5299 18.0518 18.6856 17.843 18.6947 17.8235C18.7072 17.798 18.4845 18.1007 18.4808 18.1202ZM21.2506 5.20812C21.2451 5.21408 21.0996 5.35246 21.0938 5.35736C20.9571 5.47418 21.3935 5.05876 21.2506 5.20812ZM17.6578 8.43853C17.5431 8.54146 17.4292 8.64719 17.3836 8.6738C17.4582 8.60988 17.6666 8.42121 17.6578 8.43853ZM12.8499 13.1605C12.8806 13.1445 12.5704 13.4947 12.5134 13.5626C12.5291 13.5331 12.8266 13.1714 12.8499 13.1605ZM16.9128 21.1079C17.2913 21.6356 17.2424 21.4063 17.4637 21.5397C17.494 21.54 17.6248 21.6713 17.2022 21.4548C17.1271 21.357 17.4295 21.7411 16.9128 21.1079ZM16.0361 17.5362C16.0778 17.4776 16.2313 17.3159 16.3346 17.2081C16.3164 17.2364 16.1082 17.4565 16.0361 17.5362ZM5.46098 13.032C5.3472 13.0998 4.85954 13.4709 4.98644 13.3877C5.00411 13.3759 5.39176 13.0821 5.46098 13.032ZM21.9645 1.62167C22.1776 1.50438 21.7267 1.72521 21.5903 1.81429C21.6522 1.77842 21.952 1.62728 21.9645 1.62167ZM13.9427 11.9575C13.9346 11.9663 13.7483 12.1637 13.7402 12.1721C13.581 12.3269 14.1068 11.7701 13.9427 11.9575ZM18.8673 7.39907C18.8007 7.46875 18.3204 7.88114 18.2081 7.96861C18.3033 7.86956 18.9505 7.31267 18.8673 7.39907ZM17.3491 19.673C17.2147 19.8462 17.085 20.0366 16.9928 20.2503C16.989 20.1835 17.3264 19.6716 17.3491 19.673ZM13.2718 12.6904C13.2621 12.7013 13.2521 12.7114 13.2428 12.7217C13.2527 12.711 13.2624 12.7006 13.2718 12.6904ZM19.8966 16.018C19.9779 15.8757 19.9499 15.8995 19.945 15.9082C19.8832 16.0145 19.8033 16.1782 19.8966 16.018ZM6.71028 12.111C6.65627 12.1363 6.43166 12.311 6.29813 12.4052C6.34162 12.3845 6.60456 12.1895 6.71028 12.111ZM13.3091 20.3567C13.1383 20.4936 13.7936 19.8901 13.9253 19.7606C13.9448 19.7593 13.3399 20.3413 13.3091 20.3567ZM21.2858 1.96882C21.2675 1.96821 20.9637 2.15809 21.0316 2.12343C21.0737 2.10119 21.2977 1.96798 21.2858 1.96882ZM14.2416 19.4503C14.2974 19.3896 14.4367 19.2567 14.3937 19.3093C14.3385 19.377 14.2274 19.4661 14.2416 19.4503ZM19.3225 14.3113C19.2932 14.3285 18.9395 14.6251 19.0936 14.5124C19.2002 14.4345 19.2093 14.4119 19.2336 14.3927C19.259 14.3669 19.8604 13.9494 19.3225 14.3113ZM8.97943 20.2078C8.97749 20.4167 8.9973 20.6848 9.08376 20.9204C9.02029 20.825 8.95427 20.2914 8.97943 20.2078ZM22.4397 1.38883C22.4357 1.38919 22.4123 1.39388 22.3878 1.40342C22.1414 1.49557 21.5215 1.8232 22.0084 1.58411C22.0303 1.57322 22.2545 1.4669 22.391 1.41115C22.4294 1.39485 22.4688 1.38714 22.4397 1.38883ZM16.9128 21.1079C16.8805 21.031 16.8613 20.9298 16.8694 20.8302C16.8698 20.8256 16.8702 20.8208 16.8706 20.8161C16.8702 20.8208 16.8699 20.8256 16.8695 20.8302C16.8619 20.9291 16.8806 21.0303 16.9128 21.1079ZM18.5654 18.0411C18.5327 18.0974 18.7258 17.8336 18.7787 17.7535C18.7898 17.7249 18.5703 18.0332 18.5654 18.0411ZM9.09872 20.935C9.11711 20.9807 9.14267 21.0407 9.17573 21.1036C9.23765 21.2252 9.34016 21.3599 9.43767 21.4443C9.41721 21.4364 9.24467 21.2642 9.17069 21.1063C9.12906 21.026 9.10419 20.9556 9.09872 20.935ZM12.3145 13.8471C12.1733 14.0138 12.0078 14.2264 12.0112 14.2342C12.0075 14.2371 11.9999 14.2447 11.9881 14.2578C11.9759 14.271 11.8347 14.458 11.7711 14.5378C11.3743 15.0003 13.2383 12.6992 12.1727 14.044C12.2197 13.978 12.2669 13.9126 12.3145 13.8471ZM19.5192 6.84565C19.6165 6.77123 19.8632 6.53483 19.7949 6.59137C19.7476 6.63092 19.422 6.92024 19.5192 6.84565ZM15.9946 9.9837C16.0226 9.95972 16.2664 9.72727 16.2698 9.7181C16.1231 9.84491 15.8665 10.0922 15.9946 9.9837ZM20.2229 6.22621C20.2805 6.1756 20.3424 6.09922 20.3354 6.10479C20.2748 6.15331 20.1225 6.30682 20.2229 6.22621ZM17.0396 20.2688C17.088 20.1323 17.311 19.7742 17.3588 19.7076C17.3701 19.6961 17.3985 19.6629 17.449 19.6051C17.4488 19.6053 17.4487 19.6055 17.4486 19.6057C17.465 19.5818 17.6577 19.3709 17.8134 19.1505C18.2644 18.4994 18.9054 17.6261 18.068 18.7626C18.0314 18.8135 18.0875 18.7479 17.9397 18.9559C17.9299 18.9697 17.9194 18.9725 17.8894 19.0151C17.8733 19.038 17.8412 19.0837 17.8009 19.142C17.6953 19.2988 17.4271 19.6002 17.3661 19.6922C17.3644 19.6923 17.358 19.6985 17.3455 19.7129C17.2213 19.8247 16.9835 20.3618 17.0396 20.2688ZM15.5075 10.4414C15.5583 10.3966 15.7133 10.2474 15.7253 10.2278C15.6453 10.2982 15.3891 10.5454 15.5075 10.4414ZM22.4141 1.36939C22.4031 1.37175 22.3905 1.37547 22.3783 1.38028C22.2448 1.43287 22.0408 1.53971 22.1205 1.50644C22.1531 1.49267 22.2912 1.42756 22.3817 1.38842C22.419 1.37136 22.4537 1.3622 22.4141 1.36939ZM17.0904 8.98935C16.496 9.51004 16.9501 9.11525 16.8658 9.20258C16.9406 9.13135 17.0154 9.06037 17.0904 8.98935ZM20.2697 21.0571C20.153 21.103 20.2828 21.0299 20.4127 20.9875C20.4534 20.9742 20.3349 21.0314 20.2697 21.0571ZM23.3591 24.1696C23.2848 24.0831 23.692 24.4594 23.5232 24.3244C23.515 24.3188 23.364 24.1764 23.3591 24.1696ZM21.4988 20.7246C21.4585 20.7083 21.4664 20.6954 21.378 20.6829C21.4987 20.7072 21.3922 20.6506 21.4988 20.7246ZM12.0135 14.2331C12.0123 14.2339 12.0113 14.2346 12.0112 14.2342C12.0125 14.2332 12.0132 14.2329 12.0135 14.2331ZM20.7618 5.72517C20.84 5.66492 21.0386 5.47637 20.973 5.5257C20.9667 5.53063 20.7868 5.69282 20.7618 5.72517ZM17.3588 19.7076C17.3489 19.7179 17.3524 19.7114 17.3661 19.6922C17.3678 19.6921 17.3649 19.6976 17.3588 19.7076ZM19.6769 6.72515C19.6798 6.71371 19.3652 6.99036 19.353 7.00201C19.1808 7.17047 19.5484 6.84106 19.6769 6.72515ZM20.0692 2.66334C20.0514 2.67543 20.1778 2.61609 20.2464 2.56498C20.2994 2.52539 20.1356 2.61783 20.0692 2.66334ZM21.7849 21.3007C21.826 21.421 21.8823 21.5992 21.8851 21.635C21.8592 21.5484 21.7785 21.2985 21.7849 21.3007ZM23.2107 24.0078C23.0838 23.8966 22.8298 23.6009 22.6933 23.3934C22.6935 23.3877 23.0886 23.9056 23.2107 24.0078ZM16.9166 20.6957C16.9073 20.6797 17.0229 20.2832 17.0034 20.3362C16.9502 20.4056 16.8908 20.8111 16.9166 20.6957ZM20.6196 2.3312C20.7427 2.24905 20.4427 2.41054 20.3177 2.50592C20.2534 2.55421 20.5981 2.34486 20.6196 2.3312ZM21.3907 5.14366C21.5278 5.00392 21.173 5.3348 21.1301 5.38732C21.1957 5.32589 21.342 5.19345 21.3907 5.14366ZM16.4208 9.625C16.9008 9.22591 16.6171 9.41849 16.5377 9.49567C16.5265 9.50651 16.409 9.63484 16.4208 9.625ZM4.19239 13.9045C4.12394 13.9599 4.39501 13.7748 4.42382 13.7428C4.44229 13.7223 4.23541 13.8696 4.19239 13.9045ZM10.2929 16.7762C10.3061 16.753 10.3193 16.7299 10.3323 16.7071C10.3229 16.7243 10.31 16.7469 10.2929 16.7762ZM22.6553 3.90969C22.6275 3.93512 22.598 3.96268 22.5765 3.98186C22.345 4.19313 22.3847 4.18361 22.3612 4.20824C22.3049 4.26626 22.1656 4.39572 22.0594 4.50569C22.1794 4.37794 22.2992 4.24868 22.4171 4.11933C22.3236 4.22099 21.4625 5.06438 21.4457 5.08314C21.4259 5.11478 21.695 4.84747 21.7032 4.83977C21.7154 4.8293 21.774 4.80453 21.7995 4.78034C21.8368 4.74713 22.3655 4.21303 22.5814 3.98653C22.613 3.95403 22.6413 3.92393 22.6553 3.90969ZM17.3891 8.75322C17.3122 8.81742 17.2848 8.82924 17.2515 8.86174C17.2401 8.87282 17.2441 8.8812 17.2052 8.91882C17.2665 8.86354 17.3277 8.8084 17.3891 8.75322ZM23.1009 3.30691C23.1819 3.21893 22.858 3.64044 22.8425 3.64992C22.7805 3.71611 23.04 3.3816 23.1009 3.30691ZM19.8378 6.59157C19.8535 6.57871 20.1703 6.29693 20.1635 6.29453C20.0779 6.36688 19.6552 6.74503 19.8378 6.59157ZM17.1556 8.96363C17.0426 9.06248 16.825 9.24491 16.8583 9.2333C16.8585 9.23315 16.8586 9.23301 16.8588 9.23286C16.9576 9.14287 17.0565 9.05321 17.1556 8.96363ZM21.0384 2.04699C20.7905 2.16869 20.9176 2.12397 21.1293 2.00842C21.1885 1.96297 21.0781 2.02759 21.0384 2.04699ZM20.2788 2.48978C20.2108 2.52558 19.5479 2.95592 19.6558 2.90075C19.6938 2.88031 20.0709 2.6266 20.0892 2.61658C20.1167 2.60065 20.0009 2.68852 20.2044 2.55721C20.1901 2.56109 20.3017 2.47692 20.2788 2.48978ZM20.8362 2.15087C20.5933 2.27788 20.558 2.3355 20.7325 2.22941C20.8018 2.18758 20.8707 2.13301 20.8362 2.15087ZM21.8015 1.60977C21.716 1.65016 21.4833 1.77062 21.3339 1.86719C21.543 1.75012 21.7531 1.63725 21.9647 1.53327C21.9858 1.51646 21.8793 1.57208 21.8009 1.61008C21.8011 1.60998 21.8013 1.60988 21.8015 1.60977ZM24.586 25.0224C24.4149 24.8876 24.8226 25.1796 24.8372 25.1943C24.8833 25.2369 24.6632 25.0826 24.586 25.0224ZM2.66213 14.712C2.61328 14.7449 2.57215 14.762 2.46987 14.8475C2.58236 14.772 2.69383 14.6976 2.80651 14.6225C2.87922 14.5436 2.71607 14.6756 2.66213 14.712ZM2.2121 14.9687C2.22693 14.9568 2.12669 14.9969 2.3337 14.8629C2.33502 14.862 2.33627 14.8612 2.33744 14.8605C2.35593 14.8488 2.35548 14.8516 2.341 14.8651C2.25869 14.9399 1.74337 15.3474 1.63356 15.4292C1.76769 15.3085 2.08404 15.0709 2.2121 14.9687ZM0.968985 16.0104C0.977807 16.0002 0.962283 15.9504 1.07788 15.744C1.12907 15.6942 1.17639 15.6505 1.18858 15.6402C1.28448 15.56 1.18791 15.6524 1.08509 15.7515C0.978065 15.9405 0.992439 15.9753 0.968985 16.0104ZM1.75232 15.174C1.62188 15.2708 1.90083 15.0437 1.98765 14.9819C1.99902 14.9795 1.77219 15.1585 1.75232 15.174ZM23.2147 23.2499C23.1307 23.1043 23.011 23.0034 23.1675 23.2102C23.1752 23.2202 23.2183 23.2562 23.2147 23.2499ZM1.14375 15.6472C1.22058 15.5814 1.14893 15.6497 1.06523 15.7308C0.954705 15.9137 0.984986 15.9148 0.957718 15.9706C0.966378 15.9572 0.93897 15.9331 1.06049 15.7258C1.10077 15.6867 1.13649 15.6535 1.14375 15.6472ZM23.1833 23.1273C23.0694 22.9383 23.0749 23.0277 23.0882 23.0522C23.1418 23.155 23.3999 23.4515 23.46 23.5044C23.0775 23.0611 23.2429 23.2117 23.1833 23.1273ZM22.6629 22.2458C22.5753 22.0557 22.7781 22.55 22.8431 22.6296C22.7934 22.5404 22.6859 22.2997 22.6629 22.2458ZM22.2517 21.0205C22.2196 20.9089 22.0698 20.566 22.0136 20.5132C22.1069 20.6373 22.2302 20.9767 22.2517 21.0205ZM22.1707 20.7552C22.0947 20.5705 22.0444 20.5412 22.1539 20.7439C22.1579 20.7518 22.1731 20.7621 22.1707 20.7552ZM21.1586 20.1247C21.1219 20.1291 21.0884 20.1372 21.0576 20.1469C20.9834 20.1714 20.9474 20.1973 21.063 20.166C21.0716 20.1637 21.0809 20.1613 21.0909 20.1587C21.1549 20.1424 21.1744 20.1232 21.1586 20.1247ZM23.0743 22.8703C22.9955 22.7318 22.8749 22.5603 23.0462 22.8586C22.9808 22.7576 22.9192 22.6533 22.8613 22.5465C23.0637 22.9519 23.0835 22.8995 23.1505 23.0097C23.2505 23.1588 23.2252 23.1594 23.1976 23.1349C23.2873 23.2537 23.6986 23.7277 23.9931 23.9551C23.7435 23.7451 23.3935 23.364 23.2211 23.1026C23.17 23.029 23.1167 22.9601 23.077 22.8953C23.0136 22.7901 23.0787 22.8782 23.0746 22.8708C23.0745 22.8707 23.0744 22.8705 23.0743 22.8703ZM19.8664 20.5926C19.5422 20.7101 19.7544 20.6557 19.9336 20.5762C19.9412 20.5726 19.8745 20.5897 19.8664 20.5926ZM0.817892 16.0947C0.912999 15.8543 0.849759 15.9335 1.01017 15.6731C1.08342 15.6097 1.19177 15.4932 1.58169 15.1584C1.27102 15.4365 1.57155 15.1821 1.51324 15.2393C1.46609 15.2844 1.27698 15.4402 1.39243 15.3561C1.32598 15.4055 1.16873 15.5381 1.01786 15.6812C0.800575 16.1049 0.813145 16.2299 0.785623 16.276C0.785702 16.2757 0.785786 16.2755 0.785875 16.2752C0.778668 16.2944 0.768036 16.2366 0.817892 16.0947ZM22.3223 20.9933C22.3107 20.8652 22.2533 20.8436 22.1622 20.5964C22.0045 20.3124 22.504 21.4394 22.483 21.568C22.2086 20.7068 22.4482 21.5156 22.5165 21.6962C22.5332 21.7399 22.5403 21.7487 22.5282 21.6924C22.521 21.659 22.5076 21.6035 22.4862 21.5189C22.5058 21.5866 22.5225 21.6428 22.5368 21.6896C22.667 22.0982 22.5678 21.7456 22.6049 21.8338C22.6465 21.9405 22.7869 22.2993 22.7929 22.2745C22.7928 22.2743 22.7927 22.2741 22.7926 22.2739C22.7066 22.0819 22.6308 21.8836 22.5633 21.6808C22.5553 21.6569 22.5474 21.6331 22.5397 21.6094C22.5862 21.8447 22.4422 21.3697 22.4093 21.1944C22.3812 21.1275 22.3528 21.0613 22.3223 20.9933ZM22.7576 22.3015C22.7442 22.2835 22.5532 21.8021 22.5628 21.8338C22.5727 21.906 22.8688 22.5753 22.7576 22.3015ZM24.1325 24.0473C23.9853 23.9314 23.7778 23.7371 23.7004 23.6737C23.8297 23.8031 24.0456 23.9927 24.1325 24.0473ZM17.6171 20.4081C17.6892 20.2131 17.4526 20.8029 17.5282 20.6345C17.5261 20.6249 17.608 20.4166 17.6171 20.4081ZM22.0421 20.4277C21.829 20.1667 21.9307 20.3074 22.0677 20.4908C22.0755 20.5015 22.0513 20.4403 22.0421 20.4277ZM1.01731 15.6395C1.02028 15.6159 1.54733 15.1643 1.64483 15.094C1.59239 15.1368 1.005 15.6532 1.01731 15.6395ZM24.4129 24.2247C24.1257 23.9796 23.7407 23.6755 23.7057 23.6333C23.6683 23.5951 23.7371 23.6448 23.7287 23.6359C23.7021 23.6215 23.3277 23.199 23.3181 23.1718C23.3057 23.1565 23.3527 23.2496 23.2776 23.1595C23.3939 23.359 24.1619 24.0722 24.2245 24.093C24.2602 24.1178 24.0131 23.9043 24.4124 24.2243C24.4126 24.2245 24.4128 24.2246 24.4129 24.2247ZM23.6146 23.5346C23.7062 23.6434 23.4325 23.354 23.3789 23.274C23.2491 23.1048 23.5961 23.5261 23.6146 23.5346ZM23.0482 22.7706C23.0224 22.7327 22.8353 22.3665 22.8165 22.3359C22.8839 22.5224 23.0961 22.8624 23.0482 22.7706ZM19.5947 20.6388C19.4916 20.6824 19.2073 20.7787 19.1937 20.7897C19.2958 20.7557 19.581 20.6532 19.5947 20.6388ZM2.7932 14.133C2.63863 14.2417 2.98629 13.9761 3.09032 13.902C3.09809 13.9023 2.80728 14.1229 2.7932 14.133ZM22.0653 20.3391C22.1072 20.3145 21.5059 19.8234 21.0287 20.0454C20.6398 20.1574 20.2682 20.3174 20.1779 20.3546C20.2688 20.3222 20.6442 20.165 21.0316 20.0556C21.491 19.8465 22.0738 20.2981 22.0375 20.3216C22.0547 20.3406 22.0723 20.3486 22.0653 20.3391ZM23.285 23.0416C23.3608 23.1293 23.3972 23.1958 23.4063 23.2079C23.491 23.3234 23.6971 23.5391 23.645 23.4985C23.4642 23.3184 23.134 22.8649 23.285 23.0416ZM19.4881 20.6266C19.0691 20.7917 19.8818 20.4897 19.7724 20.5175C19.7649 20.5202 19.531 20.6102 19.4881 20.6266ZM22.1815 20.5044C22.2613 20.5839 22.4862 21.2241 22.619 21.6625C22.6905 21.8835 22.7633 22.0657 22.7897 22.1288C22.7149 21.9852 22.674 21.8552 22.6126 21.6646C22.6032 21.6354 22.5935 21.6052 22.5831 21.5733C22.561 21.5059 22.5604 21.5261 22.558 21.5189C22.5202 21.402 22.5558 21.487 22.5329 21.415C22.541 21.3832 22.1398 20.3724 22.1815 20.5044ZM23.3297 23.0905C23.3612 23.1563 23.9004 23.7305 23.937 23.7436C24.0944 23.9242 23.3363 23.1624 23.3297 23.0905ZM22.1027 20.3581C22.28 20.5253 22.5049 21.2226 22.3152 20.7499C22.2955 20.7052 22.2176 20.5014 22.1027 20.3581ZM19.5263 20.5921C19.5045 20.6032 19.0689 20.7561 19.0635 20.7599C19.1252 20.7514 19.7637 20.5069 19.5263 20.5921ZM19.7469 20.4813C19.7364 20.4856 19.8442 20.4548 19.6367 20.5372C19.6196 20.5432 19.5816 20.5474 19.327 20.6478C19.2755 20.6679 19.198 20.7041 19.2041 20.7026C19.4733 20.6374 20.2839 20.2511 19.7469 20.4813ZM23.3469 23.0958C23.3265 23.0584 23.3993 23.1308 23.4502 23.2075C23.4722 23.2403 23.4171 23.1902 23.3469 23.0958ZM18.1647 20.9148C18.268 20.9075 18.1889 20.9103 18.0632 20.905C17.8996 20.9008 17.6617 20.8402 17.6581 20.8342C17.6551 20.8455 17.9132 20.912 18.0629 20.9134C18.1185 20.9157 18.1582 20.9151 18.1647 20.9148ZM3.10029 13.8046C3.10011 13.8048 3.09993 13.8049 3.09975 13.805C3.29009 13.6652 3.17806 13.7596 3.18707 13.7532C3.60086 13.4589 3.48008 13.5259 3.54263 13.4764C3.67656 13.3705 3.66739 13.406 3.89163 13.2275C3.52103 13.5206 3.86198 13.2597 3.87801 13.2581C3.93993 13.2536 3.36455 13.6204 3.17937 13.7684C3.15353 13.7889 3.35391 13.6523 3.28838 13.7051C3.0756 13.8762 2.36539 14.3466 3.10029 13.8046ZM23.4958 23.2612C23.5525 23.3433 24.1083 23.8798 23.9546 23.7449C23.9151 23.7337 23.3811 23.1637 23.4958 23.2612ZM12.549 14.7492C12.4342 14.9098 12.7238 14.556 12.7727 14.4864C12.7962 14.4514 12.5992 14.6782 12.549 14.7492ZM14.6857 12.3472C14.8475 12.1759 14.9953 11.9744 14.7953 12.1878C14.774 12.2104 14.6634 12.3633 14.6857 12.3472ZM13.5475 19.0515C13.3663 19.2147 13.393 19.2208 13.5195 19.0947C13.5641 19.0498 13.5532 19.0464 13.5475 19.0515ZM10.9695 17.0994C10.9819 17.0784 11.1232 16.8355 11.1136 16.8418C11.0567 16.9287 10.8861 17.2331 10.9695 17.0994ZM13.5995 18.9943C13.5009 19.0999 13.6885 18.9355 13.7991 18.7959C13.7378 18.8619 13.6096 18.9836 13.5995 18.9943ZM21.4023 19.9239C21.3097 19.9235 21.154 19.9404 21.0112 19.9835C20.868 20.0249 20.7122 20.0768 20.6039 20.1168C20.5876 20.1144 20.8028 20.0349 21.0094 19.9771C21.152 19.9347 21.3156 19.9198 21.4023 19.9239ZM13.9961 13.0683C14.1382 12.8973 13.8144 13.2466 13.8525 13.2223C13.8569 13.218 13.9905 13.0749 13.9961 13.0683ZM19.3111 13.3732C19.1691 13.4731 19.6396 13.1852 19.5046 13.2555C19.4978 13.2581 19.3181 13.3672 19.3111 13.3732ZM21.5112 13.9897C21.5907 13.8746 21.396 13.0551 21.4715 13.3773C21.5232 13.4479 21.5213 13.9897 21.5112 13.9897ZM3.54849 13.4607C3.48706 13.4904 3.80124 13.2602 3.84751 13.2288C3.86515 13.2168 3.62976 13.421 3.54849 13.4607ZM12.3854 20.0926C12.2901 20.1706 12.0317 20.3494 11.9884 20.3839C12.1118 20.3044 12.4265 20.0797 12.3854 20.0926ZM13.3267 13.8336C13.4628 13.6948 13.6799 13.4438 13.6122 13.4936C13.373 13.7715 13.6532 13.4695 13.3267 13.8336ZM14.1517 18.3933C14.0815 18.4674 14.0409 18.5363 14.0494 18.5285C14.1307 18.4533 14.2256 18.3235 14.1517 18.3933ZM9.90483 19.4203C9.91134 19.4173 10.0037 19.1227 9.98714 19.1602C9.97963 19.1725 9.89618 19.423 9.90483 19.4203ZM17.6213 20.783C17.6465 20.8018 17.5874 20.7488 17.7631 20.8172C17.7803 20.8489 17.5239 20.7166 17.6213 20.783ZM16.1036 16.2867C16.1044 16.2819 16.0815 16.3027 16.0499 16.3338C15.955 16.4265 15.7849 16.6121 15.8964 16.5057C15.921 16.4822 16.0026 16.3968 16.0562 16.3399C16.0834 16.3109 16.1033 16.2889 16.1036 16.2867ZM19.9463 12.9798C19.8044 13.0591 19.9815 12.9673 20.2146 12.8719C20.5638 12.6214 21.3968 12.9903 20.9572 12.8034C20.9198 12.7642 20.4491 12.7318 20.21 12.861C20.0714 12.9177 19.9582 12.9736 19.9463 12.9798ZM21.2995 14.851C21.321 14.7922 21.349 14.8349 21.2439 15.0736C21.2303 15.1049 21.2769 14.9522 21.265 14.9775C21.2619 14.9939 21.0455 15.5143 21.0321 15.5367C21.0217 15.5626 21.046 15.5375 21.0357 15.5639C21.0253 15.594 20.8702 15.9042 20.7866 16.064C20.6302 16.3661 20.6178 16.4007 20.605 16.4255C20.5657 16.4964 20.4927 16.6115 20.409 16.7521C19.9928 17.4678 19.2621 18.4685 18.8793 18.9635C19.2134 18.5145 19.5278 18.0744 19.8469 17.6006C19.7724 17.7534 20.2986 16.8886 19.9937 17.3964C20.1833 17.2012 21.2921 15.0771 21.2993 14.8517C21.2994 14.8514 21.2994 14.8512 21.2995 14.851ZM15.3446 11.6921C15.2501 11.8024 15.7778 11.28 15.8142 11.2269C15.7414 11.2926 15.3556 11.678 15.3446 11.6921ZM13.0624 14.2356C13.0207 14.2903 12.9972 14.3553 12.7631 14.6276C12.7629 14.6279 12.7626 14.6281 12.7624 14.6284C12.6942 14.7083 12.7639 14.6108 12.7502 14.6245C12.7448 14.6293 12.5326 14.8787 12.6993 14.664C12.9559 14.3377 12.7379 14.6449 12.8767 14.4725C12.893 14.4511 13.1491 14.1187 13.1317 14.1358C13.1297 14.1376 13.0514 14.2365 13.0372 14.2519C12.9836 14.3098 13.0019 14.2752 12.9946 14.2835C12.9692 14.31 12.5655 14.8355 12.4995 14.9058C12.473 14.9256 13.1482 14.0718 13.1813 14.0433C13.1995 14.0235 13.2088 14.0461 13.2284 14.0262C13.2379 14.0155 13.5164 13.6761 13.5559 13.6346C13.5672 13.6225 13.576 13.6133 13.5824 13.6066C13.5335 13.6523 13.7959 13.3524 13.7939 13.3668C13.7913 13.3739 13.6093 13.5792 13.6028 13.5863C13.5998 13.5894 13.5971 13.5921 13.5947 13.5946C13.6357 13.5558 13.0366 14.2616 13.1755 14.1172C13.0093 14.3275 13.1859 14.0765 13.0624 14.2356ZM12.2794 15.2533C12.294 15.2298 12.3086 15.2065 12.3233 15.1831C12.0476 15.5596 11.7292 15.9924 11.4417 16.4443C11.3691 16.5589 11.4642 16.4342 11.3662 16.583C11.2881 16.7019 11.1956 16.8304 11.2333 16.7627C11.242 16.746 11.4017 16.5032 11.4801 16.3808C11.7118 16.0195 11.6445 16.1047 11.6575 16.0833C11.6723 16.0599 11.8311 15.8404 11.9161 15.7196C12.1303 15.4155 12.2234 15.2728 12.542 14.8748C12.3689 15.1128 12.4798 14.9948 12.2794 15.2533ZM17.6277 14.7022C17.6355 14.6837 17.872 14.47 17.958 14.3913C17.9491 14.4088 17.7099 14.6212 17.6277 14.7022ZM14.9276 5.19196C14.8561 5.25699 15.4468 4.84735 15.2857 4.94755C15.25 4.96966 15.0016 5.14013 14.9276 5.19196ZM17.5853 3.35951C17.6628 3.3022 17.3386 3.51393 17.3435 3.52234C17.3461 3.52417 17.5757 3.36652 17.5853 3.35951ZM9.82881 20.4243C9.82712 20.4403 9.86173 20.6152 9.86591 20.6162C9.86703 20.7477 9.786 20.1348 9.82881 20.4243ZM20.9092 1.21014C20.6133 1.38469 21.5192 0.885483 21.2376 1.0294C21.2238 1.0353 20.9234 1.20075 20.9092 1.21014ZM22.3173 0.551053C22.2752 0.558891 22.1791 0.57679 22.0676 0.622026C21.9393 0.673374 21.7926 0.74136 21.7904 0.74512C21.788 0.750393 21.9415 0.681528 22.0702 0.628415C22.194 0.577346 22.2954 0.559393 22.3173 0.551053ZM14.1642 18.3111C14.1283 18.3302 14.4506 17.9947 14.5585 17.8723C14.5947 17.8534 14.2727 18.192 14.1642 18.3111ZM12.0589 20.2411C13.5133 19.0591 13.227 19.3736 11.9722 20.3084C11.9652 20.3021 11.964 20.3074 12.0589 20.2411ZM13.8688 18.6142C13.8267 18.6719 13.6723 18.8294 13.5673 18.9347C13.5819 18.9118 13.7963 18.6939 13.8688 18.6142ZM14.2166 5.66867C14.3116 5.58769 14.7702 5.28218 14.6927 5.34234C14.6746 5.35617 14.1828 5.69996 14.2166 5.66867ZM9.85924 20.5353C9.86302 20.5172 9.88745 20.6305 9.92947 20.7074C9.95942 20.7661 9.9927 20.799 9.99771 20.8056C10.0238 20.8353 9.96522 20.7986 9.92133 20.7117C9.88425 20.6422 9.86325 20.5489 9.85924 20.5353ZM16.0721 16.2289C16.1376 16.1472 16.3485 15.9382 16.4827 15.8004C16.4279 15.8697 16.1853 16.1139 16.0721 16.2289ZM15.1056 17.2453C15.1134 17.2359 15.2955 17.0377 15.3044 17.0289C15.4609 16.8727 14.9452 17.4343 15.1056 17.2453ZM2.77583 13.9212C2.78304 13.9153 2.94436 13.7948 2.95077 13.7906C3.10181 13.6897 2.61347 14.0545 2.77583 13.9212Z" fill="#EC2025"/>
</svg>
