<svg width="58" height="11" viewBox="0 0 58 11" fill="none" xmlns="http://www.w3.org/2000/svg">
<path d="M11.6379 2.43266C11.7345 2.42775 12.102 2.41873 12.2668 2.41224C12.0826 2.43544 11.3024 2.45002 11.6379 2.43266ZM28.1903 0.633456C28.0561 0.641771 27.9213 0.650135 27.7876 0.658494C28.1699 0.648997 28.6814 0.630096 29.037 0.623241C29.0949 0.622139 28.9449 0.638589 29.0821 0.634963C29.2192 0.63135 29.1924 0.615881 29.3913 0.608185C29.6151 0.599419 30.6411 0.581014 30.9943 0.571213C32.3233 0.533467 33.6582 0.491335 34.9921 0.472247C33.6186 0.512065 35.0036 0.495679 35.387 0.483885C35.4701 0.481709 35.4602 0.449151 36.8364 0.436916C36.8369 0.436913 36.8374 0.436909 36.8378 0.436905C37.7177 0.431197 36.9044 0.48189 38.3688 0.447292C37.2435 0.426954 38.35 0.417328 39.2314 0.41351C39.3841 0.412053 40.6124 0.41569 41.1547 0.41877C41.343 0.41942 41.6217 0.405689 41.8708 0.407801C42.039 0.409247 42.1683 0.419274 42.4202 0.422134C43.5944 0.435848 44.7496 0.462454 45.9262 0.510573C45.235 0.52511 46.4659 0.548513 46.5203 0.554291C46.7991 0.576564 45.5336 0.528176 46.0322 0.555117C46.7355 0.581589 47.4351 0.614321 48.1356 0.654806C47.5593 0.615367 48.9008 0.6663 49.1435 0.699235C49.1041 0.68328 49.5321 0.7132 50.107 0.764774C51.0867 0.851413 52.5091 0.997243 52.8226 1.01899C52.9276 1.02699 52.2472 0.943098 53.8296 1.10104C53.9986 1.11854 53.935 1.12321 54.0252 1.13116C54.0783 1.13588 54.4094 1.13412 54.7555 1.19128C54.8833 1.21653 54.0617 1.13082 55.8577 1.34628C55.4852 1.28532 56.1824 1.33607 57.0786 1.54343C57.1005 1.54912 57.1382 1.55556 57.1988 1.56306C57.3159 1.72796 57.1501 1.05013 57.8773 2.16714C57.123 3.39411 57.3894 2.63935 57.2168 2.83846C57.1248 2.85878 57.0497 2.87288 56.9661 2.88811C56.8071 2.91674 56.666 2.93918 56.53 2.96024C56.2643 3.00109 56.0484 3.03087 55.9347 3.04599C56.0513 3.03353 56.1652 3.02121 56.2877 3.00709C55.7058 3.08275 55.6087 3.10649 55.4743 3.12541C54.9581 3.19632 54.23 3.28207 53.7461 3.34671C53.1827 3.42186 53.1759 3.44479 52.5178 3.52073C52.6799 3.50483 52.8243 3.49112 52.991 3.47444C52.5355 3.53213 52.0741 3.58974 51.618 3.6461C52.6738 3.48335 51.3928 3.67335 51.3022 3.68509C51.1649 3.70339 51.3559 3.66751 51.1342 3.6968C51.1102 3.70003 51.1496 3.70639 50.7987 3.75148C50.1354 3.8365 50.1718 3.82032 49.9468 3.84623C49.9256 3.84865 49.902 3.85147 49.8749 3.85484C49.8456 3.8585 49.9512 3.85568 49.4194 3.92357C47.7425 4.1369 49.4183 3.91612 49.4921 3.90549C49.563 3.89513 49.1465 3.91477 49.9432 3.81753C50.0736 3.80157 50.2332 3.7828 50.4242 3.76108C50.1586 3.79142 50.0191 3.80161 49.9417 3.80542C49.8841 3.80802 49.8615 3.80709 49.8382 3.80976C49.7961 3.81468 48.9581 3.9204 48.9165 3.92605C48.5074 3.98251 48.8699 3.95088 48.7903 3.96293C48.7213 3.97331 47.7171 4.07921 47.4919 4.14492C47.0095 4.16805 47.7665 4.07957 48.5636 3.97664C48.6749 3.95582 47.8042 4.05502 47.7502 4.06154C46.62 4.19899 47.2472 4.15187 47.0006 4.20046C46.8685 4.22623 46.4107 4.26181 46.8363 4.23637C45.8084 4.36361 46.4293 4.27326 46.3637 4.27898C46.2611 4.28811 45.9002 4.33922 45.8564 4.34351C45.7904 4.35001 46.0184 4.31342 45.7581 4.34167C45.7148 4.34644 45.2955 4.41263 45.8388 4.35447C45.1126 4.43994 45.1711 4.4461 44.9242 4.44911C44.4308 4.55917 44.5572 4.4634 44.3583 4.48451C43.8366 4.53981 43.9922 4.56081 43.965 4.56603C43.7763 4.6012 42.3194 4.76252 41.9657 4.81063C42.1018 4.7657 43.1177 4.67207 43.3379 4.64004C44.0877 4.5315 42.2795 4.75285 42.8207 4.65189C42.5922 4.68919 42.3631 4.72657 42.1375 4.76351C41.7162 4.79092 42.3088 4.70979 41.1812 4.85344C40.9986 4.8953 41.979 4.75463 41.7838 4.79375C41.6665 4.81706 41.0151 4.89714 41.0023 4.90353C40.9908 4.91077 41.5784 4.83338 41.4866 4.85338C41.2896 4.89647 39.1265 5.1372 40.7684 4.92982C40.3067 4.98549 40.0719 4.97497 39.6734 5.03477C39.4177 5.07322 40.8693 4.95267 38.6996 5.20286C38.6524 5.19026 39.5646 5.09382 39.5889 5.08952C39.6221 5.08352 39.4513 5.0628 39.423 5.06416C39.3236 5.06937 37.1094 5.35676 36.6397 5.39244C36.8267 5.39378 34.9674 5.59736 34.7657 5.62891C34.712 5.63735 34.9151 5.62753 34.8577 5.63597C34.4993 5.6882 33.5248 5.77937 33.0734 5.83309C32.5686 5.89314 32.6343 5.89784 32.6061 5.90122C32.3843 5.92726 32.5604 5.89749 32.4249 5.91385C32.2192 5.93863 30.8105 6.10709 30.7398 6.1175C30.7191 6.12055 30.9507 6.10692 30.6441 6.14675C30.5904 6.15375 30.6248 6.13243 29.7139 6.2503C28.6223 6.39168 30.4763 6.17898 30.0242 6.25173C29.3167 6.31211 29.3458 6.33385 29.1529 6.3553C29.0853 6.36281 28.5938 6.40111 28.0584 6.46779C28.4447 6.41719 28.8214 6.36783 29.2075 6.31744C28.8277 6.35982 28.1 6.45313 27.7873 6.4871C27.636 6.50352 27.7578 6.47101 27.4307 6.51147C27.3623 6.52007 27.089 6.5963 27.9472 6.47222C28.018 6.4789 27.6063 6.51918 27.4184 6.54651C27.3904 6.55061 27.2795 6.58975 27.0335 6.60398C26.9753 6.60728 27.5999 6.45573 25.9695 6.71008C25.9169 6.7183 26.1018 6.70489 26.0503 6.71316C26.0146 6.71885 25.5971 6.76649 25.5521 6.7734C25.5053 6.78058 25.707 6.76592 25.6514 6.77479C25.3689 6.81997 24.9809 6.8274 25.5764 6.75698C25.3812 6.77604 25.1756 6.79643 24.9773 6.81596C25.193 6.8198 24.6685 6.86273 24.3934 6.89785C22.6348 7.12277 23.815 6.99572 23.5134 7.04353C23.0252 7.12108 23.3904 7.02304 22.6736 7.12869C22.6097 7.13836 23.4816 7.05028 21.7751 7.25321C22.0306 7.21998 22.2737 7.18842 22.5292 7.1554C22.3773 7.1449 21.6227 7.27188 21.5608 7.28025C20.8969 7.36889 21.3389 7.3015 20.3543 7.44318C20.3444 7.44461 20.3331 7.44611 20.3206 7.44768C20.2193 7.46041 20.045 7.47759 19.8784 7.50244C19.422 7.57068 19.8553 7.51564 20.3219 7.45775C20.628 7.41985 20.9498 7.3806 20.9712 7.38275C20.9812 7.38378 20.6805 7.42333 20.3235 7.46978C19.7443 7.54494 19.0047 7.6409 18.9665 7.64433C18.6769 7.66993 19.8588 7.5219 19.6296 7.5367C19.5376 7.54126 16.7593 7.92254 16.1921 7.99974C15.5466 8.08358 15.2515 8.08696 15.2526 8.13176C15.064 8.11483 14.9114 8.16748 14.8258 8.17979C13.8307 8.32426 13.829 8.32386 12.979 8.46579C12.7938 8.4972 12.6301 8.51158 12.5665 8.52474C12.5276 8.53283 12.6067 8.53349 12.4147 8.5712C12.1522 8.61326 10.6025 8.91163 10.5074 8.95049C10.3911 8.96878 11.1374 8.79117 11.0008 8.81241C10.7151 8.87586 10.4456 8.94592 10.1747 9.03031C9.91997 9.10878 9.66765 9.19056 9.40817 9.27745C9.18128 9.35365 9.29482 9.30569 9.19624 9.33906C9.17072 9.35332 8.31958 9.63298 8.3342 9.61413C8.46413 9.62152 9.69238 9.1748 10.1778 9.04041C10.3755 8.98229 10.4483 8.9654 10.2693 9.02245C10.2491 9.02906 10.2161 9.03877 10.1804 9.04911C10.0076 9.09879 9.72337 9.17962 9.78628 9.1813C9.31671 9.32424 8.89557 9.507 8.31439 9.64116C8.38509 9.58501 8.74302 9.59851 8.35904 9.01235C8.99682 8.94574 11.2228 8.33624 12.6892 7.9998C11.4093 8.31347 9.91267 8.72874 8.6462 8.97462C8.48659 9.02026 8.17591 8.96166 8.34589 9.02911C8.39928 9.07481 8.41378 9.10191 8.38326 9.07005C8.36971 9.05609 8.35648 9.04432 8.34254 9.03338C8.60382 9.04657 10.5708 8.5316 11.5448 8.29853C11.5807 8.28992 11.452 8.33368 11.5866 8.30218C11.8333 8.24387 12.6381 8.02958 12.7731 8.003C12.7955 7.99864 12.3414 8.12329 12.4832 8.09916C12.8403 8.03837 12.9204 7.96535 13.2207 7.89354C13.2256 7.89238 13.2305 7.89122 13.2355 7.89006C13.4734 7.8289 15.0971 7.50634 15.4964 7.41409C15.9209 7.30906 14.3032 7.64716 14.419 7.61101C15.5142 7.36252 16.6281 7.16544 17.6659 6.9764C17.6842 6.97307 17.5226 6.99053 17.7551 6.94707C18.1563 6.87238 18.2665 6.86987 18.463 6.83815C18.6767 6.80315 19.4236 6.67403 19.5266 6.66332C19.5395 6.66194 19.3895 6.70331 19.3667 6.70764C19.0425 6.76884 18.9214 6.76866 18.8919 6.77337C18.7796 6.79178 18.6736 6.81818 18.5705 6.83559C18.4013 6.86417 18.31 6.87256 18.0877 6.91119C17.9345 6.93789 18.0845 6.92567 17.9373 6.9512C17.8842 6.96001 17.2956 7.0335 17.2479 7.07629C17.229 7.07143 21.9999 6.28936 22.4788 6.2297C22.0676 6.28637 21.6593 6.3442 21.2478 6.40411C22.0807 6.28369 23.0771 6.11318 23.1537 6.14204C24.7149 5.91993 26.2803 5.71972 27.8485 5.54516C29.3833 5.37449 30.9209 5.23534 32.4594 5.1219C33.0156 5.08467 32.7117 5.13032 33.6261 5.0609C33.3904 5.06849 33.1517 5.07688 32.9158 5.08568C33.3846 5.0536 35.4632 4.93923 35.7998 4.92062C35.8441 4.91783 35.901 4.89136 36.4223 4.86459C36.8831 4.84144 36.9571 4.85572 37.2047 4.84847C37.4125 4.84246 37.6434 4.82899 37.7057 4.82756C37.753 4.8265 37.7722 4.83618 37.8853 4.83378C38.2426 4.82638 37.9528 4.80734 38.3092 4.82861C38.223 4.83286 38.1363 4.8372 38.0492 4.84163C38.4814 4.83078 39.0743 4.82782 38.436 4.85594C38.3273 4.8609 38.4204 4.84766 38.3392 4.85044C35.1436 4.97928 37.6964 4.88934 38.8154 4.84077C39.1038 4.84429 40.7158 4.79825 40.7704 4.80243C40.8448 4.80546 40.5702 4.82198 40.9304 4.82634C41.0065 4.82288 43.1645 4.8006 42.3873 4.82511C42.2262 4.82877 41.1941 4.83448 40.9431 4.8402C41.3919 4.85664 42.3097 4.82723 42.7782 4.81715C42.924 4.81382 43.0247 4.81178 43.0602 4.81212C43.4262 4.81608 42.9547 4.82337 42.7782 4.8314C42.7123 4.83442 42.6906 4.83721 42.7782 4.83927C42.8552 4.84104 43.0003 4.84216 43.2681 4.84392C44.3466 4.85432 43.3353 4.82548 43.7495 4.81987C43.9845 4.814 45.2089 4.86476 45.1778 4.83638C45.5993 4.84739 45.3522 4.85515 45.4041 4.85802C45.4538 4.85918 46.285 4.88723 46.5548 4.91474C46.5879 4.91775 46.4822 4.92641 46.5165 4.92999C46.5814 4.93332 47.3857 4.99779 47.418 5.0035C47.4394 5.00463 47.2482 4.97156 47.3279 4.9762C47.4203 4.97708 48.1956 5.07866 48.2378 5.08576C48.2995 5.08306 47.3405 4.96563 47.5031 4.97242C47.811 5.00742 48.2567 5.06533 48.5923 5.11734C48.7377 5.1392 48.8633 5.15854 48.9509 5.17125C48.909 5.16538 48.7497 5.13692 48.5935 5.1105C48.4814 5.0914 48.3716 5.07336 48.3092 5.06308C48.3341 5.05916 48.4585 5.07376 48.5962 5.09487C48.862 5.1348 49.1843 5.20267 48.9775 5.17466C49.1773 5.20334 49.0431 5.17221 49.1564 5.18535C49.1862 5.18829 49.4678 5.24711 49.5236 5.2566C49.5308 5.25669 49.2411 5.18565 49.3005 5.19389C49.4078 5.19932 50.2654 5.42037 50.3245 5.44602C50.5148 5.50582 49.8335 5.32168 49.769 5.31994C49.7627 5.31651 50.342 5.49388 50.346 5.49872C50.3787 5.5242 49.7336 5.33499 49.8025 5.37213C49.9642 5.41627 50.1241 5.46401 50.2799 5.51195C49.8294 5.38716 49.0662 5.22018 48.587 5.14852C48.417 5.12136 48.2781 5.10267 48.1985 5.09555C48.3284 5.11435 48.4586 5.13501 48.5856 5.15639C49.3768 5.28212 50.0977 5.48727 50.0827 5.52138C50.0782 5.53665 49.6798 5.44323 49.6937 5.45273C49.7502 5.47935 50.2994 5.61262 50.3162 5.61989C50.3321 5.62545 50.3393 5.62846 50.339 5.62933C50.339 5.62933 50.339 5.62933 50.339 5.62933C50.3412 5.63598 49.56 5.43254 49.5175 5.434C49.4502 5.42539 49.7922 5.53859 49.7895 5.54625C49.7775 5.54132 49.2175 5.42135 49.4033 5.47567C49.5922 5.52638 50.076 5.65503 50.0912 5.66237C50.1834 5.68995 49.3336 5.48055 49.3063 5.48684C49.2926 5.4842 49.7467 5.60266 49.7584 5.61184C49.7689 5.61743 49.4208 5.54152 49.2814 5.52576C49.1774 5.51247 49.4729 5.58345 49.4202 5.57363C49.3844 5.56147 48.6156 5.41233 48.5429 5.40517C48.5413 5.40492 48.54 5.40473 48.5391 5.40462C48.5204 5.40217 48.5264 5.40479 48.5422 5.40944C48.5775 5.41958 48.6575 5.43924 48.6387 5.43779C48.6243 5.43662 48.5858 5.43028 48.54 5.42254C48.4553 5.40818 48.351 5.39039 48.3727 5.39658C48.3792 5.39838 48.4444 5.41177 48.5384 5.43186C48.8296 5.49102 49.3933 5.63096 49.3867 5.63938C49.3721 5.6482 48.3205 5.40196 49.2922 5.66405C49.2994 5.66549 49.5385 5.7147 49.5451 5.71729C49.6884 5.7649 48.9246 5.59807 49.8536 5.82342C48.1166 5.44494 49.6345 5.79096 49.3714 5.76041C49.2708 5.74477 48.5959 5.6209 48.5912 5.62426C48.6547 5.64905 48.8723 5.67801 48.9438 5.69903C48.9761 5.70757 48.5766 5.64409 48.5024 5.64137C48.4886 5.6407 48.4865 5.64201 48.5016 5.64613C48.5041 5.64682 48.5071 5.64758 48.5106 5.64843C48.581 5.66279 49.2209 5.78331 49.246 5.79296C49.4952 5.85656 49.185 5.79858 49.2391 5.81701C49.275 5.82745 49.6557 5.91681 49.6646 5.92146C49.681 5.92463 49.1603 5.82154 49.0503 5.80875C48.9672 5.79637 49.2743 5.86711 49.2166 5.85744C48.8702 5.79374 48.1315 5.63649 48.8388 5.80688C48.8821 5.81714 49.1503 5.86961 49.158 5.87236C49.3207 5.91833 48.8276 5.81823 48.7367 5.81389C48.5818 5.80219 49.2944 5.92684 48.7007 5.82754C49.1432 5.92175 49.3868 5.9687 49.8939 6.10257C48.4824 5.76424 47.9622 5.74399 49.5405 6.06505C49.0445 5.94794 49.0918 5.99099 48.9427 5.96016C48.8882 5.94913 48.6166 5.88965 48.4635 5.86815C48.3559 5.85281 48.3086 5.85443 48.4454 5.90142C48.4479 5.90229 48.4519 5.90336 48.4572 5.9046C48.5406 5.92289 48.9252 5.98715 48.7921 5.97623C48.6404 5.94728 48.532 5.92833 48.4554 5.91522C48.2184 5.87545 48.3101 5.89346 48.4544 5.92084C48.5899 5.94649 48.7682 5.98217 48.7683 5.9831C48.764 5.98957 48.6444 5.9712 48.4511 5.94052C47.748 5.80237 46.0278 5.66868 45.6611 5.6654C45.1252 5.64675 44.6533 5.66359 44.5337 5.66102C44.1529 5.65361 44.4698 5.64639 44.3845 5.63985C44.2982 5.63133 43.2063 5.64633 43.1516 5.64644C42.9403 5.64028 43.1536 5.62499 43.1325 5.62415C43.0702 5.62171 42.9469 5.62035 42.7788 5.62014C42.2441 5.61846 41.306 5.63505 40.9916 5.63786C41.0065 5.64736 41.8309 5.63785 41.3151 5.66076C40.7144 5.6883 40.6816 5.64482 40.6649 5.64289C37.916 5.6938 35.167 5.82145 32.4252 6.0281C32.4598 6.04678 34.2537 5.90545 34.294 5.90888C34.5348 5.90628 31.5059 6.11837 31.1344 6.15088C31.4176 6.13193 31.6991 6.11406 31.9819 6.09697C31.5023 6.1616 30.4346 6.21679 29.7404 6.29722C29.5161 6.3229 29.9486 6.29182 29.9396 6.29356C29.6883 6.32806 29.2825 6.36009 29.5837 6.31588C28.9695 6.3907 29.0577 6.36682 28.5852 6.41537C28.5609 6.41796 28.7648 6.40721 28.3917 6.45198C28.326 6.45991 28.153 6.47923 27.956 6.50221C27.6292 6.54019 27.2368 6.58846 27.1596 6.60377C27.1086 6.61376 27.5871 6.60142 27.6413 6.55796C27.7742 6.54512 27.878 6.53488 27.9587 6.52657C28.4955 6.47198 28.0155 6.49845 28.3583 6.46161C28.4189 6.45596 28.2817 6.48847 29.2745 6.37705C29.1251 6.42176 28.3579 6.4895 27.9593 6.53139C27.8611 6.54152 27.7853 6.54976 27.7467 6.55506C27.6007 6.57516 27.7263 6.56534 27.9605 6.54225C28.3727 6.50098 29.1207 6.42419 29.3144 6.38657C29.1746 6.43012 29.4324 6.3782 29.8051 6.34356C30.212 6.30609 30.0354 6.33169 30.256 6.31116C30.8581 6.25654 30.6075 6.25835 31.1055 6.23374C30.6159 6.21757 31.9566 6.15349 32.3472 6.14088C31.7136 6.19204 31.0804 6.24767 30.4477 6.3081C30.4841 6.30783 30.5205 6.30757 30.5569 6.30734C30.3905 6.32188 30.2235 6.33681 30.0567 6.35207C30.0831 6.34668 30.1096 6.34129 30.1361 6.3359C29.2786 6.43573 29.0676 6.43862 28.9974 6.4451C28.6666 6.47826 28.3169 6.51519 27.9619 6.55473C27.35 6.62282 26.722 6.69773 26.1464 6.76965C26.0099 6.78726 26.1058 6.79173 25.1097 6.90684C24.792 6.94416 25.0894 6.88979 24.7305 6.93995C24.2857 7.04012 24.2914 7.00773 24.157 7.02607C23.7735 7.07901 23.5409 7.12226 23.5054 7.12737C23.0324 7.19586 22.3401 7.29599 21.8206 7.3771C21.8109 7.37873 22.0822 7.3497 21.7454 7.39748C21.6259 7.41418 20.5566 7.52623 19.6329 7.69877C19.8746 7.66194 20.1168 7.62563 20.3576 7.59013C20.0725 7.62766 18.0913 7.98145 18.5788 7.91222C18.879 7.86789 19.5964 7.71224 19.6831 7.73102C19.0172 7.81838 15.3884 8.50792 15.11 8.57412C15.0711 8.58103 15.3062 8.52183 15.2527 8.53149C15.2138 8.53738 14.385 8.71464 14.275 8.73596C14.2094 8.74769 14.5727 8.6622 14.5419 8.66515C14.5204 8.66579 13.626 8.85964 13.4596 8.91113C13.4461 8.91509 13.4369 8.91812 13.4328 8.92004C13.4414 8.91785 13.4505 8.91554 13.4601 8.91314C13.7269 8.84482 14.3807 8.70514 14.0229 8.79559C13.9729 8.80802 13.7286 8.85463 13.6679 8.87054C13.1327 9.00839 14.741 8.64039 14.9941 8.59342C14.5607 8.69118 14.0215 8.80773 13.4657 8.93718C12.7099 9.113 11.9133 9.30474 11.244 9.47956C10.7675 9.58778 11.9434 9.28711 11.4041 9.41275C10.2881 9.67391 11.1097 9.50234 11.0789 9.51145C10.8027 9.59274 9.84678 9.77181 9.85306 9.81519C9.43673 9.90617 9.58114 9.87582 8.9728 10.0039C9.05513 9.99198 9.1347 9.97916 9.21682 9.965C8.88529 9.98175 8.57548 10.323 7.68717 9.86866C7.04705 8.94962 7.81641 8.67471 8.09172 8.59303C8.27038 8.56414 8.39472 8.53025 8.36394 8.54237C8.29584 8.56695 8.1988 8.59586 8.09681 8.61699C7.73205 8.69389 7.12968 9.16717 7.70935 9.84039C7.97892 10.0377 8.14982 10.0193 8.18132 10.0318C8.33743 10.0537 8.69482 10.0172 9.67461 9.81647C10.0941 9.70702 8.03738 10.1202 8.98393 9.92487C8.77198 9.90702 8.54657 10.2046 7.73671 9.80551C7.19346 9.13494 7.75693 8.74438 8.1051 8.656C8.7168 8.50535 9.53675 8.19154 9.88753 8.0934C9.95993 8.07045 10.0169 8.05254 10.0535 8.0405C10.0966 8.02901 9.88422 8.04612 10.5138 7.90011C10.8155 7.83297 10.0957 8.01409 10.2357 7.98704C10.6726 7.7871 16.2542 6.94675 17.3146 6.81759C17.3847 6.80804 17.3602 6.82095 17.4295 6.81146C17.6333 6.78339 18.3871 6.66809 18.7685 6.62239C17.9837 6.70832 19.501 6.50645 19.871 6.46115C20.0045 6.44453 20.1073 6.43268 20.1886 6.42401C20.4494 6.3965 20.4745 6.40395 20.668 6.3819C21.6341 6.27163 23.1245 6.04454 23.8778 5.98837C23.8312 5.95693 25.181 5.84471 25.7845 5.77092C26.2658 5.71192 26.9468 5.60389 26.3063 5.66753C27.1247 5.56872 27.9972 5.45525 28.7638 5.35974C28.8915 5.34383 28.7168 5.37605 28.9349 5.34853C28.9547 5.34595 28.9806 5.33205 29.1684 5.3081C30.707 5.11196 29.963 5.22518 30.251 5.19694C30.4123 5.18116 30.5316 5.16859 30.6191 5.15862C29.721 5.26938 28.6825 5.39991 28.4066 5.43385C28.6446 5.42845 30.4001 5.18702 30.9139 5.13141C30.9318 5.12947 30.8711 5.14989 30.8892 5.14779C30.8896 5.14775 30.89 5.1477 30.8904 5.14765C31.0853 5.12503 32.3099 4.97236 32.056 4.98741C31.9866 4.99162 31.4245 5.05944 30.7522 5.14221C30.9334 5.11736 30.7961 5.11931 30.828 5.11482C31.2173 5.06045 32.1684 4.95993 32.5058 4.92121C32.5829 4.91234 32.5763 4.90375 32.5889 4.9022C32.8959 4.86734 32.7732 4.90893 33.0848 4.84375C33.6445 4.80973 32.0443 4.97407 32.1595 4.98194C32.2472 4.98777 35.7932 4.55238 35.78 4.52786C35.7925 4.52916 35.8417 4.52675 35.9422 4.51867C36.1641 4.50086 37.1528 4.37952 37.3212 4.35449C37.3498 4.35012 37.3352 4.32631 37.3709 4.32181C37.4613 4.31036 38.6697 4.18557 39.1186 4.1167C38.8754 4.14225 38.6313 4.16793 38.3863 4.19371C39.858 4.01713 39.6265 4.03727 39.1382 4.08815C39.1137 4.091 39.0899 4.0929 39.0665 4.09559C38.6872 4.1354 38.1976 4.18862 38.1911 4.18739C38.1621 4.18316 40.6563 3.88002 40.1785 3.96097C40.1144 3.9719 38.9544 4.10034 39.5302 4.04825C39.6321 4.03901 40.3704 3.94571 40.4092 3.94291C40.6719 3.92383 39.0541 4.13416 39.2556 4.12762C39.6472 4.06393 40.1504 4.01247 40.6016 3.95406C40.8071 3.92747 40.8556 3.90885 40.8809 3.90557C41.2577 3.85706 41.0475 3.89568 41.1732 3.88028C41.2377 3.87232 41.9842 3.75421 41.8468 3.81009C44.2965 3.48704 42.5203 3.70043 41.0171 3.88285C41.4887 3.81198 42.4221 3.70694 42.8422 3.65314C42.9918 3.63398 42.902 3.63162 43.1534 3.59879C43.6782 3.53051 46.167 3.24577 46.8152 3.17042C46.4219 3.22273 46.5378 3.22302 46.8434 3.18498C47.1552 3.14616 46.891 3.15909 46.9516 3.14969C47.0219 3.13917 48.4517 2.97414 48.7011 2.94092C47.6157 3.08051 47.8585 3.06521 48.7846 2.95338C48.6522 2.97373 48.5177 2.99431 48.3818 3.01503C48.7457 2.96676 49.3646 2.89904 49.8232 2.84644C50.0714 2.81788 50.2701 2.79425 50.3736 2.77916C50.4216 2.77215 50.2472 2.78183 50.2741 2.7779C50.5419 2.73972 51.483 2.63393 51.5222 2.62471C51.5597 2.61659 51.1599 2.65687 51.3074 2.63333C51.3395 2.62825 51.7216 2.59642 52.0984 2.54442C52.2349 2.52555 52.1511 2.52486 52.1854 2.51984C52.482 2.47643 52.311 2.51767 52.8457 2.44569C53.2359 2.39291 53.5295 2.33613 54.0701 2.2703C52.2874 2.481 53.7876 2.29563 54.53 2.18723C54.6495 2.1695 54.5445 2.16455 55.2564 2.07494C53.7456 2.32132 55.6908 2.0378 56.0842 1.97388C56.1072 1.97039 56.115 1.98326 56.3093 1.95275C56.3267 1.94987 56.298 1.94566 56.479 1.91526C56.7468 1.99948 57.4239 1.31383 56.8321 2.21465C57.2107 3.01639 57.1634 2.48764 57.0872 2.58915C57.0553 2.58313 56.9727 2.57862 56.8285 2.54485C56.5597 2.47657 56.0481 2.4033 55.8799 2.38008C55.8304 2.37307 55.8527 2.36609 55.6568 2.33957C55.3067 2.29283 54.9877 2.26628 54.7543 2.24094C54.7258 2.23808 54.7285 2.22207 54.2826 2.18001C54.16 2.1686 54.0161 2.15931 54.1947 2.18192C54.7775 2.2557 55.9049 2.35552 56.5273 2.49568C57.1047 2.60793 55.2677 2.29931 55.1542 2.30618C55.119 2.30187 55.4879 2.33931 55.1124 2.29226C54.7933 2.25237 54.1951 2.2141 53.7138 2.16191C53.6761 2.15762 53.2922 2.09897 53.3088 2.09938C53.3277 2.09985 53.9203 2.15252 53.8342 2.13794C53.8256 2.1362 53.4474 2.09967 53.3984 2.09045C53.336 2.07874 53.1826 2.00774 53.0997 1.99869C52.8926 1.97611 53.0271 2.00138 52.893 1.98823C52.6054 1.95937 51.6077 1.85675 51.5731 1.87389C51.7393 1.88906 51.9033 1.90422 52.0683 1.91964C51.1499 1.84314 51.5396 1.88512 51.4099 1.87772C51.2713 1.87013 51.3071 1.85578 51.0009 1.82891C50.9567 1.82497 50.413 1.78193 50.0283 1.75436C49.8152 1.73904 49.6513 1.72879 49.6596 1.73202C49.8343 1.74251 49.9541 1.75118 50.0281 1.75739C50.2654 1.77735 50.1175 1.77774 50.1428 1.78004C50.2697 1.79156 50.4277 1.79229 50.5986 1.80638C51.7819 1.9051 50.5869 1.826 50.8657 1.85371C50.964 1.86337 51.1522 1.86871 51.195 1.87279C51.3292 1.88562 51.3298 1.89904 51.4179 1.90532C51.6217 1.91991 51.3857 1.88121 51.4016 1.88158C51.5871 1.88499 52.311 1.96193 51.8564 1.94348C52.1287 1.97423 52.1601 1.95201 52.3741 1.98077C52.7979 2.03803 52.1586 1.9763 51.9878 1.96515C51.366 1.92389 51.1818 1.89867 50.3035 1.83106C50.214 1.82421 50.1186 1.8178 50.0237 1.81185C49.7925 1.79742 49.5674 1.78673 49.4651 1.77963C49.3726 1.77212 48.5038 1.67028 48.4744 1.73538C48.1362 1.70709 47.6073 1.63322 47.2575 1.61758C46.9415 1.60342 47.0418 1.63197 47.0122 1.63136C46.9688 1.63049 46.5887 1.61084 46.4598 1.60871C46.3064 1.606 46.3847 1.61813 46.1454 1.61187C45.5516 1.59723 45.5661 1.57516 45.5062 1.57123C44.7966 1.52926 45.1076 1.574 44.9493 1.57152C44.8031 1.56578 42.7488 1.50633 42.3156 1.5133C42.4913 1.51077 42.667 1.50852 42.8442 1.50658C42.5247 1.48657 42.1964 1.50689 42.1884 1.48019C42.1228 1.52208 41.4729 1.48692 41.2788 1.48706C41.2014 1.48701 41.2075 1.49436 41.11 1.49409C40.7379 1.49265 39.8791 1.48576 39.6807 1.49018C38.7957 1.50684 41.0574 1.5322 41.2343 1.5382C40.8786 1.53269 38.864 1.54428 39.7895 1.56402C39.9289 1.56704 40.188 1.54797 40.267 1.54737C40.8068 1.54356 40.3823 1.55985 40.4248 1.56158C40.4945 1.56429 40.8585 1.54892 40.9502 1.55146C40.9829 1.55235 40.7752 1.5665 41.2982 1.57009C41.0412 1.58194 39.5868 1.56735 39.3916 1.57276C39.3229 1.5747 39.7531 1.60368 38.5041 1.57919C38.5185 1.58209 38.533 1.58499 38.5474 1.5879C37.9781 1.59265 37.4238 1.59933 36.8536 1.60801C36.7239 1.60999 36.5932 1.61208 36.4615 1.61428C36.5373 1.60622 36.9265 1.58672 36.4354 1.59682C36.1506 1.60286 36.3616 1.61504 36.3357 1.61588C36.0795 1.61735 31.5811 1.71201 30.709 1.74366C30.4109 1.75244 29.5858 1.78895 29.5215 1.79119C29.1461 1.80329 27.8078 1.83687 27.5424 1.84738C27.376 1.85384 27.5347 1.86162 27.386 1.8658C27.2477 1.86969 27.3905 1.85263 27.3494 1.85344C27.0095 1.85912 24.4273 1.96253 23.8137 1.97307C24.1885 1.96306 26.0583 1.87432 26.0203 1.86712C26.0121 1.86617 25.5572 1.87202 25.4636 1.87985C25.3082 1.87433 24.7778 1.92529 24.4879 1.92894C24.4553 1.92936 24.5832 1.90645 24.0671 1.92113C23.889 1.92621 23.4241 1.95689 22.9543 1.95758C22.2757 1.98874 18.7068 2.09654 18.4628 2.12577C18.4571 2.12702 18.9569 2.11522 18.6194 2.1359C18.1677 2.16353 18.5714 2.11214 18.0455 2.12863C17.9691 2.13099 16.5002 2.18958 16.4554 2.1935C16.0133 2.2304 17.294 2.19082 17.2738 2.19394C17.2318 2.20148 16.1683 2.24483 16.1232 2.24509C16.0819 2.24517 16.9515 2.18571 15.9066 2.23493C16.0257 2.23372 16.1454 2.23249 16.2657 2.23123C15.7733 2.25589 15.7307 2.23876 15.6104 2.2421C15.2389 2.2523 14.8405 2.29551 14.2508 2.2821C14.0923 2.27861 14.355 2.25863 14.3339 2.25801C14.1445 2.25245 13.9042 2.29477 13.6241 2.27996C13.6016 2.27888 14.2607 2.24007 13.1098 2.28169C13.1881 2.28127 13.2669 2.28082 13.3461 2.28035C13.2998 2.28356 13.1718 2.28954 13.0114 2.29642C12.5993 2.31407 11.9761 2.33736 11.8663 2.34026C11.4078 2.35252 11.8049 2.32154 11.347 2.33942C11.644 2.35292 10.2445 2.40365 10.3246 2.38047C10.1319 2.41255 8.94204 2.43182 8.38442 2.44825C8.03508 2.45884 7.31248 2.49154 7.20369 2.49334C7.0661 2.49577 7.10611 2.47724 6.86152 2.48043C6.79024 2.48141 6.05959 2.51508 5.41444 2.51395C5.28949 2.51378 5.02892 2.49103 5.25913 2.47769C5.65692 2.45488 6.40458 2.45794 6.39682 2.44066C6.38275 2.4226 5.37379 2.4612 5.10205 2.46549C3.84654 2.48588 4.57214 2.4477 4.53822 2.44265C4.45476 2.43025 3.76687 2.44713 3.73999 2.44634C3.62179 2.44329 4.10592 2.42042 4.1142 2.41127C4.12176 2.3996 3.46041 2.39411 3.6105 2.3867C3.82625 2.3763 4.43297 2.37912 4.47294 2.37723C4.97266 2.35361 4.28446 2.34397 4.09651 2.33521C4.03943 2.33254 4.26626 2.32045 4.21905 2.3204C3.49124 2.3197 4.06823 2.36168 3.58311 2.36925C3.15384 2.37572 3.70528 2.34558 3.69019 2.34492C3.66822 2.34442 3.15214 2.35515 3.07262 2.35061C3.03072 2.34879 4.37324 2.28349 4.31527 2.2692C3.88789 2.28296 3.46053 2.29621 3.03297 2.30897C2.9995 2.28978 3.61335 2.29075 3.67789 2.2871C3.80642 2.28001 3.44779 2.27815 3.46374 2.27144C3.47104 2.26727 3.89093 2.24327 3.51162 2.24606C3.38299 2.24694 3.10805 2.26727 2.63436 2.26305C4.28565 2.20849 3.13866 2.22252 3.09189 2.21652C3.043 2.21053 3.83091 2.17641 2.87486 2.20047C2.83247 2.16247 2.89564 2.18777 3.16671 2.17493C3.49851 2.15898 2.73116 2.1639 3.94597 2.14558C3.87823 2.12919 2.89953 2.15258 2.84751 2.15204C2.80276 2.1517 3.01982 2.13802 2.94225 2.13667C2.02554 2.12113 2.65547 2.12371 2.38954 2.10687C2.36517 2.10547 1.49949 2.11475 2.15889 2.09804C3.35917 2.06724 3.86127 2.0804 4.06295 2.02056C3.1743 2.018 2.09819 2.07575 1.82857 2.08169C1.41456 2.09084 1.84322 2.07102 1.79232 2.06887C1.77383 2.06825 1.4188 2.07622 1.41338 2.07541C1.15868 2.0386 2.99872 2.04304 3.57743 2.02163C3.4232 2.01886 3.26593 2.0161 3.11185 2.0132C3.32188 2.00831 3.53162 2.0033 3.74398 1.99811C2.73895 2.00835 3.70867 1.99432 3.95696 1.95424C4.01251 1.94528 3.355 1.97389 4.10621 1.93488C3.55082 1.94309 3.72793 1.932 3.2258 1.95295C3.24028 1.93919 4.367 1.89778 4.81381 1.87913C3.2385 1.90225 4.13799 1.93109 2.77671 1.93496C2.52504 1.95732 3.17464 1.93995 3.12112 1.94386C2.93055 1.95812 2.48569 1.9519 1.94859 1.99795C1.86121 2.00548 2.23181 2.01581 1.68392 2.02596C1.62337 2.02707 1.27376 2.01875 1.27871 2.01753C1.32469 2.00476 1.67029 2.0024 1.6845 1.99713C1.6977 1.99218 1.31241 2.00262 1.31101 2.00132C1.29878 1.98667 1.63275 1.9893 1.58403 1.98559C1.4791 1.97753 0.0921647 1.97268 1.90176 1.9464C0.399116 1.99292 1.71047 1.96704 2.29478 1.94833C2.44514 1.94357 2.48083 1.93394 2.69451 1.92629C2.96729 1.91647 3.28763 1.9136 3.42992 1.90872C3.58255 1.90337 2.71726 1.90233 3.96728 1.87971C3.33155 1.87409 2.20654 1.92047 1.5804 1.91796C0.318795 1.91302 2.45885 1.86471 2.68264 1.85634C2.74228 1.85429 2.54209 1.84654 2.58186 1.84495C2.64657 1.84276 3.86369 1.82113 3.98169 1.80803C4.10081 1.79531 3.53642 1.81893 3.49881 1.80935C3.47429 1.80333 4.93891 1.75571 4.1454 1.77008C3.59848 1.78021 2.59046 1.83018 2.42068 1.80342C3.2251 1.78407 4.02752 1.76315 4.83352 1.74026C4.39243 1.73994 3.95193 1.73906 3.51144 1.73765C4.4145 1.71334 5.19429 1.70651 6.05173 1.66659C3.98988 1.68501 6.72137 1.61958 6.75055 1.61316C6.75774 1.6104 5.94933 1.60322 5.81723 1.60118C6.53488 1.57127 8.71814 1.49956 7.43967 1.50113C7.67472 1.50254 8.23419 1.46489 8.22542 1.46357C8.15294 1.4498 6.93235 1.49674 7.12925 1.47608C7.35956 1.45229 7.6839 1.46582 8.04119 1.45304C9.87009 1.3862 9.36146 1.31758 11.197 1.26906C11.1605 1.26729 11.123 1.26555 11.0862 1.26378C11.713 1.24385 12.3405 1.22331 12.9721 1.20215C14.331 1.15661 15.6965 1.10877 17.0628 1.06103C17.84 1.00598 19.9161 0.912654 20.9342 0.878406C21.1387 0.871415 22.1471 0.848427 22.2237 0.848117C22.3646 0.847595 21.5902 0.877338 21.9404 0.873256C22.015 0.872126 23.7206 0.816987 23.5982 0.806959C23.4071 0.811983 22.8088 0.840576 22.7108 0.840686C22.0229 0.839292 27.2829 0.676359 27.544 0.661118C27.4273 0.660137 27.3106 0.65918 27.1937 0.658247C27.5266 0.649791 27.8572 0.641572 28.1903 0.633456ZM12.9838 2.34396C12.7808 2.36584 12.2852 2.37253 11.9889 2.38697C11.5821 2.40702 10.8907 2.48676 11.1885 2.42032C11.7844 2.39545 12.3833 2.36995 12.9838 2.34396ZM21.7279 2.04244C21.3267 2.0492 21.6368 2.00648 21.9654 2.00765C22.002 2.00782 22.2702 2.03333 21.7279 2.04244ZM17.5214 2.1831C17.5379 2.18207 17.8873 2.16984 17.898 2.16993C18.2095 2.17091 17.1627 2.20745 17.5214 2.1831ZM37.8289 1.56974C37.3851 1.57559 37.7088 1.60068 37.9812 1.58648C37.9984 1.58557 37.8581 1.56938 37.8289 1.56974ZM37.5128 1.57223C37.3042 1.55862 36.9577 1.5768 36.8534 1.58984C36.8174 1.59446 36.8118 1.59838 36.8535 1.59995C36.8847 1.60108 36.9418 1.60095 37.0306 1.59897C37.0855 1.59763 37.5291 1.57321 37.5128 1.57223ZM20.2974 2.0823C20.3416 2.07087 20.757 2.06032 20.9333 2.05621C20.9299 2.06527 20.4697 2.07484 20.2974 2.0823ZM30.7864 1.72908C30.8042 1.72054 29.3645 1.76267 29.2684 1.77607C29.4941 1.76466 30.7704 1.73618 30.7864 1.72908ZM34.4725 1.62736C34.4369 1.62669 33.9372 1.63945 33.9535 1.64595C34.1954 1.64948 34.6371 1.62998 34.4725 1.62736ZM41.7911 1.57317C41.8177 1.57198 41.4475 1.52403 42.3264 1.56267C42.4567 1.56843 41.9907 1.57405 42.0389 1.57626C42.1331 1.58033 42.2122 1.5827 42.2729 1.58371C41.8631 1.58208 41.4363 1.58057 41.3968 1.57767C41.2043 1.56378 41.7777 1.57353 41.7911 1.57317ZM45.6255 1.62575C45.7126 1.62153 46.2506 1.64641 46.3698 1.65478C46.3908 1.65626 46.2986 1.67071 46.5421 1.68001C46.7361 1.68762 46.4461 1.6553 46.8251 1.67584C47.207 1.69713 46.6962 1.68626 46.728 1.68888C46.7753 1.69189 47.3662 1.71264 47.3459 1.72302C47.3349 1.73019 46.6958 1.69316 46.5429 1.68867C46.3419 1.68213 46.5828 1.70608 46.2494 1.68898C46.039 1.67846 46.1565 1.65934 46.112 1.6563C46.0723 1.65316 45.3378 1.6399 45.6266 1.62586C45.6263 1.62582 45.6259 1.62579 45.6255 1.62575ZM42.3838 1.58407C42.353 1.58447 42.3169 1.58444 42.2729 1.58371C42.3102 1.58385 42.3473 1.58394 42.3838 1.58407ZM14.1417 2.2914C14.3503 2.29115 13.7335 2.32325 13.4969 2.32211C13.4956 2.31438 14.1061 2.29158 14.1417 2.2914ZM42.7636 1.56998C43.3682 1.58611 42.9252 1.58604 42.3838 1.58407C42.5548 1.58185 42.5571 1.56484 42.7636 1.56998ZM25.4636 1.87985C25.4894 1.88076 25.5058 1.88299 25.508 1.8875C25.4402 1.88479 25.4341 1.88231 25.4636 1.87985ZM26.8866 1.84055C27.3736 1.81068 26.3831 1.84366 26.3894 1.85353C26.3926 1.85717 26.8671 1.84172 26.8866 1.84055ZM38.3948 1.56634C38.3501 1.56539 39.0429 1.51795 38.0365 1.55732C38.5736 1.55786 38.0052 1.56707 38.0157 1.57074C38.0349 1.58079 38.9385 1.56422 39.1383 1.56854C39.295 1.54879 38.5408 1.56942 38.3959 1.56633C38.3955 1.56633 38.3952 1.56634 38.3948 1.56634ZM52.5225 2.09744C52.3996 2.0976 52.016 2.06045 51.7544 2.03762C51.8763 2.03679 52.2638 2.07371 52.5225 2.09744ZM21.4181 7.45158C19.6528 7.74112 19.4185 7.73684 21.0363 7.49407C21.0688 7.48915 21.5244 7.43033 21.4181 7.45158ZM9.26671 8.19659C9.43772 8.15998 8.89123 8.34683 8.55238 8.45341C8.47441 8.47801 8.1982 8.54344 8.50838 8.44085C8.50152 8.47016 9.01361 8.303 9.26671 8.19659ZM43.1063 1.56303C43.2868 1.55284 43.8286 1.57315 44.1166 1.58248C43.9387 1.58865 43.3637 1.57138 43.1063 1.56303ZM15.6286 8.44706C15.4462 8.48217 15.3224 8.52513 15.3552 8.51987C15.5016 8.49648 15.8398 8.4147 15.6286 8.44706ZM41.3476 1.53942C41.3211 1.53105 42.0468 1.52998 42.0932 1.55033C41.9431 1.54693 41.3636 1.54427 41.3476 1.53942ZM52.0327 2.04864C51.9215 2.03494 52.4988 2.07786 52.6751 2.09793C52.662 2.10495 52.1025 2.05706 52.0327 2.04864ZM12.6761 9.10752C12.5116 9.14547 12.1056 9.2443 12.0584 9.2632C12.0062 9.28471 12.6036 9.13564 12.6761 9.10752ZM43.8184 5.72391C43.8369 5.72677 43.1881 5.74396 42.8984 5.73889C42.8316 5.73755 42.7934 5.73627 42.7789 5.73498C42.7697 5.73414 42.7703 5.7333 42.7789 5.73247C42.8715 5.72285 43.7983 5.72073 43.8184 5.72391ZM17.3778 8.10201C17.9039 8.02223 17.321 8.11285 17.3461 8.12586C17.698 8.06082 18.5747 7.90608 17.97 7.99672C17.8514 8.01457 17.5433 8.07257 17.3778 8.10201ZM16.894 8.18625C16.838 8.20234 16.4683 8.2905 16.791 8.22793C16.9407 8.19896 17.1827 8.13388 16.894 8.18625ZM39.7745 5.76611C39.2981 5.76008 41.4853 5.72349 41.5479 5.72985C41.5811 5.73088 41.6028 5.73198 41.6151 5.73297C41.693 5.72712 42.1076 5.72278 42.1557 5.73486C42.0326 5.73448 41.6918 5.73863 41.6549 5.73776C41.6381 5.73736 41.6255 5.73696 41.6169 5.7365C41.4705 5.74613 39.868 5.76443 39.7745 5.76611ZM36.1523 5.88405C36.698 5.83505 36.7951 5.86975 36.7484 5.8729C36.1559 5.91584 36.5415 5.86991 36.5232 5.86938C36.4823 5.86893 36.0594 5.90252 36.154 5.88397C36.1535 5.884 36.1529 5.88402 36.1523 5.88405ZM39.0326 5.77989C39.0558 5.77853 39.5125 5.76698 39.5323 5.76725C39.9086 5.7696 38.6104 5.8027 39.0326 5.77989ZM48.5124 1.74251C48.8393 1.76766 48.5189 1.76047 48.3 1.74191C48.2811 1.7403 48.2253 1.72088 48.5124 1.74251ZM16.6385 8.2385C16.5614 8.24584 14.6534 8.61988 14.775 8.62058C14.9322 8.57779 17.103 8.16399 16.6385 8.2385ZM13.309 7.33397C12.9674 7.38835 13.3347 7.30919 13.5202 7.28784C13.5896 7.27978 13.3922 7.32075 13.309 7.33397ZM40.3728 1.51685C40.017 1.5273 40.0913 1.4905 40.3989 1.50367C40.4109 1.50419 40.3867 1.51645 40.3728 1.51685ZM10.5649 7.83242C11.7543 7.5721 11.4911 7.63807 9.92835 8.03524C9.97544 8.01804 10.0245 8.00058 10.0708 7.98428C9.99886 8.00462 9.93098 8.02469 9.87191 8.04244C8.84928 8.36085 9.35773 8.19708 9.8703 8.03719C10.0666 7.97624 10.2712 7.92038 10.3867 7.89025C10.5559 7.84641 10.4091 7.87186 10.5637 7.83264C10.5641 7.83257 10.5645 7.83249 10.5649 7.83242ZM15.1053 7.06385C16.2482 6.94478 14.0756 7.22635 13.4554 7.33391C14.0578 7.22058 14.8399 7.10667 13.77 7.24972C15.3277 7.01027 14.6877 7.12692 14.7466 7.11874C14.8266 7.10863 15.0537 7.06934 15.1053 7.06385ZM12.1111 7.53504C12.0452 7.5474 11.5481 7.6285 11.3703 7.66597C11.6159 7.59915 12.5448 7.44989 12.1111 7.53504ZM32.3614 6.13101C32.4019 6.11594 32.5017 6.09903 32.8937 6.07514C32.7729 6.08987 32.5244 6.11339 32.3614 6.13101ZM12.6016 2.2942C12.3354 2.30285 11.7906 2.31738 11.9577 2.3242C11.974 2.32475 12.6034 2.30129 12.6016 2.2942ZM11.129 9.46235C11.0752 9.47479 9.62464 9.83759 10.1289 9.72506C10.2858 9.69066 11.593 9.35889 11.129 9.46235ZM18.6352 7.86645C18.5132 7.8873 18.0157 7.97781 18.0066 7.98255C17.9739 7.9981 18.5835 7.88465 18.6352 7.86645ZM11.2373 2.32957C11.1983 2.32975 10.3744 2.35986 10.4639 2.36264C10.6411 2.36783 11.3584 2.32976 11.2373 2.32957ZM49.7039 1.79835C49.7718 1.8031 49.8619 1.82325 49.886 1.82529C49.8964 1.82614 49.9487 1.8301 50.0218 1.83576C50.3523 1.86115 51.1103 1.92232 50.7191 1.90411C50.6882 1.90271 50.3901 1.87808 50.0209 1.84781C49.4576 1.80082 48.7377 1.74892 48.5946 1.73904C48.5064 1.71476 49.2762 1.78395 49.4644 1.79702C49.4981 1.7992 49.5176 1.78546 49.7033 1.79838C49.7035 1.79837 49.7037 1.79836 49.7039 1.79835ZM34.397 5.97868C34.4514 5.96204 35.9307 5.87213 35.9158 5.88845C35.4095 5.91588 34.9022 5.946 34.397 5.97868ZM33.6449 6.02488C33.3289 6.03785 34.0684 5.98582 34.2861 5.97643C34.2885 5.98369 33.6909 6.02267 33.6449 6.02488ZM15.8642 8.33713C15.7198 8.36849 16.1692 8.29678 16.0702 8.31964C16.0064 8.33406 15.6785 8.39272 15.5761 8.41883C15.5457 8.42653 15.8849 8.37458 15.9785 8.35562C16.1149 8.32789 15.9797 8.34185 16.1295 8.31242C16.6248 8.2154 17.0664 8.14128 17.5333 8.05564C17.5755 8.04787 17.2484 8.09888 17.606 8.03361C17.6613 8.02357 17.9965 7.97552 18.4272 7.89786C19.3697 7.69235 20.075 7.61341 21.2829 7.40912C21.237 7.4118 20.3295 7.54619 20.2775 7.55495C19.2653 7.71058 17.4592 8.02629 16.4082 8.23167C16.1399 8.2835 16.2725 8.26654 16.1555 8.28962C16.0636 8.30788 16.1681 8.27111 15.8642 8.33713ZM12.7449 2.28039C12.6164 2.26927 12.1613 2.29537 11.8752 2.30453C11.9743 2.31527 12.4651 2.28693 12.7449 2.28039ZM27.0177 6.62461C26.8744 6.64206 26.4289 6.69153 26.3929 6.70087C26.3462 6.71257 26.9888 6.63845 27.0177 6.62461ZM56.7252 2.54738C56.7289 2.54808 56.7724 2.55792 56.8221 2.57044C56.992 2.61156 57.1387 2.62016 57.1282 2.62192C57.0913 2.6146 57.1869 2.65304 56.8199 2.57924C56.6881 2.54571 56.5793 2.52036 56.7252 2.54738ZM49.4965 2.82695C49.2329 2.86141 48.967 2.89899 48.8799 2.89683C49.0401 2.87918 49.5288 2.81405 49.4965 2.82695ZM38.0689 4.20607C38.1259 4.21605 37.3319 4.30033 37.1837 4.3166C37.2366 4.30277 38.0287 4.19877 38.0689 4.20607ZM32.3004 6.08309C32.784 6.04753 32.68 6.03019 32.9882 6.01939C33.0382 6.0179 33.2047 6.05827 32.6708 6.07736C32.5749 6.08103 32.9482 6.04028 32.3004 6.08309ZM9.68326 8.11041C9.56589 8.15818 9.19068 8.27649 8.94097 8.36147C8.99298 8.33421 9.50209 8.16654 9.68326 8.11041ZM9.74167 2.36713C9.51276 2.35921 8.45893 2.4042 8.72035 2.4062C8.75564 2.40654 9.59569 2.37143 9.74167 2.36713ZM44.3404 1.53959C44.7711 1.53871 43.879 1.51112 43.5947 1.51798C43.7247 1.51956 44.3125 1.53938 44.3404 1.53959ZM40.8156 3.88605C40.7957 3.88895 40.3353 3.94294 40.3161 3.94463C39.9397 3.97683 41.2353 3.82484 40.8156 3.88605ZM52.214 2.50712C52.0632 2.53686 50.9648 2.66728 50.731 2.686C50.9503 2.64424 52.4256 2.46777 52.214 2.50712ZM30.313 6.25738C30.6569 6.22525 30.9843 6.1997 31.3015 6.17742C31.2348 6.19077 30.35 6.2596 30.313 6.25738ZM39.1382 4.08815C39.1137 4.091 39.0899 4.0929 39.0665 4.09559C39.0909 4.09303 39.1148 4.09058 39.1382 4.08815ZM22.6252 7.1863C22.3371 7.22553 22.3994 7.23218 22.417 7.23C22.634 7.20276 22.9507 7.14229 22.6252 7.1863ZM12.4139 2.269C12.3085 2.25868 11.8274 2.28654 11.5403 2.2931C11.625 2.30132 12.1827 2.27871 12.4139 2.269ZM16.328 6.91936C16.6928 6.88348 15.2214 7.10771 14.9062 7.14534C14.88 7.13848 16.2676 6.92461 16.328 6.91936ZM42.9983 1.48968C42.9717 1.4779 42.346 1.48201 42.4793 1.48922C42.5594 1.49344 43.0181 1.49673 42.9983 1.48968ZM14.162 7.24934C14.0291 7.2727 13.6976 7.3127 13.8121 7.28839C13.9615 7.25673 14.1964 7.24317 14.162 7.24934ZM13.7869 8.76605C13.764 8.77047 13.5909 8.81174 13.4451 8.84927C13.2459 8.90017 13.0803 8.94609 13.2651 8.90882C13.348 8.89214 13.4063 8.87815 13.4491 8.86657C13.5214 8.84689 13.5471 8.83424 13.5812 8.82631C13.6424 8.80984 14.9209 8.5464 13.7869 8.76605ZM24.594 5.85852C24.2928 5.90009 23.9092 5.9428 23.5928 5.98256C23.7181 5.96001 24.4676 5.86499 24.594 5.85852ZM45.398 1.54748C45.3236 1.53699 43.2811 1.48095 44.4395 1.52474C44.5106 1.52621 45.6241 1.56802 45.398 1.54748ZM32.3004 6.08309C32.2393 6.08764 32.1685 6.09256 32.0872 6.09781C32.1679 6.09194 32.2388 6.08723 32.3004 6.08309ZM26.8205 6.6207C26.9303 6.59928 26.3717 6.66471 26.2073 6.6898C26.1579 6.70554 26.8052 6.62332 26.8205 6.6207ZM23.57 5.99668C23.387 6.02413 23.043 6.06219 22.8167 6.09113C22.8516 6.07919 23.4913 5.99882 23.57 5.99668ZM36.6041 4.42075C36.2337 4.46071 35.7821 4.51696 35.7758 4.52691C35.768 4.52641 35.7499 4.52705 35.7201 4.5291C35.69 4.53119 35.295 4.58289 35.1234 4.60035C34.0938 4.70521 39.0888 4.11369 36.1973 4.48646C36.3323 4.46462 36.4684 4.44266 36.6041 4.42075ZM53.6784 2.33904C53.8934 2.32213 54.4705 2.23053 54.3194 2.2464C54.2153 2.25774 53.4671 2.35574 53.6784 2.33904ZM45.6417 3.34509C45.7026 3.33975 46.275 3.26271 46.2897 3.25503C45.9529 3.2896 45.3587 3.36999 45.6417 3.34509ZM55.2817 2.13422C55.4088 2.11798 55.5775 2.07552 55.5599 2.07726C55.4277 2.08995 55.0631 2.15498 55.2817 2.13422ZM31.2951 6.11534C31.0988 6.12626 30.4774 6.1941 30.3433 6.21868C30.3178 6.21872 30.2496 6.22195 30.1244 6.23004C30.1248 6.23 30.1252 6.22997 30.1256 6.22993C30.0436 6.23442 28.8039 6.35077 27.95 6.44926C27.1209 6.54442 26.6527 6.60277 27.9516 6.46345C28.0574 6.45238 28.1748 6.44019 28.3046 6.42691C28.4102 6.41627 28.2646 6.42088 28.6943 6.37702C28.7227 6.37417 28.7377 6.38128 28.8253 6.37255C29.0268 6.35109 30.1015 6.25115 30.3175 6.2256C30.3195 6.22703 30.3336 6.22726 30.3634 6.22594C30.6289 6.2134 31.447 6.10621 31.2951 6.11534ZM44.5079 3.48341C44.6244 3.47262 44.9862 3.42595 45.022 3.41392C44.8448 3.43153 44.2387 3.50829 44.5079 3.48341ZM45.3354 1.51394C45.1009 1.49928 44.5042 1.4938 44.6842 1.5053C44.7915 1.51153 45.6078 1.53019 45.3354 1.51394ZM48.1562 3.03748C46.8072 3.19273 47.8315 3.0778 47.6278 3.11392C47.8066 3.08814 47.9828 3.06266 48.1562 3.03748ZM37.5336 5.76128C37.3196 5.76733 37.5693 5.73491 37.8083 5.73788C37.8831 5.73886 37.6537 5.75784 37.5336 5.76128ZM47.2184 5.79873C47.0423 5.75862 47.9147 5.86812 47.5721 5.84236C47.5573 5.84031 47.2324 5.80016 47.2184 5.79873ZM40.461 5.65919C40.3153 5.67551 40.2206 5.67861 39.8077 5.68512C40.4189 5.66733 39.8494 5.66796 40.461 5.65919ZM35.78 4.52786C35.7775 4.5276 35.7755 4.52745 35.7758 4.52691C35.7785 4.52708 35.7797 4.5274 35.78 4.52786ZM56.528 1.94235C56.6997 1.92851 57.1267 1.83784 56.9974 1.85324C56.9932 1.85646 56.5978 1.9238 56.528 1.94235ZM30.3433 6.21868C30.3658 6.21865 30.3545 6.22099 30.3175 6.2256C30.3156 6.22425 30.3251 6.22194 30.3433 6.21868ZM54.0181 2.31293C54.0384 2.30194 53.3221 2.39311 53.2909 2.39796C52.8749 2.46695 53.7289 2.35235 54.0181 2.31293ZM40.5679 1.41985C40.5303 1.42061 40.773 1.44316 40.9185 1.43536C41.0316 1.42928 40.7099 1.41684 40.5679 1.41985ZM41.8586 5.63386C42.0853 5.63177 42.4084 5.63022 42.4664 5.64045C42.3156 5.63912 41.8539 5.64133 41.8586 5.63386ZM46.8761 5.7536C46.6089 5.7423 46.002 5.70482 45.6118 5.68783C45.6058 5.6688 46.6283 5.73184 46.8761 5.7536ZM31.9128 6.07087C31.8939 6.07141 31.3231 6.11328 31.402 6.11771C31.5166 6.12361 32.0744 6.0638 31.9128 6.07087ZM41.6808 1.43805C41.9371 1.43301 41.3505 1.4048 41.0763 1.42107C40.9387 1.42907 41.6356 1.43853 41.6808 1.43805ZM56.5061 2.43707C56.2835 2.40076 56.6015 2.46112 56.8347 2.51984C57.0043 2.55979 57.1107 2.56222 57.1312 2.56379C57.0886 2.55631 56.976 2.54758 56.8367 2.51203C56.7124 2.47867 56.5735 2.44869 56.5061 2.43707ZM46.5902 3.2597C47.6554 3.16311 47.0722 3.17438 46.8808 3.20284C46.8509 3.20721 46.5652 3.26197 46.5902 3.2597ZM7.0899 2.38469C6.9392 2.3936 7.50194 2.39341 7.5759 2.38041C7.61898 2.37244 7.18993 2.37895 7.0899 2.38469ZM30.6191 5.15862C30.6638 5.1531 30.7082 5.14762 30.7522 5.14221C30.7193 5.14672 30.6759 5.15214 30.6191 5.15862ZM53.4993 2.01953C54.2402 2.13722 54.1652 2.09639 54.2296 2.10273C54.3695 2.1176 54.6914 2.16409 54.9542 2.19254C54.6519 2.16285 54.352 2.13615 54.0493 2.11066C54.2907 2.12812 56.3426 2.39693 56.3717 2.41848C56.4357 2.41612 55.8014 2.31831 55.7816 2.31735C55.7545 2.31215 55.6596 2.26944 55.5992 2.26032C55.5044 2.23725 53.7787 2.04851 53.4993 2.01953ZM48.8074 2.98457C48.6369 3.00196 48.5859 2.99649 48.5059 3.00907C48.4786 3.01337 48.4754 3.02493 48.3819 3.03924C48.5253 3.02085 48.6676 3.00257 48.8074 2.98457ZM52.1572 1.93888C51.9486 1.90684 52.8929 1.99515 52.9263 2.00038C53.0873 2.02405 52.3319 1.96469 52.1572 1.93888ZM54.3771 2.27471C54.4159 2.27067 55.1352 2.17609 55.13 2.16879C54.9399 2.19046 53.9723 2.3194 54.3771 2.27471ZM48.2705 3.05362C48.0214 3.08277 47.5259 3.13184 47.5862 3.1413C47.5866 3.14125 47.587 3.14121 47.5873 3.14116C47.8176 3.11172 48.0473 3.0823 48.2705 3.05362ZM42.5572 1.41293C42.0851 1.3801 42.3071 1.41622 42.729 1.43104C42.8578 1.42109 42.6348 1.41831 42.5572 1.41293ZM41.0341 1.37833C40.9063 1.37158 39.5358 1.37551 39.7467 1.39012C39.8181 1.39466 40.6025 1.38298 40.6413 1.38447C40.6961 1.38613 40.4458 1.40066 40.8647 1.39926C40.8407 1.39385 41.079 1.38015 41.0341 1.37833ZM42.1641 1.39081C41.6935 1.36529 41.5853 1.40195 41.9411 1.40549C42.0777 1.40698 42.2323 1.39454 42.1641 1.39081ZM44.0956 1.42855C43.9242 1.42069 43.4736 1.40555 43.1599 1.41248C43.5765 1.42102 43.9978 1.43139 44.4123 1.44352C44.4599 1.43776 44.2461 1.43528 44.0944 1.42852C44.0948 1.42853 44.0952 1.42854 44.0956 1.42855ZM49.6395 6.09905C49.2871 5.99784 50.1052 6.20561 50.1424 6.22416C50.2436 6.2621 49.7954 6.14154 49.6395 6.09905ZM4.13969 2.12448C4.03617 2.12274 3.96433 2.11061 3.73654 2.12318C3.96682 2.12807 4.19857 2.13278 4.43217 2.13729C4.61173 2.10942 4.25267 2.12646 4.13969 2.12448ZM3.25283 2.05931C3.28537 2.058 3.10648 2.02601 3.52921 2.04051C3.81598 2.05054 2.2631 2.10077 1.98199 2.08993C2.29138 2.07631 2.97175 2.07033 3.25283 2.05931ZM0.52992 1.95862C0.512225 1.9561 1.10138 1.94062 1.17029 1.94128C1.52892 1.94502 0.626908 1.97226 0.52992 1.95862ZM2.41233 1.92825C2.13434 1.92707 2.74942 1.90969 2.93041 1.90969C2.94842 1.91606 2.45417 1.92845 2.41233 1.92825ZM45.9566 5.07501C45.6564 5.03587 45.3871 5.07792 45.8494 5.08746C45.8713 5.08796 45.9689 5.0768 45.9566 5.07501ZM1.10594 1.91121C1.38323 1.91285 0.769603 1.92924 0.58731 1.92864C0.570013 1.92227 1.06369 1.91103 1.10594 1.91121ZM45.7474 5.00672C45.3485 4.97225 45.4866 5.03774 45.5367 5.04188C45.7421 5.05761 46.4489 5.07226 46.5936 5.07856C45.5365 5.02253 45.9369 5.0259 45.7474 5.00672ZM43.9055 4.99383C43.5356 4.99564 44.4809 5.01922 44.6618 5.00857C44.4779 5.00471 44.0089 4.99285 43.9055 4.99383ZM41.66 4.97535C41.4622 4.97487 40.8684 4.9784 40.7714 4.9897C40.9854 4.98395 41.5783 4.98545 41.66 4.97535ZM41.21 4.95288C40.8983 4.94472 40.823 4.98281 41.1833 4.96649C41.1972 4.96586 41.2214 4.95342 41.21 4.95288ZM39.4627 4.97495C39.2562 4.96576 39.0282 5.008 39.3563 4.99982C39.4553 4.99735 39.4843 4.97606 39.4627 4.97495ZM45.2495 4.92376C44.9555 4.90793 44.5797 4.92332 45.2042 4.94437C44.9817 4.94108 44.7669 4.93942 44.5443 4.93869C45.363 4.97215 45.3056 4.93901 45.5392 4.94843C45.8667 4.96391 45.8425 4.99303 45.7747 4.99893C46.0435 4.99036 47.1916 5.05528 47.8573 5.14582C47.2742 5.05779 46.3289 4.9788 45.7534 4.95097C45.5905 4.94234 45.4319 4.94433 45.2897 4.93859C45.0685 4.92979 45.2658 4.92471 45.2506 4.9238C45.2502 4.92378 45.2498 4.92377 45.2495 4.92376ZM37.1671 5.05321C36.5689 5.06244 36.9467 5.08161 37.2862 5.06112C37.3007 5.06002 37.1821 5.05297 37.1671 5.05321ZM0.311248 1.81738C1.10999 1.817 0.53008 1.84887 2.1998 1.78509C1.49852 1.82077 2.16131 1.80126 2.02458 1.81266C1.91474 1.82175 1.50271 1.82432 1.74269 1.83326C1.4274 1.82486 0.0619631 1.8549 0.000761691 1.85358C0.00133441 1.85357 0.00190712 1.85355 0.00247984 1.85354C-0.0341122 1.8528 0.0561965 1.81743 0.311248 1.81738ZM41.6562 4.88161C41.4566 4.84029 41.3792 4.90993 40.9839 4.8798C40.4608 4.93865 42.4317 4.86102 42.6698 4.90911C41.2623 4.91269 42.3178 4.92577 42.7783 4.9209C42.9865 4.91876 43.0759 4.91186 42.7782 4.8958C42.728 4.89305 42.6659 4.89007 42.59 4.8869C42.6598 4.88809 42.7222 4.88917 42.7782 4.89015C43.732 4.90845 43.003 4.87809 43.183 4.87045C43.3838 4.86127 44.0838 4.87823 44.0474 4.86213C44.047 4.86212 44.0466 4.86212 44.0462 4.86211C43.6223 4.85751 43.201 4.85646 42.7782 4.8579C42.7746 4.85791 42.771 4.85792 42.7675 4.85794C42.7712 4.85825 42.7747 4.85856 42.7782 4.85886C42.9304 4.87181 42.8957 4.87826 42.7782 4.87972C42.5962 4.88194 42.1999 4.87294 42.0198 4.85706C41.9004 4.86504 41.7754 4.87326 41.6562 4.88161ZM44.0659 4.91593C44.0246 4.91323 43.0988 4.91142 43.1572 4.9196C43.2782 4.92184 44.5979 4.93308 44.0659 4.91593ZM48.1585 5.16624C47.8238 5.11417 47.307 5.05243 47.1228 5.05028C47.4574 5.0786 47.9751 5.15034 48.1585 5.16624ZM31.0443 5.41117C30.6235 5.45744 31.9226 5.35184 31.5458 5.37045C31.5277 5.37113 31.065 5.40869 31.0443 5.41117ZM40.6932 4.90173C40.263 4.89644 40.4639 4.93477 40.7856 4.91812C40.8041 4.91716 40.7133 4.90197 40.6932 4.90173ZM0.958276 1.79992C0.987136 1.78913 2.14555 1.77357 2.3508 1.76895C2.23487 1.7813 0.92566 1.81261 0.958276 1.79992ZM48.7493 5.22453C48.6949 5.21162 48.6386 5.19916 48.5804 5.18706C47.9491 5.0498 47.1698 5.01369 47.0817 5.00622C46.9831 4.9966 47.1392 4.99396 47.1166 4.99156C47.0659 4.98077 46.0145 4.91193 45.9646 4.91473C45.9282 4.91381 46.1175 4.94614 45.9003 4.94262C46.3211 4.92954 48.2439 5.12825 48.3419 5.1678C48.4125 5.17761 47.9225 5.07636 48.5795 5.19239C48.6295 5.2016 48.6853 5.2121 48.7481 5.22432C48.7485 5.22439 48.7489 5.22446 48.7493 5.22453ZM46.8334 4.98056C47.0958 5.01012 46.3606 4.95547 46.1829 4.94465C45.7876 4.91388 46.7998 4.97267 46.8334 4.98056ZM45.0685 4.88189C44.9875 4.87604 44.229 4.85771 44.1673 4.86854C44.5238 4.88645 45.257 4.89217 45.0685 4.88189ZM36.6946 5.00057C36.5 5.01045 35.9622 5.02845 35.9325 5.0395C36.1263 5.02808 36.664 5.01109 36.6946 5.00057ZM4.90804 1.63155C4.5863 1.63191 5.33154 1.6098 5.55342 1.6075C5.56358 1.61355 4.93547 1.63162 4.90804 1.63155ZM40.6181 4.81375C40.5011 4.80831 38.1423 4.87927 37.8121 4.90123C38.1355 4.89107 40.4738 4.82802 40.58 4.82723C40.6114 4.82562 40.633 4.81392 40.6181 4.81375ZM45.734 4.84171C45.9543 4.83762 46.0954 4.86199 46.1219 4.86359C46.392 4.8786 46.9528 4.91773 46.8283 4.92191C46.352 4.87522 45.3016 4.85078 45.734 4.84171ZM36.5242 4.94607C35.724 4.98852 37.2631 4.93181 37.0597 4.92742C37.0479 4.92691 36.6059 4.94156 36.5242 4.94607ZM40.8822 4.80518C40.9942 4.79601 41.9749 4.78245 42.7782 4.78458C43.2498 4.78517 43.6627 4.79013 43.8028 4.79166C43.4754 4.80819 43.2071 4.7928 42.7782 4.79291C42.7627 4.79292 42.7471 4.79296 42.7311 4.79301C42.6092 4.79349 42.6414 4.802 42.6284 4.80203C42.4143 4.80299 42.5749 4.79268 42.4417 4.79298C42.3597 4.79015 40.6325 4.8229 40.8822 4.80518ZM45.8599 4.83789C45.9909 4.82715 47.4824 4.93361 47.5436 4.95465C47.9913 5.00606 45.973 4.82809 45.8599 4.83789ZM40.6652 4.79066C40.9164 4.7611 42.0945 4.76342 41.2894 4.78496C41.2139 4.78696 40.8881 4.78132 40.6652 4.79066ZM36.6082 4.91948C36.5701 4.91994 35.7347 4.95603 35.7195 4.96497C35.841 4.96035 37.0574 4.90634 36.6082 4.91948ZM37.0403 4.87466C37.02 4.87576 37.2163 4.88174 36.8255 4.89697C36.793 4.89838 36.7306 4.88404 36.239 4.91353C36.1381 4.91962 35.9854 4.9381 35.9963 4.93824C36.5092 4.93641 38.0526 4.82419 37.0403 4.87466ZM45.8876 4.82587C45.8079 4.81521 46.0027 4.80345 46.1756 4.82358C46.2503 4.83239 46.1106 4.83629 45.8876 4.82587ZM33.9616 5.05785C34.4461 5.01363 32.9219 5.11121 32.8458 5.12194C32.8949 5.12528 33.9129 5.06127 33.9616 5.05785ZM5.66267 1.51547C5.66229 1.51548 5.66191 1.51549 5.66153 1.5155C6.06894 1.50734 5.81709 1.52452 5.83588 1.52434C6.70498 1.51577 6.47152 1.49841 6.60787 1.49187C6.90205 1.47745 6.85133 1.50762 7.34249 1.48132C6.53103 1.52258 7.27284 1.49358 7.29366 1.50311C7.38721 1.54207 6.21302 1.51509 5.80967 1.53436C5.75377 1.5371 6.16952 1.539 6.02571 1.54671C5.55954 1.57198 4.09927 1.54544 5.66267 1.51547ZM46.3099 4.82948C46.5016 4.81707 47.9587 4.97133 47.5712 4.94426C47.5069 4.92647 46.0281 4.82477 46.3099 4.82948ZM35.76 5.45358C35.4188 5.50516 36.2139 5.42223 36.3595 5.3965C36.4319 5.38369 35.91 5.43091 35.76 5.45358ZM41.3269 4.83171C41.7326 4.78091 42.1594 4.68538 41.652 4.75312C41.5971 4.76045 41.2795 4.83125 41.3269 4.83171ZM14.6499 8.14652C15.0741 8.09966 15.0482 8.0741 14.7342 8.12078C14.6255 8.13703 14.6369 8.14795 14.6499 8.14652ZM30.8265 6.0667C30.8688 6.0626 31.361 6.00121 31.3419 5.99676C31.1593 6.01475 30.5508 6.09302 30.8265 6.0667ZM14.5188 8.17026C14.767 8.12797 14.3309 8.17126 14.0306 8.23834C14.1892 8.2122 14.4887 8.17525 14.5188 8.17026ZM39.7768 4.74479C39.5667 4.7616 38.9597 4.77456 38.6163 4.78804C38.578 4.77311 39.5313 4.75263 39.7768 4.74479ZM39.5981 5.02109C39.9829 4.96395 39.1557 5.05403 39.2338 5.05925C39.2446 5.05876 39.5819 5.0235 39.5981 5.02109ZM14.4738 7.63592C14.1973 7.7037 15.0825 7.53014 14.8361 7.5653C14.8219 7.56741 14.4916 7.63143 14.4738 7.63592ZM18.3298 6.90103C18.1183 6.93405 17.2168 7.09804 17.5693 7.0435C17.6254 7.03427 18.3165 6.91156 18.3298 6.90103ZM6.6317 1.47999C6.51662 1.46735 7.18462 1.45195 7.28023 1.45183C7.3193 1.45188 6.78393 1.49652 6.6317 1.47999ZM17.3931 7.7608C17.6195 7.72786 18.1796 7.65647 18.2813 7.63454C18.0082 7.67252 17.322 7.75351 17.3931 7.7608ZM37.8433 5.23145C38.1809 5.20846 38.7523 5.13827 38.6084 5.13267C37.9758 5.21001 38.6893 5.1435 37.8433 5.23145ZM13.1194 8.40678C13.2887 8.38055 13.4264 8.33668 13.4052 8.33901C13.207 8.3606 12.9492 8.42603 13.1194 8.40678ZM26.2949 6.62762C26.3079 6.63537 26.8673 6.56247 26.7924 6.56564C26.7664 6.56678 26.288 6.62087 26.2949 6.62762ZM32.3116 5.11081C32.0498 5.122 32.8465 5.05359 33.0823 5.04766C33.1983 5.05337 32.3444 5.10863 32.3116 5.11081ZM8.39052 9.58084C8.39092 9.6117 9.27468 9.31299 8.92422 9.41657C8.84532 9.44379 8.40697 9.57799 8.39052 9.58084ZM15.6469 7.36636C15.0605 7.4954 17.5347 7.03199 16.8813 7.13663C16.8327 7.1428 15.6951 7.3538 15.6469 7.36636ZM19.6889 6.64586C19.5877 6.66091 19.6284 6.60661 20.0551 6.55492C20.1113 6.54807 19.8528 6.6028 19.8989 6.59812C19.9275 6.59436 20.8432 6.45355 20.8862 6.44634C20.9316 6.43794 20.8755 6.43171 20.9216 6.42277C20.9741 6.41242 21.5408 6.33724 21.8363 6.29288C22.3946 6.20878 22.453 6.18846 22.4991 6.18145C22.6324 6.1617 22.8575 6.13758 23.1284 6.09869C24.4911 5.89987 26.5811 5.62349 27.6699 5.52939C26.7026 5.62873 25.7846 5.75356 24.8264 5.88408C25.1035 5.81996 23.4202 6.09473 24.404 5.93073C23.9479 5.98627 20.0227 6.58377 19.69 6.64567C19.6897 6.64573 19.6893 6.64579 19.6889 6.64586ZM42.9351 4.65186C42.6866 4.69768 43.9698 4.53993 44.0748 4.5088C43.9072 4.52642 42.9644 4.64655 42.9351 4.65186ZM37.0241 5.39943C36.9057 5.41638 36.7951 5.46083 36.1696 5.52005C36.1691 5.52012 36.1685 5.52018 36.1679 5.52025C35.985 5.53758 36.1919 5.50515 36.1582 5.50649C36.146 5.50685 35.5749 5.55987 36.0473 5.50068C36.7672 5.41047 36.1178 5.51542 36.5021 5.46965C36.5495 5.46398 37.2753 5.36006 37.2323 5.36151C37.2279 5.36161 37.0096 5.39135 36.9732 5.39418C36.836 5.40485 36.9013 5.38727 36.882 5.38912C36.8183 5.39556 35.6704 5.54988 35.5007 5.55577C35.446 5.55762 37.3342 5.32032 37.4069 5.31408C37.4535 5.31002 37.4371 5.33902 37.4855 5.33589C37.511 5.33414 38.2703 5.23301 38.3682 5.22376C38.3968 5.22105 38.4187 5.2192 38.4348 5.21791C38.3179 5.22356 39.0085 5.1414 38.988 5.1533C38.9768 5.15835 38.5014 5.21316 38.4844 5.21456C38.477 5.21518 38.4705 5.21557 38.4645 5.21603C38.5652 5.21414 36.9603 5.40606 37.3088 5.37946C36.8457 5.4433 37.3721 5.34961 37.0241 5.39943ZM34.7919 5.68402C34.8396 5.67545 34.8872 5.66688 34.9348 5.65832C34.1221 5.76292 33.1811 5.86243 32.2447 5.9755C32.0065 6.00425 32.2825 5.98834 31.9699 6.02131C31.7195 6.04772 31.4419 6.06513 31.577 6.04522C31.6097 6.04036 32.1194 5.98932 32.3743 5.95751C33.1241 5.86391 32.9332 5.87203 32.977 5.86635C33.0254 5.86009 33.4998 5.81343 33.7577 5.78195C34.4067 5.70266 34.7024 5.65795 35.5906 5.56326C35.0796 5.63445 35.3629 5.62177 34.7919 5.68402ZM10.9769 8.40662C11.0073 8.38923 11.5281 8.26754 11.7179 8.21957C11.6938 8.23492 11.1644 8.35789 10.9769 8.40662ZM30.7887 0.580553C30.6237 0.600237 31.8599 0.570406 31.5338 0.566545C31.4624 0.565573 30.9424 0.576308 30.7887 0.580553ZM36.3406 0.46538C36.5058 0.458533 35.8396 0.458026 35.8414 0.470001C35.8429 0.47369 36.3174 0.46619 36.3406 0.46538ZM24.2762 6.94837C24.2443 6.9528 23.7938 7.00543 23.7805 7.00632C23.4777 7.02757 24.9684 6.85174 24.2762 6.94837ZM43.0987 0.443514C42.5217 0.442596 44.2616 0.480756 43.73 0.457449C43.7011 0.455928 43.1297 0.443304 43.0987 0.443514ZM45.5175 0.503412C45.3783 0.498627 44.7608 0.474401 44.7554 0.479233C44.7398 0.485885 45.4472 0.513328 45.5175 0.503412ZM13.0105 8.48314C13.0765 8.48909 12.286 8.60799 12.0166 8.66123C11.9432 8.65583 12.737 8.52857 13.0105 8.48314ZM18.0398 7.76512C14.6737 8.24074 15.411 8.09893 18.2427 7.72949C18.2482 7.73992 18.256 7.73528 18.0398 7.76512ZM13.7375 8.37765C13.8548 8.34803 14.2347 8.29289 14.4953 8.25491C14.447 8.26967 13.9183 8.34706 13.7375 8.37765ZM29.3172 0.599508C29.5303 0.57899 30.4766 0.568791 30.3089 0.579442C30.2707 0.581595 29.2381 0.609409 29.3172 0.599508ZM23.9942 6.9983C24.0765 7.00486 23.0581 7.12507 22.982 7.13098C22.6659 7.15544 23.916 7.01159 23.9942 6.9983ZM8.37007 9.66563C8.35598 9.66974 8.34002 9.67409 8.32234 9.67858C8.35624 9.61408 8.82296 9.74081 8.38685 8.97691C8.24343 8.89741 8.3393 8.95815 8.44111 8.93934C8.39642 8.96468 8.21007 8.9026 8.38118 8.98414C8.8058 9.66968 8.37752 9.61467 8.32183 9.67617C8.33872 9.67261 8.35483 9.66908 8.37007 9.66563ZM10.6607 8.96596C10.6409 8.96903 10.2263 9.08454 10.2059 9.09251C10.2019 9.09356 10.1982 9.09456 10.1946 9.0955C10.1137 9.11711 10.1297 9.10998 10.1927 9.08931C10.3698 9.02558 10.9459 8.88589 10.6607 8.96596ZM5.0955 1.40426C5.113 1.40342 5.45698 1.39527 5.47078 1.39537C5.78243 1.39983 4.73646 1.42454 5.0955 1.40426Z" fill="#EC2025"/>
</svg>
